<svg xmlns="http://www.w3.org/2000/svg" width="30" height="22" fill="none" viewBox="0 0 30 22">
  <path fill="#fff" d="M28.193 18.862c-11.493 2.999-15.526-3.206-26.825.005a.834.834 0 1 0 .457 1.604c10.822-3.075 14.777 3.139 26.79.005a.834.834 0 1 0-.422-1.614Zm0-3.897c-11.493 2.999-15.526-3.206-26.825.004a.834.834 0 1 0 .457 1.605c10.822-3.075 14.777 3.139 26.79.004a.834.834 0 1 0-.422-1.613Z"/>
  <path fill="#fff" d="M14.992 0c-4.535 0-8.206 3.68-8.206 8.214 0 4.535 3.671 8.215 8.206 8.215 4.542 0 8.222-3.68 8.222-8.215C23.214 3.68 19.534 0 14.992 0ZM15 14.786a6.57 6.57 0 0 1-6.572-6.572A6.57 6.57 0 0 1 15 1.643a6.57 6.57 0 0 1 6.571 6.571A6.57 6.57 0 0 1 15 14.786Zm-.18-10.679h-.05a.589.589 0 0 0-.591.592v3.877c0 .287.147.558.402.706l3.409 2.046a.586.586 0 0 0 .886-.416.584.584 0 0 0-.286-.595l-3.18-1.89V4.7a.589.589 0 0 0-.59-.592Z"/>
</svg>
