<svg xmlns="http://www.w3.org/2000/svg" width="36" height="36" fill="none" viewBox="0 0 36 36">
  <path stroke="#3654B6" stroke-linecap="round" stroke-linejoin="round" stroke-width="2" d="m24.711 8.112 3.177 3.175-3.177-3.175Zm2.043-2.798-8.59 8.591a3.177 3.177 0 0 0-.87 1.623L16.5 19.5l3.972-.795a3.174 3.174 0 0 0 1.623-.868l8.59-8.591a2.78 2.78 0 0 0-3.931-3.932v0Z"/>
  <path stroke="#3654B6" stroke-linecap="round" stroke-linejoin="round" stroke-width="2" d="M28.5 22.5V27a3 3 0 0 1-3 3H9a3 3 0 0 1-3-3V10.5a3 3 0 0 1 3-3h4.5"/>
</svg>
