<svg xmlns="http://www.w3.org/2000/svg" width="320" height="240" fill="none" viewBox="0 0 320 240">
  <path fill="#EBEBEB" d="M294.712 78.09c-2.924-17.743-9.347-33.58-20.671-47.09-11.324-13.511-31.431-20.375-48.558-21.127-17.127-.753-34.788 7.886-43.763 23.24-7.396 12.711-8.399 28.187-11.127 42.79-2.728 14.601-8.43 30.189-21.025 37.016-10.779 5.826-23.883 3.707-35.428-.217-11.546-3.925-22.825-9.486-34.94-10.201-19.21-1.134-39.508 5.143-47.842 23.362-8.334 18.22-5.783 26.138-2.183 46.836 2.874 16.535 21.266 36.015 49.243 49.256 39.478 21.753 144.746 32.345 187.082-27.599 24.518-34.723 35.61-77.385 29.212-116.266Z"/>
  <path fill="#EBEBEB" d="M145.999 30.629c-3.741-8.58-11.092-15.44-19.779-17.886-12.433-5.381-28.945 1.298-37.597 12.113-8.652 10.815-9.196 28.097-.787 39.119 5.103 6.678 12.746 10.74 20.576 13.114 7.059 2.118 14.768 3.008 21.68.37 8.067-3.082 14.041-10.72 16.885-19.22 2.97-8.909 2.768-19.03-.978-27.61Z"/>
  <path fill="#000" d="M231.347 86.606a11.384 11.384 0 0 0 .572 5.62 10.861 10.861 0 0 0 3.177 4.559 10.119 10.119 0 0 0 4.927 2.27 9.894 9.894 0 0 0 5.345-.633c4.326-1.784 7.195-6.461 11.627-7.944 1.915-.63 3.988-.61 5.888-1.292 2.284-.821 4.266-2.797 4.78-5.297.514-2.5-.696-5.35-2.949-6.265-1.185-.482-2.663-.53-3.414-1.59-1.089-1.54.257-3.606.58-5.486.464-2.696-1.512-5.44-4.033-6.176-2.521-.736-5.284.265-7.24 2.076-1.674 1.547-3.348 3.025-5.546 3.374a5.204 5.204 0 0 1-3.283-.604 5.585 5.585 0 0 1-2.329-2.505"/>
  <path fill="#000" d="M249.386 64.451c.033.083.051.17.056.26.021.256.021.513 0 .768a5.195 5.195 0 0 1-.898 2.648 4.777 4.777 0 0 1-1.351 1.33 4.387 4.387 0 0 1-2.016.678 4.855 4.855 0 0 1-2.335-.398 4.83 4.83 0 0 1-1.981-1.663 14.706 14.706 0 0 1-1.261-2.293 13.44 13.44 0 0 0-1.154-2.119 5.94 5.94 0 0 0-3.151-2.235 6.09 6.09 0 0 0-2.602-.18c-.615.1-.943.233-.953.207a.79.79 0 0 1 .232-.106c.228-.087.463-.157.701-.207a5.903 5.903 0 0 1 2.667.1 6.034 6.034 0 0 1 3.297 2.268c.938 1.26 1.432 2.95 2.435 4.37a4.55 4.55 0 0 0 1.871 1.588 4.612 4.612 0 0 0 2.213.392 4.276 4.276 0 0 0 1.946-.62 4.562 4.562 0 0 0 1.321-1.26c.528-.736.854-1.61.943-2.526.056-.636-.005-1.002.02-1.002Z"/>
  <path fill="#FFBF9D" d="m260.66 60.702-1.931 25.48-16.578 11.24s2.405 15.274 2.521 15.608l20.289-16.329a10.842 10.842 0 0 0 3.021-3.732 11.388 11.388 0 0 0 1.173-4.742l-.852-29.442"/>
  <path fill="#FFBF9D" d="M258.633 48.965c-.141-.085-2.188 5.63-2.017 6.504.172.874 2.219 3.485 3.061 4.015 1.578.98.504 4.554.67 5.121l8.143.45-.222-6.62.54-4.502a5.448 5.448 0 0 0 0-2.828c-.273-1.001-.737-2.119-1.442-1.981-1.281.206-1.372.593-1.372.593s-.857-1.335-1.512-.206c0 0-1.185-1.478-2.204-.202 0 0-1.361-1.409-2.309.768l-.504 1.52s.605-1.8-.832-2.632Z"/>
  <path fill="#FFBF9D" d="M262.203 56.348c-.041 0-.232-.397-.691-.932a3.258 3.258 0 0 0-1.058-.822 3.111 3.111 0 0 0-1.281-.312 3.796 3.796 0 0 0-.424 0h-.176l.04-.17a77.65 77.65 0 0 1 .645-2.478 4.88 4.88 0 0 1 .328-.99 4.352 4.352 0 0 1-.156 1.06 97.805 97.805 0 0 1-.56 2.499l-.136-.17h.454a3.356 3.356 0 0 1 1.512.424c.371.22.7.511.968.858.253.296.436.65.535 1.033Zm5.021-4.693a1.7 1.7 0 0 1-.151.366 1.72 1.72 0 0 0-.186.99.932.932 0 0 0 .121.297.867.867 0 0 1 .137.682.88.88 0 0 1-.142.324.812.812 0 0 1-.258.233 1.224 1.224 0 0 1-1.008.15 1.24 1.24 0 0 1-.461-.253 1.321 1.321 0 0 1-.325-.426 1.888 1.888 0 0 1-.106-1.06c.05-.339.126-.646.196-.942a12.71 12.71 0 0 1 .504-1.536c.116-.352.308-.671.56-.932.207-.175.358-.18.358-.165 0 .016-.126.064-.287.239a2.775 2.775 0 0 0-.459.932 14.89 14.89 0 0 0-.434 1.525c-.111.572-.338 1.26-.09 1.838a.996.996 0 0 0 .619.537.962.962 0 0 0 .797-.108.717.717 0 0 0 .242-.26.772.772 0 0 0 .096-.35c0-.206-.207-.417-.237-.682-.03-.377.068-.752.277-1.06.132-.243.222-.35.237-.339Z"/>
  <path fill="#FFBF9D" d="M265.137 54.065s0 .122-.131.276a.972.972 0 0 1-.346.23.934.934 0 0 1-.405.061 1.17 1.17 0 0 1-.593-.208 1.255 1.255 0 0 1-.416-.491 2.433 2.433 0 0 1-.216-1.494 5.3 5.3 0 0 1 .968-2.478c.393-.53.736-.8.756-.774.02.027-.262.323-.605.885a5.846 5.846 0 0 0-.862 2.4c-.08.453-.02.923.171 1.34.072.163.181.306.319.415.137.11.298.181.468.209a.896.896 0 0 0 .665-.175c.162-.111.207-.206.227-.196Z"/>
  <path fill="#FFBF9D" d="M263.246 53.753s-.025.1-.161.222c-.198.16-.442.24-.691.228a1.225 1.225 0 0 1-.54-.15 1.289 1.289 0 0 1-.428-.38 2.107 2.107 0 0 1-.398-1.318 3.61 3.61 0 0 1 .328-1.319c.161-.376.332-.694.474-.964.13-.305.3-.59.504-.847-.066.326-.178.64-.333.932a6.701 6.701 0 0 0-.706 2.203c-.018.413.098.82.328 1.155.093.131.21.24.346.32.135.08.286.13.44.146.296.026.591-.054.837-.228Z"/>
  <path fill="#FFBF9D" d="M261.119 53.038s0 .116-.056.296c-.089.27-.239.511-.438.705a1.06 1.06 0 0 1-.561.288 1.04 1.04 0 0 1-.619-.087 1.215 1.215 0 0 1-.464-.638 1.28 1.28 0 0 1 .015-.803c.196-.874.491-1.72.877-2.52.136-.345.329-.66.57-.933a26.622 26.622 0 0 0-1.195 3.517 1.05 1.05 0 0 0-.027.632c.057.208.176.392.34.523a.852.852 0 0 0 .492.078.874.874 0 0 0 .456-.21 1.92 1.92 0 0 0 .458-.594c.091-.17.137-.254.152-.254Zm4.996 2.118a6.488 6.488 0 0 0-1.991.075 6.85 6.85 0 0 0-1.805.905s.111-.233.408-.487a3.316 3.316 0 0 1 2.818-.726c.374.075.58.196.57.233Z"/>
  <path fill="#000" d="M215.208 103.841c-4.886.476-9.181-3.289-9.892-5.54a6.35 6.35 0 0 1-.025-3.496 6.095 6.095 0 0 1 1.815-2.929c1.391-1.186 3.408-1.795 4.073-3.543 1.165-3.04-2.878-6.467-1.436-9.375 1.008-2.06 4.008-2.028 5.409-3.829 1.236-1.589.787-3.92 1.175-5.927.656-3.41 3.968-5.826 7.281-5.926 3.312-.1 6.473 1.705 8.762 4.237 2.289 2.531 3.802 5.651 5.138 8.829 1.084 2.58 2.082 5.37 1.628 8.146-.675 4.11-4.275 6.885-7.688 9.004-5.546 3.48-9.792 10.873-16.24 10.312"/>
  <path fill="#000" d="M207.363 94.514h-.348a2.439 2.439 0 0 1-.958-.328 2.705 2.705 0 0 1-1.104-1.208 2.978 2.978 0 0 1-.071-2.209c.151-.406.391-.77.701-1.059.34-.308.714-.571 1.114-.784.405-.231.796-.49 1.17-.773.392-.293.703-.69.903-1.15.408-.953.287-2.118 0-3.23-.288-1.112-.772-2.235-.984-3.48a6.022 6.022 0 0 1-.065-1.88c.082-.62.34-1.2.741-1.663a3.554 3.554 0 0 1 1.417-.954c.495-.186 1-.342 1.512-.466a5.565 5.565 0 0 0 2.577-1.218 5.573 5.573 0 0 0 1.356-2.155c.381-1.214.56-2.488.529-3.766v-1.06a1.718 1.718 0 0 1 0-.365c.027.12.041.242.041.366 0 .238.035.593.05 1.059a11.086 11.086 0 0 1-.454 3.834 5.696 5.696 0 0 1-1.391 2.257 5.684 5.684 0 0 1-2.657 1.292c-.973.28-2.083.53-2.814 1.356a2.955 2.955 0 0 0-.675 1.525 5.778 5.778 0 0 0 .065 1.785c.202 1.208.696 2.315.973 3.47.278 1.154.404 2.356-.05 3.394a2.995 2.995 0 0 1-.983 1.245c-.393.28-.804.532-1.23.752a5.552 5.552 0 0 0-1.084.747c-.296.27-.525.611-.666.995a2.717 2.717 0 0 0-.059 1.836 2.57 2.57 0 0 0 1.113 1.416c.408.244.863.387 1.331.419Z"/>
  <path fill="#455A64" d="m251.776 191.596 9.615-4.676s7.759 8.691 9.615 8.008l-7.966-19.909-15.267 6.647 4.003 9.93Z"/>
  <path fill="#000" d="m251.776 191.596 9.615-4.676s7.759 8.691 9.615 8.008l-7.966-19.909-15.267 6.647 4.003 9.93Z" opacity=".3"/>
  <path fill="#E0E0E0" d="M258.109 181.125a.917.917 0 0 1 .157-.628.834.834 0 0 1 .523-.346.781.781 0 0 1 .582.15.86.86 0 0 1 .326.528.964.964 0 0 1-.167.644.88.88 0 0 1-.534.362c-.413 0-.907-.386-.867-.815m4.911-6.001-1.513.736 8.203 18.813s.721.725 1.276.36l-7.966-19.909Z"/>
  <path fill="#000" d="M261.426 187.285c.091-.048-.06-.53.046-1.16.106-.63.393-1.059.317-1.112-.075-.053-.549.312-.665 1.059-.116.747.227 1.271.302 1.213Zm1.659 1.721c.096 0 .086-.529.343-1.006s.635-.784.595-.879c-.041-.095-.59.074-.903.704-.312.631-.126 1.218-.035 1.181Zm2.854.149c0-.095-.535-.027-.943.445-.409.471-.424 1.017-.333 1.022.091.005.252-.392.595-.773.343-.382.706-.604.681-.694Zm-6.817-1.06c.066-.079-.237-.466-.423-1.032-.187-.567-.192-1.06-.293-1.06-.101 0-.262.53-.035 1.203.227.672.696.969.751.889Zm-1.956.906a2.113 2.113 0 0 0-.403-.996 4.822 4.822 0 0 0-.726-.905 4.43 4.43 0 0 0-.505-.445 1.335 1.335 0 0 0-.343-.207.424.424 0 0 0-.279 0 .446.446 0 0 0-.225.175.608.608 0 0 0-.04.53c.051.127.119.247.202.355.133.19.283.368.448.529.279.272.597.496.943.662.303.193.656.28 1.009.249 0-.058-.363-.153-.888-.476a3.866 3.866 0 0 1-1.23-1.176c-.141-.191-.212-.366-.146-.461.065-.095.04-.042.116-.026.09.036.175.086.252.148.175.124.343.259.504.402.269.246.515.517.736.811.348.492.524.852.575.831Z"/>
  <path fill="#000" d="M257.247 188.816a1.576 1.576 0 0 0-1.009.143 3.28 3.28 0 0 0-.983.593 3.195 3.195 0 0 0-.474.53.911.911 0 0 0-.219.392.959.959 0 0 0-.008.455.53.53 0 0 0 .177.214.49.49 0 0 0 .257.088c.131 0 .261-.018.388-.053.226-.059.442-.154.64-.281.333-.212.612-.507.812-.858.333-.609.282-1.059.247-1.059a9.782 9.782 0 0 1-.454.911 2.46 2.46 0 0 1-.766.71 2.184 2.184 0 0 1-.555.222c-.216.058-.408.048-.423-.037a.653.653 0 0 1 .171-.487c.127-.171.267-.331.419-.477a3.79 3.79 0 0 1 .867-.609c.534-.291.943-.339.913-.397Zm-4.362-1.584-3.085-7.16-6.388 3.161-5.995 12.452 15.468-8.453Z"/>
  <path fill="#455A64" d="m262.47 195.797 9.746-4.37s7.502 8.94 9.378 8.321l-7.382-20.158-15.453 6.149 3.711 10.058Z"/>
  <path fill="#E0E0E0" d="M269.105 185.532a.912.912 0 0 1 .174-.604.837.837 0 0 1 .512-.328.777.777 0 0 1 .576.17.854.854 0 0 1 .306.539.962.962 0 0 1-.186.639.874.874 0 0 1-.545.341c-.414 0-.892-.413-.842-.842m5.112-5.857-1.537.683 7.653 19.067s.701.747 1.266.402l-7.382-20.152Z"/>
  <path fill="#000" d="M272.241 191.803c.091-.042-.045-.53.076-1.16.121-.63.423-1.022.353-1.096-.071-.075-.555.286-.696 1.027-.141.742.186 1.277.267 1.229Zm1.603 1.769c.101 0 .106-.503.378-.996.273-.492.656-.763.616-.858-.041-.095-.59.053-.918.678-.328.625-.161 1.213-.076 1.176Zm2.849.228c0-.096-.504-.043-.948.413-.444.455-.459 1.006-.363 1.017.096.01.262-.387.61-.758s.731-.551.701-.672Zm-6.781-1.266c.07-.08-.222-.477-.389-1.059-.166-.583-.161-1.06-.262-1.091-.101-.032-.277.529-.07 1.202.206.673.69 1.022.721.948Zm-1.982.858a2.055 2.055 0 0 0-.373-1.006 4.802 4.802 0 0 0-1.2-1.393 1.238 1.238 0 0 0-.338-.218.418.418 0 0 0-.504.159.617.617 0 0 0-.06.53c.047.127.111.247.191.355.128.191.273.368.434.529.272.281.583.517.922.7.302.198.654.294 1.009.275 0-.058-.363-.164-.877-.53a4.248 4.248 0 0 1-.812-.704 3.862 3.862 0 0 1-.383-.53c-.131-.19-.202-.37-.131-.46.07-.091.04-.043.116 0 .09.035.174.087.247.153.175.129.344.269.504.419.261.253.499.531.711.831.163.308.345.606.544.89Z"/>
  <path fill="#000" d="M268.021 193.191a1.592 1.592 0 0 0-1.008.111 3.383 3.383 0 0 0-1.009.561c-.18.15-.349.315-.504.493a.926.926 0 0 0-.247.842.525.525 0 0 0 .171.218.486.486 0 0 0 .253.094c.13.008.261-.004.388-.037.228-.052.448-.141.65-.264.339-.201.625-.486.832-.832.353-.593.318-1.059.282-1.059-.035 0-.116.402-.504.895a2.37 2.37 0 0 1-.786.683 1.99 1.99 0 0 1-.56.207c-.217.053-.408.037-.418-.053-.011-.09.05-.329.186-.477.127-.169.271-.323.429-.461.266-.24.565-.436.887-.582.57-.244.963-.276.958-.339Z"/>
  <path fill="#3654B6" d="M213.761 156.736s24.125-3.496 29.051-7.346c4.926-3.851 4.724-5.016 4.724-5.016s.771-3.972-2.244-4.486c-3.015-.514-17.258 3.596-17.258 3.596l-8.394-2.261-6.923 4.316-4.628 6.012s1.27 3.506 3.065 4.11c.847.311 1.72.539 2.607.683"/>
  <path fill="#000" d="M213.761 156.736s24.125-3.496 29.051-7.346c4.926-3.851 4.724-5.016 4.724-5.016s.771-3.972-2.244-4.486c-3.015-.514-17.258 3.596-17.258 3.596l-8.394-2.261-6.923 4.316-4.628 6.012s1.27 3.506 3.065 4.11c.847.311 1.72.539 2.607.683" opacity=".3"/>
  <path fill="#FFBF9D" d="M214.87 152.08c-.181-.493-.413-7.007-.413-7.007s1.704-2.913 5.041-2.955c3.338-.043 8.103 1.504 8.103 1.504l14.117-4.873 1.129 5.609s-10.588 9.449-16.25 9.422a42.823 42.823 0 0 1-11.727-1.7Zm-13.401-15.216a6.677 6.677 0 0 1-4.729-.085 10.45 10.45 0 0 1-4.8-3.755l-1.23-1.695c-1.432-1.488-10.402-14.417-10.402-14.417l4.775-8.114 10.779 13.21 3.086-8.978 9.141 6.742-2.486 10.773c-.605 2.823-1.563 5.35-4.134 6.319Z"/>
  <path fill="#FFBF9D" d="M179.507 96.76s2.571 3.998 3.227 5.333c.534 1.059 2.52 4.55 2.415 8.204l-4.841 6.615s-2.324-1.869-2.697-2.569a2.504 2.504 0 0 1-.03-1.705 6.193 6.193 0 0 0-1.084-.794s.222 1.25-.671 1.483c-.892.233-3.857-3.041-3.857-3.041s-.227-1.403.59-1.483c0 0-.59-1.949 0-2.494 0 0-.665-1.589.151-2.262 0 0 .373-1.795.963-2.42s6.635 1.25 6.635 1.25-1.431-3.342-1.578-4.274c-.146-.932.777-1.843.777-1.843Z"/>
  <path fill="#FFBF9D" d="M175.791 109.084s.096.048.242.18c.208.18.379.402.504.652.106.175.177.372.207.577.022.243-.016.487-.111.71a.843.843 0 0 1-.251.335.782.782 0 0 1-.374.163 1.148 1.148 0 0 1-.802-.196 10.15 10.15 0 0 1-1.109-1.007 64.087 64.087 0 0 0-.852-.858 4.694 4.694 0 0 1-.741-.842c.315.195.606.43.867.699l.892.811c.343.341.703.663 1.079.964.388.275.928.206 1.069-.18.084-.18.124-.378.116-.578a1.373 1.373 0 0 0-.156-.529 2.454 2.454 0 0 0-.434-.668c-.101-.137-.161-.222-.146-.233Zm-.328-5.598c.4.293.773.624 1.114.99.162.164.353.329.535.53.211.214.382.467.504.747a1.248 1.248 0 0 1-.146 1.089 1.156 1.156 0 0 1-.408.37 1.1 1.1 0 0 1-.525.13 1.728 1.728 0 0 1-.938-.53l-.685-.662-1.155-1.128a8.014 8.014 0 0 1-1.008-1.097c.406.281.789.598 1.144.948l1.19 1.092.696.646c.213.235.489.395.791.46a.86.86 0 0 0 .709-.388.951.951 0 0 0 .155-.4.963.963 0 0 0-.032-.43 4.63 4.63 0 0 0-.963-1.239 8.64 8.64 0 0 1-.978-1.128Z"/>
  <path fill="#FFBF9D" d="M176.462 107.347s.121-.032.307.063c.133.071.25.171.343.293.094.123.16.265.197.417.037.188.028.383-.027.566a1.131 1.131 0 0 1-.289.479 1.017 1.017 0 0 1-1.015.253 2.126 2.126 0 0 1-.716-.424 16.674 16.674 0 0 1-2.017-1.97 4.261 4.261 0 0 1-.696-.943c.061-.058 1.195 1.319 2.864 2.696.181.168.392.297.62.381a.73.73 0 0 0 .61-.058.847.847 0 0 0 .386-.385.909.909 0 0 0 .083-.553 1.03 1.03 0 0 0-.408-.656c-.137-.112-.248-.138-.242-.159Zm.993 6.34a.626.626 0 0 1 0-.244c.017-.231.063-.459.136-.678.124-.392.328-.752.597-1.055a2.76 2.76 0 0 1 .961-.698l.035.254v-.259h.03v.259h-.085l-.036-.063a5.711 5.711 0 0 1-.6-1.695 6.265 6.265 0 0 1 .389-3.623 4.7 4.7 0 0 1 .544-.953c.161-.201.252-.307.267-.297.015.011-.322.472-.64 1.33a6.522 6.522 0 0 0-.303 3.49c.108.557.297 1.093.56 1.589l-.106-.064v.26h-.025v-.26l.59.027-.555.228a2.69 2.69 0 0 0-.908.618c-.26.269-.465.59-.604.944-.182.551-.207.9-.247.89Zm19.592 13.744a9.286 9.286 0 0 1-.862-2.712 9.578 9.578 0 0 1-.267-2.844c.081 0 .212 1.261.504 2.786.292 1.525.696 2.743.625 2.77Z"/>
  <path fill="#000" d="M214.87 152.08c-.146.466-1.467 12.182-1.467 12.182s-9.519 24.676-10.88 32.133c-1.362 7.457-.444 15.137 7.204 17.298 7.649 2.161 13.901-3.972 13.901-3.972s2.697 3.972 9.947 3.04c7.351-.943 33.206-17.605 33.206-17.605l-4.412-12.002-20.167 7.987s10.134-20.968 10.588-26.413c.353-4.2-5.546-17.69-9.998-20.391 0 0-12.645 10.127-16.911 9.39-4.265-.736-11.011-1.647-11.011-1.647Z"/>
  <path fill="#455A64" d="M229.335 164.315a.417.417 0 0 1 0 .132c0 .101 0 .223-.03.376 0 .334-.091.826-.182 1.451a36.779 36.779 0 0 1-1.245 5.223c-.66 2.166-1.629 4.682-2.763 7.415a96.94 96.94 0 0 0-3.348 9.088 53.003 53.003 0 0 0-1.24 4.867 32.282 32.282 0 0 0-.655 4.635 18.491 18.491 0 0 0 1.104 7.785 15.397 15.397 0 0 0 2.717 4.486c.414.461.741.811.978 1.033l.263.26a.511.511 0 0 1 .085.1.4.4 0 0 1-.101-.079l-.282-.238c-.247-.212-.59-.53-1.008-1.001a14.997 14.997 0 0 1-2.814-4.486 18.358 18.358 0 0 1-1.189-7.855 31.18 31.18 0 0 1 .64-4.677 52.16 52.16 0 0 1 1.245-4.893 92.952 92.952 0 0 1 3.373-9.105c1.145-2.749 2.128-5.243 2.808-7.415a40.446 40.446 0 0 0 1.321-5.18c.106-.625.187-1.107.227-1.44.026-.154.041-.276.061-.376a.357.357 0 0 1 .035-.106Zm33.034 18.876c-.082.054-.17.097-.262.127l-.766.312-2.839 1.102c-2.395.932-5.717 2.198-9.342 3.708-3.626 1.509-6.883 2.944-9.04 4.364l-.742.529c-.211.196-.433.366-.605.53a4.74 4.74 0 0 0-.766 1.059l-.388.758c-.041.093-.094.18-.156.259.026-.097.062-.191.105-.281.086-.18.187-.45.348-.783.195-.416.448-.798.752-1.134.171-.206.393-.381.605-.588.211-.206.504-.37.741-.572 2.163-1.477 5.425-2.95 9.075-4.454a256.965 256.965 0 0 1 9.373-3.628l2.868-1.022.782-.265c.085-.018.171-.025.257-.021Z"/>
  <path fill="#455A64" d="M252.81 164.791a1.34 1.34 0 0 1 0 .297 51.12 51.12 0 0 1-.106.847 26.634 26.634 0 0 1-.787 3.03 100.655 100.655 0 0 1-3.715 9.549 241.775 241.775 0 0 1-4.306 9.301 176.48 176.48 0 0 1-1.387 2.77l-.398.746c-.041.09-.091.173-.151.249.023-.096.059-.189.106-.275.095-.201.211-.456.353-.768.322-.699.771-1.647 1.31-2.812a389.861 389.861 0 0 0 4.231-9.322c1.598-3.665 2.944-7.039 3.771-9.534a32.78 32.78 0 0 0 .857-2.987l.156-.831c.012-.089.034-.176.066-.26Zm-25.033.758c-.075 0-.575-2.622-1.119-5.89-.545-3.268-.933-5.926-.862-5.937.07-.011.574 2.622 1.119 5.89.545 3.267.933 5.926.862 5.937Zm19.92-13.538a1.704 1.704 0 0 1-.368.371 5.76 5.76 0 0 1-1.189.758 6.165 6.165 0 0 1-4.525.376c-1.502-.455-2.795-1.468-3.638-2.85a6.05 6.05 0 0 1-.625-1.308 1.718 1.718 0 0 1-.126-.53c.259.597.561 1.172.902 1.722.855 1.302 2.112 2.253 3.559 2.691a6.223 6.223 0 0 0 4.377-.292 12.56 12.56 0 0 0 1.633-.938Zm-25.93 1.658c.028.175.028.354 0 .53a8.191 8.191 0 0 1-.181 1.377 9.836 9.836 0 0 1-1.921 4.099 9.19 9.19 0 0 1-3.504 2.706c-.409.178-.83.322-1.261.429a1.596 1.596 0 0 1-.504.075c0-.048.666-.196 1.664-.684a9.7 9.7 0 0 0 3.377-2.705 10.295 10.295 0 0 0 1.942-3.968c.323-1.16.343-1.859.388-1.859Zm7.029.742a1.415 1.415 0 0 0-.631.529.907.907 0 0 0-.04.837.884.884 0 0 0 .328.398.825.825 0 0 0 .485.133.823.823 0 0 0 .472-.178.89.89 0 0 0 .293-.427.915.915 0 0 0-.111-.832 1.392 1.392 0 0 0-.675-.471s.085-.042.247 0c.224.053.426.181.574.365.12.143.2.316.234.502.034.187.019.379-.042.558a1.139 1.139 0 0 1-.371.551 1.042 1.042 0 0 1-1.226.061 1.119 1.119 0 0 1-.504-.956 1.14 1.14 0 0 1 .095-.443c.061-.139.149-.262.258-.363.109-.101.238-.177.377-.222.146-.074.237-.058.237-.042Z"/>
  <path fill="#3654B6" d="m220.416 95.562-10.336.345s-3.337 14.125-3.08 23.5c.151 5.736 3.529 13.86 4.351 16.847.57 2.082-1.452 4.915-2.017 6.997.002.03.002.06 0 .09-.842 3.008-4.779 13.394 4.987 13.394 0 0-5.083-2.939-2.521-8.167 2.465-5.031 7.235-7.218 11.273-4.74 4.039 2.479 5.385 1.414 9.075-.18 3.691-1.594 16.83-5.656 15.126 1.414 0 0 2.017-4.067-2.017-7.07-3.07-2.283-5.652-8.522-5.758-14.883-.055-3.363 1.306-6.976 3.842-9.031l4.442-3.453s-4.618.286-3.272-7.139c1.346-7.426 2.294-8.904 2.294-8.904l-8.788 3.046a2.968 2.968 0 0 1-.938.1l-4.457-.254-12.206-1.912Z"/>
  <path fill="#3654B6" d="M198.035 113.771s4.79-12.912 6.807-15.015c1.815-1.912 5.243-2.85 5.243-2.85l-2.722 24.311-9.328-6.446Z"/>
  <path fill="#000" d="M210.458 133.786a.935.935 0 0 1-.11-.243c-.076-.196-.162-.435-.273-.726-.222-.635-.574-1.541-.932-2.69a51.868 51.868 0 0 1-2.254-9.158 23.461 23.461 0 0 1-.126-5.217c.146-1.589.428-3.013.64-4.2.212-1.186.388-2.15.504-2.812.051-.307.091-.562.126-.768.01-.091.032-.18.066-.265.009.09.009.18 0 .27a40.52 40.52 0 0 0-.081.773c-.07.673-.217 1.642-.413 2.834-.197 1.192-.449 2.606-.58 4.189a23.99 23.99 0 0 0 .146 5.159 57.942 57.942 0 0 0 2.168 9.131c.333 1.155.661 2.071.852 2.717l.197.763a.891.891 0 0 1 .07.243Zm27.373-7.203a2.697 2.697 0 0 1-.132-.635 18.086 18.086 0 0 1-.196-1.769 24.576 24.576 0 0 1 2.017-11.435c.234-.545.496-1.075.786-1.589.094-.189.207-.367.338-.53.04.027-.393.832-.953 2.198a27.255 27.255 0 0 0-2.017 11.345c.071 1.494.202 2.41.157 2.415Z"/>
  <path fill="#000" d="M237.901 124.618a31.757 31.757 0 0 1 1.482-6.149c.704-2.003 1.981-3.727 3.656-4.936.385-.221.744-.49 1.069-.8.16-.157.278-.356.342-.576.063-.221.071-.455.021-.679-.227-.736-1.185-.863-1.901-.662a5.612 5.612 0 0 0-1.958 1.149 5.949 5.949 0 0 0-1.385 1.854 15.073 15.073 0 0 0-1.311 4.523 19.91 19.91 0 0 0-.267 5.657" opacity=".3"/>
  <path fill="#000" d="M247.41 141.699s-.035 0-.086-.085c-.05-.085-.136-.159-.232-.265a10.358 10.358 0 0 0-.937-.937 9.369 9.369 0 0 0-4.266-2.119 8.42 8.42 0 0 0-3.257 0c-1.224.279-2.41.719-3.529 1.309-1.21.593-2.45 1.297-3.812 1.869-.696.294-1.414.524-2.148.689a8.278 8.278 0 0 1-2.319.127c-1.563-.154-3.025-.689-4.421-1.006a9.996 9.996 0 0 0-4.125-.138 10.28 10.28 0 0 0-3.529 1.335 10.181 10.181 0 0 0-2.521 2.182 11.289 11.289 0 0 0-2.243 4.369c-.119.437-.213.881-.283 1.33 0 .143-.035.259-.05.354a.58.58 0 0 1-.025.117c.012-.62.098-1.235.257-1.833a11.189 11.189 0 0 1 2.203-4.464 10.237 10.237 0 0 1 2.551-2.251 10.408 10.408 0 0 1 3.59-1.388 10.1 10.1 0 0 1 4.225.127c1.432.318 2.869.842 4.391.99.75.066 1.505.026 2.244-.121a12.376 12.376 0 0 0 2.102-.668c1.342-.566 2.587-1.26 3.807-1.853a14.247 14.247 0 0 1 3.615-1.298 8.519 8.519 0 0 1 3.333.053 9.197 9.197 0 0 1 4.295 2.209c.443.401.836.861 1.17 1.366Zm-13.326-21.927a.832.832 0 0 1 0 .254v.742c-.03.908-.136 1.812-.317 2.701a18.042 18.042 0 0 1-3.729 8.007c-1.874 2.29-4.275 4.037-6.975 5.075-.809.318-1.642.564-2.491.736-.297.064-.534.09-.695.112a.929.929 0 0 1-.247 0c.303-.096.611-.176.922-.239a18.152 18.152 0 0 0 2.446-.81 17.245 17.245 0 0 0 6.839-5.077 18.435 18.435 0 0 0 3.748-7.867c.192-.872.325-1.757.399-2.649.017-.33.051-.658.1-.985Z"/>
  <path fill="#000" d="M233.253 125.164a1.536 1.536 0 0 0-.825.139 1.629 1.629 0 0 0-.648.555 7.089 7.089 0 0 0-.781 1.589c-1.202 2.83-3.385 5.072-6.106 6.271-.744.261-1.459.605-2.132 1.027a2.348 2.348 0 0 0-.803.88c-.191.361-.29.767-.286 1.18 0 0 4.804-.98 7.996-5.074 3.191-4.094 3.585-6.567 3.585-6.567Z" opacity=".3"/>
  <path fill="#FAFAFA" d="M215.163 104.635a3.012 3.012 0 0 0-1.175-1.26c-.938-.376-1.911.529-2.919.529-1.185 0-2.017-1.181-2.96-1.928-1.245-.974-2.879-1.25-4.417-1.488l-.504 1.001c1.356.943 3.454-.371 4.825.53.615.418.918 1.181 1.261 1.864.343.683.847 1.388 1.578 1.478.731.09 1.336-.424 2.017-.53 2.178-.371 3.725 3.024 5.903 2.648a7.606 7.606 0 0 1-3.609-2.844Zm-8.446 13.215c.666-.917 1.891-1.203 2.98-1.06 1.081.216 2.142.529 3.171.938a4.622 4.622 0 0 0 3.232.053 9.53 9.53 0 0 1 1.452-.705c.716-.169 1.442.138 2.143.371 1.476.482 3.027.662 4.568.53a10.438 10.438 0 0 1 1.775-.101 2.259 2.259 0 0 1 1.593.731 6.563 6.563 0 0 1 2.405-.89c-.968.715-1.987 1.446-3.161 1.589-1.352.17-2.662-.466-3.993-.763-3.62-.799-7.422.927-11.047.159a17.566 17.566 0 0 0-2.521-.529 2.456 2.456 0 0 0-1.264.17 2.586 2.586 0 0 0-1.03.788m2.218 9.571c1.437.323 2.718-.948 4.13-1.388 1.245-.381 2.581-.106 3.826.27 1.246.376 2.491.858 3.787.874.796 0 1.613-.159 2.38.069.582.241 1.145.529 1.684.863 1.845.911 4.003.419 5.979-.084a8.456 8.456 0 0 1-4.825 1.175 25.43 25.43 0 0 1-4.956-.821l-3.963-.932a7.308 7.308 0 0 0-3.025-.27c-1.699.334-3.151 1.865-4.87 1.69m15.085 5.868c1.053.106 2.102.185 3.161.238a8.472 8.472 0 0 0 2.521-.148c1.376-.355 2.596-1.345 4.033-1.446 1.437-.1 2.824.747 4.281.853a4.314 4.314 0 0 0 1.975-.34 4.509 4.509 0 0 0 1.64-1.207c-2.117.652-4.36.709-6.504.165-1.008-.249-2.017-.636-3.025-.398-.797.196-1.457.763-2.183 1.171-1.775.996-3.888.99-5.899.959m8.495-19.014c.106-1.208 4.17-2.283 5.844-3.819a3.405 3.405 0 0 1-.722 1.676 3.148 3.148 0 0 1-1.461 1.015c-.638.143-1.285.233-1.936.27a2.47 2.47 0 0 0-1.725.858m-7.27-8.528c.681.53 1.654.398 2.475.117.822-.281 1.664-.657 2.521-.471.857.185 1.447.873 2.209 1.255a3.61 3.61 0 0 0 1.637.339 3.626 3.626 0 0 0 1.615-.44 5.162 5.162 0 0 0 2.243-2.547c.156-.524.435-.997.812-1.377.474-.361 1.114-.313 1.674-.498.892-.297 1.512-1.16 1.986-2.002.474-.842.973-1.753 1.785-2.257-.706-.222-1.442.276-1.931.853-.489.577-.892 1.271-1.538 1.653-.645.381-1.437.381-2.087.741-1.16.641-1.512 2.166-2.334 3.252-.908 1.234-2.627 1.901-3.943 1.186-.711-.386-1.296-1.138-2.097-1.149a3.15 3.15 0 0 0-1.447.53 6.198 6.198 0 0 1-3.53.704l.273.058m-18.196 42.303a3.125 3.125 0 0 1 .569-2.013c.373-.598.837-1.133 1.17-1.758.384-.92.707-1.867.968-2.834.338-.937.923-1.875 1.835-2.171.62-.202 1.296-.08 1.926-.223 1.069-.233 1.906-1.181 2.98-1.393.872-.175 1.77.164 2.657.122a3.202 3.202 0 0 0 2.148-1.017 3.293 3.293 0 0 1-2.385.212 5.708 5.708 0 0 0-2.42-.175c-.504.133-1.008.429-1.513.578-.968.27-2.016-.027-2.984.222-1.422.371-2.345 1.806-2.919 3.22-.575 1.414-.646 2.527-1.609 3.708.01-.022-.726 3.003-.423 3.522Zm8.561-53.176a6.088 6.088 0 0 1-1.175-.61 1.489 1.489 0 0 1-.459-.433 1.582 1.582 0 0 1-.247-.594l-1.512.053a4.099 4.099 0 0 0 1.182 1.635c.52.432 1.134.718 1.787.833.364.001.727.051 1.079.149.367.201.719.431 1.054.688a.868.868 0 0 0 1.134-.1 16.29 16.29 0 0 0-2.843-1.621Zm-9.666 12.669a3.117 3.117 0 0 0-1.905-.074 3.983 3.983 0 0 1-1.916.058 5.492 5.492 0 0 1-1.432-.869 1.813 1.813 0 0 0-.667-.413 1.754 1.754 0 0 0-.77-.09l-.292.731c0 .313.272.154.559.244.299.038.58.169.807.376.13.225.232.467.302.72.134.23.328.415.558.533.231.118.488.165.743.134a3.948 3.948 0 0 0 1.452-.529 3.472 3.472 0 0 1 1.457-.466c.389-.001.768.123 1.088.355.32.232.565.56.702.942.318-.588-.101-1.371-.686-1.652Z"/>
  <path fill="#000" d="M239.893 95.53c.59.87 1.759 1.102 2.763.89a13.965 13.965 0 0 0 2.823-1.202 4.13 4.13 0 0 1 2.965-.429c1.2.387 1.971 1.62 3.08 2.24a3.458 3.458 0 0 0 2.485.26 3.62 3.62 0 0 0 2.053-1.494 11.86 11.86 0 0 0 .973-2.648c.297-.905.776-1.827 1.603-2.219.973-.455 2.123-.058 3.146-.355 1.422-.413 2.209-2.044 2.41-3.575.378-2.802 1.871-8.405-8.541-9.147"/>
  <path fill="#FFBF9D" d="M236.268 73.694a10.904 10.904 0 0 0-.298-4.113 10.593 10.593 0 0 0-1.8-3.667 10.012 10.012 0 0 0-3.018-2.64 9.534 9.534 0 0 0-3.758-1.195c-5.259-.53-9.937 3.59-10.724 9.083-.691 4.81-1.286 9.666-1.265 11.435.065 5.296 3.025 7.415 4.23 8.013.431.163.877.279 1.331.345 0 0 .035.026.03.042l-1.124 6.107c-.505 4.004 1.613 7.574 5.42 8.156 3.806.583 6.796-2.489 7.381-6.493l3.595-25.073Z"/>
  <path fill="#000" d="M217.542 74.308c.086.127.752-.254 1.609-.116.857.137 1.421.678 1.512.582.091-.095 0-.254-.267-.503a2.133 2.133 0 0 0-1.185-.577 2.05 2.05 0 0 0-1.301.228c-.292.148-.408.333-.368.386Zm7.971 1.382c.081.128.752-.248 1.609-.116s1.422.683 1.512.583c.091-.101 0-.255-.267-.53a2.19 2.19 0 0 0-1.21-.604 1.997 1.997 0 0 0-1.296.233c-.297.196-.418.382-.348.434Zm-3.312 4.582a5.17 5.17 0 0 0-1.351-.482c-.217-.053-.419-.133-.434-.297.013-.24.097-.47.242-.656l.887-1.653c1.246-2.357 2.184-4.306 2.093-4.359-.091-.053-1.175 1.817-2.42 4.174-.303.577-.59 1.133-.862 1.663a1.401 1.401 0 0 0-.242.884.563.563 0 0 0 .312.392c.117.056.241.093.368.111.459.135.931.21 1.407.223Z"/>
  <path fill="#FFBF9D" d="M221.001 90.965s3.272.795 7.774-1.186c0 0-1.946 4.396-8.067 2.833l.293-1.647Zm1.265-8.469a1.54 1.54 0 0 1 .686-.395c.256-.069.526-.067.782.004.186.046.362.132.517.253.154.12.283.272.38.446a.994.994 0 0 1-.081 1.085 1.01 1.01 0 0 1-1.164.122c-.388-.21-.731-.5-1.009-.852a1.024 1.024 0 0 1-.206-.302.326.326 0 0 1 .05-.34"/>
  <path fill="#000" d="M224.641 81.278c-.141 0-.277.948-1.17 1.52-.892.572-1.87.313-1.895.45-.025.138.196.223.61.297a2.246 2.246 0 0 0 1.578-.318 2.11 2.11 0 0 0 .917-1.281c.096-.403.026-.662-.04-.668Zm1.432-8.845c.05.254.923.27 1.911.53s1.764.694 1.926.498c.075-.096-.035-.35-.328-.636a3.377 3.377 0 0 0-1.374-.756 3.266 3.266 0 0 0-1.55-.044c-.388.122-.605.286-.585.408Zm-7.664-1.615c.121.228.742.106 1.453.201.71.096 1.295.34 1.462.148.075-.095 0-.312-.227-.53a1.973 1.973 0 0 0-1.135-.529 1.968 1.968 0 0 0-1.215.233c-.292.175-.393.366-.338.477Z"/>
  <path fill="#000" d="M243.21 88.29c.318-.762.595-1.466.736-1.927.565-1.801.57-4.656-.242-6.356-.756-1.589-2.672-3.135-3.226-4.666-.853-2.346-.222-2.96-.878-7.86-.373-2.78-3.902-6.63-7.603-6.032a7.457 7.457 0 0 0-4.447-2.468 10.117 10.117 0 0 0-6.045.631 10.715 10.715 0 0 0-4.719 4.019c-1.104 1.758-1.765 4.12-1.109 6.223 1.043 1.679 4.371.64 6.383-.53a4.583 4.583 0 0 0 3.534.681 4.772 4.772 0 0 0 2.985-2.1c.193.259.435.473.711.63.276.155.58.25.892.276.066.62.136 1.144.182 1.477.201 1.53 2.395 3.75 2.42 5.297.045 2.913-2.083 3.056-2.672 5.905-.444 2.119 1.104 3.4 1.396 5.572.046.334-3.665 7.415 1.119 10.386 0 0 .126.106.318.307a5.422 5.422 0 0 1 1.408 3.244 5.507 5.507 0 0 1-.868 3.446c-1.256 1.959-2.597 5.201.61 6.943 0 0 .932-3.104 2.248-3.707 3.343-1.531 6.756-1.822 5.38-9.433-1.377-7.611.459-6.7 1.487-9.957Z"/>
  <path fill="#FFBF9D" d="m78.72 56.92 2.345 28.537 13.613-1.144c.086-1.668 0-8.124 0-8.124s5.657-.922 5.728-6.886c.035-2.886-.358-8.855-.772-14.231-.22-2.867-1.499-5.53-3.565-7.418-2.065-1.888-4.753-2.85-7.486-2.682a10.08 10.08 0 0 0-4.036 1.106 10.557 10.557 0 0 0-3.305 2.673 11.163 11.163 0 0 0-2.05 3.816 11.53 11.53 0 0 0-.471 4.353Z"/>
  <path fill="#FFBF9D" d="M94.653 76.104a12.687 12.687 0 0 1-7.381-2.204s1.744 4.28 7.391 3.745l-.01-1.541Z"/>
  <path fill="#000" d="M97.608 59.039a.877.877 0 0 1-.226.595.795.795 0 0 1-.556.263.743.743 0 0 1-.57-.201.812.812 0 0 1-.185-.256.85.85 0 0 1-.077-.311.877.877 0 0 1 .224-.594.795.795 0 0 1 .552-.264.747.747 0 0 1 .572.2.854.854 0 0 1 .266.567Zm.781-.954c-.1.111-.711-.365-1.583-.365s-1.513.46-1.598.35c-.086-.112.055-.25.332-.461.376-.275.823-.42 1.28-.419a2.05 2.05 0 0 1 1.261.43c.268.216.379.412.308.465ZM88.88 59.25a.877.877 0 0 1-.225.596.794.794 0 0 1-.556.263.735.735 0 0 1-.57-.197.842.842 0 0 1-.263-.565.871.871 0 0 1 .223-.596.79.79 0 0 1 .554-.263.739.739 0 0 1 .572.195.843.843 0 0 1 .265.567Zm.958-.995c-.1.111-.71-.366-1.583-.366-.872 0-1.513.461-1.598.35-.086-.111.055-.249.332-.46a2.159 2.159 0 0 1 1.281-.42c.453.002.894.152 1.26.43.268.217.358.418.308.466Zm3.156 6.775a5.86 5.86 0 0 1 1.417-.266c.222 0 .428-.074.469-.233a1.23 1.23 0 0 0-.151-.688c-.207-.567-.424-1.16-.656-1.78-.912-2.526-1.573-4.608-1.472-4.645.1-.037.912 1.981 1.825 4.513l.63 1.785c.14.281.181.606.116.916a.594.594 0 0 1-.146.216.558.558 0 0 1-.222.128 1.487 1.487 0 0 1-.373.053c-.477.064-.96.064-1.437 0Zm-2.556.635c.141 0 .141.98.948 1.684.806.704 1.815.598 1.825.736.01.138-.227.19-.65.201a2.257 2.257 0 0 1-1.513-.53 2.203 2.203 0 0 1-.736-1.413c-.045-.44.08-.684.126-.678Zm-.373-10.99c-.086.248-.953.132-1.977.259-1.023.127-1.845.418-1.981.196-.06-.106.086-.339.418-.577.441-.3.945-.481 1.468-.53.523-.066 1.053 0 1.547.19.374.149.56.345.525.462Zm8.006.762c-.156.212-.75 0-1.472 0-.72 0-1.33.138-1.472-.08-.06-.105.035-.312.302-.529a2.05 2.05 0 0 1 1.197-.34c.422.015.83.16 1.173.42.257.217.338.428.272.53ZM84.847 50.39h-.03a4.74 4.74 0 0 0-1.654 3.024c-.002.04-.002.081 0 .122-.217 1.694-.182 3.421-.414 5.116-.232 1.695-.796 3.416-2.016 4.581-.505.482-1.357.81-1.76.25a1.502 1.502 0 0 1-.202-.78c-.302-4.093-1.366-7.727-1.361-12.006a3.767 3.767 0 0 1 .376-1.65 3.575 3.575 0 0 1 1.05-1.29c.858-.64 1.897-1.308 2.844-.837.948.472 2.178 2.336 2.914 3.125"/>
  <path fill="#FFBF9D" d="M80.632 59.605c-.101-.042-3.893-1.207-3.767 2.86.127 4.068 3.984 3.094 3.984 2.977 0-.116-.217-5.837-.217-5.837Z"/>
  <path fill="#FFBF9D" d="M79.623 63.943s-.065.053-.181.112a.63.63 0 0 1-.504 0c-.414-.144-.777-.816-.817-1.547a2.428 2.428 0 0 1 .171-.996.833.833 0 0 1 .186-.347.779.779 0 0 1 .318-.214.332.332 0 0 1 .235.013.354.354 0 0 1 .174.167c.055.111.03.196.05.201.02.005.08-.074.046-.238a.452.452 0 0 0-.162-.25.485.485 0 0 0-.373-.09.933.933 0 0 0-.423.233 1.01 1.01 0 0 0-.263.42 2.527 2.527 0 0 0-.201 1.138c.05.821.474 1.589 1.038 1.727a.692.692 0 0 0 .616-.133c.085-.095.1-.19.09-.196Z"/>
  <path fill="#000" d="M81.181 48.224c-1.18-1.451 1.054-4.184 2.844-5.117 1.79-.932 4.421-.38 6.398-.037 1.245.218 2.52.599 3.751.334a8.362 8.362 0 0 0 2.33-1.06 6.06 6.06 0 0 1 2.369-.91c.421-.058.85.005 1.24.183s.726.465.973.828c.439.758.152 1.95-.66 2.209a1.86 1.86 0 0 1 .83-.389c.303-.057.614-.036.908.062.293.097.559.267.776.496.217.23.377.51.468.819.091.309.109.636.053.953a2.045 2.045 0 0 1-.375.87c-.19.254-.436.456-.717.588a1.82 1.82 0 0 1-.894.17c.479-.529 1.416.054 1.457.78a2.192 2.192 0 0 1-.324 1.016 2.059 2.059 0 0 1-.755.72c-1.483 1.002-3.378 1.06-5.118.758-1.74-.302-3.403-.964-5.132-1.319-1.73-.355-4.639-1.027-6.187-.148-1.144.646-1.754 2.314-2.49 2.118a2.348 2.348 0 0 1-.918-.61 2.506 2.506 0 0 1-.56-.979 7.46 7.46 0 0 1-.267-2.298"/>
  <path fill="#455A64" d="M79.643 59.43s.167-.11.313-.434c.194-.462.262-.971.197-1.472-.086-1.313-1.19-2.717-1.331-4.528a4.283 4.283 0 0 1 .428-2.426 3.027 3.027 0 0 1 1.437-1.303 2.382 2.382 0 0 1 1.29-.185c.313.053.48.127.505.095.025-.032-.136-.143-.459-.249a2.296 2.296 0 0 0-1.417.074 3.118 3.118 0 0 0-1.658 1.388 4.456 4.456 0 0 0-.504 2.648 7.45 7.45 0 0 0 .746 2.558c.313.62.545 1.28.69 1.965a3.251 3.251 0 0 1-.237 1.87Z"/>
  <path fill="#000" d="M96.412 38.547s.061.048.152.164c.124.175.223.367.292.572.111.39.139.8.081 1.202a2.844 2.844 0 0 1-.413 1.123 3.913 3.913 0 0 1-1.302 1.143c-.51.275-1.07.427-1.643.446-1.29.106-2.657-.296-4.033-.672a11.306 11.306 0 0 0-2.052-.387 5.252 5.252 0 0 0-1.906.18 6.166 6.166 0 0 0-2.401 1.342 6.553 6.553 0 0 0-1.633 2.286c-.216.53-.272.805-.302.8-.03-.005 0-.08.03-.223a3.93 3.93 0 0 1 .181-.62 6.072 6.072 0 0 1 1.206-2.001 6.234 6.234 0 0 1 2.853-1.833 5.474 5.474 0 0 1 1.987-.201c.709.064 1.41.195 2.097.392 1.402.376 2.733.773 3.963.683a3.546 3.546 0 0 0 1.56-.394c.486-.25.914-.609 1.253-1.052.208-.314.349-.671.415-1.048a2.834 2.834 0 0 0-.031-1.134 3.473 3.473 0 0 0-.354-.768Z"/>
  <path fill="#455A64" d="m75.988 182.55-7.633-10.232s-12.464 4.713-14.052 2.966l18.358-16.26 12.513 15.433-9.186 8.093Z"/>
  <path fill="#E0E0E0" d="M74.703 168.128a1.102 1.102 0 0 0-.202-1.361.91.91 0 0 0-.681-.167.938.938 0 0 0-.605.368c-.137.226-.19.498-.15.762.041.265.174.505.372.674.22.131.482.166.727.099a.985.985 0 0 0 .589-.459m-2.093-9.02 1.206 1.589-18.05 14.988s-1.12.35-1.513-.339l18.358-16.238Z"/>
  <path fill="#000" d="M68.138 172.678c-.076-.095.338-.53.54-1.229.201-.699.11-1.297.226-1.329.116-.032.414.625.162 1.462-.252.836-.857 1.202-.928 1.096Zm-2.597.873c-.095-.074.162-.577.147-1.249-.015-.673-.262-1.166-.172-1.24.091-.074.58.408.58 1.24 0 .831-.484 1.334-.555 1.249Zm-3.04-1.456c.066-.09.57.27.752.991.181.72-.071 1.292-.172 1.25-.1-.043-.06-.53-.222-1.139-.161-.609-.438-.99-.358-1.102Zm7.619 2.717c-.03-.122.504-.355.962-.842.46-.487.742-1.001.853-.964.11.037 0 .715-.57 1.276-.57.562-1.225.641-1.245.53Zm1.578 2.034c-.03-.037.277-.413.922-.81.38-.229.787-.407 1.21-.53a5.76 5.76 0 0 1 .767-.175c.152-.022.306-.022.458 0a.496.496 0 0 1 .3.152.54.54 0 0 1 .144.314.69.69 0 0 1-.222.562 1.496 1.496 0 0 1-.383.259 4.04 4.04 0 0 1-.736.297 4.075 4.075 0 0 1-1.316.169c-.41.029-.82-.079-1.17-.307 0-.069.46.043 1.165 0a4.733 4.733 0 0 0 1.21-.243c.23-.079.452-.178.666-.297.237-.117.403-.265.383-.397-.02-.133 0-.069-.111-.09a.958.958 0 0 0-.338 0 6.02 6.02 0 0 0-.716.137c-.405.104-.8.247-1.18.429-.338.204-.69.381-1.053.53Z"/>
  <path fill="#000" d="M71.708 176.608c0-.043.469.137 1.008.715.304.343.55.739.726 1.17.103.256.182.523.237.795.051.171.06.354.026.53-.035.176-.111.34-.223.476a.538.538 0 0 1-.6.069 1.476 1.476 0 0 1-.378-.27 2.738 2.738 0 0 1-.504-.652 3.024 3.024 0 0 1-.408-1.345c-.04-.816.242-1.261.277-1.234-.024.4-.024.802 0 1.202.064.417.214.815.439 1.165.13.199.286.377.463.53.192.18.399.281.454.191a.729.729 0 0 0 .07-.599 4.427 4.427 0 0 0-.19-.725 4.803 4.803 0 0 0-.596-1.123c-.463-.572-.842-.837-.801-.895Z"/>
  <path fill="#455A64" d="m57.006 189.345-7.634-10.253s-12.463 4.708-14.051 2.965l18.357-16.259 12.514 15.454-9.186 8.093Z"/>
  <path fill="#E0E0E0" d="M55.72 174.918a1.068 1.068 0 0 0-.202-1.356.917.917 0 0 0-1.285.196 1.142 1.142 0 0 0-.15.765c.04.266.173.506.372.676a.962.962 0 0 0 .725.085c.244-.067.454-.228.59-.451m-2.092-9.014 1.205 1.589-18.05 14.989s-1.119.349-1.512-.334l18.357-16.244Z"/>
  <path fill="#000" d="M49.156 179.473c-.076-.095.337-.53.539-1.229.202-.699.116-1.297.227-1.334.11-.037.413.625.161 1.461-.252.837-.877 1.203-.927 1.102Zm-2.596.869c-.097-.074.165-.578.15-1.245-.015-.667-.267-1.17-.176-1.245.09-.074.58.408.58 1.24 0 .831-.484 1.334-.555 1.25Zm-3.056-1.451c.065-.096.57.264.751.985.181.72-.07 1.297-.172 1.25-.1-.048-.06-.53-.221-1.139-.162-.609-.424-1.012-.358-1.096Zm7.638 2.711c-.035-.122.504-.355.958-.837.454-.482.741-1.006.852-.964.111.043 0 .71-.57 1.272-.57.561-1.225.667-1.24.529Zm1.573 2.034c-.03-.037.277-.408.923-.81a5.489 5.489 0 0 1 1.966-.715c.152-.025.307-.025.459 0a.495.495 0 0 1 .298.149.54.54 0 0 1 .146.311.723.723 0 0 1-.217.567 1.772 1.772 0 0 1-.389.254 4.415 4.415 0 0 1-.736.302 4.045 4.045 0 0 1-1.316.164c-.41.029-.82-.079-1.17-.307 0-.063.46.048 1.165 0a4.521 4.521 0 0 0 1.21-.243c.23-.079.453-.178.666-.297.237-.116.403-.259.383-.397 0-.048 0-.064-.11-.09a1.236 1.236 0 0 0-.334 0 5.71 5.71 0 0 0-.72.137 6.609 6.609 0 0 0-1.175.429 7.826 7.826 0 0 1-1.049.546Z"/>
  <path fill="#000" d="M52.725 183.398c0-.043.469.137 1.008.72.306.34.552.735.727 1.165.104.256.183.522.236.794a1.111 1.111 0 0 1-.196 1.007.548.548 0 0 1-.6.074 1.742 1.742 0 0 1-.378-.27 2.84 2.84 0 0 1-.504-.652 3.04 3.04 0 0 1-.44-1.318c-.04-.821.243-1.261.278-1.24a9.919 9.919 0 0 0 0 1.202c.064.418.213.816.439 1.166.13.198.287.376.464.529.196.18.398.281.459.196a.76.76 0 0 0 .065-.603 4.59 4.59 0 0 0-.191-.721 4.645 4.645 0 0 0-.595-1.117c-.414-.609-.812-.874-.772-.932Z"/>
  <path fill="#FFBF9D" d="M65.642 19.358c.187-.053 1.009 7.076.58 8.024-.428.948-3.403 3.708-4.537 3.708-1.135 0-2.693 1.753-3.026 2.357l-7.451-1.595 1.668-4.316-.201-5.424a6.34 6.34 0 0 1 .726-3.236c.574-1.059 1.391-2.187 2.168-1.854 1.411.604 1.411 1.06 1.411 1.06s1.337-1.277 1.79.206c0 0 1.74-1.35 2.577.403 0 0 1.92-1.213 2.435 1.552l.192 1.885s-.192-2.23 1.668-2.77Z"/>
  <path fill="#FFBF9D" d="M59.638 27.95c.202-.379.473-.711.796-.98a7.097 7.097 0 0 1 3.736-1.85l-.106.133c0-.9-.096-1.673-.11-2.24a3.25 3.25 0 0 1 .045-.89c.068.288.107.583.116.88.106.743.174 1.493.201 2.245v.116h-.106a7.473 7.473 0 0 0-1.124.292 8.109 8.109 0 0 0-2.52 1.446c-.616.513-.928.879-.928.847ZM55.1 19.952c.087.128.149.274.181.429.158.418.169.882.03 1.308-.1.286-.393.466-.453.715a.938.938 0 0 0 .022.44.903.903 0 0 0 .22.375c.12.12.261.212.416.273a1.182 1.182 0 0 0 .96-.043c.15-.075.284-.18.394-.309.21-.31.332-.678.347-1.06.03-.375.036-.751.036-1.1 0-.628-.035-1.254-.106-1.876a3.243 3.243 0 0 0-.288-1.202c-.14-.25-.287-.334-.272-.355.015-.021.177.042.358.297.217.375.35.797.388 1.234.095.627.149 1.26.162 1.896.011.378.003.756-.026 1.133a2.276 2.276 0 0 1-.393 1.192 1.5 1.5 0 0 1-.479.382 1.416 1.416 0 0 1-1.679-.308 1.134 1.134 0 0 1-.257-.495 1.172 1.172 0 0 1 .005-.564c.06-.158.153-.3.273-.413.09-.09.165-.196.221-.313.134-.385.147-.804.036-1.197a2.232 2.232 0 0 1-.096-.44Z"/>
  <path fill="#FFBF9D" d="M56.864 23.315s.046.116.172.286c.18.229.44.375.72.408.206.018.413-.018.602-.104s.355-.22.483-.389c.33-.423.523-.947.55-1.494a6.904 6.904 0 0 0-.358-3.008c-.253-.741-.505-1.154-.505-1.181.292.317.514.696.65 1.112.406.976.56 2.046.45 3.104a2.808 2.808 0 0 1-.636 1.642 1.42 1.42 0 0 1-.58.442c-.225.092-.47.123-.71.087a1.087 1.087 0 0 1-.443-.176 1.15 1.15 0 0 1-.334-.353c-.086-.238-.076-.376-.06-.376Z"/>
  <path fill="#FFBF9D" d="M59.133 23.5s.07.09.202.222c.19.183.43.3.686.334.184.029.373.017.553-.036.18-.053.347-.146.49-.271.355-.32.596-.757.686-1.24.187-1.059-.131-2.023-.237-2.727a5.23 5.23 0 0 1-.151-1.165c.153.357.264.732.332 1.117.086.355.197.763.283 1.245.11.522.12 1.062.03 1.589a2.38 2.38 0 0 1-.791 1.382 1.44 1.44 0 0 1-.581.293 1.402 1.402 0 0 1-.645.004 1.22 1.22 0 0 1-.73-.45c-.127-.17-.162-.292-.127-.297Z"/>
  <path fill="#FFBF9D" d="M61.73 23.299s.045.116.1.333c.068.298.193.578.369.821.12.173.284.306.474.383.189.077.396.095.595.052.226-.103.415-.28.537-.506.122-.226.17-.487.138-.744a19.156 19.156 0 0 0-.257-3.093c-.094-.423-.163-.85-.207-1.282.188.39.319.808.389 1.24.227 1.027.34 2.08.337 3.135.035.317-.034.638-.194.91s-.402.479-.688.589a1.2 1.2 0 0 1-.719-.082 1.272 1.272 0 0 1-.556-.485 2.111 2.111 0 0 1-.318-.916.81.81 0 0 1 0-.355Zm71.347 72.015s-2.521 3.919-3.167 5.233c-.504 1.059-2.561 5.497-2.652 8.363l5.042 6.154s2.279-1.827 2.647-2.516a2.468 2.468 0 0 0 0-1.674 6.211 6.211 0 0 1 1.064-.773s-.217 1.224.655 1.451c.873.228 3.787-2.981 3.787-2.981s.217-1.372-.585-1.452c0 0 .585-1.912 0-2.447 0 0 .655-1.525-.146-2.213 0 0-.363-1.759-.943-2.373-.58-.615-6.504 1.223-6.504 1.223s1.402-3.273 1.548-4.19c.146-.915-.746-1.805-.746-1.805Z"/>
  <path fill="#FFBF9D" d="M136.722 107.394s-.051.101-.167.249a2.479 2.479 0 0 0-.423.657 1.305 1.305 0 0 0-.151.493c-.01.197.028.394.111.572.136.37.665.439 1.043.169.372-.29.725-.605 1.059-.943l.877-.794c.255-.263.54-.492.847-.683a4.515 4.515 0 0 1-.721.826l-.837.842c-.34.357-.704.688-1.089.991a1.106 1.106 0 0 1-.786.185.763.763 0 0 1-.37-.157.813.813 0 0 1-.245-.33 1.47 1.47 0 0 1-.106-.694c.029-.202.097-.395.202-.567.123-.249.294-.467.504-.641.156-.127.237-.19.252-.175Zm.318-5.486a7.98 7.98 0 0 1-.958 1.107 4.607 4.607 0 0 0-.943 1.213.935.935 0 0 0 .124.81.882.882 0 0 0 .303.277.839.839 0 0 0 .39.104c.294-.064.563-.221.771-.45l.681-.636 1.169-1.059c.346-.344.72-.654 1.12-.927a8.1 8.1 0 0 1-1.009 1.06l-1.134 1.112-.671.646c-.247.274-.57.459-.922.53a1.073 1.073 0 0 1-.516-.126 1.122 1.122 0 0 1-.401-.362 1.221 1.221 0 0 1-.142-1.07c.122-.276.293-.526.504-.736.176-.201.368-.365.504-.529.348-.357.726-.68 1.13-.964Z"/>
  <path fill="#FFBF9D" d="M136.061 105.689c0 .027-.1.048-.252.159-.206.153-.35.382-.403.641a.9.9 0 0 0 .085.543.843.843 0 0 0 .379.379.737.737 0 0 0 .595.053c.223-.084.43-.21.61-.371 1.633-1.351 2.748-2.696 2.803-2.648a3.759 3.759 0 0 1-.675.926 15.986 15.986 0 0 1-1.967 1.928 2.062 2.062 0 0 1-.701.424.97.97 0 0 1-.778-.001 1.046 1.046 0 0 1-.55-.579 1.116 1.116 0 0 1 .001-.818 1.04 1.04 0 0 1 .551-.577.419.419 0 0 1 .302-.059Zm-.973 6.218c-.04 0-.07-.333-.267-.847a2.815 2.815 0 0 0-.585-.919 2.672 2.672 0 0 0-.877-.612l-.555-.222.585-.027v.26h-.03v-.254l-.101.069c.26-.497.445-1.033.55-1.589a6.463 6.463 0 0 0-.298-3.417c-.312-.842-.67-1.271-.63-1.302.04-.032.111.09.267.286.211.29.39.605.535.937a6.157 6.157 0 0 1 .383 3.549 5.485 5.485 0 0 1-.595 1.663l-.035.063h-.081v-.254h.025v.259l.035-.248c.355.155.674.388.935.684.261.296.458.648.578 1.032.072.213.118.436.136.662.022.073.03.15.025.227Z"/>
  <path fill="#000" d="m71.46 145.502-.73 7.108a46.858 46.858 0 0 0 .03 10.158l2.954 26.318-9.448-11.779s-9.075 5.731-9.217 11.218c0 0 17.833 21.27 22.346 24.262 4.512 2.993 16.134 0 16.638-9.353 0 0 1.069 8.607 11.399 8.358 10.331-.249 10.452-26.202 10.452-26.202l-4.512-39.044-39.911-1.044Z"/>
  <path fill="#455A64" d="M94.043 203.667a1.722 1.722 0 0 1 0-.366v-1.032c.03-.927.075-2.22.126-3.798.126-3.231.308-7.648.504-12.521l.313-6.885c.096-2.118.116-4.036.459-5.625a5.832 5.832 0 0 1 1.784-3.278c.255-.222.54-.4.847-.53.078-.039.159-.069.242-.09.056 0 .086-.026.086 0-.4.187-.774.434-1.11.731a5.878 5.878 0 0 0-1.668 3.242c-.318 1.557-.297 3.479-.398 5.598-.101 2.118-.187 4.449-.293 6.885-.222 4.873-.428 9.285-.58 12.515-.085 1.589-.15 2.866-.201 3.793-.03.429-.056.768-.07 1.059a3.113 3.113 0 0 1-.041.302Zm2.763-57.598c.07.205.117.419.141.635.07.414.161 1.012.262 1.754.202 1.488.429 3.548.59 5.826.161 2.277.217 4.358.222 5.857v1.78c.007.218-.008.437-.046.651a3.105 3.105 0 0 1-.055-.651c0-.477-.04-1.059-.066-1.774-.05-1.494-.14-3.565-.297-5.826a198.825 198.825 0 0 0-.504-5.826c-.076-.7-.136-1.293-.182-1.764a3.695 3.695 0 0 1-.065-.662Zm-3.61 1.774s.07-.09.262-.132a1.022 1.022 0 0 1 .787.174 1.122 1.122 0 0 1 .458 1.155 1.325 1.325 0 0 1-.39.695 1.221 1.221 0 0 1-.704.322 1.263 1.263 0 0 1-.732-.225 1.359 1.359 0 0 1-.488-.617 1.314 1.314 0 0 1 .151-1.245c.155-.238.38-.415.64-.503.182-.058.288-.048.288-.032a1.73 1.73 0 0 0-.776.641 1.104 1.104 0 0 0-.08 1.059c.085.198.224.366.398.484.174.119.377.182.584.184a.986.986 0 0 0 .56-.254 1.07 1.07 0 0 0 .318-.546.926.926 0 0 0-.03-.52.878.878 0 0 0-.303-.412 1.016 1.016 0 0 0-.67-.233c-.172-.032-.268.005-.273.005ZM73.9 188.996c.046 0-.156.8-.332 2.118a22.976 22.976 0 0 0-.12 5.096 22.43 22.43 0 0 0 1.048 4.978c.413 1.234.751 1.97.71 1.992a2.82 2.82 0 0 1-.277-.498 14.52 14.52 0 0 1-.61-1.425 19.848 19.848 0 0 1-.938-10.174c.086-.515.199-1.024.338-1.526.039-.194.1-.383.182-.561Z"/>
  <path fill="#455A64" d="M73.724 200.6c.172-.068.34-.146.504-.233a2.51 2.51 0 0 0 .928-1.223 7.44 7.44 0 0 0 .449-2.484c.045-.996.096-2.119.1-3.39.031-2.51-.07-5.503-.347-8.808-.277-3.305-.731-6.933-1.326-10.714-.595-3.782-1.22-7.415-1.614-10.694a61.588 61.588 0 0 1-.529-8.824c.025-1.99.21-3.974.55-5.931.11-.694.262-1.219.338-1.589.04-.165.07-.297.095-.408a.603.603 0 0 1 .046-.138.747.747 0 0 1 0 .148c0 .106-.04.244-.07.413-.061.366-.192.89-.288 1.589a40.426 40.426 0 0 0-.47 5.916c-.004 2.94.194 5.877.59 8.787.404 3.294 1.04 6.885 1.634 10.678.595 3.792 1.044 7.415 1.306 10.735.244 2.94.341 5.89.292 8.84 0 1.255-.08 2.394-.14 3.395a7.54 7.54 0 0 1-.505 2.516c-.198.516-.553.95-1.008 1.234a1.39 1.39 0 0 1-.535.185Zm-12.609-20.899c.204.141.395.302.57.482.347.323.846.805 1.436 1.43a38.784 38.784 0 0 1 4.19 5.27 56.095 56.095 0 0 1 1.966 3.178c.487.883 1.05 1.716 1.684 2.489.434.512.96.928 1.548 1.223.424.191.68.239.676.265-.005.027-.066 0-.192 0a2.869 2.869 0 0 1-.504-.143 4.595 4.595 0 0 1-1.639-1.191 14.53 14.53 0 0 1-1.754-2.49 71.777 71.777 0 0 0-1.981-3.141 46.251 46.251 0 0 0-4.104-5.296c-.57-.635-1.05-1.139-1.377-1.488a4.07 4.07 0 0 1-.52-.588Z"/>
  <path fill="#3654B6" d="M75.232 75.187s-5.818-2.293-8.486-4.581c-2.667-2.288-10.27-15.079-10.27-15.079l3.842-23.05-9.367-4.862s-10.88 27.43-9.67 32.52c1.21 5.09 20.877 33.404 20.877 33.404l4.83 20.126 5.093 18.077s-2.183 1.022-.968 4.587c1.215 3.564 2.773 5.111 1.21 5.857-2.521 1.208-.862 3.337-.862 3.337l40.909 1.059s-5.239-34.887-4.336-41.258c.918-6.499.03-17.579.03-17.579l-9.317-2.982-23.515-9.576Z"/>
  <path fill="#3654B6" d="M108.064 87.719c4.245 2.05 8.763 31.111 8.763 31.111l9.907-11.07 6.05 8.014s-8.571 15.788-10.522 17.398c-1.659 1.356-6.66 5.461-10.028 4.057-3.368-1.403-5.476-26.54-5.476-26.54l1.306-22.97ZM79.623 77.693s-.504-3.395.565-2.887c.045 0 15.025 4.968 14.919 6.064-.086.927.106 3.867.106 3.867H85.35l-5.728-7.044Z"/>
  <path fill="#000" d="M70.316 99.789a6.396 6.396 0 0 1 0-.842v-.99c0-.387 0-.822-.025-1.304a32.226 32.226 0 0 0-.313-3.379 33.653 33.653 0 0 0-.867-4.051 33.666 33.666 0 0 0-1.386-3.893 32.698 32.698 0 0 0-1.513-3.009c-.227-.418-.464-.778-.66-1.106-.197-.329-.374-.599-.505-.821a4.762 4.762 0 0 1-.438-.71c.185.2.354.416.504.646.161.212.358.477.56.8.201.323.458.672.695 1.09.579.968 1.1 1.97 1.563 3.004a29.485 29.485 0 0 1 2.294 8.013c.154 1.13.242 2.27.263 3.411v1.314c0 .386 0 .715-.05.99a4.616 4.616 0 0 1-.122.837Zm7.825 37.52c-.4-.122-.784-.3-1.14-.53a13.55 13.55 0 0 1-4.497-4.115 4.74 4.74 0 0 1-.645-1.118 28.634 28.634 0 0 0 2.844 3.231 28.472 28.472 0 0 0 3.438 2.532Zm12.534 4.952a3.79 3.79 0 0 1-.656.248c-.605.205-1.22.371-1.845.498-.923.204-1.858.345-2.798.424a24.052 24.052 0 0 1-3.459 0 24.412 24.412 0 0 1-3.428-.53 21.964 21.964 0 0 1-2.718-.81c-.6-.215-1.187-.466-1.76-.752a3.571 3.571 0 0 1-.62-.339c.228.058.45.14.661.244.413.174 1.008.407 1.78.662.889.301 1.792.55 2.707.746a25.83 25.83 0 0 0 3.398.482 24.078 24.078 0 0 0 6.201-.36 25.683 25.683 0 0 0 1.851-.408c.225-.056.455-.091.686-.105Zm13.628-26.488c.021.086.034.172.04.26 0 .164.051.418.061.741.048.914.021 1.83-.081 2.739a17.944 17.944 0 0 1-3.104 8.365c-1.713 2.456-4.008 4.398-6.657 5.633-.795.378-1.62.683-2.465.911-.298.085-.535.127-.691.159a.863.863 0 0 1-.247.037s.328-.111.913-.302c.824-.265 1.63-.592 2.41-.98 2.968-1.491 5.47-3.842 7.21-6.776a18.832 18.832 0 0 0 2.611-9.786 8.358 8.358 0 0 1 0-1.001Zm3.822-18.51c.013.153.013.307 0 .46l-.061 1.325a44.525 44.525 0 0 0-.065 2.092c-.01.815-.036 1.742 0 2.77 0 2.055.111 4.496.267 7.203.156 2.706.444 5.683.776 8.797.681 6.234 1.463 11.853 1.977 15.926.257 2.039.459 3.708.585 4.831l.141 1.318c.023.153.033.307.03.461a3.347 3.347 0 0 1-.086-.455c-.045-.323-.106-.758-.186-1.309-.162-1.165-.388-2.801-.671-4.814-.559-4.073-1.366-9.687-2.052-15.926-.333-3.12-.59-6.096-.756-8.808-.166-2.712-.237-5.169-.212-7.224 0-1.028.025-1.96.061-2.776.035-.815.055-1.52.111-2.092.055-.572.08-.995.105-1.324.001-.152.013-.305.036-.455ZM95.112 83.264a2.576 2.576 0 0 1-.63.197 8.355 8.355 0 0 1-1.78.211c-.89.011-1.78-.09-2.647-.301a17.54 17.54 0 0 1-3.096-1.06 29.238 29.238 0 0 1-5.137-3.056c-.62-.45-1.115-.82-1.457-1.086a3.171 3.171 0 0 1-.505-.434c.2.096.39.211.57.344l1.513 1.012a34.389 34.389 0 0 0 5.132 2.96c.98.437 1.992.791 3.025 1.06.851.214 1.722.331 2.597.35a17.37 17.37 0 0 0 2.415-.197Zm20.313 43.192c.106-1.344.302-2.678.585-3.993.195-1.332.476-2.649.842-3.941a30.513 30.513 0 0 1-.585 3.994 31.196 31.196 0 0 1-.842 3.94Z"/>
  <path fill="#000" d="M91.905 134.396c-1.38.466-2.803.779-4.245.932a2.457 2.457 0 0 1-1.83-.329 1.736 1.736 0 0 1-.505-.904 1.799 1.799 0 0 1 .091-1.045 2.755 2.755 0 0 1 1.432-1.451c2.213-1.059 5.042.074 7.12-1.297 1.008-.689 1.638-1.881 2.369-2.913a11.658 11.658 0 0 1 4.911-3.994c.264-.147.57-.189.862-.116.625.248.504 1.218.206 1.848-2.097 4.671-5.59 8.257-10.41 9.269m16.103-29.03c3.025 7.738 1.951 16.906 5.838 24.205.736 1.387 1.664 2.738 1.835 4.311.172 1.573-.811 3.443-2.319 3.432a2.66 2.66 0 0 1-1.355-.414 2.831 2.831 0 0 1-.984-1.064c-.429-.874-.394-1.996-.504-2.971-.656-5.974-1.599-11.959-2.123-17.949-.277-3.178-.187-6.356-.429-9.534M80.47 78.207a30.063 30.063 0 0 0 8.108 6.959 7.89 7.89 0 0 0 2.394 1.028 3.236 3.236 0 0 0 2.521-.435c.33-.21.575-.54.691-.927a1.027 1.027 0 0 0-.013-.586.978.978 0 0 0-.33-.473 1.52 1.52 0 0 0-.766-.175c-4.538-.26-8.924-2.76-12.605-5.391" opacity=".3"/>
  <path fill="#000" d="M84.494 80.764a4.456 4.456 0 0 1-.5-2.218 4.43 4.43 0 0 1 .656-2.172 13.318 13.318 0 0 0-.393 2.182c.017.742.097 1.48.237 2.209Zm5.102 2.177c-.076 0 .156-1.06.126-2.394s-.302-2.357-.227-2.383a6.726 6.726 0 0 1 .101 4.767v.01Zm3.6.89c-.07-.032.237-.837.292-1.88.056-1.043-.146-1.886-.07-1.907.296.59.412 1.261.332 1.923a3.29 3.29 0 0 1-.554 1.864Zm-12.171-5.206a2.445 2.445 0 0 1-.38-.857 2.506 2.506 0 0 1-.033-.944c.016-.46.161-.904.418-1.276a.543.543 0 0 1 .363-.212c.1 0 .151.032.146.047-.005.016-.207 0-.363.286a2.936 2.936 0 0 0-.302 1.176 8.85 8.85 0 0 0 .15 1.78ZM52.357 57.206a5.208 5.208 0 0 1 2.047-1.234 5.126 5.126 0 0 1 2.32-.46c0 .084-1.009.248-2.23.714-1.22.466-2.091 1.05-2.137.98Z"/>
  <path fill="#FAFAFA" d="m107.535 107.49-.424-.106-1.215-.312a43.203 43.203 0 0 0-1.921-.488c-.751-.174-1.603-.397-2.556-.593a116.665 116.665 0 0 0-6.7-1.297c-2.536-.424-5.33-.784-8.28-1.06a122.748 122.748 0 0 0-8.328-.471c-2.562-.064-4.876 0-6.817.048-.968 0-1.845.084-2.611.121-.767.038-1.432.085-1.977.128l-1.245.09h-.434s2.385-.276 6.267-.435c1.936-.09 4.25-.116 6.817-.074 2.566.043 5.384.196 8.339.461 2.954.265 5.748.657 8.284 1.059 2.536.403 4.805.879 6.7 1.319 3.817.9 6.101 1.61 6.101 1.61Zm-4.14 15.746s-.116 0-.342-.048l-.968-.143c-.424-.074-.943-.132-1.543-.206-.6-.074-1.286-.154-2.042-.223-3.025-.301-7.245-.492-11.899-.476-4.653.016-8.858.222-11.899.434-1.512.101-2.752.201-3.6.275l-.978.085h-.342l.337-.042.978-.106c.848-.085 2.078-.201 3.6-.313 3.025-.227 7.25-.445 11.904-.466 4.654-.021 8.869.191 11.904.53s4.89.699 4.89.699Zm6.051 3.188a1.487 1.487 0 0 1-.283 0l-.761-.047-2.521-.207-2.521-.238-.756-.085-.277-.047c.093-.011.188-.011.282 0l.756.052 2.521.207 2.521.238.756.085c.096.001.191.016.283.042Zm2.294 17.849-.409-.084c-.267-.053-.655-.154-1.164-.233a27.748 27.748 0 0 0-4.351-.408 58.485 58.485 0 0 0-6.47.296c-2.43.223-5.096.53-7.91.689-4.807.27-9.628.159-14.42-.334-3.675-.392-5.924-.831-5.924-.831l.414.053 1.175.174c1.008.143 2.52.345 4.346.53a93.31 93.31 0 0 0 14.4.302c2.813-.148 5.48-.461 7.915-.678a55.631 55.631 0 0 1 6.479-.27 26.39 26.39 0 0 1 4.351.44c.504.084.897.19 1.164.254l.404.1Zm-1.18-49.558-.449-.132-1.275-.397-4.694-1.468a717.246 717.246 0 0 0-15.554-4.613 679.705 679.705 0 0 0-15.63-4.237l-4.754-1.223-1.296-.329-.449-.121.454.1 1.296.307 4.77 1.187a508.297 508.297 0 0 1 15.66 4.237c6.08 1.753 11.595 3.395 15.543 4.645l4.684 1.499 1.27.418c.258.069.424.127.424.127Zm-41.696-8.49-.09.032-.258.08-.953.264-3.16.863c-.616.17-1.211.308-1.74.466-.468.131-.91.348-1.306.641a2.467 2.467 0 0 0-.817 1.06c.023-.127.065-.249.126-.36a2.42 2.42 0 0 1 .645-.79c.4-.306.85-.534 1.326-.672.53-.17 1.12-.313 1.74-.477l3.166-.81.963-.233.262-.059.096-.005Zm-4.553-17.981h-.166l-.469.042c-.403 0-1.008.096-1.714.201a25.493 25.493 0 0 0-10.588 4.163c-.61.419-1.1.774-1.422 1.06l-.378.291a.595.595 0 0 1-.136.095 18.917 18.917 0 0 1 1.896-1.483 24.235 24.235 0 0 1 10.613-4.173c.783-.115 1.573-.18 2.364-.196Zm-7.26-15.375a.5.5 0 0 1-.126-.08l-.353-.244c-.297-.222-.751-.53-1.316-.868a18.484 18.484 0 0 0-4.724-2.034 17.192 17.192 0 0 0-5.077-.561c-.655 0-1.19.069-1.553.121l-.418.053h-.147a13.665 13.665 0 0 1 2.113-.259c1.718-.09 3.44.088 5.107.53a17.654 17.654 0 0 1 4.734 2.081c.614.378 1.201.8 1.76 1.26Zm1.765-15.784s-.03 0-.081-.074l-.217-.238a12.687 12.687 0 0 0-.827-.832 14.166 14.166 0 0 0-3.116-2.224 13.885 13.885 0 0 0-3.57-1.277 12.432 12.432 0 0 0-1.129-.185l-.312-.043h-.106.424c.382.03.762.084 1.139.16a12.95 12.95 0 0 1 3.6 1.25 13.587 13.587 0 0 1 3.12 2.266c.286.27.555.56.807.863l.202.25c.05.052.07.084.066.084Zm56.922 76.602a1.76 1.76 0 0 1-.298.037c-.191 0-.463.042-.801.095-1.767.264-3.45.962-4.911 2.039-.277.207-.504.382-.645.53a1.916 1.916 0 0 1-.242.191c.063-.083.136-.158.216-.223a7.04 7.04 0 0 1 .631-.529 10.426 10.426 0 0 1 2.344-1.362 9.88 9.88 0 0 1 2.597-.693 6.88 6.88 0 0 1 .811-.059c.098-.021.198-.03.298-.026Zm11.142 11.842a8.314 8.314 0 0 1-1.633-.863 10.76 10.76 0 0 1-1.573-1.282 12.623 12.623 0 0 1-1.578-1.954 12.411 12.411 0 0 1-1.135-2.267 11.398 11.398 0 0 1-.544-2.013 9.192 9.192 0 0 1-.157-1.917.592.592 0 0 1 0 .133c0 .121 0 .243.026.381.025.138.025.371.06.604.028.263.068.525.121.784.131.68.32 1.347.565 1.991.305.786.683 1.538 1.129 2.246.459.697.981 1.346 1.558 1.938.479.476.997.906 1.548 1.287.209.151.426.289.65.413.162.107.33.2.504.281l.323.169c.101.043.141.064.136.069Z"/>
  <path fill="#3654B6" d="m196.987 80.638.161.53c.035.125.1.239.188.331a.74.74 0 0 0 .316.198l.504.17-.504.19a.73.73 0 0 0-.282.182.786.786 0 0 0-.177.295l-.186.561-.207-.588a.78.78 0 0 0-.179-.288.733.733 0 0 0-.28-.178l-.504-.175.504-.175a.764.764 0 0 0 .449-.456l.197-.597Zm-16.805-24.952.167.53a.76.76 0 0 0 .186.334c.088.093.198.16.318.195l.504.17-.504.19a.735.735 0 0 0-.281.184.8.8 0 0 0-.178.293l-.186.562-.202-.583a.794.794 0 0 0-.181-.291.738.738 0 0 0-.283-.18l-.504-.175.504-.175a.723.723 0 0 0 .273-.172.78.78 0 0 0 .176-.278l.191-.604Zm-57.255 108.046.162.53a.762.762 0 0 0 .186.334c.088.093.198.16.318.195l.504.17-.504.19a.738.738 0 0 0-.281.184.8.8 0 0 0-.178.293l-.181.561-.207-.582a.79.79 0 0 0-.181-.291.746.746 0 0 0-.283-.181l-.504-.174.504-.175a.768.768 0 0 0 .454-.456l.191-.598Zm57.255-17.43.167.529a.76.76 0 0 0 .186.335c.088.092.198.16.318.195l.504.17-.504.19a.738.738 0 0 0-.281.184.791.791 0 0 0-.178.293l-.186.561-.202-.582a.79.79 0 0 0-.181-.291.734.734 0 0 0-.283-.181l-.504-.174.504-.175a.74.74 0 0 0 .449-.45l.191-.604Zm12.055-87.157.666 2.24a3.2 3.2 0 0 0 .743 1.318c.346.37.773.644 1.243.8l2.143.7-2.153.773a3.007 3.007 0 0 0-1.159.753c-.327.34-.575.755-.726 1.212l-.757 2.298-.867-2.43a3.182 3.182 0 0 0-.737-1.186 2.997 2.997 0 0 0-1.153-.732l-2.063-.73 2.017-.721c.418-.15.8-.394 1.119-.715.319-.32.567-.712.726-1.144l.958-2.437Zm-49.278 129.062.66 2.245c.146.493.403.94.75 1.305.347.364.773.635 1.242.788l2.137.699-2.147.768a2.99 2.99 0 0 0-1.16.755 3.21 3.21 0 0 0-.726 1.215l-.756 2.299-.847-2.4a3.21 3.21 0 0 0-.734-1.187 3.005 3.005 0 0 0-1.152-.735l-2.062-.715 2.017-.721a3.005 3.005 0 0 0 1.121-.713c.32-.322.569-.713.729-1.146l.928-2.457ZM134.14 79.748l.273.926c.061.203.167.387.31.537.143.15.319.263.512.327l.882.286-.887.317c-.18.066-.343.174-.478.315a1.347 1.347 0 0 0-.299.501l-.313.948-.347-.99a1.343 1.343 0 0 0-.306-.49 1.257 1.257 0 0 0-.476-.305l-.852-.296.842-.297c.172-.062.33-.163.461-.296.132-.132.234-.293.3-.472l.378-1.011Zm23.243 103.835.273.927c.06.202.167.386.31.535.143.15.318.261.511.323l.883.291-.903.318a1.25 1.25 0 0 0-.478.313 1.342 1.342 0 0 0-.298.503l-.313.948-.348-.996a1.33 1.33 0 0 0-.305-.488 1.252 1.252 0 0 0-.476-.301l-.852-.297.842-.296a1.27 1.27 0 0 0 .461-.296c.131-.133.234-.294.3-.472l.393-1.012Zm-11.374-57.164c0 .53-12.423 44.32-12.423 44.32l10.679-5.015 5.848 13.542 7.517-52.164-11.621-.683Z"/>
  <path fill="#3654B6" d="m155.099 128.273 2.531 50.226 9.303-13.776 12.014 9.03-12.014-49.33-11.834 3.85Z"/>
  <path fill="#000" d="M145.202 129.74a4.834 4.834 0 0 0 1.548 2.356 4.465 4.465 0 0 0 2.546 1.018c1.094.047 2.299-.307 3.222.318s1.311 2.081 2.395 2.235c1.27.19 2.017-1.589 3.217-2.013 1.638-.561 3.357 1.515 4.971.874 1.038-.413 1.512-1.817 2.611-2.119a3.469 3.469 0 0 1 1.452.053 2.73 2.73 0 0 0 1.644-.328l-.59-2.42-1.008-4.698h-21.599l-.409 4.724Z" opacity=".5"/>
  <path fill="#3654B6" d="M157.832 90.642c1.06.096 2.107.316 3.121.657a1.426 1.426 0 0 1 .096-.53c.914-2.57 1.825-5.136 2.732-7.696l.066-.063a2.424 2.424 0 0 1-.903-.953 2.905 2.905 0 0 0-1.056-1.025 2.74 2.74 0 0 0-1.399-.352c-.504 2.182-1.104 5.169-1.548 7.028a8.629 8.629 0 0 1-1.109 2.934Zm-13.159 23.389a15.469 15.469 0 0 1-1.624-3.4 1.163 1.163 0 0 1-.504.307l-.217.079a2.888 2.888 0 0 1-.423.239c-.459.184-.927.341-1.402.471l-1.724.503c-1.225.35-2.339.652-3.146.853a6.729 6.729 0 0 1-1.321.281c.408-.2.833-.356 1.27-.466l1.1-.339-2.521.588c-.328 1.504-1.341 3.114-.449 4.274.094.118.205.222.328.307 3.211-1.25 7.331-2.865 10.028-3.612.195-.065.4-.093.605-.085Zm8.268-23.775v.799a13.759 13.759 0 0 1 3.53-.482v-.206l.166-2.786v-.572c.035-2.002.111-3.66.177-3.983-.535-.662-1.044-2.05-2.123-2.198-.892-.122-1.356 0-1.734.382.04 2.785-.046 6.308-.016 9.046Zm-13.93 9.761c.222.092.444.176.665.254-.942-.392-1.91-.816-2.838-1.234.64.313 1.371.652 2.173.98Z"/>
  <path fill="#3654B6" d="M142.253 104.884c.064-1.165.257-2.319.575-3.437a27.47 27.47 0 0 1-.873-.297 14.269 14.269 0 0 1-3.025-.879 27.842 27.842 0 0 1-3.201-1.589c-.555-.312-.948-.53-1.135-.683l-.605-.27c-.393.672-1.008 1.223-1.437 1.896a2.52 2.52 0 0 0-.358 1.276c3.283.943 7.245 2.188 10.003 3.914l.056.069Zm1.109-5.111a15.07 15.07 0 0 1 1.513-2.823l-.217-.148a25.947 25.947 0 0 1-4.538-4.041l-.035-.043c-.615-.53-1.2-1.096-1.719-1.589-.07.232-.189.444-.348.62-.782.821-2.249.291-3.111 1.017a1.66 1.66 0 0 0-.55 1.06 85.524 85.524 0 0 1 7.951 5.253c.414.27.782.509 1.054.694Zm1.371-5.217c.353.53.666.985.898 1.346a14.655 14.655 0 0 1 2.677-2.574 74.97 74.97 0 0 1-1.089-1.51 47.957 47.957 0 0 1-1.225-1.552 40.352 40.352 0 0 1-1.583-2.23 4.578 4.578 0 0 1-.57-.985s.156.138.373.419c-.353-.53-.686-.98-.978-1.383-.208.49-.543.906-.968 1.203-.635.397-1.477.376-2.198.53a56.764 56.764 0 0 1 4.033 5.783l.63.953Zm4.467-1.843a13.78 13.78 0 0 1 2.612-1.287c-.035-.111-.065-.228-.101-.36a35.517 35.517 0 0 1-.64-2.828 36.165 36.165 0 0 1-.419-2.871 9.594 9.594 0 0 1-.07-1.15l-.03-.206a2.44 2.44 0 0 1-.999-.123 2.532 2.532 0 0 1-.877-.518c-.832-.784-2.244-.683-3.333-.19 1.15 2.907 2.869 6.885 3.817 9.432.015.032.025.064.04.101Zm-3.696 3.342-.034-.042.029.053.005-.01Zm-2.707 13.744a16 16 0 0 1-.549-3.644h-.081c-1.008.059-2.188.043-3.428 0h-1.18c-1.2 0-2.284-.1-3.066-.18a18.876 18.876 0 0 1-.857-.106l-.766-.047c-.171.275-.343.529-.504.837-.439.81-.716 1.827-.303 2.648l.046.069c3.337.084 6.672.187 10.003.307.233-.009.466.031.685.116Zm4.684 7.791.212-.143a14.894 14.894 0 0 1-2.521-2.717 1.25 1.25 0 0 1-.393.445.983.983 0 0 1-.283.408c-.645.53-1.552 1.117-2.566 1.817a82.39 82.39 0 0 1-2.606 1.721 5.985 5.985 0 0 1-1.12.646c.31-.305.647-.576 1.009-.81.373-.265.827-.593 1.336-.943-.978.62-1.962 1.239-2.844 1.806.167.784-.096 1.695.247 2.431.343.736 1.049.953 1.835 1.102l6-4.682a7.335 7.335 0 0 1 1.694-1.081Zm27.397 2.437.822.678a.584.584 0 0 1 .051-.059l-.268-.185-.605-.434Zm-7.487-4.529a14.71 14.71 0 0 1-2.566 2.442c.266.286.514.59.741.911a.977.977 0 0 1 .081.063c.408.428.749.921 1.008 1.462l1.039 1.859.03.064c.676 1.181 1.351 2.41 1.946 3.48.074-.174.175-.333.298-.472 1.048-1.149 3.176-.032 4.285-1.107.11-.11.205-.234.283-.371-2.042-2.335-4.765-5.608-6.499-7.52a5.024 5.024 0 0 1-.646-.811Zm.802 2.511c.453.603.871 1.234 1.25 1.891.45.606.866 1.239 1.246 1.896a6.452 6.452 0 0 1-1.462-1.738 6.899 6.899 0 0 1-1.034-2.049Zm-11.249-34.888a.263.263 0 0 1-.035-.037c.005.087.005.173 0 .26l.035-.223Zm13.866 24.253a15.685 15.685 0 0 1-.691 3.177l.393.202 1.392.762a9.01 9.01 0 0 1-1.351-.879 41.92 41.92 0 0 1 4.26 2.246c1.008.577 1.966 1.123 2.687 1.552l.469.206a2.232 2.232 0 0 1 .101-.731c.393-1.191 1.845-1.816 2.344-2.865-3.045-1.171-6.957-2.627-9.604-3.67Zm-2.743 7.255c.277.228.63.53 1.008.816l.136.101a157.99 157.99 0 0 1 3.202 2.341c1.24.927 2.355 1.785 3.156 2.41l.303.243c.504-.381 1.109-.619 1.633-.948-2.591-2.383-5.652-5.678-7.981-7.552a15.572 15.572 0 0 1-1.457 2.589Zm-16.416 5.387a2.778 2.778 0 0 0-.156-.302 14.01 14.01 0 0 1-2.627-1.393l-.071.095c-.186.239-.398.493-.63.763a42.89 42.89 0 0 1-3.459 3.888 4.191 4.191 0 0 1-.827.725s.046-.1.162-.243c-.414.434-.802.858-1.155 1.255.555 1.213 0 2.982.948 3.962.167.175.368.311.59.397 2.017-2.844 4.764-6.525 6.721-8.808a.83.83 0 0 1 .504-.339Zm5.747.646c.14.202.219.444.227.694.163.522.198 1.08.101 1.62-.075.641-.161 1.33-.247 2.05-.121.959-.242 1.854-.348 2.648-.08 1.012-.156 2.008-.242 2.908a6.775 6.775 0 0 0 1.745 1.245c.968.328 1.83-.164 2.687-.821-.197-3.395-.368-7.627-.237-10.646l.151.371c-.045-.175-.06-.276-.045-.281.204.38.365.783.479 1.202a57.893 57.893 0 0 1 1.185 3.946c.353 1.255.66 2.521.892 3.708a2.553 2.553 0 0 1 1.134-.244c.888.026 1.826.583 2.663.699-1.422-3.617-2.94-8.146-3.53-11.239a13.802 13.802 0 0 1-6.615 2.14Zm1.831 5.757a5.59 5.59 0 0 1-.111-1.483 5.929 5.929 0 0 1 .025-1.488 5.79 5.79 0 0 1 .086 2.971Z"/>
  <path fill="#3654B6" d="M156.022 120.726a.256.256 0 0 1 .056-.053 13.57 13.57 0 0 1-4.473-.916c.036.047.076.1.121.169a.955.955 0 0 0 .051.101c.292.084.383.529.348.863-.017.166-.044.33-.081.493-.029.47-.13.933-.297 1.371-.222.609-.505 1.24-.827 1.907a35.452 35.452 0 0 1-1.775 3.294c-.297.488-.539.848-.691 1.06.183.022.363.068.535.137 1.406.578 2.168 2.723 3.665 2.537l.136-.026c.878-2.934 1.755-7.002 2.632-9.73a3.15 3.15 0 0 1 .6-1.207ZM168.47 97.23c.168-.158.336-.312.504-.46.182-.269.407-.502.666-.688a22.02 22.02 0 0 1 1.316-.89 33.267 33.267 0 0 1 2.47-1.44c.444-.228.772-.382.943-.446l.898-.556c-.888-1.462.262-3.68-.782-5.026-.048-.06-.1-.117-.156-.17-2.627 2.045-6.015 4.365-8.964 6.197a14.814 14.814 0 0 1 3.105 3.48Zm.631-5.92a15.29 15.29 0 0 1 1.87-1.219 6.862 6.862 0 0 1-1.729 1.452c-.6.46-1.265.818-1.972 1.059.58-.477 1.192-.909 1.831-1.292Zm1.618 11.885c.124.803.186 1.616.186 2.431v.45h.237c.424 0 .842.042 1.266.074h.297c.868 0 2.063.085 3.383.185 1.236.101 2.355.217 3.197.323.212-1.001 1.386-1.499 1.734-2.468a2.144 2.144 0 0 0-.1-1.52c-3.081.18-7.246.445-9.812.53l-.388-.005Zm-3.499-18.739-5.112 6.753a1.846 1.846 0 0 1-.379.37 13.92 13.92 0 0 1 3.172 1.796l.07-.095c.07-.197.176-.377.313-.53.227-.275.504-.598.796-.948 1.513-1.907 3.237-3.834 4.679-5.434a2.17 2.17 0 0 1-.786-.53c-.636-.672-.772-1.795-1.513-2.309a1.679 1.679 0 0 0-.791-.265 1.67 1.67 0 0 1-.116.672 1.59 1.59 0 0 1-.333.52Zm3.166 17.155.419-.196c.315-.183.643-.339.983-.466.625-.27 1.512-.62 2.46-.99a71.87 71.87 0 0 1 2.486-.917c.34-.143.696-.245 1.059-.302 0 0-.121.096-.363.207l1.3-.45c0-1.102.293-2.272-.242-3.21a2.25 2.25 0 0 0-.504-.598c-2.748 1.165-6.504 2.998-8.914 3.527a15.334 15.334 0 0 1 1.316 3.395Zm8.859 5.281-1.125-.09c.373.026.746.058 1.125.09Zm-27.342-15.873c.03.127.05.243.07.349l.081-.026a13.21 13.21 0 0 1-.212-.625c.005.1.031.211.061.302Z"/>
  <path fill="#000" d="M164.941 93.407a.609.609 0 0 1 .029-.127l-.069.095.04.032Z"/>
  <path fill="#3654B6" d="M168.712 97.623c.001-.17.032-.34.091-.498.046-.126.107-.245.182-.355a7.112 7.112 0 0 0-.505.461c.061.127.152.26.232.392Z"/>
  <path fill="#000" d="M177.969 114.714v-.074l-.469-.206.469.28Zm-8.874.731c-.398-.312-.751-.588-1.008-.816l-.06.08c.171.116.554.376 1.068.736Zm.414 10.201.111.217.03-.084c-.595-1.06-1.27-2.299-1.946-3.48.716 1.297 1.341 2.484 1.805 3.347Z"/>
  <path fill="#3654B6" d="M157.106 120.673c.216.144.39.347.504.588 0 .031 0 .063.036.095a1.31 1.31 0 0 0-.227-.694l-.313.011Zm-5.329-.646c.16.315.251.664.267 1.022.008.111.008.222 0 .333a4.07 4.07 0 0 0 .081-.492c.035-.339-.056-.779-.348-.863Z"/>
  <path fill="#000" d="M148.878 118.321h-.051c-.09.148-.287.424-.564.779-.026.031-.056.074-.086.106.232-.271.444-.53.63-.763l.071-.122Zm-5.975-17.234a1.128 1.128 0 0 1-.554.127l-.419-.064c.298.106.59.207.872.297.026-.122.066-.212.101-.36Zm5.582-7.892a4.988 4.988 0 0 1-.782-.805l-.504-.572a70.94 70.94 0 0 0 1.089 1.51l.197-.133Zm4.426-2.124h.045v-.407a1.995 1.995 0 0 1-.045.407Zm3.58-.498h.191c-.025-.598-.03-1.7 0-2.992l-.166 2.786a.73.73 0 0 0-.025.206Z"/>
  <path fill="#3654B6" d="M161.049 90.764a1.427 1.427 0 0 0-.096.53c.262.09.504.185.776.29a1.82 1.82 0 0 0 .379-.37l5.112-6.753a1.633 1.633 0 0 0 .454-1.176c-.923-.079-1.982.403-2.904.101a6.61 6.61 0 0 1-.651-.238c-.262.831-.696 2.118-1.205 3.538a44.319 44.319 0 0 1-1.724 4.438c.409-1.54.902-3.053 1.477-4.534a96.22 96.22 0 0 1 1.306-3.516.733.733 0 0 1-.111-.064l-.065.064c-.921 2.574-1.837 5.137-2.748 7.69Zm2.662-2.214c.441-.661.937-1.28 1.482-1.848a8.694 8.694 0 0 1-1.275 2.017 8.752 8.752 0 0 1-1.568 1.78c.397-.69.853-1.343 1.361-1.949Zm3.721 1.695c.852-.97 1.633-1.838 2.208-2.457.291-.357.618-.68.973-.964a7.25 7.25 0 0 1-.837 1.096c-.539.651-1.301 1.541-2.148 2.51-.847.97-1.633 1.844-2.208 2.458-.18.156-.303.373-.348.614l.288.233c2.949-1.832 6.337-4.152 8.964-6.196a2.156 2.156 0 0 0-.822-.53c-.847-.307-1.891-.297-2.728-.64-1.442 1.588-3.176 3.527-4.678 5.433a95.87 95.87 0 0 1 1.336-1.557Zm7.083 3.045a5.652 5.652 0 0 1-1.008.657c-.62.382-1.482.9-2.42 1.5-.938.598-1.86 1.096-2.128 1.773-.09.206-.132.431-.121.657l.197.36c2.41-.53 6.166-2.362 8.914-3.527-.837-.704-2.092-.98-2.687-1.938l-.883.518c.081 0 .131-.031.136 0Zm-1.769 3.178a5.41 5.41 0 0 1-1.457.567 6.888 6.888 0 0 1 2.838-1.308c-.426.3-.891.536-1.381.699v.042Zm4.058 2.76c-.625.265-1.512.614-2.465.99-.953.376-1.85.694-2.491.911a4.131 4.131 0 0 1-1.053.302l-.419.196c.138.523.249 1.054.333 1.589h.378c2.566-.069 6.731-.334 9.811-.53a4.648 4.648 0 0 0-.595-1.059c-.549-.726-1.23-1.393-1.472-2.283a3.622 3.622 0 0 1-.111-.873l-1.3.45-.616.307Zm-.746 7.399-3.373-.27a7.73 7.73 0 0 1-1.396-.17c.367-.05.739-.06 1.109-.032a35.802 35.802 0 0 0-1.266-.074h-.237c0 .44-.04.869-.085 1.298 2.647 1.059 6.554 2.5 9.604 3.67.107-.214.166-.452.172-.694.035-1.265-1.417-2.235-1.341-3.458a40.829 40.829 0 0 1-1.125-.106l-2.062-.164Zm-4.154 4.888-1.392-.747-.393-.201a14.84 14.84 0 0 1-.57 1.473c2.33 1.874 5.39 5.169 7.981 7.552.327-.188.602-.459.802-.789.625-1.155-.227-2.558-.348-3.882-.781-.408-1.966-1.06-3.287-1.796a139.214 139.214 0 0 1-2.793-1.61Zm.378 6.599c-1.24-.926-2.36-1.784-3.156-2.409-.57-.451-.978-.779-1.155-.948-.186.254-.378.503-.58.741.182.292.391.564.626.81 1.734 1.912 4.457 5.186 6.498 7.521.474-.826.358-2.028.928-2.839.077-.104.163-.2.257-.286l-.822-.678a216.216 216.216 0 0 1-2.596-1.912Zm-4.835 4.259a85.11 85.11 0 0 1-1.009-1.87 6.193 6.193 0 0 0-.892-1.44.937.937 0 0 0-.456-.258.911.911 0 0 0-.517.03c-.237.09-.303.254-.323.233-.02-.021 0-.186.278-.334a1.01 1.01 0 0 1 1.053.117 8.792 8.792 0 0 0-.741-.911c-.262.19-.529.381-.801.556.579 3.093 2.097 7.621 3.529 11.239a1.474 1.474 0 0 0 1.169-.281c.898-.72.53-2.235.837-3.368l-.201-.339c-.525-.858-1.2-2.05-1.926-3.374Zm-4.089 5.291c.119.419.192.851.217 1.287a6.954 6.954 0 0 1-.394-1.234l-.837-3.014c-.317-1.123-.605-2.145-.852-3.008a35.875 35.875 0 0 1-.257-.985l-.151-.371c-.131 3.019.04 7.251.237 10.646a12.938 12.938 0 0 1 2.425-1.706 48.866 48.866 0 0 0-.892-3.707c.211.805.383 1.525.504 2.092Zm-6.388 1.07a9.144 9.144 0 0 1-.282 1.525 8.577 8.577 0 0 1 .1-1.552c.096-.953.247-2.266.429-3.707l.272-2.044a3.275 3.275 0 0 0-.065-1.589 1.41 1.41 0 0 0-.55-.662h-.807a.25.25 0 0 0-.055.053 3.135 3.135 0 0 0-.6 1.212c-.877 2.728-1.755 6.796-2.632 9.73 1.039-.228 1.709-1.557 2.783-1.631.486.001.954.19 1.316.529.086-.9.161-1.896.242-2.907-.045.36-.101.725-.151 1.043Zm-6.282-4.195c.307-.657.61-1.292.837-1.87.207-.502.32-1.041.332-1.588a2.72 2.72 0 0 0-.206-1.06.835.835 0 0 0-.504.339c-1.957 2.283-4.715 5.964-6.721 8.808 1.109.44 2.632-.307 3.938-.159.121-.233.337-.625.625-1.149a74.257 74.257 0 0 0 1.699-3.321Zm-6.645-.991c.353-.439 1.26-1.43 2.304-2.611 1.134-1.276 2.082-2.367 2.41-2.685a18.048 18.048 0 0 1-.958-.715c-.4.394-.819.765-1.256 1.112a7.2 7.2 0 0 1-1.573 1.113 6.79 6.79 0 0 1 1.412-1.33c.424-.344.812-.641 1.099-.842a7.296 7.296 0 0 0-1.704 1.059l-5.975 4.704c1.039.19 2.214.238 2.864 1.059.098.125.181.262.247.408.328-.413.716-.811 1.13-1.272Zm-2.274-6.382c1.008-.688 1.951-1.287 2.586-1.732a.855.855 0 0 0 .293-.391.562.562 0 0 0 0-.371c-.066-.207-.202-.244-.192-.265.01-.021.166 0 .287.222a.69.69 0 0 1 .016.546 1.25 1.25 0 0 0 .393-.445 22.577 22.577 0 0 1-.479-.699c-.205-.008-.41.02-.605.085-2.698.746-6.817 2.362-10.028 3.612 1.008.773 2.848.439 3.499 1.631.071.146.124.301.156.461.882-.567 1.865-1.186 2.844-1.806.383-.27.776-.551 1.23-.848Zm-3.056-5.201 1.73-.487c.534-.143 1.008-.254 1.396-.403a2.7 2.7 0 0 0 1.089-.752s-.03.143-.186.334c-.119.14-.256.262-.409.36l.217-.079c.19-.057.363-.162.504-.307-.09-.276-.176-.53-.252-.832a1.702 1.702 0 0 0-.675-.127 777.318 777.318 0 0 0-10.003-.307c.464.826 1.512 1.191 1.926 2.044.24.545.282 1.163.116 1.737l2.521-.588c.595-.201 1.295-.386 2.026-.593Zm-5.465-6.207a6.426 6.426 0 0 1 1.271 0c.786.032 1.865.074 3.06.101 1.195.026 2.279.031 3.06.037a6.723 6.723 0 0 1 1.276.053 5.284 5.284 0 0 1-1.271.143c-.504.031-1.169.047-1.89.053 1.24.053 2.43.069 3.428 0h.081v-1.271l-.071-.048c-2.758-1.727-6.72-2.971-10.003-3.914a1.31 1.31 0 0 0 .158.821c.14.247.357.436.614.535l-.071-.477c.812.371 1.034 1.52.777 2.41a6.505 6.505 0 0 1-.787 1.589l.766.047a1.133 1.133 0 0 1-.398-.079Zm7.059-.747c.571.062 1.13.214 1.658.45a5.536 5.536 0 0 1-1.704-.174 5.437 5.437 0 0 1-1.653-.451 5.475 5.475 0 0 1 1.699.175Zm-5.854-7.091c.464.16.913.363 1.341.608l1.044.53c.928.419 1.896.842 2.838 1.234.872.333 1.769.582 2.683.747a.967.967 0 0 0 .544-.095.433.433 0 0 0 .071-.064c.101-.312.207-.62.328-.927-.464-.238-1.17-.64-1.957-1.117a14.377 14.377 0 0 1-2.379-1.59c.876.374 1.72.827 2.52 1.357l.817.53a85.698 85.698 0 0 0-7.961-5.313c-.161.996.202 2.267-.091 3.3a2.938 2.938 0 0 1-.277.625l.605.27c-.08-.048-.131-.09-.126-.096Zm4.871-6.166c.331.257.637.548.912.87.55.529 1.316 1.302 2.193 2.086a46.256 46.256 0 0 0 2.32 1.933l.206.164c.177-.254.353-.503.545-.741l-.031-.053a22.988 22.988 0 0 1-.952-1.298 9.224 9.224 0 0 1-1.2-2.087c.294.293.551.624.766.986a56.923 56.923 0 0 0-4.033-5.784 1.84 1.84 0 0 0-1.095.62c-.559.715-.352 1.837-.625 2.685.504.487 1.104 1.027 1.72 1.589a5.072 5.072 0 0 1-.726-.97Zm6.877-1.641c1.26 1.673 2.314 3.008 2.289 3.093.231-.166.468-.325.71-.477 0-.037-.025-.069-.04-.1-.948-2.543-2.667-6.526-3.817-9.433a5.256 5.256 0 0 0-.534.29c-.842.53-1.119 1.68-1.573 2.617.292.403.625.874.978 1.383.353.508 1.134 1.498 1.987 2.627Zm1.3-.768c.323.541.597 1.114.817 1.71a10.2 10.2 0 0 1 .731 1.753 8.437 8.437 0 0 1-1.548-3.463Zm3.096-5.185c.117.384.198.78.242 1.18.121.726.287 1.738.504 2.845.182.969.358 1.838.504 2.531.071.228.142.435.212.625.267-.095.54-.18.822-.26a13.79 13.79 0 0 1-.257-1.752 8.669 8.669 0 0 1-.172-1.79c.25.552.397 1.148.434 1.758.045.35.066.678.076.959 0-2.739.055-6.26.05-9.046-.418.418-.726 1.149-1.402 2.198-.12.174-.275.32-.455.424a1.337 1.337 0 0 1-.583.18l.03.206c-.015-.032-.01-.058-.005-.058Zm6.348 2.854c-.026 1.542-.071 2.876-.126 3.56.342 0 .685 0 1.008.058a8.624 8.624 0 0 0 1.109-2.93c.444-1.858 1.054-4.845 1.548-7.027a2.098 2.098 0 0 0-.892.27c-.777.45-1.72 2.42-2.209 2.43a.618.618 0 0 1-.453-.254v.223c.015.646.015 2.044.015 3.67Z"/>
  <path fill="#000" d="M171.848 101.129a59.143 59.143 0 0 0 2.491-.911c.978-.381 1.84-.725 2.465-.99l.626-.281c.242-.111.373-.185.363-.207a4.529 4.529 0 0 0-1.059.302c-.64.223-1.513.53-2.486.917-.973.386-1.835.72-2.46.99-.34.127-.668.283-.983.466a4.13 4.13 0 0 0 1.043-.286Zm.847 5.037h-.297a5.205 5.205 0 0 0-1.109.032c.46.098.927.155 1.396.169l3.373.27 2.062.159 1.125.09v-.201a76.744 76.744 0 0 0-3.197-.323 56.235 56.235 0 0 0-3.353-.196Zm2.118 6.721a42.121 42.121 0 0 0-4.26-2.246c.425.334.877.628 1.351.88a86.667 86.667 0 0 0 2.788 1.588c1.321.742 2.521 1.388 3.287 1.796v-.207l-.469-.28c-.731-.413-1.669-.959-2.697-1.531Z"/>
  <path fill="#000" d="M172.433 117.887c-1.24-.927-2.37-1.753-3.201-2.341l-.137-.101c-.504-.36-.897-.619-1.089-.736l.061-.079c.574-.81 1.07-1.678 1.482-2.59a15.685 15.685 0 0 0 1.266-4.666c.045-.429.075-.858.085-1.298v-.45a15.517 15.517 0 0 0-.504-4.015 15.326 15.326 0 0 0-1.351-3.395l-.197-.36a1.461 1.461 0 0 1 .121-.657c.268-.678 1.205-1.16 2.128-1.774.923-.614 1.8-1.118 2.42-1.499a5.646 5.646 0 0 0 1.008-.657s-.055 0-.136.037a9.972 9.972 0 0 0-.942.445c-.651.34-1.513.837-2.471 1.44a22.02 22.02 0 0 0-1.316.89c-.259.187-.484.42-.665.69a1.58 1.58 0 0 0-.182.354c-.059.159-.09.328-.091.498-.08-.133-.156-.265-.242-.392a14.809 14.809 0 0 0-3.11-3.496l-.288-.233c.045-.24.168-.458.348-.614.575-.614 1.356-1.483 2.208-2.458a129.53 129.53 0 0 0 2.148-2.51c.312-.336.593-.703.837-1.096a6.537 6.537 0 0 0-.973.963c-.575.62-1.356 1.489-2.208 2.458a40.498 40.498 0 0 0-1.351 1.589c-.298.35-.57.673-.797.948a1.598 1.598 0 0 0-.313.53.612.612 0 0 0-.03.127l-.04-.032a13.92 13.92 0 0 0-3.172-1.795 11.417 11.417 0 0 0-.776-.292 13.609 13.609 0 0 0-3.121-.656 16.555 16.555 0 0 0-1.008-.059c.055-.683.101-2.018.126-3.559.03-1.626 0-3.024 0-3.67a2.807 2.807 0 0 0 0-.26l-.051-.058c-.065.323-.141 1.98-.176 3.983v3.564h-.192a13.75 13.75 0 0 0-3.529.482h-.045a2.08 2.08 0 0 0 .04-.424v-.391c0-.281-.03-.61-.076-.96a5.017 5.017 0 0 0-.433-1.757 8.601 8.601 0 0 0 .171 1.79c.049.59.135 1.175.257 1.753a12.5 12.5 0 0 0-.821.26l-.081.026c0-.106-.04-.223-.071-.35-.03-.127-.04-.201-.06-.302-.141-.694-.318-1.562-.504-2.531-.202-1.107-.368-2.119-.505-2.844a6.49 6.49 0 0 0-.242-1.182v.059c.001.384.024.768.071 1.149a37.3 37.3 0 0 0 1.059 5.699c.035.132.065.249.101.36a14.206 14.206 0 0 0-3.323 1.764c0-.085-1.008-1.42-2.289-3.093-.842-1.113-1.568-2.092-1.986-2.648-.217-.281-.353-.435-.374-.419.15.352.341.683.57.985.383.588.938 1.377 1.583 2.23a49.87 49.87 0 0 0 1.225 1.552l.505.572c.231.298.493.568.781.805l-.176.132c-.993.736-1.892 1.6-2.678 2.574-.231-.36-.544-.831-.897-1.345l-.65-.943a5.005 5.005 0 0 0-.767-.985c.31.749.714 1.45 1.2 2.087.353.53.686.964.953 1.297l.035.043a13.08 13.08 0 0 0-.544.741l-.207-.164a48.68 48.68 0 0 1-2.319-1.933 49.787 49.787 0 0 1-2.193-2.087 6.214 6.214 0 0 0-.913-.868c.211.352.461.675.746.964l.036.042a25.91 25.91 0 0 0 4.537 4.041l.217.148a15.007 15.007 0 0 0-1.512 2.823 40.417 40.417 0 0 0-1.069-.694l-.817-.53a15.737 15.737 0 0 0-2.521-1.355 14.35 14.35 0 0 0 2.38 1.589c.786.477 1.512.88 1.956 1.118a15.68 15.68 0 0 0-.328.926.422.422 0 0 1-.07.064.97.97 0 0 1-.545.095 14.875 14.875 0 0 1-2.682-.747 26.648 26.648 0 0 1-.666-.254c-.801-.328-1.512-.667-2.173-.98l-1.043-.53a7.908 7.908 0 0 0-1.341-.608s.045.047.126.1c.186.133.579.371 1.134.684a27.788 27.788 0 0 0 3.202 1.588c.976.405 1.99.7 3.025.88l.418.063a1.11 1.11 0 0 0 .555-.127c-.036.122-.071.238-.101.36a15.775 15.775 0 0 0-.55 3.438v1.271a16.064 16.064 0 0 0 .802 4.475 15.444 15.444 0 0 0 1.623 3.4c.157.239.318.472.479.7a14.997 14.997 0 0 0 2.521 2.717l-.211.143c-.288.201-.676.497-1.099.842a6.787 6.787 0 0 0-1.412 1.329 7.279 7.279 0 0 0 1.573-1.112c.437-.347.856-.718 1.255-1.112.313.249.63.487.958.715-.328.317-1.275 1.408-2.41 2.685-1.043 1.181-1.951 2.171-2.304 2.611-.116.143-.176.228-.161.244.304-.204.582-.448.827-.726.504-.482 1.134-1.16 1.83-1.938a36.862 36.862 0 0 0 1.628-1.95c.031-.031.061-.074.086-.105.277-.355.474-.631.565-.779h.05a14.04 14.04 0 0 0 2.627 1.393c.058.097.11.198.156.302.139.334.209.695.207 1.059a4.407 4.407 0 0 1-.333 1.589c-.227.577-.529 1.213-.837 1.87a68.132 68.132 0 0 1-1.699 3.32c-.287.53-.504.917-.625 1.15h.091c.151-.217.393-.578.69-1.059a35.36 35.36 0 0 0 1.775-3.295c.313-.667.605-1.297.827-1.907.168-.437.268-.9.297-1.371a2.327 2.327 0 0 0 0-.334 2.477 2.477 0 0 0-.267-1.022.948.948 0 0 1-.05-.101c-.046-.069-.086-.122-.121-.169a13.57 13.57 0 0 0 4.472.916h.807c.248.19.427.462.509.773.152.515.175 1.062.065 1.589l-.272 2.045a169.034 169.034 0 0 0-.428 3.707 8.483 8.483 0 0 0-.101 1.552 9.162 9.162 0 0 0 .282-1.525c.051-.318.106-.684.161-1.06.106-.773.227-1.668.348-2.648.086-.72.172-1.409.247-2.05a3.418 3.418 0 0 0-.1-1.62c0-.032 0-.064-.036-.096a1.462 1.462 0 0 0-.504-.588h.292a13.811 13.811 0 0 0 7.402-2.727 14.71 14.71 0 0 0 2.566-2.442c.202-.238.393-.487.58-.741.176.169.585.498 1.155.948.796.625 1.915 1.483 3.156 2.41.963.72 1.86 1.377 2.596 1.912l.605.434.267.185.142-.106-.273-.238c-.811-.63-1.926-1.483-3.166-2.415Zm-15.861.943c-2.486 0-4.917-.775-6.984-2.226s-3.678-3.513-4.629-5.925a13.828 13.828 0 0 1-.715-7.629c.485-2.562 1.682-4.914 3.44-6.76 1.758-1.847 3.997-3.105 6.435-3.614a12.012 12.012 0 0 1 7.263.75c2.296 1 4.259 2.693 5.641 4.864a13.682 13.682 0 0 1 2.118 7.336c0 3.502-1.324 6.86-3.682 9.336-2.357 2.476-5.554 3.868-8.887 3.868Z"/>
  <path fill="#000" d="M170.689 121.795a20.105 20.105 0 0 0-1.246-1.896 18.72 18.72 0 0 0-1.25-1.89c.23.74.58 1.433 1.034 2.049.385.666.88 1.254 1.462 1.737Zm-2.985.504-.03-.064-1.039-1.859a5.662 5.662 0 0 0-1.008-1.462.977.977 0 0 0-.081-.063 1.012 1.012 0 0 0-1.039-.138c-.257.148-.287.339-.277.334.01-.006.086-.143.323-.233a.911.911 0 0 1 .517-.03c.171.04.329.129.456.257.36.435.66.919.892 1.441.318.583.661 1.213 1.009 1.87a162.923 162.923 0 0 0 1.9 3.374l.202.338c0-.074.045-.148.071-.222l-.111-.217c-.444-.842-1.069-2.029-1.785-3.326Zm-5.359 2.404.836 3.014c.093.424.225.837.394 1.234a5.963 5.963 0 0 0-.217-1.287 46.517 46.517 0 0 0-.504-2.087 57.893 57.893 0 0 0-1.185-3.946 5.71 5.71 0 0 0-.479-1.202s0 .106.045.281c.046.175.141.53.257.985.247.863.535 1.886.853 3.008Zm-3.202-1.255a5.929 5.929 0 0 0-.025 1.488c-.029.498.008.997.111 1.483a5.79 5.79 0 0 0-.086-2.971Zm-14.4-8.819c-.121-.238-.292-.233-.287-.222.005.01.126.058.192.265a.559.559 0 0 1 0 .37.858.858 0 0 1-.293.392c-.635.445-1.583 1.06-2.586 1.732-.434.297-.847.578-1.23.848-.505.349-.963.678-1.336.942-.362.234-.7.506-1.009.811.394-.173.769-.39 1.119-.646.676-.429 1.599-1.06 2.607-1.722 1.008-.662 1.921-1.297 2.566-1.816a.983.983 0 0 0 .283-.408.414.414 0 0 0 .03-.09.69.69 0 0 0-.056-.456Zm-2.001-3.972c.156-.191.197-.328.186-.334-.299.34-.673.598-1.089.753-.378.148-.862.259-1.396.402l-1.73.487c-.731.207-1.421.408-2.016.594l-1.099.339a6.46 6.46 0 0 0-1.271.466c.448-.049.89-.143 1.321-.281.807-.201 1.921-.53 3.146-.853l1.724-.503c.476-.13.944-.287 1.402-.471a3.05 3.05 0 0 0 .424-.239 1.86 1.86 0 0 0 .398-.36Zm-.842-4.703a6.723 6.723 0 0 0-1.276-.053c-.781 0-1.865 0-3.06-.037s-2.274-.069-3.06-.101a6.582 6.582 0 0 0-1.271 0c.128.057.265.089.403.096.212.032.504.069.857.106.782.079 1.866.153 3.066.18h1.18c.721 0 1.376 0 1.89-.053a5.23 5.23 0 0 0 1.271-.138Zm-1.659-.667a5.507 5.507 0 0 0 1.704.175 10.542 10.542 0 0 0-3.358-.625 5.442 5.442 0 0 0 1.654.45Zm8.808-12.494a10.147 10.147 0 0 0-.731-1.753 10.322 10.322 0 0 0-.817-1.711 8.437 8.437 0 0 0 1.548 3.464Zm12.126-1.673a44.552 44.552 0 0 0 1.724-4.44c.504-1.43.943-2.706 1.205-3.537l-.146-.074c-.323.81-.797 2.081-1.306 3.516a43.006 43.006 0 0 0-1.477 4.534Zm2.743-2.4a8.697 8.697 0 0 0 1.275-2.018 13.468 13.468 0 0 0-1.482 1.848 13.502 13.502 0 0 0-1.361 1.95 8.752 8.752 0 0 0 1.568-1.78Zm5.324 2.823a6.867 6.867 0 0 0 1.729-1.451 15.37 15.37 0 0 0-1.871 1.218c-.638.38-1.25.809-1.83 1.281a6.88 6.88 0 0 0 1.972-1.048Zm3.398 4.629c-.496.18-.955.459-1.351.82a5.386 5.386 0 0 0 1.457-.566 5.307 5.307 0 0 0 1.381-.742 3.935 3.935 0 0 0-1.487.488Z"/>
  <path fill="#FAFAFA" d="M156.572 118.83c6.941 0 12.569-5.912 12.569-13.204 0-7.293-5.628-13.204-12.569-13.204-6.942 0-12.57 5.911-12.57 13.204 0 7.292 5.628 13.204 12.57 13.204Z"/>
  <path fill="#000" d="M162.491 133.125c.032.103.052.209.06.317.03.244.071.53.121.922.101.842.237 1.991.409 3.4a646.62 646.62 0 0 0 1.437 11.186 465.19 465.19 0 0 0 1.673 11.154c.227 1.398.409 2.543.545 3.374.06.376.106.678.141.922.02.106.032.214.035.323-.041-.1-.07-.205-.085-.313l-.192-.911a168.14 168.14 0 0 1-.63-3.363 313.698 313.698 0 0 1-1.745-11.122 330.943 330.943 0 0 1-1.366-11.207 190.629 190.629 0 0 1-.323-3.406c-.03-.381-.055-.689-.07-.932a1.367 1.367 0 0 1-.01-.344Zm-7.286-2.76c.071 0 .671 10.773 1.341 24.072.671 13.299 1.16 24.077 1.084 24.083-.075.005-.675-10.773-1.346-24.072-.67-13.3-1.154-24.083-1.079-24.083Zm-4.013 2.33c.003.109-.009.218-.035.323-.041.239-.096.53-.162.906-.156.821-.368 1.949-.63 3.321-.565 2.833-1.331 6.684-2.183 10.937-.852 4.253-1.674 8.093-2.259 10.916-.292 1.366-.534 2.489-.711 3.305-.085.36-.151.656-.206.889a1.46 1.46 0 0 1-.091.313 1.4 1.4 0 0 1 .04-.323l.157-.906c.156-.815.373-1.944.63-3.321.569-2.828 1.336-6.678 2.183-10.937.847-4.258 1.674-8.092 2.259-10.915l.716-3.305c.08-.361.151-.657.206-.89.022-.106.051-.211.086-.313Z"/>
  <path fill="#3654B6" d="m157.545 98.21 1.769 3.761a.646.646 0 0 0 .187.233c.079.061.17.101.267.117l3.953.598a.596.596 0 0 1 .288.146.64.64 0 0 1 .177.28.662.662 0 0 1-.132.634l-2.859 2.923a.643.643 0 0 0-.171.562l.67 4.136a.659.659 0 0 1-.034.346.62.62 0 0 1-.203.274.574.574 0 0 1-.635.047l-3.529-1.954a.6.6 0 0 0-.565 0l-3.529 1.954a.577.577 0 0 1-.635-.047.622.622 0 0 1-.204-.274.669.669 0 0 1-.034-.346l.676-4.136a.642.642 0 0 0-.177-.562l-2.858-2.923a.65.65 0 0 1-.131-.636.626.626 0 0 1 .469-.424l3.947-.598a.597.597 0 0 0 .268-.117.633.633 0 0 0 .186-.233l1.77-3.76a.62.62 0 0 1 .221-.251.579.579 0 0 1 .627 0c.094.06.17.147.221.25Zm4.24-1.17.212.72c.046.158.129.302.241.418a.947.947 0 0 0 .399.25l.686.228-.691.243a.963.963 0 0 0-.371.243 1.025 1.025 0 0 0-.234.388l-.242.736-.267-.768a1.031 1.031 0 0 0-.237-.38.964.964 0 0 0-.368-.235l-.661-.227.651-.233a.938.938 0 0 0 .358-.227 1 1 0 0 0 .231-.367l.293-.789Z"/>
  <path fill="#000" d="M161.049 90.764a1.427 1.427 0 0 0-.096.53c.262.09.504.185.776.29.143-.103.27-.228.378-.37l5.113-6.753a1.633 1.633 0 0 0 .454-1.176c-.923-.079-1.982.403-2.904.101a6.61 6.61 0 0 1-.651-.238c-.262.831-.696 2.118-1.205 3.538a44.562 44.562 0 0 1-1.724 4.438c.409-1.54.902-3.053 1.477-4.534a96.22 96.22 0 0 1 1.306-3.516.733.733 0 0 1-.111-.064l-.066.064c-.921 2.574-1.836 5.137-2.747 7.69Zm2.662-2.214c.44-.661.937-1.28 1.482-1.848a8.665 8.665 0 0 1-1.276 2.017 8.692 8.692 0 0 1-1.568 1.78c.398-.69.854-1.343 1.362-1.949Zm3.721 1.695c.852-.97 1.633-1.838 2.208-2.457a6.49 6.49 0 0 1 .973-.964 7.25 7.25 0 0 1-.837 1.096c-.539.651-1.301 1.541-2.148 2.51-.847.97-1.633 1.844-2.208 2.458-.18.156-.303.373-.348.614l.287.233c2.95-1.832 6.338-4.152 8.965-6.196a2.156 2.156 0 0 0-.822-.53c-.847-.307-1.891-.297-2.728-.64-1.442 1.588-3.176 3.527-4.678 5.433a95.87 95.87 0 0 1 1.336-1.557Zm7.083 3.045a5.652 5.652 0 0 1-1.008.657c-.62.382-1.482.9-2.42 1.5-.938.598-1.86 1.096-2.128 1.773-.09.206-.132.431-.121.657l.197.36c2.41-.53 6.166-2.362 8.914-3.527-.837-.704-2.092-.98-2.687-1.938l-.883.518c.081 0 .131-.031.136 0Zm-1.769 3.178a5.41 5.41 0 0 1-1.457.567 6.888 6.888 0 0 1 2.838-1.308 5.3 5.3 0 0 1-1.381.699v.042Zm4.058 2.76c-.625.265-1.512.614-2.465.99-.953.376-1.85.694-2.491.911a4.131 4.131 0 0 1-1.053.302l-.419.196c.138.523.249 1.054.333 1.589h.378c2.566-.069 6.731-.334 9.811-.53a4.648 4.648 0 0 0-.595-1.059c-.549-.726-1.23-1.393-1.472-2.283a3.622 3.622 0 0 1-.111-.873l-1.3.45-.616.307Zm-.746 7.399-3.373-.27a7.73 7.73 0 0 1-1.396-.17c.367-.05.739-.06 1.109-.032a35.802 35.802 0 0 0-1.266-.074h-.237c0 .44-.04.869-.085 1.298 2.647 1.059 6.554 2.5 9.604 3.67.107-.214.166-.452.172-.694.035-1.265-1.417-2.235-1.341-3.458a40.829 40.829 0 0 1-1.125-.106l-2.062-.164Zm-4.154 4.888-1.392-.747-.393-.201a15.09 15.09 0 0 1-.57 1.473c2.33 1.874 5.39 5.169 7.981 7.552.327-.188.602-.459.802-.789.625-1.155-.227-2.558-.348-3.882-.781-.408-1.966-1.06-3.287-1.796a139.214 139.214 0 0 1-2.793-1.61Zm.378 6.599c-1.24-.926-2.36-1.784-3.156-2.409-.57-.451-.978-.779-1.155-.948-.186.254-.378.503-.58.741.182.292.391.564.625.81 1.735 1.912 4.457 5.186 6.499 7.521.474-.826.358-2.028.928-2.839.076-.104.163-.2.257-.286l-.822-.678a216.216 216.216 0 0 1-2.596-1.912Zm-4.835 4.259a85.11 85.11 0 0 1-1.009-1.87 6.193 6.193 0 0 0-.892-1.44.937.937 0 0 0-.456-.258.911.911 0 0 0-.517.03c-.237.09-.303.254-.323.233-.02-.021 0-.186.278-.334a1.01 1.01 0 0 1 1.053.117 8.792 8.792 0 0 0-.741-.911c-.262.19-.529.381-.801.556.579 3.093 2.097 7.621 3.529 11.239a1.474 1.474 0 0 0 1.169-.281c.898-.72.53-2.235.837-3.368l-.201-.339c-.525-.858-1.2-2.05-1.926-3.374Zm-4.089 5.291c.119.419.192.851.217 1.287a6.954 6.954 0 0 1-.394-1.234l-.837-3.014c-.317-1.123-.605-2.145-.852-3.008a35.875 35.875 0 0 1-.257-.985l-.151-.371c-.131 3.019.04 7.251.237 10.646a12.938 12.938 0 0 1 2.425-1.706 48.866 48.866 0 0 0-.892-3.707c.211.805.383 1.525.504 2.092Zm-6.388 1.07a9.144 9.144 0 0 1-.282 1.525 8.577 8.577 0 0 1 .1-1.552c.096-.953.247-2.266.429-3.707l.272-2.044a3.275 3.275 0 0 0-.065-1.589 1.41 1.41 0 0 0-.55-.662h-.807a.25.25 0 0 0-.055.053 3.135 3.135 0 0 0-.6 1.212c-.877 2.728-1.755 6.796-2.632 9.73 1.039-.228 1.709-1.557 2.783-1.631.486.001.954.19 1.316.529.086-.9.161-1.896.242-2.907-.045.36-.101.725-.151 1.043Zm-6.282-4.195c.307-.657.61-1.292.837-1.87.207-.502.32-1.041.332-1.588a2.72 2.72 0 0 0-.206-1.06.835.835 0 0 0-.504.339c-1.957 2.283-4.715 5.964-6.721 8.808 1.109.44 2.632-.307 3.937-.159.121-.233.338-.625.626-1.149a74.257 74.257 0 0 0 1.699-3.321Zm-6.645-.991c.353-.439 1.26-1.43 2.304-2.611 1.134-1.276 2.082-2.367 2.41-2.685a18.048 18.048 0 0 1-.958-.715c-.4.394-.819.765-1.256 1.112a7.2 7.2 0 0 1-1.573 1.113 6.79 6.79 0 0 1 1.412-1.33c.424-.344.812-.641 1.099-.842a7.296 7.296 0 0 0-1.704 1.059l-5.975 4.704c1.039.19 2.214.238 2.864 1.059.098.125.181.262.247.408.328-.413.716-.811 1.13-1.272Zm-2.274-6.382c1.008-.688 1.951-1.287 2.586-1.732a.855.855 0 0 0 .293-.391.562.562 0 0 0 0-.371c-.066-.207-.202-.244-.192-.265.01-.021.166 0 .287.222a.69.69 0 0 1 .016.546 1.25 1.25 0 0 0 .393-.445 22.577 22.577 0 0 1-.479-.699c-.205-.008-.41.02-.605.085-2.698.746-6.817 2.362-10.028 3.612 1.008.773 2.848.439 3.499 1.631.071.146.124.301.156.461.882-.567 1.865-1.186 2.844-1.806.383-.27.776-.551 1.23-.848Zm-3.056-5.201 1.73-.487c.534-.143 1.008-.254 1.396-.403a2.7 2.7 0 0 0 1.089-.752s-.03.143-.186.334c-.119.14-.256.262-.409.36l.217-.079c.19-.057.363-.162.504-.307-.09-.276-.176-.53-.252-.832a1.702 1.702 0 0 0-.675-.127 777.318 777.318 0 0 0-10.003-.307c.464.826 1.512 1.191 1.926 2.044.24.545.282 1.163.116 1.737l2.521-.588c.595-.201 1.295-.386 2.026-.593Zm-5.465-6.207a6.426 6.426 0 0 1 1.271 0c.786.032 1.865.074 3.06.101 1.195.026 2.279.031 3.06.037a6.723 6.723 0 0 1 1.276.053 5.284 5.284 0 0 1-1.271.143c-.504.031-1.169.047-1.89.053 1.24.053 2.43.069 3.428 0h.081v-1.271l-.071-.048c-2.758-1.727-6.72-2.971-10.003-3.914a1.31 1.31 0 0 0 .158.821c.14.247.357.436.614.535l-.071-.477c.812.371 1.034 1.52.777 2.41a6.505 6.505 0 0 1-.787 1.589l.766.047a1.133 1.133 0 0 1-.398-.079Zm7.059-.747c.571.062 1.13.214 1.658.45a5.536 5.536 0 0 1-1.704-.174 5.437 5.437 0 0 1-1.653-.451 5.475 5.475 0 0 1 1.699.175Zm-5.854-7.091c.464.16.913.363 1.341.608l1.044.53c.928.419 1.896.842 2.838 1.234.872.333 1.769.582 2.683.747a.967.967 0 0 0 .544-.095.433.433 0 0 0 .071-.064c.101-.312.207-.62.328-.927-.464-.238-1.17-.64-1.957-1.117a14.377 14.377 0 0 1-2.379-1.59c.876.374 1.72.827 2.52 1.357l.817.53a85.698 85.698 0 0 0-7.961-5.313c-.161.996.202 2.267-.091 3.3a2.938 2.938 0 0 1-.277.625l.605.27c-.08-.048-.131-.09-.126-.096Zm4.871-6.166c.331.257.637.548.912.87.55.529 1.316 1.302 2.193 2.086a46.256 46.256 0 0 0 2.32 1.933l.206.164c.177-.254.353-.503.545-.741l-.031-.053a22.988 22.988 0 0 1-.952-1.298 9.224 9.224 0 0 1-1.2-2.087c.294.293.551.624.766.986a56.923 56.923 0 0 0-4.033-5.784 1.84 1.84 0 0 0-1.095.62c-.559.715-.352 1.837-.625 2.685.504.487 1.104 1.027 1.72 1.589a5.072 5.072 0 0 1-.726-.97Zm6.877-1.642c1.26 1.674 2.314 3.009 2.289 3.094.231-.166.468-.325.71-.477 0-.037-.025-.07-.04-.1-.948-2.543-2.667-6.526-3.817-9.434a5.275 5.275 0 0 0-.534.292c-.842.53-1.119 1.679-1.573 2.616.292.403.625.874.978 1.382.353.509 1.134 1.5 1.987 2.627Zm1.3-.768c.323.542.597 1.115.817 1.711.297.558.542 1.145.731 1.753a8.436 8.436 0 0 1-1.548-3.464Zm3.096-5.184c.117.384.198.78.242 1.18.121.726.287 1.738.504 2.845.182.969.358 1.838.504 2.531.071.228.142.435.212.625.267-.095.54-.18.822-.26a13.79 13.79 0 0 1-.257-1.752 8.669 8.669 0 0 1-.172-1.79c.25.552.397 1.148.434 1.758.045.35.066.678.076.959 0-2.739.055-6.26.05-9.046-.418.418-.726 1.149-1.402 2.198-.12.174-.275.32-.455.424a1.337 1.337 0 0 1-.583.18l.03.206c-.015-.032-.01-.058-.005-.058Zm6.348 2.854c-.026 1.542-.071 2.876-.126 3.56.342 0 .685 0 1.008.058a8.624 8.624 0 0 0 1.109-2.93c.444-1.858 1.054-4.845 1.548-7.027a2.098 2.098 0 0 0-.892.27c-.777.45-1.72 2.42-2.209 2.43a.618.618 0 0 1-.453-.254v.223c.015.646.015 2.044.015 3.67Z" opacity=".3"/>
</svg>
