<svg xmlns="http://www.w3.org/2000/svg" width="320" height="240" fill="none" viewBox="0 0 320 240">
  <path fill="#F5F5F5" d="m306.351 160.645-.511-1.034c-4.343-8.746-12.192-13.983-20.466-13.344a17.903 17.903 0 0 0-3.169.547c-3.782 1.046-7.294 3.216-10.222 6.317-2.929 3.1-5.184 7.035-6.565 11.455-1.595 5.226-2.044 11.245-5.069 15.394-3.922 5.38-10.646 5.571-16.518 5.347-5.872-.224-12.582-.033-16.504 5.39-2.456 3.395-3.236 8.2-3.039 12.765.525 12.027 7.401 22.801 16.137 28.153s19.041 5.828 28.615 3.477c13.411-3.28 26.164-12.355 33.828-26.338 7.665-13.984 9.62-33.036 3.483-48.129ZM103.825 25.552l.233.863a24.96 24.96 0 0 1 .502 11.06c-.663 3.673-2.137 7.055-4.263 9.78a18.227 18.227 0 0 1-1.793 1.956c-2.347 2.13-5.09 3.517-7.983 4.042-2.893.525-5.848.17-8.601-1.035-3.237-1.449-6.276-4.083-9.718-4.001-4.483.109-7.826 4.701-10.605 8.921-2.78 4.22-6.15 8.802-10.615 8.89-2.801.048-5.45-1.772-7.49-4.134-5.378-6.27-7.082-16.345-5.307-25.081 1.775-8.736 6.594-16.16 12.39-21.692 8.117-7.757 18.62-12.229 28.942-10.71 10.323 1.52 20.224 9.458 24.308 21.14Zm31.695 18.924c4.262-5.198 4.262-13.627 0-18.825-4.263-5.199-11.173-5.199-15.436 0-4.262 5.198-4.262 13.627 0 18.825 4.263 5.199 11.173 5.199 15.436 0Z"/>
  <path fill="#455A64" d="M166.04 63.348c.421.249.797.598 1.105 1.027.308.43.542.93.688 1.472a9.125 9.125 0 0 1 .242 3.383c-.206 2.187-1.228 4.417-2.331 6.172-1.515-1.64-1.864-4.433-1.968-5.876-.165-2.275.673-6.517 2.242-6.178m1.506 15.679a4.39 4.39 0 0 1 .102-1.885 3.776 3.776 0 0 1 .861-1.57 3.799 3.799 0 0 1 1.367-.904 3.277 3.277 0 0 1 1.547-.19c.242-.003.483.058.704.179.221.12.418.299.578.521.115.239.176.51.176.788 0 .276-.061.548-.176.787-.228.48-.558.877-.955 1.148-1.313 1.006-2.734 1.684-4.222 1.142"/>
  <path fill="#000" d="M165.578 85.762a3.43 3.43 0 0 1 .054-.454c.049-.317.112-.727.184-1.219a14.997 14.997 0 0 1 1.035-3.898c.534-1.22 1.324-2.245 2.291-2.968a3.92 3.92 0 0 1 .937-.508c.112-.044.206-.06.269-.083.062-.021.094 0 .094 0a6.534 6.534 0 0 0-1.251.7c-.94.74-1.711 1.757-2.241 2.958a15.656 15.656 0 0 0-1.053 3.826c-.095.514-.171.93-.225 1.214a2.6 2.6 0 0 1-.094.432Z"/>
  <path fill="#000" d="M165.637 66.645c.004.065.004.131 0 .197 0 .147 0 .333.026.546.023.492.045 1.203.072 2.083a245.13 245.13 0 0 1-.049 13.76c-.032.88-.058 1.59-.085 2.083 0 .23-.023.42-.032.546.005.066.005.132 0 .197a.925.925 0 0 1 0-.197v-.546c0-.509.023-1.22.041-2.083.036-1.76.076-4.188.085-6.877.009-2.69 0-5.117-.036-6.872 0-.87-.022-1.574-.027-2.088v-.547a.976.976 0 0 1 .005-.202Z"/>
  <path fill="#455A64" d="M164.901 80.36a9.536 9.536 0 0 0-1.286-3.67c-.662-1.083-1.525-1.957-2.519-2.55-.507-.296-1.165-.487-1.582-.028-.417.46-.328 1.285-.121 1.924.444 1.327 1.201 2.464 2.176 3.266.974.801 2.121 1.233 3.297 1.239"/>
  <path fill="#000" d="M161.343 76.223c.111.045.219.102.322.17.125.07.246.15.363.24.135.104.301.202.449.35.147.147.349.295.528.486.199.196.387.406.565.629.832 1.01 1.448 2.255 1.793 3.624.073.296.132.598.175.902.045.264.076.53.094.798.018.222.025.445.023.667.009.168.009.336 0 .503a2.89 2.89 0 0 1-.041.427c-.031 0 .023-.613-.067-1.58a9.395 9.395 0 0 0-.103-.787c-.045-.285-.117-.58-.188-.886a10.997 10.997 0 0 0-.718-1.913 9.38 9.38 0 0 0-1.591-2.27c-.175-.19-.354-.349-.515-.497-.646-.58-1.103-.83-1.089-.863Z"/>
  <path fill="#455A64" d="M305.585 64.884c.402.296.75.688 1.025 1.152.275.464.471.99.575 1.549a9.127 9.127 0 0 1-.036 3.4c-.376 2.16-1.573 4.242-2.81 5.86-1.381-1.787-1.502-4.635-1.488-6.078 0-2.291 1.196-6.407 2.734-5.883Z"/>
  <path fill="#000" d="M304.917 68.115c.005.068.005.135 0 .203v.546c0 .492-.054 1.203-.103 2.083-.094 1.76-.251 4.182-.48 6.855a236.63 236.63 0 0 1-.923 8.895l-.081.546a.93.93 0 0 1-.036.197 1.078 1.078 0 0 1 0-.197c0-.147.027-.333.05-.546.053-.509.125-1.214.21-2.072.175-1.744.413-4.16.637-6.833.224-2.674.399-5.09.52-6.845.058-.864.103-1.569.139-2.077 0-.235.031-.421.044-.547.001-.07.009-.14.023-.207Z"/>
  <path fill="#455A64" d="M303.079 81.678a9.862 9.862 0 0 0-.981-3.807c-.571-1.157-1.359-2.13-2.3-2.84-.484-.356-1.125-.624-1.578-.22-.452.405-.448 1.242-.273 1.903.337 1.373.999 2.594 1.904 3.508.904.914 2.01 1.482 3.179 1.631"/>
  <path fill="#000" d="M299.874 77.119c.107.056.209.126.305.207.12.085.235.178.345.28.126.12.283.24.448.41.171.17.334.353.489.546.181.217.352.447.511.689.365.554.676 1.157.928 1.798.247.644.43 1.321.547 2.017a8.9 8.9 0 0 1 .107.924c.013.27.013.54 0 .81.001.22-.008.441-.027.66a4.44 4.44 0 0 1-.053.504c-.012.141-.036.28-.072.415-.032 0 .072-.607.063-1.58a8.852 8.852 0 0 0-.045-.798 10.434 10.434 0 0 0-.112-.902 11.767 11.767 0 0 0-.547-1.984 10.472 10.472 0 0 0-.897-1.771c-.17-.252-.327-.487-.493-.69-.166-.201-.327-.387-.448-.546-.632-.64-1.067-.946-1.049-.99Z"/>
  <path fill="#455A64" d="M29.494 65.016c.401.296.75.688 1.025 1.152.275.464.47.99.575 1.548a9.135 9.135 0 0 1-.036 3.4c-.38 2.16-1.578 4.243-2.815 5.855-1.38-1.787-1.497-4.63-1.483-6.079 0-2.285 1.196-6.407 2.734-5.876Z"/>
  <path fill="#000" d="M28.826 68.246a1.08 1.08 0 0 1 0 .197v.547c0 .492-.05 1.203-.099 2.083a237.574 237.574 0 0 1-1.156 13.688 96.14 96.14 0 0 1-.251 2.061l-.076.547a.862.862 0 0 1-.036.191 1.347 1.347 0 0 1 0-.197l.054-.546a483.806 483.806 0 0 0 .847-8.9c.228-2.673.399-5.095.515-6.85l.144-2.077c0-.23.031-.416.04-.547 0-.066.006-.132.018-.197Z"/>
  <path fill="#455A64" d="M26.988 81.81a9.862 9.862 0 0 0-.984-3.81c-.571-1.156-1.36-2.13-2.301-2.84-.48-.354-1.12-.628-1.574-.218-.452.41-.448 1.241-.273 1.903.336 1.371.997 2.59 1.9 3.505.902.915 2.007 1.483 3.174 1.633"/>
  <path fill="#000" d="M23.792 77.267c.11.053.214.122.31.207.118.085.231.178.34.28.13.12.283.24.449.404.165.164.322.339.488.546.166.208.336.443.507.69a9.89 9.89 0 0 1 .932 1.798c.246.646.43 1.324.547 2.022.048.304.082.61.103.919.022.269.03.539.027.809 0 .223-.008.445-.027.667-.01.167-.028.333-.054.497a3.133 3.133 0 0 1-.072.421c-.031 0 .068-.607.059-1.585a8.485 8.485 0 0 0-.04-.793 10.1 10.1 0 0 0-.117-.907c-.234-1.374-.732-2.661-1.453-3.756a8.236 8.236 0 0 0-.492-.689 7.057 7.057 0 0 0-.449-.546c-.65-.65-1.085-.957-1.058-.984Z"/>
  <path fill="#EBEBEB" d="M276.18 183.097a7.952 7.952 0 0 0-.098-1.012 5.85 5.85 0 0 0-.924-2.186 4.35 4.35 0 0 0-.587-.694 1.601 1.601 0 0 0-.896-.46 1.048 1.048 0 0 0-.224 0 1.88 1.88 0 0 0-.897.372 3.668 3.668 0 0 0-.26.213c-.157.142-.318.312-.497.492-.18.181-.448.449-.708.7l-.861.793-.955.852-.296.257-.659.58-.269.235c-1.371 1.186-2.823 2.411-3.989 3.329a9.385 9.385 0 0 1-.547.41l-.17.115c-.139.093-.282.18-.448.268l-.166.098c-.197.104-.395.208-.596.301l-.081.033a9.648 9.648 0 0 1-.547.224l-.148.076-.448.148-.206.06c-.211.06-.448.115-.641.164l-.184.038-.497.093-.269.044-.449.06-.264.033c-.215 0-.448.044-.65.06h-2.416l-1.049-.109-1.004-.099-.318-.032-.897-.093h-.121c-12.066-1.203-30.211-2.947-31.797-2.674-.543.093-2.076.4-4.174.826-3.164-.99-6.535-2.028-9.776-3.012-5.217-1.586-10.089-3.012-13.191-3.827-3.729-.957-8.149-1.028-12.201-.749h-.054c-.341 0-.681.049-1.013.082h-.229l-.838.082h-.26l-.784.088-.26.032-.771.093-.229.028-.802.109h-.148c-.95.131-1.833.273-2.636.415h-.147l-.606.104-.197.039-.493.093-.215.043-.408.077-.215.044-.35.071-.183.043-.319.066-.143.033-.292.06-.143.033-.238.054h-.089l-.121.028-.09-.088-.085-.093-1.869.246c-1.345-.306-10.605 1.094-10.605 1.094l-13.667-1.301v-.039s-5.123-3.236-7.92-3.318c-3.178-.093-7.423 3.22-7.423 3.22l-2.398 2.58c-1.744 0-3.326 1.274-4.604 2.734l-13.097-5.336c-1.273-.601-2.456-1.148-3.501-1.64l-.448-.202c-1.345-.602-2.429-1.05-3.097-1.269l-.381-.114a15.097 15.097 0 0 0-1.403-.246 42.222 42.222 0 0 0-1.045-.137c-4.697-.547-13.976-1.203-19.489-1.487h-2.949a1.57 1.57 0 0 1 .721-.629l-7.05.285c.112.225.206.463.282.71h-.05c-.071 0-.896-1.481-1.662-2.695a14.587 14.587 0 0 0-.686-.995 20.625 20.625 0 0 0-2.69-2.629l-.08-.071c.223-.43.375-.909.448-1.411v-.388a1.309 1.309 0 0 0-.027-.191 1.178 1.178 0 0 0-.125-.35l-1.498 1.509s-.139-.126-.331-.268c-.323-.235-.803-.519-1.067-.366a.472.472 0 0 0-.235.221.646.646 0 0 0-.07.353v.027c.024.27.083.534.175.782a9.1 9.1 0 0 0 .13.361l.273.672s-.304.454-.569.946a2.86 2.86 0 0 0-.39 1.038c.001.138.012.275.032.41.037.245.092.485.165.716l-1.107-1.044s.036-2.733-.322-3.373a.742.742 0 0 0-.148-.196.862.862 0 0 0-.436-.196.81.81 0 0 0-.46.075l-.337 4.959 2.864 3.449s2.116 1.449 4.133 2.646a11.53 11.53 0 0 1-2.416-1.361l2.69 4.559 10.156 3.132 3.927-1.219.645-.699 3.73.448a8.53 8.53 0 0 0-1.282 1.263c-.967.401-1.803 1.168-2.386 2.19-.583 1.022-.883 2.245-.855 3.49.05.885.269 1.776.112 2.646a3.72 3.72 0 0 1-.57 1.298 2.938 2.938 0 0 1-.963.888c-.74.405-1.526.67-2.33.787-1.82.378-3.667.727-5.38 1.602-1.99 1.028-3.8 2.87-4.32 5.511a6.631 6.631 0 0 0 .049 2.799c.659 2.809 2.6 3.455 4.437 3.793 1.161.219 2.358.356 3.416.984.402.24.767.562 1.08.952a4.143 4.143 0 0 1-.448 2.263c-1.314.311-2.757.661-4.196 1.022l-2.927.744h-.031l-1.605.415-.174.044-.332.087-.287.077-.354.087c-.08 0-.166.05-.251.066l-.287.076-.296.077h-.058l-.408.109v-.093l-.126-.065-.067-.028-.112-.06-.054-.027-.179-.087h-.054l-.215-.11-.067-.033-.265-.131h-.044l-.31-.153h-.049l-.327-.158h-.032a77.122 77.122 0 0 0-2.765-1.302c-1.672-.727-4.442-.732-5.652-1.202s-3.46-2.067-3.52-.831c.008.657.214 1.288.58 1.771a7.96 7.96 0 0 0-1.346 1.482c-.179.306-.17 1.219-.112 2.121-2.487-.328-4.796-.547-5.024-.219-.52.727-.117 1.963 1.035 2.105.819.122 1.63.318 2.425.585 0 0 .403 3.192 1.497 3.192 0 0 .695 2.98 2.134 3.051 1.439.071 6.463-.58 8.364-1.526.439-.214.888-.396 1.345-.546l.282-.093c.819-.259 1.65-.458 2.488-.596h.148l1.048.098h.511l.323.033h.247l.38.033h.247l.489.038h.166l1.084.082.077.115c.246.363.529.687.842.962 1.712 1.498 3.922 1.782 6.02 2.017l9.274 1.039.932.109a8.53 8.53 0 0 1 2.69.755c.58.289 1.112.71 1.564 1.241.112.132.216.273.314.421.295.434.512.938.636 1.481.031.126.055.253.072.383.061.529.1 1.062.117 1.596.01.251.033.501.067.749 0 .131.04.257.067.388.027.131.058.241.094.355.53 1.75 2.062 2.881 3.586 3.144 1.636.284 3.286-.219 4.89-.716.794-.246 1.7-.618 2.094-1.438.058-.12.103-.249.134-.383.027-.108.045-.22.054-.333a2.782 2.782 0 0 0-.152-.984 2.376 2.376 0 0 0-.476-.815 3.705 3.705 0 0 0-.215-.218 2.936 2.936 0 0 0-.475-.345l3.088-2.788c-.896.093-1.828.197-2.734.361a6.807 6.807 0 0 0-.57.12c.122-.104.252-.197.382-.289a9.075 9.075 0 0 1 4.034-1.34h.184l-1.287 1.165c1.453-.154 2.905-.268 4.344-.547 2.344-.454 4.711-1.383 6.477-3.318 1.766-1.936 2.806-5.046 2.102-7.812l-1.331 1.202c.08-.519.148-1.044.197-1.569 5.522-1.476 11.815-3.498 13.483-4.444.027 0 .054-.044.085-.06l8.198-1.629v.033l4.339-.678 9.31-.87 9.355 4.144 3.397 1.509 1.197.634 2.757 1.46.058-.12 1.443.945c5.55 3.062 12.887 2.356 18.02 0 1.201-.546 3.805-1.875 7.117-3.58l1.345-.7 1.426-.738 2.241-1.159 1.546-.798 1.582-.815 1.601-.825.806-.41 1.614-.831.807-.416 1.609-.82 1.591-.809 1.56-.787 1.524-.765c1-.503 1.972-.984 2.896-1.438l.686-.339.829-.405.036.044 14.742.334c.482.02.954-.168 1.333-.532.379-.363.64-.877.738-1.453.037-.185.043-.378.017-.566a1.59 1.59 0 0 0-.169-.527c1.967.087 3.935.148 5.589.148h.462l.448-.039h.076l.493-.06h.072l.556-.087.609-.11h.054l.632-.12h.094l.664-.137h.08l.722-.158h.023l.784-.186.789-.197h.072l.793-.202h.076l.825-.213h.027c.582-.153 1.17-.312 1.766-.481l.896-.252h.027l.897-.257c3.388-.82 7.772-2.618 10.233-2.241.171.022.34.061.506.115.288.093.57.211.843.355.278.142.542.295.802.459l.762.481c.354.234.719.441 1.094.618.338.162.695.252 1.058.268a1.742 1.742 0 0 0 .704-.142 2.41 2.41 0 0 0 .708-.476c.762-.727 1.528-3.46 2.219-5.029.092-.22.197-.432.313-.634.047-.081.098-.158.153-.23.417-.547.946-1.164 1.492-1.804.184-.208.368-.426.552-.645a17.314 17.314 0 0 0 1.891-2.591c.157-.285.305-.547.449-.793l.103-.18c.482-.733.895-1.529 1.232-2.373a5.253 5.253 0 0 0 .274-1.531c.034-.21.055-.424.062-.639ZM54.272 219.866s-2.12-.377-4.54-.744l-.085-.47.08-.546a2.46 2.46 0 0 1 .897-.973c.13-.115.251-.243.363-.383.177.092.358.172.542.24a12.42 12.42 0 0 1 2.94 1.449l-.197 1.427ZM320 84.728H0v12.066h320V84.728Z"/>
  <path fill="#000" d="M319.395 84.729c0 .076-71.503.142-159.689.142C71.521 84.87 0 84.805 0 84.729c0-.077 71.49-.142 159.706-.142 88.218 0 159.689.065 159.689.142Z"/>
  <path fill="#F5F5F5" d="M4.554 112.248c5.473 4.92 13.183 4.149 19.821 2.039 6.638-2.11 13.254-5.374 20.112-4.756 7.257.651 13.896 5.614 21.157 6.013 10.05.547 19.167-7.609 29.22-8.019 10.35-.421 19.938 7.418 30.292 7.243 9.575-.153 18.315-7.145 27.876-7.582 12.129-.547 23.47 9.517 35.532 7.894 10.287-1.383 19.126-11.114 29.471-10.617 8.929.432 16.728 8.496 25.662 8.337 6.356-.115 12.134-4.373 18.422-5.467 9.359-1.64 18.378 3.904 27.343 7.501 8.964 3.597 20.246 4.679 26.562-3.603V96.799H4.554v15.449Z"/>
  <path fill="#fff" d="M237.023 111.291c-.063 0-.117-3.187-.117-7.106 0-3.92.054-7.107.117-7.107.062 0 .121 3.187.121 7.107 0 3.919-.054 7.106-.121 7.106Zm-206.606.646c-.063 0-.116-3.319-.116-7.419s.054-7.418.116-7.418c.063 0 .117 3.318.117 7.418s-.05 7.419-.117 7.419Zm31.027 2.902c-.067 0-.116-3.974-.116-8.878 0-4.903.049-8.872.116-8.872s.117 3.969.117 8.872c0 4.904-.077 8.878-.117 8.878Zm28.687-6.593a67.677 67.677 0 0 1-.116-5.576 67.536 67.536 0 0 1 .116-5.57c.116 1.853.155 3.712.117 5.57a67.72 67.72 0 0 1-.117 5.576Zm28.759 5.773c-.063 0-.116-3.788-.116-8.462 0-4.674.053-8.457.116-8.457s.117 3.783.117 8.457c0 4.674-.05 8.462-.117 8.462Zm28.777-5.773a63.999 63.999 0 0 1-.121-5.576 63.87 63.87 0 0 1 .121-5.57c.115 1.853.154 3.712.116 5.57a67.765 67.765 0 0 1-.116 5.576Zm28.772 5.008c-.067 0-.116-3.614-.116-8.08s.049-8.074.116-8.074.117 3.613.117 8.074-.054 8.08-.117 8.08Zm30.292-6.068a9.17 9.17 0 0 1-.081-1.482c-.022-.913-.036-2.186-.036-3.575 0-1.388 0-2.657.036-3.575a9.093 9.093 0 0 1 .081-1.476c.067.487.096.982.085 1.476 0 .918.031 2.187.031 3.575 0 1.389 0 2.662-.031 3.575.01.496-.018.992-.085 1.482Zm60.489-.071a55.153 55.153 0 0 1-.116-5.03 55.008 55.008 0 0 1 .116-5.023 53.27 53.27 0 0 1 .117 5.023c.04 1.678.001 3.357-.117 5.03Zm30.391 10.037c-.063 0-.117-4.56-.117-10.179 0-5.62.054-10.18.117-10.18.062 0 .116 4.554.116 10.18 0 5.625-.063 10.179-.116 10.179Z"/>
  <path fill="#fff" d="M3.622 103.813c0-.077 70.023-.143 156.38-.143s156.394.066 156.394.143c0 .076-70.005.142-156.394.142-86.388 0-156.38-.05-156.38-.142Z"/>
  <path fill="#000" d="M318.283 96.799c0 .076-71.269.142-159.123.142C71.305 96.941 0 96.87 0 96.799s71.243-.142 159.155-.142c87.913 0 159.128.06 159.128.142Z"/>
  <path fill="#E0E0E0" d="m219.887 104.485-2.69.388v-51.02c.063-4.109 1.445-8.023 3.85-10.901 2.404-2.878 5.639-4.49 9.008-4.49 3.369 0 6.603 1.612 9.008 4.49 2.404 2.878 3.787 6.792 3.849 10.9v30.783h-2.689V53.852c-.056-3.243-1.152-6.332-3.052-8.602-1.901-2.27-4.456-3.541-7.116-3.541-2.661 0-5.215 1.271-7.116 3.541-1.901 2.27-2.997 5.358-3.052 8.602v50.633Z"/>
  <path fill="#000" d="M219.887 104.485v-9.37c0-6.013 0-14.76-.041-25.584V56.498a37.234 37.234 0 0 1 .148-4.712c.299-2.163 1.059-4.193 2.204-5.885 1.144-1.693 2.633-2.989 4.318-3.759a8.553 8.553 0 0 1 5.28-.629c1.774.358 3.441 1.279 4.832 2.669 1.493 1.531 2.606 3.54 3.214 5.8.121.46.211.93.305 1.4.094.47.143.956.161 1.437.018.481.054.979.045 1.46v30.357l-.117-.142h2.69l-.117.142v-27.88a39.494 39.494 0 0 0-.183-5.418c-.28-2.119-.917-4.144-1.871-5.947-.955-1.803-2.206-3.344-3.675-4.526-1.468-1.183-3.122-1.98-4.857-2.341a10.483 10.483 0 0 0-5.219.24 12.55 12.55 0 0 0-1.887.744c-.598.317-1.179.683-1.739 1.093a13.38 13.38 0 0 0-2.927 3.034c-1.643 2.293-2.694 5.127-3.021 8.146 0 .18-.049.36-.063.546v.547c0 .366-.035.727-.04 1.093v6.407c-.036 22.13-.058 38.158-.067 44.532l-.027-.033 2.017-.267.672-.088-.654.109-2.031.307h-.026v-.033c0-6.374-.036-22.414-.068-44.532v-6.407c0-.366.027-.733.041-1.094l.022-.546c0-.186.045-.366.063-.547.333-3.054 1.396-5.921 3.057-8.244a13.554 13.554 0 0 1 2.972-3.083 13.67 13.67 0 0 1 1.766-1.137 13.01 13.01 0 0 1 1.918-.76c2.71-.818 5.563-.554 8.14.755 2.024 1.035 3.799 2.683 5.157 4.787 1.357 2.105 2.253 4.596 2.602 7.24.185 1.812.246 3.64.184 5.466v28.012h-2.923V54.279c0-.487-.027-.957-.04-1.438-.013-.48-.108-.94-.157-1.405-.049-.464-.179-.924-.296-1.372-.13-.445-.279-.881-.448-1.306-.623-1.674-1.548-3.155-2.706-4.332-1.158-1.176-2.519-2.019-3.982-2.464a8.29 8.29 0 0 0-4.114-.206c-1.369.278-2.676.899-3.838 1.823-1.162.925-2.155 2.132-2.915 3.548a13.923 13.923 0 0 0-1.504 4.675 35.729 35.729 0 0 0-.152 4.685v13.066c0 10.835-.032 19.57-.045 25.6v8.709c0 .41-.058.623-.058.623Z"/>
  <path fill="#E0E0E0" d="M219.29 76.862h23.344c1.453 0 1.453-2.733 0-2.733H219.29c-1.452 0-1.452 2.733 0 2.733Z"/>
  <path fill="#000" d="M219.29 76.862h-.139a.86.86 0 0 1-.398-.126 1.173 1.173 0 0 1-.449-.58 1.983 1.983 0 0 1-.076-1.093c.052-.233.155-.445.298-.612a1.05 1.05 0 0 1 .513-.339 3.79 3.79 0 0 1 .659-.038h3.976l18.978-.044c.258.002.509.097.722.273.202.193.35.456.426.755.071.292.074.603.009.898a1.74 1.74 0 0 1-.381.77 1.078 1.078 0 0 1-.686.316H235.7l-8.516-.033-5.756-.043h-2.106a.438.438 0 0 1 .139 0h.403l1.564-.028 5.756-.043 8.516-.028h6.365c.448 0 .897.071 1.215-.262a1.4 1.4 0 0 0 .31-.631 1.603 1.603 0 0 0-.014-.736 1.282 1.282 0 0 0-.341-.607.919.919 0 0 0-.583-.213l-18.978-.044h-4.003a3.972 3.972 0 0 0-.636 0 .943.943 0 0 0-.47.3 1.27 1.27 0 0 0-.274.553 1.82 1.82 0 0 0 .049 1.039c.09.234.239.426.426.547a.946.946 0 0 0 .376.147l.148-.098Z"/>
  <path fill="#E0E0E0" d="M219.29 89.447h23.344c1.453 0 1.453-2.734 0-2.734H219.29c-1.452 0-1.452 2.734 0 2.734Z"/>
  <path fill="#000" d="M219.29 89.447h-.139a.86.86 0 0 1-.398-.126 1.189 1.189 0 0 1-.449-.585 1.937 1.937 0 0 1-.076-1.093 1.42 1.42 0 0 1 .298-.613 1.05 1.05 0 0 1 .513-.339c.219-.034.439-.047.659-.038h3.976l18.978-.044c.258.003.509.098.722.274.204.19.353.454.426.754.071.293.074.604.009.898a1.74 1.74 0 0 1-.381.77 1.044 1.044 0 0 1-.686.311h-15.563l-5.755-.05-1.564-.026h-.404a.438.438 0 0 1-.139 0 .444.444 0 0 1 .139 0h.404l1.564-.028 5.755-.043 8.517-.033h6.365c.448 0 .896.07 1.214-.257.15-.171.257-.39.31-.632a1.617 1.617 0 0 0-.014-.735 1.249 1.249 0 0 0-.34-.607.927.927 0 0 0-.583-.218l-18.978-.039h-3.999a3.412 3.412 0 0 0-.636 0 .943.943 0 0 0-.47.3 1.27 1.27 0 0 0-.274.553 1.82 1.82 0 0 0 .049 1.039c.091.233.24.424.426.546a.916.916 0 0 0 .376.143.6.6 0 0 1 .148-.082Z"/>
  <path fill="#E0E0E0" d="M219.29 102.036h23.344c1.453 0 1.453-2.733 0-2.733H219.29c-1.452 0-1.452 2.733 0 2.733Z"/>
  <path fill="#000" d="M219.29 102.036h-.139a.843.843 0 0 1-.398-.126 1.167 1.167 0 0 1-.449-.579 1.981 1.981 0 0 1-.076-1.093c.051-.235.154-.448.297-.616a1.05 1.05 0 0 1 .514-.341 3.79 3.79 0 0 1 .659-.038h3.976l18.978-.039c.258-.013.513.08.721.266.209.186.359.453.427.757.071.292.074.603.009.898a1.737 1.737 0 0 1-.381.769 1.077 1.077 0 0 1-.686.317H235.7l-8.516-.033-5.756-.043-1.564-.028h-.542a.463.463 0 0 1 .139 0h1.967l5.756-.049h14.881c.448 0 .897.071 1.215-.262a1.4 1.4 0 0 0 .311-.631 1.605 1.605 0 0 0-.015-.736 1.28 1.28 0 0 0-.341-.607.95.95 0 0 0-.583-.213l-18.978-.044h-4.003a3.395 3.395 0 0 0-.636 0 .93.93 0 0 0-.47.296c-.131.15-.226.341-.274.552-.085.342-.068.71.049 1.038.09.234.239.426.426.547a.961.961 0 0 0 .376.148.619.619 0 0 1 .148-.11Z"/>
  <path fill="#E0E0E0" d="M244.1 112.653h-2.689v-58.8c0-4.159 1.354-8.147 3.765-11.087 2.411-2.94 5.681-4.592 9.09-4.592 3.41 0 6.68 1.652 9.09 4.592 2.411 2.94 3.766 6.928 3.766 11.087v30.783h-2.69V53.853c0-3.289-1.071-6.442-2.977-8.767-1.907-2.326-4.493-3.632-7.189-3.632-2.696 0-5.282 1.306-7.188 3.632-1.907 2.325-2.978 5.478-2.978 8.767v58.8Z"/>
  <path fill="#000" d="M244.1 112.653v-10.015c0-6.446 0-15.777-.04-27.334V53.776c.022-.437.027-.88.063-1.317.035-.438.098-.88.183-1.312.432-2.344 1.409-4.487 2.812-6.172 1.404-1.685 3.176-2.841 5.105-3.33 1.928-.49 3.931-.292 5.77.57 1.838.862 3.434 2.351 4.597 4.29 1.002 1.679 1.642 3.638 1.86 5.697.038.258.057.52.058.782l.036.781v30.849l-.116-.142h2.689l-.116.142V53.995c0-.487-.036-.962-.054-1.443a18.384 18.384 0 0 0-.417-2.816c-.611-2.7-1.808-5.148-3.465-7.088-1.656-1.94-3.711-3.298-5.948-3.933a10.871 10.871 0 0 0-4.37-.29c-1.43.197-2.82.7-4.106 1.488-2.517 1.49-4.556 3.96-5.796 7.019-.134.377-.314.732-.417 1.093l-.349 1.154a21.402 21.402 0 0 0-.449 2.361 9.67 9.67 0 0 0-.107 1.192c0 .4-.036.793-.045 1.192V65.48l-.063 47.216h-.027 2.69-2.69v-.043c0-6.653-.035-23.66-.067-47.216V53.929c0-.399.032-.803.045-1.208.013-.405.05-.81.112-1.208.101-.814.251-1.618.448-2.405l.35-1.17c.107-.394.287-.755.448-1.137 1.258-3.11 3.326-5.624 5.881-7.145 1.307-.8 2.72-1.312 4.173-1.515a11.052 11.052 0 0 1 4.447.29c2.274.646 4.365 2.028 6.05 4 1.686 1.972 2.905 4.462 3.528 7.207.224.937.374 1.898.449 2.87 0 .486.044.978.053 1.465v30.8h-2.989V53.787l-.032-.772a6.213 6.213 0 0 0-.062-.76c-.203-2.013-.82-3.931-1.793-5.576-1.137-1.913-2.702-3.386-4.508-4.242-1.806-.855-3.776-1.056-5.673-.58-1.898.477-3.642 1.612-5.024 3.268-1.381 1.657-2.342 3.764-2.765 6.07-.341 1.706-.224 3.46-.247 5.166v18.997c0 11.578-.031 20.915-.04 27.361v9.304c0 .432-.072.629-.072.629ZM22.049 96.734c-.067 0-.117-2.63-.117-5.872 0-3.241.05-5.871.117-5.871s.116 2.63.116 5.871c0 3.242-.053 5.872-.116 5.872Zm22.533 0c-.063 0-.117-2.63-.117-5.872 0-3.241.054-5.871.117-5.871.062 0 .116 2.63.116 5.871 0 3.242-.05 5.872-.116 5.872Zm22.537 0c-.063 0-.117-2.63-.117-5.872 0-3.241.054-5.871.117-5.871s.116 2.63.116 5.871c0 3.242-.053 5.872-.116 5.872Zm22.537 0c-.067 0-.116-2.63-.116-5.872 0-3.241.049-5.871.116-5.871s.117 2.63.117 5.871c0 3.242-.054 5.872-.117 5.872Zm22.533 0c-.063 0-.117-2.63-.117-5.872 0-3.241.054-5.871.117-5.871s.116 2.63.116 5.871c0 3.242-.049 5.872-.116 5.872Zm22.537 0c-.063 0-.116-2.63-.116-5.872 0-3.241.053-5.871.116-5.871s.117 2.63.117 5.871c0 3.242-.054 5.872-.117 5.872Zm22.538 0c-.068 0-.117-2.63-.117-5.872 0-3.241.049-5.871.117-5.871.067 0 .116 2.63.116 5.871 0 3.242-.054 5.872-.116 5.872Zm22.514 0c-.062 0-.116-2.63-.116-5.872 0-3.241.054-5.871.116-5.871.063 0 .117 2.63.117 5.871 0 3.242-.031 5.872-.117 5.872Zm22.556 0c-.063 0-.117-2.63-.117-5.872 0-3.241.054-5.871.117-5.871.062 0 .116 2.63.116 5.871 0 3.242-.054 5.872-.116 5.872Zm22.537 0c-.067 0-.117-2.63-.117-5.872 0-3.241.05-5.871.117-5.871s.116 2.63.116 5.871c0 3.242-.053 5.872-.116 5.872Z"/>
  <path fill="#000" d="M247.404 96.734c-.063 0-.117-2.63-.117-5.872 0-3.241.054-5.871.117-5.871.062 0 .116 2.63.116 5.871 0 3.242-.058 5.872-.116 5.872Zm22.537 0c-.063 0-.117-2.63-.117-5.872 0-3.241.054-5.871.117-5.871s.117 2.63.117 5.871c0 3.242-.054 5.872-.117 5.872Zm22.537 0c-.067 0-.116-2.63-.116-5.872 0-3.241.049-5.871.116-5.871.068 0 .117 2.63.117 5.871 0 3.242-.054 5.872-.117 5.872Zm23.533 14.492s-.198.246-.592.71c-.206.23-.448.547-.749.853l-1.134 1.05c-.448.36-.972.716-1.542 1.131-.3.17-.614.35-.945.547l-.507.284c-.17.093-.358.159-.542.241l-1.157.481-1.277.388c-.448.153-.897.202-1.376.312l-.726.142-.749.082c-4.065.486-9.13-.175-14.662-2.291-2.765-1.055-5.661-2.411-8.749-3.755a58.727 58.727 0 0 0-9.964-3.527 26.243 26.243 0 0 0-5.545-.705 21.179 21.179 0 0 0-5.782.755c-3.878 1.06-7.683 3.149-11.879 4.318a20.512 20.512 0 0 1-3.214.613 16.391 16.391 0 0 1-3.307-.044 24.44 24.44 0 0 1-6.576-1.881c-4.326-1.798-8.552-4.439-13.254-5.707-.583-.186-1.184-.257-1.793-.388-.61-.131-1.202-.137-1.793-.208-.592-.071-1.215 0-1.825 0-.609 0-1.214.137-1.828.197a27.937 27.937 0 0 0-7.172 2.351c-4.711 2.186-9.274 5.193-14.344 6.953-.627.246-1.277.399-1.918.58-.641.18-1.305.29-1.959.421a16.2 16.2 0 0 1-1.986.213c-.336 0-.668.066-.999.06l-1.009-.016a31.33 31.33 0 0 1-7.983-1.433c-5.267-1.596-10.403-4.072-15.827-5.532a27.495 27.495 0 0 0-8.194-1.066 29.38 29.38 0 0 0-8.028 1.64c-5.213 1.728-10.179 4.275-15.379 5.379l-.972.203-.978.142c-.327.038-.649.098-.977.126l-.977.054c-.649.041-1.3.041-1.95 0-.654 0-1.295-.098-1.941-.169a38.027 38.027 0 0 1-7.499-1.881c-4.854-1.673-9.507-3.794-14.262-4.712a21.67 21.67 0 0 0-7.087-.301 31.959 31.959 0 0 0-6.764 1.76c-4.37 1.586-8.476 3.68-12.653 4.921a26.298 26.298 0 0 1-6.276 1.158h-1.55c-.516 0-1.023-.087-1.534-.125-.51-.039-1.004-.159-1.501-.246-.498-.088-.99-.213-1.48-.35-3.9-1.05-7.463-2.788-10.972-3.958a27.196 27.196 0 0 0-5.213-1.268 20.128 20.128 0 0 0-5.038 0 43.128 43.128 0 0 0-9.05 2.323c-2.784.968-5.38 1.935-7.777 2.635a32.725 32.725 0 0 1-6.674 1.246c-4.084.274-7.266-.612-9.216-1.689l-.695-.377-.578-.383-.493-.333c-.148-.109-.274-.219-.386-.312-.448-.377-.686-.574-.686-.574l.7.547.385.306.498.328.578.377.695.367c1.95 1.06 5.119 1.924 9.193 1.64a33.03 33.03 0 0 0 6.683-1.263c2.412-.705 4.985-1.684 7.768-2.657a43.447 43.447 0 0 1 9.072-2.351 20.48 20.48 0 0 1 5.07 0c1.772.243 3.525.665 5.24 1.263 3.523 1.17 7.087 2.903 10.968 3.942.484.131.973.224 1.466.344.493.12.995.169 1.497.24.502.072 1.009.121 1.52.121h1.537a26.02 26.02 0 0 0 6.195-1.176c4.16-1.251 8.26-3.356 12.644-4.92a31.974 31.974 0 0 1 6.805-1.776 21.97 21.97 0 0 1 7.136.3c4.787.924 9.448 3.045 14.294 4.707a37.664 37.664 0 0 0 7.445 1.832c.636.071 1.273.169 1.918.164.646-.006 1.291.06 1.937 0l.968-.061c.327 0 .645-.087.968-.125l.973-.137.964-.202c5.163-1.094 10.125-3.641 15.356-5.38a29.704 29.704 0 0 1 8.068-1.64 27.47 27.47 0 0 1 8.252 1.094c5.451 1.465 10.588 3.941 15.832 5.532a31.09 31.09 0 0 0 7.934 1.432h.995c.332 0 .663-.038.991-.06a14.81 14.81 0 0 0 1.967-.207c.65-.132 1.305-.208 1.941-.416.637-.208 1.282-.328 1.905-.547 5.043-1.749 9.601-4.772 14.344-6.937a27.902 27.902 0 0 1 7.239-2.361c.618-.066 1.232-.186 1.846-.203.614-.016 1.233-.033 1.847 0 .614.033 1.219.093 1.82.219s1.206.202 1.793.388c4.742 1.285 8.965 3.931 13.277 5.729a24.136 24.136 0 0 0 6.544 1.853c1.088.12 2.182.137 3.272.05a20.205 20.205 0 0 0 3.187-.613c4.173-1.148 7.983-3.236 11.883-4.297a21.285 21.285 0 0 1 5.827-.77c1.872.04 3.738.282 5.576.721a58.418 58.418 0 0 1 9.982 3.554c3.088 1.35 5.98 2.733 8.741 3.772 5.513 2.126 10.56 2.804 14.612 2.334l.749-.082.721-.137c.449-.104.937-.153 1.372-.306l1.273-.377 1.156-.476c.184-.082.368-.142.543-.235l.502-.279.946-.546c.569-.416 1.098-.76 1.541-1.094l1.139-1.033c.314-.306.547-.617.753-.842.39-.459.601-.688.601-.688Z"/>
  <path fill="#FFBF9D" d="m212.051 150.318-9.861 6.806c1.421 6.243 5.621 11.021 10.198 14.312 4.576 3.291 9.65 5.423 14.343 8.479 2.295 1.492 4.572 3.242 7.172 3.646 2.6.405 5.589-1.038 6.347-4.067-9.936-8.927-19.357-18.676-28.199-29.176Z"/>
  <path fill="#FFBF9D" d="M234.732 185.239a27.7 27.7 0 0 1 .529 3.062c.128 1.044.591 1.984 1.286 2.613.655.43 1.419.543 2.139.317.721-.175 1.403-.547 2.111-.793a25.539 25.539 0 0 1 6.275-1.295c3.277-.356 5.657-.908 7.584-4.16.133-.172.231-.379.285-.605.055-.226.065-.465.029-.697-.184-.677-.937-.738-1.524-.705-3.214.208-5.554-.355-8.588-1.678-1.547-.667-7.356-3.603-9.355-5.8l-4.98 6.319s3.94 2.449 4.209 3.422Zm-29.431-20.975 2.098 2.706 8.471-2.422 10.184 1.279-4.065-4.286-9.324-.415-7.364 3.138Z"/>
  <path fill="#000" d="M254.961 183.681c-.184-.677-.937-.738-1.524-.705-3.214.208-5.554-.355-8.588-1.678a52.831 52.831 0 0 1-6.594-3.608c-9.205-8.431-17.958-17.574-26.204-27.372l-9.861 6.806c1.421 6.243 5.621 11.021 10.198 14.312 4.576 3.291 9.65 5.423 14.343 8.479 1.923 1.252 3.833 2.668 5.917 3.335.981.716 1.959 1.519 2.098 1.989.232 1.005.409 2.028.528 3.062.129 1.044.592 1.984 1.287 2.613.655.43 1.418.543 2.138.317.722-.175 1.403-.547 2.111-.793a25.539 25.539 0 0 1 6.275-1.295c3.277-.356 5.657-.908 7.585-4.16.129-.174.222-.383.273-.609.05-.226.057-.463.018-.693Z" opacity=".3"/>
  <path fill="#FFBF9D" d="M57.217 134.831c-.098 0-1.47-2.542-2.348-3.69a21.895 21.895 0 0 0-2.766-2.701s.78-1.465.291-2.339l-1.497 1.508s-.972-.874-1.398-.634c-.426.241-.39.711 0 1.744l.273.673s-.955 1.432-.955 1.984c.012.388.077.77.193 1.132l-1.102-1.05s.03-2.733-.328-3.373a.896.896 0 0 0-.472-.365.748.748 0 0 0-.559.048l-.336 4.958 2.864 3.455s5.348 3.646 7.136 4.166c1.789.519 5.231 1.339 5.231 1.339l1.793-7.309-6.02.454Z"/>
  <path fill="#FFBF9D" d="M117.267 150.187s-25.683-13.027-29.068-13.858c-2.581-.629-15.128-1.52-21.936-1.87-2.138-.109-5.859.131-5.859.131l.511 7.036 22.86 3.947 25.119 13 8.373-8.386Z"/>
  <path fill="#000" d="M95.636 139.532s-16.935.52-19.413 1.509l-11.05-2.039a2.472 2.472 0 0 1-1.21-.567 3.23 3.23 0 0 1-.86-1.182 3.465 3.465 0 0 1-.22-.886 3.046 3.046 0 0 1 .056-.996c.073-.324.199-.626.37-.89h-.072v-.082l-2.85.213-3.138.235a3.802 3.802 0 0 1 0 2.373c-.489 1.367-1.856 2.001-3.07 1.864a4.325 4.325 0 0 1-.982-.235 16.685 16.685 0 0 0 3.003 1.52c1.344.388 3.653.951 4.697 1.208v.055l14.174 2.443L91.346 146l12.362 7.779 6.276-7.271c-4.38-2.148-9.906-4.882-14.348-6.976Z" opacity=".3"/>
  <path fill="#FFBF9D" d="M50.01 129.638c.423.392.799.856 1.116 1.377.258.336.488.702.686 1.094.143.322.143.546.116.546-.027 0-.094-.191-.255-.464-.162-.274-.449-.613-.722-1.017a6.706 6.706 0 0 1-.941-1.536Zm2.102 3.274c-.462.148-.94.205-1.416.17a3.538 3.538 0 0 1-1.417-.115c.46-.148.937-.205 1.412-.17a3.673 3.673 0 0 1 1.42.115Z"/>
  <path fill="#FFBF9D" d="M50.772 132.688c-.063.033-.247-.432-.57-.902l-.04-.055-.09-.131.121-.082c.404-.273.579-.705.641-.672.063.033-.044.546-.524.918l.027-.219.045.061c.354.519.448 1.066.39 1.082Zm1.918-3.701c-.036.066-.448-.218-.896-.628-.449-.41-.807-.799-.767-.864.04-.066.448.218.897.634.448.415.806.798.766.858Z"/>
  <path fill="#000" d="M108.693 145.136c-1.287 1.487-2.385 3.236-3.81 4.521-1.426 1.284-3.241 1.574-4.774 1.607l4.455.547c.507-.121 1.444-1.799 3.367-3.559 1.923-1.761 3.917-3.608 5.423-5.893-1.77-.006-3.375 1.284-4.661 2.777Z"/>
  <path fill="#fff" d="M72.202 141.118c-.338.05-.68.05-1.018 0a30.576 30.576 0 0 1-2.429-.328 32.373 32.373 0 0 1-2.412-.503 3.481 3.481 0 0 1-.981-.323c.339-.002.677.04 1.008.126l2.416.421 2.416.405c.339.018.674.086 1 .202Zm-3.169.787a4.063 4.063 0 0 1-2.067-.476 1.987 1.987 0 0 1 1.054.099c.356.034.702.163 1.013.377Z"/>
  <path fill="#000" d="M71.148 144.999c-1.367.377-2.039 2.285-2.205 3.985-.166 1.7-.063 3.521-.766 5.002-.66 1.389-1.905 2.187-3.138 2.772-1.68.798-3.451 1.312-5.074 2.269-1.623.956-3.138 2.449-3.734 4.521-.596 2.071 0 4.75 1.663 5.647 1.663.896 3.873.125 4.823 1.902.664 1.241.103 3.001-.86 3.898-.964.896-2.206 1.192-3.385 1.552-1.178.361-2.411.886-3.137 2.072-1.264 2.056-.336 5.21 1.376 6.708 1.712 1.498 3.922 1.782 6.02 2.017l9.274 1.039c1.243.065 2.471.356 3.644.864a4.197 4.197 0 0 1 1.548 1.225c.435.543.765 1.199.966 1.918.229 1.011.103 2.099.319 3.116.421 1.946 2.057 3.22 3.693 3.504 1.636.284 3.29-.224 4.89-.721.897-.285 1.964-.722 2.242-1.821a2.752 2.752 0 0 0-.106-1.334 2.243 2.243 0 0 0-.701-1.033 4.847 4.847 0 0 0-2.085-.951c1.188-2.28 3.586-3.067 5.805-3.329 2.219-.263 4.532-.219 6.468-1.537 1.936-1.317 3.084-3.668 3.685-6.171.6-2.504.658-5.145.717-7.752"/>
  <path fill="#000" d="M96.99 151.493c-.677-3.826-2.582-6.379-5.155-8.746v.404c-3.438-3.154-7.172-4.308-12.228-3.236-2.038.444-4.006 1.282-5.827 2.482-1.426.924-2.914 1.919-3.779 3.58-1.282 2.466-.852 5.658-.372 8.512.592 3.564 1.264 7.32 3.29 9.982 2.362 3.105 6.029 4.051 9.458 4.691a35.74 35.74 0 0 0 8.938.798c1.439-.099 2.967-.394 4.034-1.58 1.147-1.279 1.497-3.28 1.716-5.171.426-3.882.601-7.873-.076-11.716Z"/>
  <path fill="#FFBF9D" d="M81.92 164.86c-3.237-.17-6.944-2.149-8.329-6.232-.874-2.57-.784-4.521-.842-5.844-.053-1.854.353-3.685 1.165-5.254.3-1.23 3.904-5.537 7.584-5.51 4.088.033 9.081.268 12.103 1.126 6.037 1.717 6.45 8.2 6.45 8.2l4.886.465c4.177 4.094 2.967 10.518-1.412 14.262L81.92 164.86Z"/>
  <path fill="#FFBF9D" d="M92.14 153.778a1.204 1.204 0 0 1-.736-.546 1.747 1.747 0 0 1-.28-.91 1.79 1.79 0 0 1 .222-.933c.318-.546.847-.612 1.439-.497.345.322.686.547.717 1.093v.246c-.01.409-.144.799-.376 1.094a1.207 1.207 0 0 1-.45.367.99.99 0 0 1-.537.086Z"/>
  <path fill="#000" d="M86.294 144.584c.206.016.398.13.536.317s.211.432.204.683c0 .123-.019.245-.057.359a.973.973 0 0 1-.166.304.785.785 0 0 1-.25.202.65.65 0 0 1-.294.07.746.746 0 0 1-.534-.318 1.097 1.097 0 0 1-.2-.683 1.105 1.105 0 0 1 .055-.358.957.957 0 0 1 .165-.304.772.772 0 0 1 .248-.203.634.634 0 0 1 .293-.069Zm-2.55-.635c.094.132-.386.826-.448 1.865-.063 1.038.318 1.836.206 1.94-.112.104-.224-.082-.403-.432a3.185 3.185 0 0 1-.292-1.569c.03-.539.197-1.053.48-1.47.224-.301.412-.394.457-.334Zm6.302 6.659a8.179 8.179 0 0 1-.148-1.711c0-.268-.036-.547-.18-.58a.909.909 0 0 0-.649.121l-1.685.645c-2.394.891-4.362 1.514-4.389 1.399-.026-.114 1.892-.94 4.29-1.831l1.69-.612c.27-.144.573-.167.856-.066a.585.585 0 0 1 .188.192c.05.08.083.174.099.273.023.149.032.301.027.453a8.464 8.464 0 0 1-.099 1.717Z"/>
  <path fill="#FFBF9D" d="M100.033 151.368c-.17 3.561-1.134 6.997-2.788 9.938 0 0 4.527-2.115 4.392-9.708l-1.604-.23Z"/>
  <path fill="#000" d="M80.333 144.36c.197.196 0 .978.022 1.913.023.935.162 1.727-.036 1.913-.094.082-.29-.033-.48-.377a3.311 3.311 0 0 1-.344-1.542 3.258 3.258 0 0 1 .358-1.536c.189-.371.386-.47.48-.371Zm5.482 11.879a.71.71 0 0 0 .558-.249 1.06 1.06 0 0 0 .258-.653 1.114 1.114 0 0 0-.023-.364 1.002 1.002 0 0 0-.138-.325.804.804 0 0 0-.23-.233.644.644 0 0 0-.286-.106.716.716 0 0 0-.56.248 1.063 1.063 0 0 0-.26.654c-.012.122-.003.246.025.364.029.118.076.228.14.323a.825.825 0 0 0 .23.234.682.682 0 0 0 .286.107Zm-2.569 1.968c.108-.115-.313-.864-.282-1.908.031-1.044.475-1.788.377-1.908-.1-.12-.234.06-.449.388a3.013 3.013 0 0 0-.448 1.52 2.986 2.986 0 0 0 .354 1.525c.22.328.403.443.448.383Zm-3.303-.235c.197-.197 0-1.012.036-1.979.036-.968.18-1.777 0-1.974-.094-.087-.292.033-.48.383a3.506 3.506 0 0 0-.358 1.596 3.467 3.467 0 0 0 .34 1.591c.17.35.363.47.462.383Z"/>
  <path fill="#FFBF9D" d="M87.67 164.931c-.448-.038-1.564.519-1.667 1.093-.273 1.46-.332 4.138 2.712 4.423 4.164.393 3.613-4.959 3.496-4.975-.117-.016-2.976-.41-4.54-.541Z"/>
  <path fill="#FFBF9D" d="M90.62 166.833s.045.093.09.252c.06.219.048.458-.032.667-.197.546-.923.918-1.676.874a2.09 2.09 0 0 1-1.022-.344.872.872 0 0 1-.329-.287 1.138 1.138 0 0 1-.182-.44.534.534 0 0 1 .038-.305.4.4 0 0 1 .19-.203c.121-.061.206 0 .211-.044.004-.044-.063-.12-.233-.093a.452.452 0 0 0-.278.175.819.819 0 0 0-.134.486c.019.214.083.418.186.592a1.1 1.1 0 0 0 .4.403c.346.253.737.397 1.14.421.842.044 1.658-.41 1.877-1.137a1.143 1.143 0 0 0-.058-.831c-.09-.169-.184-.202-.188-.186Z"/>
  <path fill="#000" d="M91.346 153.877c-.058-.131.672-.547.896-1.64.225-1.093-.224-1.979-.125-2.044.099-.066.224.131.385.546a2.98 2.98 0 0 1 .148 1.684c-.111.539-.387 1.006-.77 1.307-.296.207-.512.213-.534.147Zm-16.083 4.291c2.385.913 4.012 3.663 6.311 4.86 1.547.804 3.277.842 4.954.929.546 0 1.214.17 1.38.804a1.7 1.7 0 0 1-.082.774 1.393 1.393 0 0 1-.406.604c-1.233 1.328-3.071 1.476-4.68 1.093-1.802-.483-3.468-1.54-4.825-3.064-1.358-1.525-2.36-3.461-2.903-5.612"/>
  <path fill="#000" d="M86.182 165.417c-.318-.814-1.214-.896-1.954-.989-3.088-.394-5.706-2.876-8.019-5.407-.749-.814-1.52-1.733-1.708-2.935-.21-1.34.368-2.701.26-4.057-.09-1.175-.681-2.23-.726-3.406.013-.633.14-1.255.373-1.822a4.267 4.267 0 0 1 .972-1.458 17.338 17.338 0 0 1 2.649-2.077c.923-.599 1.697-1.49 2.241-2.58-2.731.512-5.206 2.254-6.934 4.884-1.728 2.629-2.585 5.953-2.401 9.316.184 3.362 1.396 6.518 3.396 8.844 2 2.325 4.642 3.651 7.405 3.715"/>
  <path fill="#455A64" d="M82.807 195.271a3.733 3.733 0 0 1-.031-.754c.048-.726.169-1.442.358-2.133.328-1.064.5-2.191.507-3.329-.022-.702-.244-1.373-.628-1.897-.458-.55-1.034-.929-1.663-1.093-1.344-.426-2.85-.268-4.482-.186a9.577 9.577 0 0 1-2.533-.164 3.453 3.453 0 0 1-1.26-.547c-.42-.277-.751-.723-.936-1.262a2.527 2.527 0 0 1 .112-1.744 3.7 3.7 0 0 1 .986-1.307c.812-.7 1.793-.973 2.609-1.64a3.1 3.1 0 0 0 .982-1.257c.22-.536.32-1.135.287-1.733-.064-1.25-.516-2.423-1.265-3.28-.777-.824-1.696-1.423-2.689-1.755a24.434 24.434 0 0 0-2.945-.825 12.412 12.412 0 0 1-2.828-.995 6.663 6.663 0 0 1-1.255-.859 4.14 4.14 0 0 1-.986-1.241 2.98 2.98 0 0 1-.368-1.64c.03-.284.109-.557.231-.802a1.96 1.96 0 0 1 .477-.619c.737-.548 1.585-.833 2.448-.82a17.64 17.64 0 0 1 4.518.41c1.344.273 2.59.547 3.68.722a7.997 7.997 0 0 0 2.783.125c.29-.052.56-.201.784-.43.224-.228.392-.528.485-.865a1.779 1.779 0 0 0 0-.738 1.394 1.394 0 0 1 .05.732 1.846 1.846 0 0 1-.377.798 1.742 1.742 0 0 1-.92.591c-.424.1-.859.13-1.29.087a18.97 18.97 0 0 1-1.529-.164c-1.093-.153-2.326-.421-3.689-.678a17.255 17.255 0 0 0-4.482-.371c-.824-.012-1.635.259-2.34.781a1.71 1.71 0 0 0-.417.544 2.07 2.07 0 0 0-.201.703c-.029.524.09 1.045.336 1.476.542.905 1.29 1.597 2.151 1.99.9.442 1.834.768 2.788.973.969.24 1.973.454 2.963.825 1.024.349 1.972.971 2.775 1.821.792.904 1.272 2.14 1.344 3.46a4.347 4.347 0 0 1-.313 1.875 3.372 3.372 0 0 1-1.067 1.361c-.86.673-1.842.946-2.6 1.608-.38.31-.696.723-.923 1.208a2.178 2.178 0 0 0-.103 1.525c.166.485.463.886.842 1.137a3.36 3.36 0 0 0 1.193.547 9.414 9.414 0 0 0 2.487.175c1.61-.071 3.138-.224 4.523.224.657.19 1.257.603 1.73 1.192.4.556.629 1.266.646 2.006a11.327 11.327 0 0 1-.552 3.373 12.12 12.12 0 0 0-.398 2.099c-.023.498.008.76-.005.76Z"/>
  <path fill="#000" d="M58.477 176.547c-1.179.367-2.412.886-3.138 2.072-1.264 2.056-.336 5.21 1.376 6.708 1.712 1.498 3.922 1.782 6.02 2.017l9.274 1.039c1.243.065 2.472.356 3.644.863a4.21 4.21 0 0 1 1.549 1.226c.435.543.765 1.199.966 1.918.228 1.011.103 2.099.318 3.116.421 1.946 2.057 3.22 3.694 3.504 1.636.284 3.29-.224 4.89-.722.896-.284 1.963-.721 2.241-1.82a2.756 2.756 0 0 0-.106-1.335 2.24 2.24 0 0 0-.7-1.032 4.847 4.847 0 0 0-2.085-.951c1.188-2.28 3.586-3.067 5.805-3.33 2.218-.262 4.531-.218 6.468-1.536 1.864-1.273 3.083-3.668 3.684-6.172.601-2.503.659-5.144.717-7.751l-44.617 2.186Z" opacity=".3"/>
  <path fill="#3654B6" d="m154.857 140.161 2.353-.312c.896 1.045 11.282 9.693 12.815 11.88.389.553.617 1.25.645 1.978-6.109 8.539-11.703 17.007-15.688 25.371l-3.953-2.099-2.954-6.183 6.566-18.619.216-12.016Z"/>
  <path fill="#FFBF9D" d="M108.061 148.028s9.605-10.507 13.375-10.983c3.77-.475 9.198 2.821 9.198 2.821l14.088 1.339s10.309-1.569 10.758-1.044c5.074 6.041 6.777 12.705 3.621 20.916-2.231 5.627-4.935 10.956-8.068 15.903l-12.748-5.653-11.318 1.055-13.994 2.733-11.457-11.25 2.192-4.554.865-7.528 3.488-3.755Z"/>
  <path fill="#FFBF9D" d="M121.741 149.394c0 .049-.664.208-1.721.579a20.748 20.748 0 0 0-3.994 1.914 23.433 23.433 0 0 0-3.631 2.788c-.874.82-1.38 1.383-1.407 1.345a2.06 2.06 0 0 1 .322-.432c.22-.268.552-.64.982-1.094 2.244-2.25 4.867-3.869 7.683-4.739.538-.159.981-.268 1.286-.323.159-.033.319-.046.48-.038Z"/>
  <path fill="#3654B6" d="M100.311 165.253s3.72-3.826 5.603-4.526c1.882-.7 8.722-2.848 8.722-2.848s2.389-9.567 10.502-9.146v-1.427l-9.076-6.719-11.498 11.213 11.175-12.027s4.24-3.307 7.423-3.22c2.797.082 7.916 3.318 7.916 3.318-.323 1.345-2.309 6.232-2.309 6.467 0 .235-.063 4.193-.063 4.193s2.627 3.953 1.766 8.2c-.86 4.248-1.963 4.822-1.963 4.822l.646 8.594-4.51.727-2.882-5.658-7.172-3.827s-8.18-1.902-10.112-.711a20.15 20.15 0 0 0-2.532 1.744l-1.636.831Z"/>
  <path fill="#FFBF9D" d="M150.267 150.52c.026.028-.117.214-.068.547a.804.804 0 0 0 .083.255.63.63 0 0 0 .159.193.383.383 0 0 0 .498-.049.529.529 0 0 0 .173-.235.67.67 0 0 0 .038-.312.753.753 0 0 0-.094-.25.572.572 0 0 0-.171-.181c-.242-.175-.448-.072-.448-.115 0-.044.179-.23.52-.066a.704.704 0 0 1 .253.216c.07.095.122.208.15.331.023.159.008.323-.043.472a.853.853 0 0 1-.244.371.597.597 0 0 1-.748.042.816.816 0 0 1-.205-.287.998.998 0 0 1-.082-.369c-.013-.437.22-.601.229-.563Zm-45.703 1.28a1.08 1.08 0 0 1-.331 0l-.924-.049-3.285-.263h-.08v-.098a12.762 12.762 0 0 0-1.484-4.455 7.344 7.344 0 0 0-1.121-1.542 6.494 6.494 0 0 0-1.345-1.039 15.71 15.71 0 0 0-2.555-1.093 13.415 13.415 0 0 0-1.793-.547 3.557 3.557 0 0 1-.663-.147c.226-.018.453-.005.677.038.606.092 1.205.24 1.793.443.89.252 1.761.596 2.604 1.028 1.036.576 1.92 1.495 2.55 2.651a12.655 12.655 0 0 1 1.493 4.576l-.094-.104 3.281.366.919.12c.124.015.245.054.358.115Zm52.686-11.737s14.68-3.641 24.528-1.121c9.847 2.52 37.521 11.431 37.521 11.431l-5.486 8.665h-41.655l-14.908-18.975Z"/>
  <path fill="#FFBF9D" d="M169.518 153.571s4.411-.902 11.762-2.734c6.302-1.558 25.415-5.526 27.661-5.915 2.389-.41 42.51 3.767 42.51 3.767l.166 6.56s-19.117 6.391-24.025 6.396c-4.908.006-12.551-.547-14.927-.547-2.375 0-33.039 16.401-38.167 18.773-5.128 2.373-12.465 3.061-18.014 0l-1.551-1.017s8.857-21.407 14.585-25.283Z"/>
  <path fill="#FFBF9D" d="m169.518 153.571-.367.295a4.967 4.967 0 0 0-.448.377 8.739 8.739 0 0 0-.583.58 29.426 29.426 0 0 0-3.362 4.515c-2.689 4.237-6.078 10.868-9.763 19.587l-.031-.125c2.219 1.577 4.692 2.547 7.248 2.842 2.845.365 5.719.18 8.517-.546 2.944-.684 5.791-2.329 8.794-3.827l9.292-4.8 9.892-5.067c3.398-1.711 6.881-3.472 10.489-5.117.897-.399 1.793-.815 2.757-1.132l.358-.109c.126 0 .26-.044.386-.06h.735l1.47.054 5.935.296c1.994.092 4.007.174 6.033.196 2.026.022 4.034-.432 6.056-.891 3.227-.754 6.392-1.678 9.507-2.607 3.115-.93 6.172-1.903 9.162-2.892l-.099.153c-.054-2.227-.107-4.414-.161-6.56l.103.131c-11.82-1.219-22.86-2.329-32.833-3.198a293.643 293.643 0 0 0-7.248-.547c-.583 0-1.17-.065-1.739-.06a6.387 6.387 0 0 0-.852.049l-.843.159-3.299.661-11.95 2.488a647.357 647.357 0 0 0-9.74 2.137 509.1 509.1 0 0 1-7.275 1.64l-4.563 1.033-1.179.257-.403.082.394-.104 1.175-.284 4.558-1.093 7.275-1.711c2.846-.667 6.11-1.389 9.736-2.187 3.626-.798 7.62-1.64 11.945-2.52l3.304-.667.847-.164a5.76 5.76 0 0 1 .87-.055c.582 0 1.16.039 1.752.06 2.344.137 4.765.323 7.253.547 9.955.853 21.017 1.952 32.837 3.165h.103v.181c.054 2.186.109 4.373.166 6.56v.109l-.085.033a341.824 341.824 0 0 1-9.171 2.897c-3.137.924-6.275 1.848-9.516 2.613-2.021.454-4.034.946-6.1.886-2.067-.06-4.034-.104-6.043-.197l-5.934-.295-1.466-.055h-.731c-.116 0-.224.028-.336.05l-.349.103c-.928.312-1.838.727-2.739 1.127-3.586 1.64-7.082 3.4-10.48 5.105l-9.892 5.057-9.301 4.784c-1.497.759-2.968 1.508-4.424 2.214a22.81 22.81 0 0 1-4.407 1.612 22.61 22.61 0 0 1-8.561.547 18.16 18.16 0 0 1-3.891-1.001c-.304-.131-.614-.24-.896-.382l-.896-.443c-.556-.339-1.09-.711-1.623-1.055l-.067-.044.036-.076c3.706-8.72 7.135-15.34 9.829-19.566a28.454 28.454 0 0 1 3.402-4.493 6.33 6.33 0 0 1 .592-.547 4.94 4.94 0 0 1 .448-.377l.39-.328Z"/>
  <path fill="#FFBF9D" d="M259.892 139.614c-1.793 1.64-4.895 4.374-7.029 6.052-3.173 2.635-7.759 2.411-12.281 2.143l-1.022 11.059c3.635-.874 8.4-2.733 10.726-1.951 2.326.781 4.061 3.351 5.975 1.563.937-.875 1.891-4.849 2.689-5.909 1.112-1.466 3.026-3.379 3.936-5.041 1.345-2.476 2.407-3.405 1.968-6.341-.189-1.236-1.412-3.521-2.618-3.351-.928.131-1.327.842-2.344 1.776Z"/>
  <path fill="#000" d="M194.969 142.747s2.3 1.514.587 2.974c-1.712 1.459-4.845 2.826-4.845 2.826l14.057-2.777-9.799-3.023Z" opacity=".3"/>
  <path fill="#FFBF9D" d="M104.475 163.039s-12.313 6.56-14.29 7.468c-1.977.907-19.686 2.154-23.37 2.733-3.685.58-17.258 4.188-17.258 4.188l.538 6.335s15.912 1.81 21.484 0c5.571-1.809 19.413-3.055 22.829-3.055 3.415 0 19.153-4.598 21.963-6.183 2.81-1.586 3.725-7.424.448-9.769-3.236-2.307-8.539-3.494-12.344-1.717Z"/>
  <path fill="#FFBF9D" d="M103.085 171.327a1.84 1.84 0 0 1 .26-.35c.252-.301.518-.582.798-.842a12.081 12.081 0 0 1 3.035-2.088 10.494 10.494 0 0 1 3.388-.973c.35-.041.702-.056 1.054-.044a1.12 1.12 0 0 1 .385.044c0 .049-.547.06-1.421.202-2.284.363-4.461 1.401-6.342 3.023-.717.618-1.112 1.066-1.157 1.028Zm-51.807 5.538s-2.998-1.526-4.675-2.253c-1.676-.727-4.437-.732-5.652-1.197-1.215-.465-3.46-2.066-3.519-.836-.058 1.23.982 2.831 2.829 3.487 1.023.345 2.01.833 2.94 1.455l-.17 1.448s-10.96-1.957-11.48-1.235c-.52.721-.116 1.962 1.04 2.11.814.126 1.618.325 2.407.596 0 0 .404 3.192 1.502 3.192 0 0 .69 2.98 2.133 3.051 1.444.071 6.46-.58 8.365-1.525a16.274 16.274 0 0 1 4.28-1.269v-6.647"/>
  <path fill="#FFBF9D" d="M36.791 180.079s-.497-3.581-.107-4.248a7.682 7.682 0 0 1 2.165-2.099c.354-.093 1.295 1.203.896 1.875l-1.228 1.219-.135.924.346 1.881-1.937.448Zm-1.595 1.088a7.475 7.475 0 0 1-.507-2.98c0-.486.13-1.066.507-1.241a.67.67 0 0 1 .486.028c.155.071.29.199.383.366.177.342.293.726.34 1.126l.449 2.422"/>
  <path fill="#FFBF9D" d="M36.831 180.888a7.842 7.842 0 0 1-.318-1.334c-.09-.443-.183-.929-.287-1.449a2.056 2.056 0 0 0-.29-.738.767.767 0 0 0-.264-.245.613.613 0 0 0-.324-.077.553.553 0 0 0-.284.179.756.756 0 0 0-.164.335 2.986 2.986 0 0 0-.103.825c-.008.49.028.979.107 1.46.14.825.332 1.306.296 1.323a3.688 3.688 0 0 1-.448-1.274 7.593 7.593 0 0 1-.162-1.514 3.22 3.22 0 0 1 .103-.919 1.02 1.02 0 0 1 .237-.461.74.74 0 0 1 .404-.233c.15-.012.3.02.437.093a.992.992 0 0 1 .352.328c.159.249.27.539.323.847.108.547.175 1.055.242 1.482.086.45.134.91.143 1.372Zm-.237-2.93a2.086 2.086 0 0 1-.08-.52 4.767 4.767 0 0 1 .058-1.454 1.22 1.22 0 0 1 .22-.465c.093-.125.192-.251.3-.371.23-.264.472-.51.726-.738.279-.247.58-.456.896-.623.178-.096.367-.157.56-.181a.782.782 0 0 1 .606.197c.16.164.274.384.328.631a1.5 1.5 0 0 1-.028.747 2.247 2.247 0 0 1-.668 1.033c-.26.195-.509.412-.744.65a1.118 1.118 0 0 0-.215.365c-.05.138-.076.288-.076.439 0 .547.165 1.05.174 1.394.033.182.02.373-.036.547 0 0 0-.192-.053-.514-.11-.463-.194-.934-.251-1.411a1.55 1.55 0 0 1 .075-.524 1.34 1.34 0 0 1 .243-.443 7.68 7.68 0 0 1 .748-.7c.267-.224.471-.54.588-.908.054-.183.062-.383.022-.572a1.026 1.026 0 0 0-.246-.488.827.827 0 0 0-.469-.15.827.827 0 0 0-.468.15c-.317.15-.618.347-.897.585a7.944 7.944 0 0 0-1.022 1.039 1.018 1.018 0 0 0-.179.366c-.1.45-.142.917-.125 1.383.023.177.027.357.013.536Zm3.474 5.483a5.156 5.156 0 0 1-.432-2.133c.007-.744.17-1.474.472-2.12a21.74 21.74 0 0 0-.242 2.121c.03.715.097 1.427.202 2.132Zm-.475-3.209c0 .077-.346.214-.798.246-.453.033-.82-.038-.82-.12 0-.082.363-.126.802-.164.44-.038.807-.038.816.038Zm-.202 2.072c0 .077-.273.142-.605.142-.332 0-.61-.065-.61-.142 0-.076.274-.142.61-.142.336 0 .605.06.605.142Zm4.751-.989s-.22-.132-.448-.492a3.964 3.964 0 0 1-.587-1.64 4.202 4.202 0 0 1 .17-1.783c.144-.431.3-.65.323-.634a5.258 5.258 0 0 0-.257 2.376 4.87 4.87 0 0 0 .808 2.183l-.009-.01Z"/>
  <path fill="#FFBF9D" d="M36.545 183.501c-.104-.83-.13-1.672-.077-2.509 0-.286.065-.566.189-.809a.746.746 0 0 1 .496-.321.672.672 0 0 1 .544.168c.145.159.261.354.339.573.077.219.114.456.109.695 0 .476-.05.957 0 1.427.008.239.068.472.172.675.105.204.25.37.424.484.189.067.387.081.581.042.194-.038.378-.13.54-.266.32-.279.678-.487 1.057-.613"/>
  <path fill="#FFBF9D" d="M40.924 183.047s-.135.055-.35.192c-.215.136-.493.399-.896.65a1.142 1.142 0 0 1-.753.175.874.874 0 0 1-.42-.218 1.152 1.152 0 0 1-.288-.432 2.758 2.758 0 0 1-.189-1.154c.02-.393.02-.787 0-1.181a1.564 1.564 0 0 0-.118-.519 1.325 1.325 0 0 0-.276-.421.609.609 0 0 0-.366-.147.598.598 0 0 0-.374.114.989.989 0 0 0-.23.35c-.053.136-.08.286-.079.437-.027.307-.04.602-.05.87-.022 1.093.064 1.733 0 1.738a1.61 1.61 0 0 1-.093-.459 11.01 11.01 0 0 1-.095-1.279v-.897a1.444 1.444 0 0 1 .099-.544c.067-.17.165-.319.287-.434a.785.785 0 0 1 .495-.182c.176 0 .349.063.495.182.14.138.257.31.341.504.085.195.137.408.153.627.022.408.022.817 0 1.225-.02.352.03.704.148 1.027a.936.936 0 0 0 .22.356.71.71 0 0 0 .33.191c.224.034.451-.009.655-.126.39-.202.695-.47.937-.546a.592.592 0 0 1 .417-.099Z"/>
  <path fill="#000" d="M63.788 174.246s0-.181-.049-.509a3.624 3.624 0 0 0-.448-1.312 4.035 4.035 0 0 0-1.43-1.437 7.123 7.123 0 0 0-2.402-.771 12.125 12.125 0 0 1-3-.754 4.213 4.213 0 0 1-1.47-1.094 4.975 4.975 0 0 1-.968-1.897 7.321 7.321 0 0 1-.223-2.38 7.088 7.088 0 0 1 .55-2.299c.692-1.509 1.73-2.738 2.986-3.537a12.463 12.463 0 0 1 3.949-1.64 50.355 50.355 0 0 1 1.95-.432c.62-.107 1.235-.255 1.842-.443a3.9 3.9 0 0 0 1.56-.951c.423-.415.717-.994.834-1.64a7.62 7.62 0 0 0-.068-1.892 6.939 6.939 0 0 1 0-1.804 6.575 6.575 0 0 1 1.098-2.777 5.323 5.323 0 0 1 1.502-1.432c.36-.221.746-.378 1.143-.465l.314-.043h.107a4.475 4.475 0 0 0-1.52.612 5.217 5.217 0 0 0-1.447 1.438 5.878 5.878 0 0 0-.923 2.084 6.582 6.582 0 0 0-.108 2.365 7.55 7.55 0 0 1 .08 1.958c-.113.713-.43 1.355-.896 1.809a3.973 3.973 0 0 1-1.631 1.017c-.614.196-1.237.35-1.865.459-.636.137-1.282.273-1.936.437-1.352.301-2.66.844-3.882 1.613-1.218.767-2.225 1.953-2.896 3.411a6.786 6.786 0 0 0-.533 2.193 7.02 7.02 0 0 0 .202 2.274 4.7 4.7 0 0 0 .896 1.804c.4.467.877.826 1.399 1.055.958.388 1.949.648 2.953.776a7.28 7.28 0 0 1 2.434.831c.58.349 1.077.87 1.448 1.514.236.408.39.878.448 1.372.019.162.019.325 0 .487ZM85.6 195.943a.865.865 0 0 1-.224-.207 1.922 1.922 0 0 1-.364-.881 3.095 3.095 0 0 1 .166-1.541c.257-.633.686-1.138 1.215-1.427a5.503 5.503 0 0 1 1.968-.672 31.931 31.931 0 0 1 2.313-.334c1.631-.186 3.433-.3 5.284-.71 1.75-.337 3.426-1.097 4.931-2.236 1.213-.95 2.175-2.308 2.77-3.909a8.68 8.68 0 0 0 .538-3.439c-.049-.836-.179-1.284-.152-1.295.035.105.065.212.089.322.039.131.066.267.081.405.035.179.059.362.072.547a8.595 8.595 0 0 1-.476 3.531c-.589 1.655-1.565 3.062-2.806 4.045-1.519 1.171-3.218 1.952-4.993 2.296-1.869.416-3.675.52-5.307.695a36.1 36.1 0 0 0-2.304.3 5.575 5.575 0 0 0-1.923.624c-.503.261-.916.727-1.17 1.317a2.935 2.935 0 0 0-.193 1.454c.038.314.145.609.31.853.098.18.184.246.175.262Z"/>
  <path fill="#455A64" d="M61.996 168.32a1.041 1.041 0 0 1-.265.044 1.765 1.765 0 0 1-.748-.137 3.13 3.13 0 0 1-1.176-.915 4.037 4.037 0 0 1-.734-1.446 4.715 4.715 0 0 1-.085-2.346 6.12 6.12 0 0 1 1.049-2.372 6.487 6.487 0 0 1 1.959-1.782 9.784 9.784 0 0 1 2.478-1.006c1.744-.465 3.434-.656 4.895-1.214 1.304-.447 2.488-1.305 3.433-2.487a9.898 9.898 0 0 0 1.52-2.733c.26-.722.35-1.148.372-1.143a1.374 1.374 0 0 1-.054.317 7.663 7.663 0 0 1-.233.869 9.517 9.517 0 0 1-1.488 2.843c-.95 1.233-2.154 2.132-3.487 2.602-1.484.585-3.183.782-4.908 1.241a9.71 9.71 0 0 0-2.43.979c-.718.41-1.362.99-1.896 1.705a5.896 5.896 0 0 0-1.026 2.253 4.594 4.594 0 0 0 .214 2.699c.34.838.918 1.496 1.628 1.849.317.124.648.185.982.18Z"/>
  <path fill="#fff" d="M185.771 139.029a5.929 5.929 0 0 1-1.129-.399c-.686-.257-1.65-.59-2.725-.858a24.75 24.75 0 0 0-2.784-.514 6.064 6.064 0 0 1-1.165-.169 4.162 4.162 0 0 1 1.174-.028 15.835 15.835 0 0 1 5.554 1.383c.376.144.737.34 1.075.585Z"/>
  <path fill="#000" d="M109.948 150.87c-1.345-.896-1.574-2.427-.628-3.898a25.778 25.778 0 0 1-4.877 4.735c1.027 1.541 1.018 3.826.296 5.608-.721 1.783-2.044 3.089-3.456 4.068-2.46 1.7-5.253 2.536-8 3.351l-11.207 3.329a6.017 6.017 0 0 1-2.828.372c-.946-.181-1.883-.946-2.093-2.083-.126-.667 0-1.394-.233-2.017-.381-1.017-1.529-1.214-2.416-.919-.888.295-1.704.913-2.618 1.012-1.793.191-3.344-1.766-3.774-3.893-.43-2.126 1.165-8.457.385-6.483-1.228 3.045-11.407 3.427-12.263 9.495-.856 6.069 2.465 5.298 5.181 6.468 2.716 1.169 1.076 4.116 1.076 4.116s18.88-2.64 23.389-2.804c4.51-.164 14.429-6.074 14.429-6.074 2.922-2.542 3.886-2.804 7.476-4.701-.045-2.553 2.838-4.92 4.218-6.495 1.438-1.66 3.086-3.026 4.881-4.045-1.456.59-5.589 1.749-6.938.858Z" opacity=".3"/>
  <path fill="#fff" d="M84.484 169.233a10.3 10.3 0 0 1-1.345.301c-1.073.274-2.16.457-3.254.546-1.115.077-2.226-.209-3.219-.83a3.695 3.695 0 0 1-.807-.728 1.254 1.254 0 0 1-.233-.349c.352.338.727.64 1.12.902.984.546 2.06.793 3.139.721 1.264-.054 2.402-.328 3.236-.443a5.007 5.007 0 0 1 1.363-.12Zm-5.187 1.946a2.579 2.579 0 0 1-1.497.131 2.711 2.711 0 0 1-1.452-.47c.494.024.987.086 1.475.186.494.008.986.059 1.474.153Zm2.264 8.922a1.727 1.727 0 0 1-.448.197 25.84 25.84 0 0 1-1.242.415 37.061 37.061 0 0 1-4.173 1.001 35.967 35.967 0 0 1-4.231.514c-.543.032-.982.043-1.287.043a1.357 1.357 0 0 1-.47-.032c.146-.046.297-.071.448-.077l1.282-.137a56.007 56.007 0 0 0 4.209-.59 57.724 57.724 0 0 0 4.164-.918l1.26-.328a1.35 1.35 0 0 1 .488-.088Zm-2.519 3.378c-.466.375-1 .604-1.555.667a2.749 2.749 0 0 1-1.645-.038c0-.082.73-.066 1.609-.241.878-.175 1.564-.464 1.59-.388Z"/>
  <path fill="#000" d="M253.805 144.906c-.323.268-.632.547-.924.749-2.353 1.957-5.482 2.34-8.785 2.296l-4.518-.453c2.303.721 4.343 1.683 4.177 2.809-.524 3.516-2.618 4.92-8.839 6.014-6.222 1.093-18.7.678-21.928.678-2.819 0-9.637 3.487-29.184 6.494-19.548 3.007-6.105-11.753-6.105-11.753-20.476-9.611-13.412-12.623-8.104-13.536a81.964 81.964 0 0 0-12.197 1.831c-.072-.071-.134-.131-.175-.18l-1.869.252c-.896-.203-5.325.36-8.171.754l-2.434.355s11.363 4.92 10.919 11.48c-.444 6.56-11.847 9.037-15.921 10.076-4.075 1.038-17.213 3.772-20.839 1.219-2.138-1.509-10.798-.82-15.805 3.405-3.276 2.767-11.963 7.572-11.963 7.572-5.24 3.422-11.072 5.095-18.378 6.265l-.502.06a32.053 32.053 0 0 1-10.368-2.427 7.27 7.27 0 0 1-2.42-1.482c-.576-.562-.978-1.347-1.139-2.225l-2.971.754c-.53.177-1.067.316-1.61.416l-2.442.634v-.087s-.861-.438-1.91-.952c1.04.689 3.63 2.018 3.69 3.483.241 2.706-1.906 3.826-4.035 4.767-.215.153-.448.289-.659.421a17.807 17.807 0 0 1 2.923-.717c3.796.378 15.634 1.389 20.287-.12 5.571-1.815 19.413-3.056 22.828-3.056 3.416 0 19.153-4.597 21.941-6.183.027 0 .054-.043.086-.06l10.524-2.072 11.318-1.049 12.748 5.652 3.953 2.094 1.502.826c5.755 3.23 12.802 2.044 18.019 0 5.218-2.045 35.949-18.675 38.333-18.675 2.385 0 10.346.777 15.352.514 2.165-.109 6.195-.984 11.036-2.378 3.635-.874 8.736-3.203 11.067-2.449 2.331.755 4.034 3.351 5.97 1.569.942-.88 1.892-4.849 2.69-5.909 1.111-1.466 3.025-3.384 3.935-5.041.211-.388.413-.732.605-1.055-1.546 1.026-3.32 1.425-5.065 1.141-1.745-.284-3.371-1.236-4.643-2.721Z" opacity=".3"/>
  <path fill="#fff" d="M173.763 165.494s-.26-.197-.56-.673a6.181 6.181 0 0 1-.807-2.093 6.856 6.856 0 0 1-.072-2.313 2.54 2.54 0 0 1 .247-.907 11.11 11.11 0 0 0 .049 3.154 9.97 9.97 0 0 0 1.143 2.832Zm-1.322.617c-.041.061-.448-.306-.78-.945a2.436 2.436 0 0 1-.368-1.269c.068 0 .256.514.565 1.094.309.579.628 1.06.583 1.12Zm-23.972-3.498a2.11 2.11 0 0 1-.497.251c-.328.148-.803.345-1.394.547a39.532 39.532 0 0 1-9.507 2.269c-.619.06-1.121.098-1.466.114a1.9 1.9 0 0 1-.543 0c.175-.055.354-.09.534-.103l1.457-.203c1.228-.18 2.922-.47 4.773-.907a55.349 55.349 0 0 0 4.707-1.35l1.412-.476c.169-.075.345-.122.524-.142Zm-.349 2.52a15.005 15.005 0 0 1-5.545 1.541c0-.082 1.25-.344 2.783-.765 1.533-.421 2.739-.836 2.762-.776Zm72.237-6.363c-.201.039-.406.05-.609.032h-1.65c-1.394 0-3.321.115-5.437.383a48.075 48.075 0 0 0-5.379 1.006l-1.618.405a2.4 2.4 0 0 1-.601.125c.187-.098.381-.174.579-.229.376-.137.923-.306 1.604-.498a38.452 38.452 0 0 1 10.857-1.394c.699 0 1.264.044 1.654.077.202.011.402.042.6.093Zm-6.723 1.399a13.09 13.09 0 0 1-3.752.705 6.735 6.735 0 0 1 1.856-.492 6.506 6.506 0 0 1 1.896-.213Zm47.557-11.742a2.624 2.624 0 0 1-.977.366c-1.632.39-3.321.2-4.868-.547a2.896 2.896 0 0 1-.896-.579c2.129 1.066 4.469 1.334 6.724.771l.017-.011Zm-2.927 1.399c0 .071-.291.241-.699.219-.408-.022-.703-.219-.681-.29.022-.071.323 0 .69 0 .368 0 .673-.016.69.071Z"/>
  <path fill="#000" d="M192.688 207.27a1.874 1.874 0 0 1-.18-.131c-.116-.087-.273-.246-.511-.404a7.489 7.489 0 0 0-2.156-1.094 9.776 9.776 0 0 0-3.675-.388 18.29 18.29 0 0 0-4.819 1.094c-1.757.59-3.648 1.399-5.76 1.957-2.245.645-4.58.673-6.835.082-2.38-.547-4.801-1.553-7.41-1.804a10.218 10.218 0 0 0-1.963 0c-.665.072-1.324.207-1.972.404a32.433 32.433 0 0 0-3.904 1.569 23.068 23.068 0 0 1-3.954 1.487 10.117 10.117 0 0 1-4.034.126c-2.631-.449-5.016-1.575-7.351-2.263a14.365 14.365 0 0 0-3.46-.651l-.843-.033-.834.044c-.551 0-1.093.115-1.622.186a48.62 48.62 0 0 0-5.827 1.47c-1.594.501-3.21.884-4.841 1.148-.359.071-.713.088-1.049.121a6.59 6.59 0 0 1-.973.043h-.896c-.287 0-.556-.065-.807-.098a7.298 7.298 0 0 1-1.345-.295c-.188-.06-.367-.099-.529-.159l-.421-.191-.574-.268c-.13-.06-.193-.098-.193-.098l.202.071.578.24.449.175c.157.06.336.093.529.142.441.135.891.226 1.344.274.251.027.52.071.803.087h.896c.322.003.644-.015.964-.055.336-.038.686-.054 1.04-.125a35.217 35.217 0 0 0 4.787-1.23 47.592 47.592 0 0 1 5.827-1.509c.538-.077 1.08-.175 1.636-.191l.843-.05.856.028c1.182.071 2.355.289 3.501.65 2.353.684 4.737 1.799 7.328 2.236a9.916 9.916 0 0 0 3.949-.126 23.21 23.21 0 0 0 3.922-1.47 30.522 30.522 0 0 1 3.963-1.591 10.66 10.66 0 0 1 2.003-.415 10.166 10.166 0 0 1 2.004 0c2.649.262 5.069 1.284 7.432 1.825 2.227.591 4.534.57 6.754-.06 2.094-.546 3.99-1.334 5.756-1.913a18.15 18.15 0 0 1 4.859-1.044 9.904 9.904 0 0 1 3.702.443 7.372 7.372 0 0 1 2.161 1.142c.225.189.442.394.65.612Zm30.883 25.442a6.066 6.066 0 0 0-1.291-.502 6.429 6.429 0 0 0-3.64.355c-.813.312-1.612.677-2.393 1.093-.905.479-1.831.895-2.775 1.247a10.5 10.5 0 0 1-3.245.546 16.505 16.505 0 0 1-3.496-.393c-2.367-.503-4.563-1.301-6.589-1.799a17.623 17.623 0 0 0-5.451-.59c-.699.06-1.393.188-2.075.382-.301.099-.578.192-.829.296-.251.103-.48.207-.677.317l-.529.295c-.148.093-.269.186-.372.251a1.487 1.487 0 0 1-.314.192c.091-.088.187-.169.287-.241.098-.076.22-.175.367-.273.148-.099.328-.208.525-.323.197-.115.426-.218.677-.344.251-.126.529-.213.833-.323a10.28 10.28 0 0 1 2.098-.426 17.114 17.114 0 0 1 5.505.547c2.043.486 4.231 1.279 6.584 1.776 1.141.253 2.297.385 3.456.394a10.285 10.285 0 0 0 3.187-.503 23.417 23.417 0 0 0 2.757-1.214 21.638 21.638 0 0 1 2.425-1.098 6.371 6.371 0 0 1 3.702-.268c.332.09.655.223.964.399.109.054.213.123.309.207Zm49.889-77.966a.86.86 0 0 1-.184.126c-.185.11-.375.207-.569.29-.722.3-1.479.449-2.242.442-1.131-.004-2.244-.348-3.24-1-.561-.361-1.094-.869-1.744-.946-.685-.02-1.36.206-1.941.651a14.44 14.44 0 0 1-1.905 1.148 7.632 7.632 0 0 1-1.927.585 8.03 8.03 0 0 1-1.793.06 7.86 7.86 0 0 1-1.547-.306 7.33 7.33 0 0 1-2.093-1.033 4.88 4.88 0 0 1-.511-.405 1.094 1.094 0 0 1-.17-.164c.248.142.491.299.726.47a7.815 7.815 0 0 0 3.604 1.203 8.08 8.08 0 0 0 1.757-.082 7.683 7.683 0 0 0 1.878-.591 13.487 13.487 0 0 0 1.878-1.142c.623-.468 1.344-.702 2.075-.673.736.099 1.282.646 1.82.995.963.645 2.04.997 3.138 1.028a6.08 6.08 0 0 0 2.196-.344c.498-.17.762-.312.794-.312Zm-15.899-19.549a1.892 1.892 0 0 1-.171-.142c-.116-.093-.269-.262-.502-.432a7.815 7.815 0 0 0-2.115-1.192 9.896 9.896 0 0 0-3.658-.579 17.91 17.91 0 0 0-4.854.82c-1.793.503-3.694 1.208-5.827 1.64a12.84 12.84 0 0 1-6.836-.268c-2.358-.667-4.742-1.804-7.338-2.187a10.242 10.242 0 0 0-1.963-.109c-.667.036-1.331.136-1.986.301a30.529 30.529 0 0 0-3.948 1.366 22.862 22.862 0 0 1-4.008 1.274 9.951 9.951 0 0 1-4.034-.082c-2.609-.585-4.957-1.831-7.266-2.64a14.502 14.502 0 0 0-3.433-.831l-.843-.077h-.834c-.551 0-1.093.055-1.627.099a48.277 48.277 0 0 0-5.881 1.17 34.112 34.112 0 0 1-4.876.896c-.363.049-.713.049-1.049.06a6.373 6.373 0 0 1-.977 0l-.897-.06c-.282-.038-.547-.098-.802-.142a7.263 7.263 0 0 1-1.345-.366c-.188-.071-.367-.115-.52-.186l-.417-.213-.565-.296a1.87 1.87 0 0 1-.188-.109l.197.082.57.268.421.202c.157.06.332.104.52.17.433.154.875.268 1.322.339.251.038.516.098.798.131l.897.044c.322.021.645.021.968 0 .336 0 .686 0 1.044-.072a35.235 35.235 0 0 0 4.855-.934 46.287 46.287 0 0 1 5.894-1.208c.538-.044 1.085-.121 1.645-.104h.843l.851.071a14.68 14.68 0 0 1 3.474.831c2.331.809 4.675 2.05 7.248 2.618a9.892 9.892 0 0 0 3.949.077 22.525 22.525 0 0 0 3.971-1.269 31.782 31.782 0 0 1 3.976-1.372 9.776 9.776 0 0 1 4.034-.191c2.636.405 5.021 1.547 7.36 2.214 2.207.704 4.513.805 6.755.295 2.111-.432 4.034-1.126 5.827-1.64a17.98 17.98 0 0 1 4.891-.787 9.909 9.909 0 0 1 3.684.634 7.478 7.478 0 0 1 2.116 1.257c.226.194.444.404.65.629Zm-122.369-10.474a2.297 2.297 0 0 1-.34-.038 7.979 7.979 0 0 0-.973-.109 11.178 11.178 0 0 0-3.586.404c-.744.192-1.546.454-2.416.733-.921.325-1.862.557-2.815.694a6.514 6.514 0 0 1-3.137-.503c-1.054-.388-2.107-.918-3.223-1.263a7.58 7.58 0 0 0-3.331-.284 18.888 18.888 0 0 0-3.088.705c-.977.295-1.905.596-2.788.809a12.69 12.69 0 0 1-2.488.367 6.525 6.525 0 0 1-3.55-.766 4.339 4.339 0 0 1-1.116-.869c.37.287.755.545 1.152.771a6.717 6.717 0 0 0 3.51.667 13.035 13.035 0 0 0 2.456-.399c.87-.224 1.793-.547 2.77-.831a18.285 18.285 0 0 1 3.138-.733 7.665 7.665 0 0 1 3.406.29c1.139.35 2.197.88 3.237 1.268a6.41 6.41 0 0 0 3.07.514 15.517 15.517 0 0 0 2.788-.661c.865-.268 1.677-.547 2.43-.706a10.649 10.649 0 0 1 3.586-.317c.328.027.655.082.977.164.113.016.224.047.331.093Zm68.67 53.705c-.114 0-.228-.013-.341-.038a7.149 7.149 0 0 0-.977-.104 11.294 11.294 0 0 0-3.586.399c-.744.191-1.546.459-2.416.738-.921.322-1.863.554-2.815.694a6.505 6.505 0 0 1-3.137-.508c-1.058-.388-2.111-.913-3.228-1.263a7.613 7.613 0 0 0-3.325-.284 18.246 18.246 0 0 0-3.089.71c-.977.29-1.905.591-2.788.809-.82.203-1.652.325-2.487.367a6.575 6.575 0 0 1-3.551-.771 4.186 4.186 0 0 1-1.12-.869c.371.287.757.545 1.156.77a6.639 6.639 0 0 0 3.51.667 13.411 13.411 0 0 0 2.452-.393c.874-.23 1.793-.547 2.774-.837a18.19 18.19 0 0 1 3.138-.732 7.758 7.758 0 0 1 3.407.29c1.138.355 2.192.885 3.236 1.268.982.425 2.026.6 3.066.514a15.352 15.352 0 0 0 2.788-.662c.869-.268 1.681-.546 2.429-.705 1.185-.309 2.4-.416 3.609-.317.326.029.651.084.972.164.11.017.218.048.323.093Zm93.95 29.805a1.3 1.3 0 0 1-.34-.033 7.1 7.1 0 0 0-.973-.109 11.29 11.29 0 0 0-3.586.399c-.744.191-1.546.459-2.416.738-.922.322-1.863.555-2.815.694a6.462 6.462 0 0 1-3.138-.508c-1.053-.389-2.106-.913-3.222-1.258a7.656 7.656 0 0 0-3.331-.29 18.859 18.859 0 0 0-3.088.711c-.995.29-1.892.591-2.788.837-.82.205-1.652.327-2.488.366a6.516 6.516 0 0 1-3.55-.766 4.339 4.339 0 0 1-1.116-.869c.371.284.755.54 1.152.766a6.678 6.678 0 0 0 3.51.667 13.442 13.442 0 0 0 2.456-.394c.87-.23 1.793-.547 2.77-.836a19.296 19.296 0 0 1 3.138-.733 7.813 7.813 0 0 1 3.406.29c1.139.355 2.192.885 3.237 1.273a6.347 6.347 0 0 0 3.07.509 15.52 15.52 0 0 0 2.788-.662c.865-.267 1.676-.546 2.43-.705a10.59 10.59 0 0 1 3.585-.311c.329.025.655.078.978.158.112.01.223.032.331.066Zm-239.797-5.254a1.397 1.397 0 0 1-.34-.033 6.935 6.935 0 0 0-.973-.109 11.32 11.32 0 0 0-3.586.399c-.74.196-1.547.459-2.412.738-.923.322-1.866.554-2.819.694a6.436 6.436 0 0 1-3.138-.508c-1.057-.383-2.11-.913-3.227-1.258a7.654 7.654 0 0 0-3.33-.29 18.986 18.986 0 0 0-3.089.711c-.977.295-1.905.591-2.788.809-.818.205-1.648.328-2.483.367a6.548 6.548 0 0 1-3.554-.766 4.357 4.357 0 0 1-1.112-.88c.373.281.76.537 1.156.765a6.64 6.64 0 0 0 3.506.667 12.945 12.945 0 0 0 2.456-.393c.87-.224 1.793-.547 2.775-.837a18.854 18.854 0 0 1 3.137-.727 7.788 7.788 0 0 1 3.411.284c1.139.356 2.192.886 3.232 1.274.984.424 2.03.597 3.07.509a14.683 14.683 0 0 0 2.788-.662c.87-.268 1.677-.547 2.43-.705a10.596 10.596 0 0 1 3.586-.312c.328.025.655.078.977.159.111.023.22.057.327.104Z"/>
</svg>
