<svg xmlns="http://www.w3.org/2000/svg" width="320" height="240" fill="none" viewBox="0 0 320 240">
  <path fill="#F5F5F5" d="M58.156 219.951c57.487 26.732 150.726 26.732 208.221 0 57.495-26.731 57.487-70.068 0-96.785-57.487-26.718-150.718-26.731-208.22 0-57.504 26.731-57.496 70.061 0 96.785Z"/>
  <path fill="#EBEBEB" d="m112.21 214.998-77.245-39.666a.832.832 0 0 1-.416-.267.684.684 0 0 1-.16-.434c0-.156.056-.308.16-.433a.826.826 0 0 1 .416-.267l86.836-44.613a3.35 3.35 0 0 1 1.367-.289c.474 0 .942.099 1.366.289l77.261 39.666c.787.392.787 1.016 0 1.401l-86.861 44.613c-.422.19-.889.289-1.362.289-.473 0-.94-.099-1.362-.289Z"/>
  <path fill="#3654B6" d="m284.773 160.716-3.843-1.696c.106-4.33.769-8.634 1.976-12.83 2.867-9.41 11.718-16.753 18.522-17.208 8.781-.589 6.56 6.383 1.308 9.059-8.395 4.254-15.286 11.226-17.963 22.675Z"/>
  <path fill="#000" d="m284.773 160.716-3.843-1.696c.106-4.33.769-8.634 1.976-12.83 2.867-9.41 11.718-16.753 18.522-17.208 8.781-.589 6.56 6.383 1.308 9.059-8.395 4.254-15.286 11.226-17.963 22.675Z" opacity=".2"/>
  <path fill="#fff" d="M284.159 157.548h.047a.433.433 0 0 0 .287-.135.357.357 0 0 0 .077-.131.335.335 0 0 0 .014-.147c-.906-8.023 7.828-22.107 18.01-25.512a.425.425 0 0 0 .14-.077.376.376 0 0 0 .096-.119.329.329 0 0 0 .036-.143.328.328 0 0 0-.028-.144.398.398 0 0 0-.22-.212.472.472 0 0 0-.323-.013c-10.49 3.504-19.491 18.022-18.554 26.297a.372.372 0 0 0 .137.239.456.456 0 0 0 .281.097Z"/>
  <path fill="#3654B6" d="M282.45 159.531c-.063-1.156 0-2.837 0-3.251a9.684 9.684 0 0 1 1.126-4.204c.918-1.752 2.482-3.171 4.433-4.022 1.064-.448 2.276-.7 3.017-1.534a5.223 5.223 0 0 0 .992-2.509c.338-1.401.992-2.922 2.362-3.699 1.37-.778 3.15-.701 4.725-.393 2.308.4 4.457.848 6.733.063a50.914 50.914 0 0 1 5.584-1.744c2.362-.526 7.709-1.142 8.528 1.849.083.413.062.837-.06 1.241-.123.405-.344.78-.649 1.1a9.446 9.446 0 0 1-2.134 1.618l-3.937 2.418c-.46.251-.867.571-1.205.946-.788 1.016-.441 2.424-.717 3.65a4.191 4.191 0 0 1-.907 1.709 4.845 4.845 0 0 1-1.628 1.213 7.388 7.388 0 0 1-4.158.561c-1.898-.26-4.875-1.801-6.229.112a5.876 5.876 0 0 0-.788 2.102 3.916 3.916 0 0 1-.992 2.011c-.835.784-2.174.932-3.394.946a21.08 21.08 0 0 0-5.08.329c-.677.175-1.157.89-1.575 1.352-1.031-.518-2.291-1.044-4.047-1.864Z"/>
  <path fill="#fff" d="M283.592 159.02a.535.535 0 0 1-.182-.035.365.365 0 0 1-.195-.203.32.32 0 0 1 .022-.267c5.946-10.44 22.318-16.984 31.87-18.841a.408.408 0 0 1 .405.141.336.336 0 0 1 .064.263.346.346 0 0 1-.162.227.418.418 0 0 1-.142.056c-9.402 1.821-25.506 8.247-31.334 18.47a.373.373 0 0 1-.144.137.427.427 0 0 1-.202.052Z"/>
  <path fill="#fff" d="M306.586 149.14a.436.436 0 0 1-.244-.077c-3.055-2.179-7.591-2.845-7.638-2.852a.383.383 0 0 1-.257-.143.316.316 0 0 1-.066-.263.31.31 0 0 1 .052-.128.368.368 0 0 1 .104-.1.437.437 0 0 1 .293-.059c.196 0 4.788.7 8.001 2.999a.34.34 0 0 1 .145.233.325.325 0 0 1-.083.257.393.393 0 0 1-.136.097.433.433 0 0 1-.171.036Zm-10.796-1.464h-.118a.386.386 0 0 1-.229-.175.313.313 0 0 1-.023-.267c.468-1.733.656-3.516.559-5.297a.324.324 0 0 1 .093-.256.411.411 0 0 1 .269-.122.423.423 0 0 1 .288.083c.079.06.129.146.137.239a17.599 17.599 0 0 1-.598 5.564.363.363 0 0 1-.147.169.43.43 0 0 1-.231.062Z"/>
  <path fill="#3654B6" d="M14.86 151.649a3.504 3.504 0 0 0-.725-1.542c-.655-.637-1.553-1.036-2.52-1.121a32.189 32.189 0 0 1-2.858-.371 5.915 5.915 0 0 1-1.97-.871 5.22 5.22 0 0 1-1.441-1.479 4.618 4.618 0 0 1-.692-1.858 4.458 4.458 0 0 1 .165-1.951c.26-.813.788-1.563 1-2.375.662-2.145-1.197-3.041-2.905-4.071-1.19-.701-3.15-1.773-2.89-3.294.464-2.837 5.158-3.552 9.654-2.417 4.497 1.135 6.883 2.032 10.238 1.226 3.354-.806 6.441-.981 8.197 1.682 1.756 2.662 0 5.157 2.253 7.007 2.252 1.849 6.3.581 7.78 4.617v24.027c0-.14-.788-.61-.89-.701l-2.41-1.934c-.787-.595-1.85-1.149-2.362-1.913-.725-1.058-1.087-2.312-1.835-3.377-.838-1.283-2.052-2.339-3.512-3.055-2.867-1.31-6.3-1.086-9.253-2.361-1.065-.429-1.93-1.171-2.45-2.102a9.028 9.028 0 0 1-.574-1.766Z"/>
  <path fill="#000" d="M14.86 151.649a3.504 3.504 0 0 0-.725-1.542c-.655-.637-1.553-1.036-2.52-1.121a32.189 32.189 0 0 1-2.858-.371 5.915 5.915 0 0 1-1.97-.871 5.22 5.22 0 0 1-1.441-1.479 4.618 4.618 0 0 1-.692-1.858 4.458 4.458 0 0 1 .165-1.951c.26-.813.788-1.563 1-2.375.662-2.145-1.197-3.041-2.905-4.071-1.19-.701-3.15-1.773-2.89-3.294.464-2.837 5.158-3.552 9.654-2.417 4.497 1.135 6.883 2.032 10.238 1.226 3.354-.806 6.441-.981 8.197 1.682 1.756 2.662 0 5.157 2.253 7.007 2.252 1.849 6.3.581 7.78 4.617v24.027c0-.14-.788-.61-.89-.701l-2.41-1.934c-.787-.595-1.85-1.149-2.362-1.913-.725-1.058-1.087-2.312-1.835-3.377-.838-1.283-2.052-2.339-3.512-3.055-2.867-1.31-6.3-1.086-9.253-2.361-1.065-.429-1.93-1.171-2.45-2.102a9.028 9.028 0 0 1-.574-1.766Z" opacity=".1"/>
  <path fill="#fff" d="M38.296 163.63a.415.415 0 0 1-.253-.08.334.334 0 0 1-.133-.207c-2.851-14.448-21.869-27.796-33.193-30.291a.445.445 0 0 1-.144-.058.377.377 0 0 1-.107-.104.333.333 0 0 1-.048-.272.35.35 0 0 1 .066-.128.398.398 0 0 1 .116-.095.445.445 0 0 1 .306-.043c11.52 2.536 30.87 16.116 33.775 30.83.01.045.01.092 0 .137a.326.326 0 0 1-.06.126.4.4 0 0 1-.254.143l-.071.042Z"/>
  <path fill="#fff" d="M11.371 143.535a.467.467 0 0 1-.174-.036.416.416 0 0 1-.14-.097.33.33 0 0 1 .07-.498c2.717-1.906 8.237-2.473 10.45-2.347a.406.406 0 0 1 .275.12c.034.035.06.076.077.121a.31.31 0 0 1 .018.137.313.313 0 0 1-.039.132.353.353 0 0 1-.093.108.432.432 0 0 1-.285.083c-2.252-.133-7.481.49-9.915 2.2a.451.451 0 0 1-.244.077Zm12.569-.435a.343.343 0 0 1-.15 0 .403.403 0 0 1-.13-.074.344.344 0 0 1-.119-.246.32.32 0 0 1 .029-.135c1.44-3.104.653-8.352.645-8.408a.328.328 0 0 1 .078-.261.413.413 0 0 1 .26-.139.427.427 0 0 1 .291.07.34.34 0 0 1 .15.232c.04.224.828 5.486-.692 8.765a.36.36 0 0 1-.148.147.425.425 0 0 1-.214.049Z"/>
  <path fill="#3654B6" d="M36.8 173.097c-.788-2.165-4.796-6.72-11.994-10.286-6.253-3.097-15.908-5.402-15.057-9.487.85-4.085 9.733-4.204 15.876-.89 7.71 4.127 12.04 12.563 12.553 15.891l-1.379 4.772Z"/>
  <path fill="#fff" d="M37.547 170.855a.415.415 0 0 1-.25-.078.337.337 0 0 1-.135-.203c-1.575-7.539-13.6-17.783-23.192-17.559a.423.423 0 0 1-.279-.102.333.333 0 0 1-.115-.248c0-.093.042-.182.115-.248a.419.419 0 0 1 .279-.103c9.946-.259 22.333 10.343 23.987 18.127a.326.326 0 0 1-.063.264.41.41 0 0 1-.252.15h-.095Z"/>
  <path fill="#3654B6" d="M278.402 35.468a2.91 2.91 0 0 1-.48 1.596 3.4 3.4 0 0 1-1.315 1.165l-7.773 3.973a3.9 3.9 0 0 1-1.458.412 4.002 4.002 0 0 1-1.519-.167 2.957 2.957 0 0 1-.574 1.208 3.407 3.407 0 0 1-1.079.894l-.284.147-7.521 3.868-.212.105a4.042 4.042 0 0 1-2.851.12 2.967 2.967 0 0 1-.584 1.296 3.421 3.421 0 0 1-1.156.945l-7.088 3.644c1.312 1.946 2.046 4.157 2.134 6.425 0 2.291-1.031 3.805-2.622 4.365a3.61 3.61 0 0 1-.858.442 3.27 3.27 0 0 1-.867.441c-.573.298-1.148.595-1.724.89a3.82 3.82 0 0 1-.866.442 3.57 3.57 0 0 1-.859.44 3.721 3.721 0 0 1-.866.442 3.269 3.269 0 0 1-.858.442c-1.347.946-3.324.98-5.56-.168-4.04-2.102-7.324-7.126-7.324-11.295 0-2.102.835-3.56 2.166-4.17.143-.06.29-.11.441-.154.133-.105.275-.201.425-.287.141-.059.286-.11.433-.154.131-.108.274-.204.426-.287.141-.063.289-.115.441-.154.132-.108.275-.207.425-.295.141-.056.285-.105.433-.147.133-.108.275-.206.425-.294.142-.06.29-.11.441-.147.131-.11.273-.209.425-.295.141-.058.286-.11.433-.154.133-.105.276-.202.426-.287.143-.06.29-.111.441-.154.133-.106.275-.202.425-.288.141-.058.286-.11.433-.154a3.506 3.506 0 0 1 .858-.364c.131-.108.274-.204.426-.287a6.48 6.48 0 0 0-.63-.463l-.646-.413-.638-.379a16.047 16.047 0 0 0-3.055-1.36 7.728 7.728 0 0 0-.788-.223 10.802 10.802 0 0 0-2.819-.393h-1.276a4.932 4.932 0 0 1-2.273-.523 4.276 4.276 0 0 1-1.664-1.474l-.189-.287s1.732-5.31 1.748-5.332l5.512-2.943a13.297 13.297 0 0 1 3.568-1.562c.215-.042.434-.07.653-.084h.181c.281-.018.563-.018.843 0h.378a12.36 12.36 0 0 1 1.638.287 25.319 25.319 0 0 1 5.757 2.277c.425.217.787.442 1.22.7a36.183 36.183 0 0 0-2.102-1.569c-.323-.231-.646-.455-.977-.7a.718.718 0 0 0-.149-.106 24.819 24.819 0 0 0-.875-.574c-.527-.337-1.063-.7-1.614-.995l-.724-.42c-.371-.218-.788-.428-1.127-.631-.338-.203-.937-.505-1.409-.75-4.386-2.25-8.363-3.202-11.962-3.202h-.748l-.843.049c-.213 0-.417 0-.63.063l-.441.056-.394.056-.59.098-.685.147c-.245.056-.489.113-.733.183-.244.07-.409.112-.606.168a5.262 5.262 0 0 1-1.528.231 4.942 4.942 0 0 1-2.271-.526 4.29 4.29 0 0 1-1.666-1.47l-.087-.134 1.347-5.13.094-.07c.622-.392 3.694-2.29 3.938-2.416a29.914 29.914 0 0 1 4.536-1.906c.645-.22 1.307-.416 1.984-.589l.898-.217c.299-.063.598-.133.905-.19a32 32 0 0 1 1.859-.3l.787-.099h.182l.945-.077a.08.08 0 0 1 .055 0l.874-.049a1.42 1.42 0 0 1 .244 0c1.067-.028 2.134 0 3.197.084 1.385.12 2.757.338 4.103.652-4.76-2.375-10.042-3.804-15.482-4.19a35.284 35.284 0 0 0-5.867.154 25.29 25.29 0 0 0-1.465.19h-.149c-.3.041-.583.09-.874.153-.497.091-.985.19-1.473.302-.488.112-.961.238-1.433.37-.347.09-.685.188-1.016.295a33.7 33.7 0 0 0-1.284.428c-.6.217-1.242.329-1.89.329a5.793 5.793 0 0 1-2.63-.64 5.022 5.022 0 0 1-1.921-1.721l-.111-.169c.063-.266 1.504-5.913 1.504-5.913h.04l.102-.07.071-.05c.725-.476 3.071-2.01 3.315-2.102a37.377 37.377 0 0 1 5.355-2.263c1.05-.35 2.1-.658 3.15-.925l1.142-.259 1.189-.238a41.177 41.177 0 0 1 3.694-.484 36.294 36.294 0 0 1 2.535-.154c.426-.014.859 0 1.292 0 6.961 0 14.6 1.689 22.498 5.746 3.08 1.583 5.852 3.118 8.403 4.68.315.19.622.379.921.575.788.505 1.575 1.023 2.363 1.542l1.031.7a42.076 42.076 0 0 1 2.229 1.633c.291.217.567.434.851.658l.425.337.898.736a63.273 63.273 0 0 1 5.095 4.743l.614.652c.315.33.622.7.929 1.009.48.525.961 1.072 1.433 1.632l.827.981c.583.701 1.166 1.402 1.748 2.2.284.372.575.743.859 1.129.283.385.575.77.866 1.17.291.4.583.798.866 1.205.583.82 1.174 1.66 1.764 2.536.331.482.51 1.034.52 1.598Z"/>
  <path fill="#000" d="M278.402 35.468a2.91 2.91 0 0 1-.48 1.596 3.4 3.4 0 0 1-1.315 1.165l-7.773 3.973a3.9 3.9 0 0 1-1.458.412 4.002 4.002 0 0 1-1.519-.167 2.957 2.957 0 0 1-.574 1.208 3.407 3.407 0 0 1-1.079.894l-.284.147-7.521 3.868-.212.105a4.042 4.042 0 0 1-2.851.12 2.967 2.967 0 0 1-.584 1.296 3.421 3.421 0 0 1-1.156.945l-7.088 3.644c1.312 1.946 2.046 4.157 2.134 6.425 0 2.291-1.031 3.805-2.622 4.365a3.61 3.61 0 0 1-.858.442 3.27 3.27 0 0 1-.867.441c-.573.298-1.148.595-1.724.89a3.82 3.82 0 0 1-.866.442 3.57 3.57 0 0 1-.859.44 3.721 3.721 0 0 1-.866.442 3.269 3.269 0 0 1-.858.442c-1.347.946-3.324.98-5.56-.168-4.04-2.102-7.324-7.126-7.324-11.295 0-2.102.835-3.56 2.166-4.17.143-.06.29-.11.441-.154.133-.105.275-.201.425-.287.141-.059.286-.11.433-.154.131-.108.274-.204.426-.287.141-.063.289-.115.441-.154.132-.108.275-.207.425-.295.141-.056.285-.105.433-.147.133-.108.275-.206.425-.294.142-.06.29-.11.441-.147.131-.11.273-.209.425-.295.141-.058.286-.11.433-.154.133-.105.276-.202.426-.287.143-.06.29-.111.441-.154.133-.106.275-.202.425-.288.141-.058.286-.11.433-.154a3.506 3.506 0 0 1 .858-.364c.131-.108.274-.204.426-.287a6.48 6.48 0 0 0-.63-.463l-.646-.413-.638-.379a16.047 16.047 0 0 0-3.055-1.36 7.728 7.728 0 0 0-.788-.223 10.802 10.802 0 0 0-2.819-.393h-1.276a4.932 4.932 0 0 1-2.273-.523 4.276 4.276 0 0 1-1.664-1.474l-.189-.287s1.732-5.31 1.748-5.332l5.512-2.943a13.297 13.297 0 0 1 3.568-1.562c.215-.042.434-.07.653-.084h.181c.281-.018.563-.018.843 0h.378a12.36 12.36 0 0 1 1.638.287 25.319 25.319 0 0 1 5.757 2.277c.425.217.787.442 1.22.7a36.183 36.183 0 0 0-2.102-1.569c-.323-.231-.646-.455-.977-.7a.718.718 0 0 0-.149-.106 24.819 24.819 0 0 0-.875-.574c-.527-.337-1.063-.7-1.614-.995l-.724-.42c-.371-.218-.788-.428-1.127-.631-.338-.203-.937-.505-1.409-.75-4.386-2.25-8.363-3.202-11.962-3.202h-.748l-.843.049c-.213 0-.417 0-.63.063l-.441.056-.394.056-.59.098-.685.147c-.245.056-.489.113-.733.183-.244.07-.409.112-.606.168a5.262 5.262 0 0 1-1.528.231 4.942 4.942 0 0 1-2.271-.526 4.29 4.29 0 0 1-1.666-1.47l-.087-.134 1.347-5.13.094-.07c.622-.392 3.694-2.29 3.938-2.416a29.914 29.914 0 0 1 4.536-1.906c.645-.22 1.307-.416 1.984-.589l.898-.217c.299-.063.598-.133.905-.19a32 32 0 0 1 1.859-.3l.787-.099h.182l.945-.077a.08.08 0 0 1 .055 0l.874-.049a1.42 1.42 0 0 1 .244 0c1.067-.028 2.134 0 3.197.084 1.385.12 2.757.338 4.103.652-4.76-2.375-10.042-3.804-15.482-4.19a35.284 35.284 0 0 0-5.867.154 25.29 25.29 0 0 0-1.465.19h-.149c-.3.041-.583.09-.874.153-.497.091-.985.19-1.473.302-.488.112-.961.238-1.433.37-.347.09-.685.188-1.016.295a33.7 33.7 0 0 0-1.284.428c-.6.217-1.242.329-1.89.329a5.793 5.793 0 0 1-2.63-.64 5.022 5.022 0 0 1-1.921-1.721l-.111-.169c.063-.266 1.504-5.913 1.504-5.913h.04l.102-.07.071-.05c.725-.476 3.071-2.01 3.315-2.102a37.377 37.377 0 0 1 5.355-2.263c1.05-.35 2.1-.658 3.15-.925l1.142-.259 1.189-.238a41.177 41.177 0 0 1 3.694-.484 36.294 36.294 0 0 1 2.535-.154c.426-.014.859 0 1.292 0 6.961 0 14.6 1.689 22.498 5.746 3.08 1.583 5.852 3.118 8.403 4.68.315.19.622.379.921.575.788.505 1.575 1.023 2.363 1.542l1.031.7a42.076 42.076 0 0 1 2.229 1.633c.291.217.567.434.851.658l.425.337.898.736a63.273 63.273 0 0 1 5.095 4.743l.614.652c.315.33.622.7.929 1.009.48.525.961 1.072 1.433 1.632l.827.981c.583.701 1.166 1.402 1.748 2.2.284.372.575.743.859 1.129.283.385.575.77.866 1.17.291.4.583.798.866 1.205.583.82 1.174 1.66 1.764 2.536.331.482.51 1.034.52 1.598Z" opacity=".2"/>
  <path fill="#3654B6" d="M238.87 65.135c0 4.134-3.276 5.837-7.316 3.749-4.04-2.088-7.324-7.12-7.324-11.288 0-2.102.835-3.56 2.166-4.17 1.331-.609 3.15-.609 5.158.414 2.135 1.235 3.911 2.902 5.183 4.866 1.271 1.963 2.002 4.166 2.133 6.43Zm6.111-14.721c-3.176-4.09-7.38-7.466-12.277-9.859a23.853 23.853 0 0 0-7.387-2.48 5.233 5.233 0 0 0-2.25.138 4.8 4.8 0 0 0-1.916 1.06l-.047.049a3.96 3.96 0 0 0-1.235 2.203 3.714 3.714 0 0 0 .4 2.435c.054.108.115.213.181.316a4.286 4.286 0 0 0 1.665 1.473 4.93 4.93 0 0 0 2.273.524h1.276a10.78 10.78 0 0 1 2.819.392c.252.063.504.14.787.224a16.014 16.014 0 0 1 3.056 1.36c.228.133.433.245.638.378.204.133.433.266.645.413.213.148.434.295.646.449a25.885 25.885 0 0 1 4.93 4.694c.571.652 1.403 1.083 2.322 1.203.919.12 1.854-.08 2.612-.559.757-.479 1.278-1.199 1.453-2.01a2.922 2.922 0 0 0-.512-2.347l-.079-.056Zm12.647-6.279c-6.52-9.375-13.198-15.478-23.105-20.684-3.373-1.791-7.156-2.884-11.068-3.198a29.2 29.2 0 0 0-11.533 1.383 4.57 4.57 0 0 0-.953.428l-.094.07c-.885.565-1.508 1.396-1.756 2.34a3.612 3.612 0 0 0 .409 2.789l.087.133c.399.613.974 1.12 1.665 1.471a4.952 4.952 0 0 0 2.272.526 5.259 5.259 0 0 0 1.528-.231c.197-.056.401-.12.606-.168.205-.05.488-.127.733-.183l.685-.147.59-.098.394-.056.441-.056c.213 0 .417-.049.63-.063l.843-.05h.748c3.599 0 7.575.954 11.962 3.203l1.409.75c.378.203.788.413 1.126.63l.725.42c.551.323 1.087.66 1.614.996.3.189.591.378.874.574a.7.7 0 0 1 .15.105c.331.21.654.435.977.701a36.139 36.139 0 0 1 2.102 1.57h.04c3.808 3.015 7.122 6.492 9.843 10.328a3.449 3.449 0 0 0 1.756 1.24 4.042 4.042 0 0 0 2.851-.12l.213-.104a3.513 3.513 0 0 0 1.073-.852c.29-.344.5-.738.616-1.156a2.88 2.88 0 0 0 .06-1.279 3.013 3.013 0 0 0-.505-1.198l-.008-.014Z"/>
  <path fill="#3654B6" d="M270.125 37.815c-9.449-14.013-17.324-20.509-32.129-28.132-13.143-6.72-25.57-6.93-35.335-3.72-.383.129-.75.293-1.095.49l-.07.049-.103.07h-.039c-.996.667-1.693 1.627-1.968 2.708a4.227 4.227 0 0 0 .464 3.199c0 .063.071.112.11.175a5.03 5.03 0 0 0 1.921 1.721 5.795 5.795 0 0 0 2.631.64c.648 0 1.289-.112 1.89-.33.417-.146.85-.294 1.283-.427.433-.133.67-.203 1.016-.294a29.152 29.152 0 0 1 2.906-.673 11.9 11.9 0 0 1 .874-.154h.15c.48-.077.976-.14 1.464-.189a34.562 34.562 0 0 1 5.891-.175c5.47.37 10.782 1.806 15.561 4.204l1.173.588c12.442 6.39 19.302 11.912 27.247 23.572.512.686 1.302 1.17 2.206 1.35.903.181 1.85.044 2.643-.382.792-.425 1.37-1.107 1.611-1.903a2.887 2.887 0 0 0-.317-2.366l.015-.02Z"/>
  <path fill="#000" d="m221.868 163.897 24.223-12.444-10.899-30.796-13.324 43.24Z"/>
  <path fill="#7287CC" d="M220.891 170c.418-.245.733-.604.898-1.023l16.128-49.749-2.725 1.401-16.348 50.394 2.047-1.023Z"/>
  <path fill="#000" d="m216.804 170 2.04 1.051 16.348-50.373-2.685-1.401-16.128 49.749a.832.832 0 0 0 .045.545.963.963 0 0 0 .38.429Zm72.725-2.439a.924.924 0 0 1-.085.588 1.066 1.066 0 0 1-.434.449l-2.04 1.051-16.348-67.189 2.724-1.401 13.923 57.239 2.26 9.263Z"/>
  <path fill="#7287CC" d="M284.922 168.598a1.78 1.78 0 0 1-.842-1.037l-16.183-66.502 2.725 1.401 16.348 67.189-2.048-1.051Zm-49.73-47.92 16.349 67.189-2.04-1.051a1.817 1.817 0 0 1-.85-1.03l-16.144-66.509 2.685 1.401Z"/>
  <path fill="#000" d="M253.588 186.795a1.04 1.04 0 0 0 .434-.445.899.899 0 0 0 .078-.585l-16.183-66.488-2.725 1.401 16.349 67.189 2.047-1.072Zm17.034-87.137 2.724 1.401-38.154 19.598-2.724-1.401 38.154-19.598Z"/>
  <path fill="#7287CC" d="m273.346 101.059-38.154 19.598 13.931 57.239 38.146-19.598-13.923-57.239Z"/>
  <path fill="#fff" d="M250.273 137.768h-.677a.528.528 0 0 1-.339-.168.417.417 0 0 1-.102-.33c.157-1.282 1.291-4.596 8.284-7.749 5.694-2.572 9.985-1.85 10.828-1.514a.476.476 0 0 1 .259.241.402.402 0 0 1 .001.334c-.055.126-1.473 3.118-7.781 6.355-4.992 2.558-8.953 2.831-10.473 2.831Zm15.128-9.235a18.326 18.326 0 0 0-7.513 1.759c-5.812 2.627-7.269 5.325-7.631 6.579 3.536-.137 6.974-1.078 9.985-2.733 4.584-2.347 6.442-4.533 7.088-5.451a10.736 10.736 0 0 0-1.929-.154Z"/>
  <path fill="#fff" d="M258.494 148.215a7.096 7.096 0 0 1-2.701-.511c-3.882-1.57-5.591-6.306-6.638-10.3a.405.405 0 0 1 .035-.363.471.471 0 0 1 .137-.141.566.566 0 0 1 .189-.079.57.57 0 0 1 .402.069.465.465 0 0 1 .144.135c.036.054.06.113.069.176 1 3.769 2.591 8.282 6.079 9.69 1.875.757 4.151.505 6.773-.736 7.552-3.566 6.662-11.554 4.591-17.629a.398.398 0 0 1 .013-.361.443.443 0 0 1 .126-.147.554.554 0 0 1 .586-.046.48.48 0 0 1 .236.295c3.15 9.172 1.378 15.632-5.08 18.68a11.717 11.717 0 0 1-4.961 1.268Z"/>
  <path fill="#fff" d="M269.464 138.455a.563.563 0 0 1-.28-.077.469.469 0 0 1-.185-.203.396.396 0 0 1 .001-.343.436.436 0 0 1 .11-.144.52.52 0 0 1 .165-.095c2.323-.848 3.292-2.978 3.418-4.688.102-1.366-.331-2.333-.788-2.578a1.172 1.172 0 0 0-.866-.105c-.709.288-1.287.782-1.638 1.401a.495.495 0 0 1-.296.222.561.561 0 0 1-.385-.029.473.473 0 0 1-.25-.263.41.41 0 0 1 .033-.343c.487-.838 1.282-1.501 2.252-1.878a2.296 2.296 0 0 1 1.654.189c.914.47 1.426 1.815 1.3 3.419-.15 1.976-1.284 4.45-4.04 5.452a.604.604 0 0 1-.205.063Zm-17.065-8.815-.142-.056a1.905 1.905 0 0 1-.393-.175l-.268-.175-.268-.238a2.973 2.973 0 0 1-.504-.701 3.492 3.492 0 0 1-.307-.946 4.387 4.387 0 0 1-.079-1.072 7.344 7.344 0 0 1 .473-2.277c.141-.379.315-.701.464-1.065.138-.313.251-.634.339-.96a3.125 3.125 0 0 0 0-1.731 2.742 2.742 0 0 0-.709-1.107 3.132 3.132 0 0 0-.307-.266l-.11-.091c.188.058.369.131.543.217.481.244.87.61 1.118 1.051.343.641.458 1.359.331 2.06a4.82 4.82 0 0 1-.307 1.135c-.142.357-.299.701-.417 1.037-.118.336-.244.701-.339 1.037-.09.335-.159.674-.205 1.016a6.903 6.903 0 0 0-.063.953c.011.282.048.564.111.841.065.241.158.475.275.7.097.167.213.324.347.47.087.101.188.193.299.273l.118.07Zm2.386-2.557-.11-.112a3.953 3.953 0 0 1-.299-.309c-.14-.18-.263-.37-.371-.567a2.713 2.713 0 0 1-.275-.827 3.348 3.348 0 0 1-.047-1.023 6.06 6.06 0 0 1 .197-1.107c.189-.75.48-1.5.692-2.242.111-.372.229-.757.292-1.108a4.47 4.47 0 0 0 .094-1.044 4.027 4.027 0 0 0-.181-.945 3.465 3.465 0 0 0-.968-1.402 5.41 5.41 0 0 0-1.008-.729c.204.038.404.092.598.162a4.237 4.237 0 0 1 1.402.84 3.353 3.353 0 0 1 1.039 1.99c.025.208.039.416.04.624-.001.209-.02.417-.055.624-.07.406-.164.808-.284 1.205-.252.785-.559 1.534-.787 2.221a12.22 12.22 0 0 0-.308.988c-.074.292-.116.59-.125.89a2.046 2.046 0 0 0 0 .399c.001.123.02.246.055.365.041.197.099.391.173.581.142.336.236.526.236.526Zm4.071-.099-.141-.056a1.467 1.467 0 0 1-.402-.189 2.369 2.369 0 0 1-.551-.427l-.268-.323a6.476 6.476 0 0 1-.228-.406 3.87 3.87 0 0 1-.3-.967 4.274 4.274 0 0 1-.047-1.135 7.5 7.5 0 0 1 .52-2.319c.15-.386.331-.743.48-1.086.15-.344.284-.701.386-1.002.198-.583.26-1.196.181-1.801a2.487 2.487 0 0 0-.59-1.198 2.71 2.71 0 0 0-.292-.295l-.102-.098c.185.074.361.163.528.267.201.12.382.267.535.434.208.22.371.472.48.743.249.679.29 1.404.119 2.102-.076.386-.19.766-.339 1.135-.15.371-.315.701-.441 1.072-.141.346-.259.7-.354 1.058-.1.342-.179.688-.237 1.037a7.32 7.32 0 0 0-.071.981c.002.292.034.582.095.869.067.241.16.475.276.701.096.172.215.335.354.483.09.101.19.195.299.28l.11.14Zm2.883 31.714c.11-.056.228 0 .228.126a4.131 4.131 0 0 1-.792 1.862 4.761 4.761 0 0 1-1.633 1.361c-1.796.925-3.095.56-3.095-1.563a4.664 4.664 0 0 1 .774-2.566 5.45 5.45 0 0 1 2.124-1.869c1.205-.617 1.787-.238 1.787.322a.76.76 0 0 1-.12.362.889.889 0 0 1-.289.276c-.244.126-.307.063-.307.063a.945.945 0 0 0 .055-.315c0-.54-.394-.701-1.174-.309a4.635 4.635 0 0 0-1.519 1.595 4.055 4.055 0 0 0-.536 2.035c0 1.801 1.079 2.207 2.3 1.583a3.794 3.794 0 0 0 1.41-1.173 3.249 3.249 0 0 0 .613-1.629.45.45 0 0 1 .174-.161Z"/>
  <path fill="#fff" d="M263.369 159.686c-.945.49-1.764.301-1.764-.855a2.797 2.797 0 0 1 .467-1.519 3.27 3.27 0 0 1 1.257-1.109c.961-.497 1.725-.294 1.725.855a2.917 2.917 0 0 1-.468 1.504 3.38 3.38 0 0 1-1.217 1.124Zm0-.302c.217-.11.402-.265.539-.451.137-.187.222-.399.248-.621a1.56 1.56 0 0 1-.931.101 1.436 1.436 0 0 1-.793-.444v.434c0 1.051.275 1.325.937.981Zm-.622-2.186c0 .701.685 1.002 1.464.792v-.512c0-1.037-.189-1.345-.905-.974a1.037 1.037 0 0 0-.373.288.886.886 0 0 0-.186.406Zm3.685-2.186v5.928a.825.825 0 0 1-.331.28c-.236.119-.448.091-.448-.245v-6.762c0-1.254.244-2.032 1.063-2.452.575-.294.858-.112.858.588a3.62 3.62 0 0 1-.898 2.271l.788-.4c.252-.126.299-.063.299.119l-1.331.673Zm.788-2.459c0-.526-.174-.652-.418-.526s-.33.421-.354 2.551a3.045 3.045 0 0 0 .756-2.053l.016.028Zm1.638 1.184v5.928a.825.825 0 0 1-.331.28c-.236.119-.449.091-.449-.238v-6.797c0-1.254.244-2.032 1.063-2.452.575-.295.858-.112.858.588a3.619 3.619 0 0 1-.897 2.27l.787-.399c.252-.126.299-.063.299.119l-1.33.701Zm.787-2.46c0-.525-.173-.651-.417-.525s-.331.42-.355 2.557a3.062 3.062 0 0 0 .756-2.032h.016Zm4.497 1.121c.11-.063.181 0 .181.154a2.836 2.836 0 0 1-.534 1.395 3.3 3.3 0 0 1-1.207 1.009c-1.275.652-2.071.476-2.071-.624a2.87 2.87 0 0 1 .46-1.555 3.332 3.332 0 0 1 1.265-1.149c.787-.407 1.047-.07 1.047.329a2.982 2.982 0 0 1-.644 1.373 3.484 3.484 0 0 1-1.277.96c.11.617.575.701 1.22.365a2.752 2.752 0 0 0 1.024-.909c.25-.375.388-.8.402-1.236 0 0 .008-.049.134-.112Zm-2.812 1.619c.347-.179.645-.422.875-.714.23-.291.386-.624.456-.975 0-.406-.212-.511-.567-.329-.535.273-.787.806-.787 1.948l.023.07Z"/>
  <path fill="#fff" d="M277.662 150.584c.118-.056.181 0 .181.154a2.81 2.81 0 0 1-.529 1.397 3.27 3.27 0 0 1-1.211 1.006c-1.268.659-2.064.484-2.064-.623a2.89 2.89 0 0 1 .457-1.554 3.353 3.353 0 0 1 1.26-1.151c.788-.406 1.055-.07 1.055.336a2.994 2.994 0 0 1-.649 1.371 3.496 3.496 0 0 1-1.28.956c.118.623.583.7 1.221.364.423-.22.776-.533 1.027-.908.251-.375.39-.8.406-1.236 0 0 .008-.049.126-.112Zm-2.804 1.625a2.63 2.63 0 0 0 .874-.712c.229-.292.382-.626.449-.976 0-.4-.204-.512-.559-.33-.535.281-.787.813-.787 1.948l.023.07Z"/>
  <path fill="#7287CC" d="M207.914 106.931v35.924c.009.158.06.311.149.447.089.137.213.252.362.338l1.371.7a1.221 1.221 0 0 0 1.023 0l1.379-.7c.148-.088.272-.205.361-.342a.938.938 0 0 0 .15-.45v-35.917a.506.506 0 0 0-.175-.37.638.638 0 0 0-.415-.156h-3.615a.63.63 0 0 0-.417.154.498.498 0 0 0-.173.372Z"/>
  <path fill="#7287CC" d="M212.119 106.405h-1.221a.638.638 0 0 0-.415.156.503.503 0 0 0-.175.37v37.136c0 .287.228.407.511.259l1.379-.7c.148-.088.272-.205.361-.342a.938.938 0 0 0 .15-.45v-35.903a.506.506 0 0 0-.175-.37.638.638 0 0 0-.415-.156Zm-27.373 12.382v35.924c.009.157.06.311.149.447s.213.252.362.337l1.371.701c.158.073.333.11.512.11.178 0 .353-.037.511-.11l1.379-.701c.149-.085.273-.201.362-.337a.912.912 0 0 0 .149-.447v-35.924a.496.496 0 0 0-.173-.372.626.626 0 0 0-.417-.154h-3.615a.626.626 0 0 0-.417.154.496.496 0 0 0-.173.372Z"/>
  <path fill="#7287CC" d="M188.951 118.261h-1.221a.638.638 0 0 0-.415.156.503.503 0 0 0-.175.37v37.136c0 .287.236.406.511.259l1.379-.701c.149-.085.273-.201.362-.337a.912.912 0 0 0 .149-.447v-35.91a.496.496 0 0 0-.173-.372.626.626 0 0 0-.417-.154Zm-2.67-25.841c.035.251.015.506-.061.75a1.843 1.843 0 0 1-.379.672 2.12 2.12 0 0 1-.639.492 2.364 2.364 0 0 1-.803.237h-.268a2.327 2.327 0 0 1-1.434-.483c-.396-.31-.65-.74-.716-1.206-1.244-8.87.528-28.728 4.796-39.883a1.9 1.9 0 0 1 .493-.73 2.22 2.22 0 0 1 .799-.467 2.404 2.404 0 0 1 1.858.146c.434.223.767.574.941.993.174.418.178.877.012 1.298-4.118 10.518-5.796 29.64-4.599 38.18Z"/>
  <path fill="#000" d="M211.394 97.556c-.289 0-.571-.082-.806-.233a1.245 1.245 0 0 1-.501-.608c-2.78-7.568-17.246-14.672-26.405-14.672-.365 0-.716-.13-.974-.36a1.16 1.16 0 0 1-.404-.867c0-.325.145-.637.404-.867.258-.23.609-.359.974-.359 10.135 0 25.83 7.708 29.027 16.32a1.113 1.113 0 0 1-.08.937 1.267 1.267 0 0 1-.332.376 1.43 1.43 0 0 1-.47.235 1.471 1.471 0 0 1-.433.098Zm1.481-11.211a1.5 1.5 0 0 1-.81-.234 1.231 1.231 0 0 1-.497-.614c-2.914-7.862-17.735-14.462-26.681-13.642a1.496 1.496 0 0 1-.987-.283 1.192 1.192 0 0 1-.486-.814 1.134 1.134 0 0 1 .289-.886c.222-.25.545-.414.901-.456 10.111-.918 26.255 6.341 29.578 15.317a1.09 1.09 0 0 1-.08.937 1.258 1.258 0 0 1-.333.377 1.428 1.428 0 0 1-.469.235 1.491 1.491 0 0 1-.425.063Zm3.331-8.668a1.516 1.516 0 0 1-.749-.185 1.293 1.293 0 0 1-.519-.516c-4.245-8.597-19.805-15.947-27.877-14.952a1.544 1.544 0 0 1-.559-.002 1.466 1.466 0 0 1-.512-.2 1.283 1.283 0 0 1-.381-.363 1.098 1.098 0 0 1-.151-.965c.051-.16.138-.311.256-.442.118-.13.265-.237.432-.315a1.51 1.51 0 0 1 .537-.138c9.15-1.128 26.034 6.776 30.783 16.397a1.095 1.095 0 0 1 .023.937c-.066.15-.165.286-.29.402a1.39 1.39 0 0 1-.442.272 1.55 1.55 0 0 1-.551.07Z"/>
  <path fill="#7287CC" d="M219.442 67.146c.459.237.802.616.967 1.064.164.449.137.936-.077 1.367-4.977 10.35-7.599 22.997-7.599 36.842v1.857l-.165.154a.866.866 0 0 1-.299.181.966.966 0 0 1-.355.058 2.932 2.932 0 0 1-.906-.197 3.65 3.65 0 0 0-.441-.126 2.31 2.31 0 0 1-1.531-.564 1.828 1.828 0 0 1-.634-1.363c0-14.364 2.748-27.523 7.961-38.362.119-.252.297-.478.521-.663.225-.186.491-.327.782-.414a2.404 2.404 0 0 1 1.769.159l.007.007Z"/>
  <path fill="#7287CC" d="M212.709 107.821v.469c-.027.43-.154.85-.374 1.234-.22.383-.527.722-.901.994l-23.027 14.799a2.85 2.85 0 0 1-1.305.377 2.91 2.91 0 0 1-1.341-.258l-32.444-16.669a2.859 2.859 0 0 1-.961-.908 2.494 2.494 0 0 1-.402-1.194v-.484c.023-.414.167-.816.418-1.165.252-.35.602-.634 1.016-.825l29.137-11.975a3.752 3.752 0 0 1 2.788.12l26.042 13.383c.394.232.722.543.957.908.236.365.371.774.397 1.194Z"/>
  <path fill="#000" d="m211.347 105.719-26.042-13.383a3.752 3.752 0 0 0-2.788-.12l-29.137 11.975c-.788.322-.788.897-.071 1.289l32.46 16.67c.414.19.876.279 1.341.258a2.865 2.865 0 0 0 1.305-.377l23.011-14.792a.901.901 0 0 0 .379-.326.772.772 0 0 0 .124-.456.782.782 0 0 0-.17-.445.936.936 0 0 0-.412-.293Z"/>
  <path fill="#7287CC" d="M43.115 107.702v35.917a.927.927 0 0 1-.15.45 1.07 1.07 0 0 1-.362.342l-1.378.7a1.206 1.206 0 0 1-1.016 0l-1.378-.7a1.068 1.068 0 0 1-.362-.342.927.927 0 0 1-.15-.45v-35.917a.472.472 0 0 1 .043-.203.52.52 0 0 1 .128-.171.592.592 0 0 1 .193-.114.647.647 0 0 1 .227-.038h3.614a.647.647 0 0 1 .228.038.593.593 0 0 1 .192.114.518.518 0 0 1 .128.171c.03.065.044.133.043.203Z"/>
  <path fill="#7287CC" d="M38.91 107.176h1.22c.157 0 .307.055.418.154.11.099.173.232.173.372v37.136c0 .294-.228.413-.504.266l-1.378-.701a1.056 1.056 0 0 1-.362-.341.927.927 0 0 1-.15-.45v-35.91a.468.468 0 0 1 .042-.201.516.516 0 0 1 .126-.171.598.598 0 0 1 .19-.114.657.657 0 0 1 .225-.04Zm27.373 12.381v35.917a.932.932 0 0 1-.15.451 1.075 1.075 0 0 1-.362.341l-1.378.701a1.292 1.292 0 0 1-1.024 0l-1.37-.701a1.075 1.075 0 0 1-.362-.341.932.932 0 0 1-.15-.451v-35.917a.469.469 0 0 1 .043-.202.518.518 0 0 1 .128-.171.592.592 0 0 1 .193-.114.647.647 0 0 1 .227-.038h3.614c.157 0 .307.055.418.154a.5.5 0 0 1 .173.371Z"/>
  <path fill="#7287CC" d="M62.078 119.032h1.213a.648.648 0 0 1 .227.038.593.593 0 0 1 .193.114.52.52 0 0 1 .127.171.46.46 0 0 1 .043.202v37.137c0 .294-.228.406-.512.266l-1.37-.701a1.075 1.075 0 0 1-.362-.341.932.932 0 0 1-.15-.451v-35.91a.469.469 0 0 1 .043-.202.518.518 0 0 1 .128-.171.592.592 0 0 1 .193-.114.647.647 0 0 1 .227-.038Z"/>
  <path fill="#3654B6" d="M64.771 93.183a1.73 1.73 0 0 0 .061.75c.076.245.204.473.38.673.174.2.391.367.639.492.247.125.52.205.802.237h.268c.528 0 1.038-.172 1.434-.483.396-.31.65-.74.716-1.206 1.244-8.87-.528-28.728-4.796-39.883-.441-1.15-1.685-1.402-2.867-.792-.897.463-1.575 1.163-1.204 2.039 4.063 10.51 5.74 29.632 4.567 38.173Z"/>
  <path fill="#000" d="M39.634 98.257a1.502 1.502 0 0 1-.629-.13 1.334 1.334 0 0 1-.492-.371 1.143 1.143 0 0 1-.244-.532 1.087 1.087 0 0 1 .058-.572c3.15-8.64 18.9-16.326 29.027-16.326.365 0 .716.13.975.36.258.229.403.54.403.866 0 .325-.145.637-.403.867a1.47 1.47 0 0 1-.975.36c-9.166 0-23.625 7.097-26.412 14.637a1.23 1.23 0 0 1-.5.61 1.481 1.481 0 0 1-.808.23Zm-1.48-11.169a1.587 1.587 0 0 1-.433-.064 1.344 1.344 0 0 1-.797-.613 1.104 1.104 0 0 1-.077-.935c3.315-8.976 19.474-16.242 29.578-15.31.355.042.679.205.9.456.223.25.327.568.29.886-.037.317-.212.61-.487.814a1.49 1.49 0 0 1-.987.282c-8.938-.813-23.766 5.774-26.68 13.643a1.246 1.246 0 0 1-.5.608 1.52 1.52 0 0 1-.807.233Zm-3.308-8.64a1.522 1.522 0 0 1-.654-.152 1.337 1.337 0 0 1-.496-.409 1.112 1.112 0 0 1-.11-1.163c4.725-9.62 21.64-17.517 30.784-16.396.362.045.69.216.91.475.221.26.317.587.267.91-.05.322-.242.613-.534.81-.292.196-.66.281-1.022.237-8.087-1.002-23.624 6.355-27.885 14.952a1.284 1.284 0 0 1-.507.534c-.224.13-.485.2-.753.202Z"/>
  <path fill="#7287CC" d="M31.578 67.91a1.989 1.989 0 0 0-.966 1.068 1.73 1.73 0 0 0 .076 1.37c4.985 10.35 7.608 22.99 7.608 36.835v1.857l.165.154c.084.078.186.14.298.181a.95.95 0 0 0 .356.057 2.9 2.9 0 0 0 .905-.196c.144-.051.291-.093.441-.126a2.31 2.31 0 0 0 1.532-.564c.406-.362.634-.852.634-1.363 0-14.357-2.749-27.523-7.97-38.363a1.946 1.946 0 0 0-.521-.658 2.236 2.236 0 0 0-.78-.411 2.419 2.419 0 0 0-1.762.152l-.016.007Z"/>
  <path fill="#7287CC" d="M38.32 108.591v.47c.023.427.146.845.362 1.228.216.382.518.721.89.993l23.01 14.806a2.959 2.959 0 0 0 2.646.119L97.68 109.53a2.84 2.84 0 0 0 .969-.904c.238-.366.376-.776.402-1.198v-.483a2.227 2.227 0 0 0-.423-1.163 2.617 2.617 0 0 0-1.01-.827L68.48 92.987a3.782 3.782 0 0 0-2.795.112l-26.003 13.39c-.398.23-.729.54-.966.906a2.455 2.455 0 0 0-.397 1.196Z"/>
  <path fill="#000" d="m39.682 106.489 26.034-13.39a3.782 3.782 0 0 1 2.796-.112l29.137 11.968c.787.329.787.904.063 1.289L65.259 122.92a2.96 2.96 0 0 1-2.646-.119L39.571 108.01a.9.9 0 0 1-.381-.33.76.76 0 0 1 .065-.907.939.939 0 0 1 .427-.284Z"/>
  <path fill="#3654B6" d="M113.785 146.218c5.118 6.461 9.245 8.037 10.654 9.446 1.41 1.408.465 4.071-3.15 4.596-3.614.526-7.449-.364-9.686-2.48-2.236-2.116-3.725-4.849-6.024-6.419-2.3-1.569-3.489-2.004-3.772-3.783-.284-1.78 1.693-7.007 1.693-7.007l10.285 5.647Z"/>
  <path fill="#FFBF9D" d="M111.58 136.542c-.591 2.27-1.213 4.253.425 7.063a25.83 25.83 0 0 0 1.78 2.613 425.21 425.21 0 0 0 5.851 7.358c.433.525-2.284 2.102-5.277.876-2.992-1.227-5.425-5.277-7.307-7.708a63.528 63.528 0 0 0-2.324-2.866c-.874-1.03-1.299-2.307-1.197-3.594l.3-3.651 7.749-.091Z"/>
  <path fill="#000" d="M94.869 154.129c5.119 6.46 9.245 8.044 10.663 9.452 1.417 1.409.456 4.064-3.15 4.59-3.607.525-7.45-.358-9.679-2.474-2.228-2.116-3.732-4.848-6.032-6.418-2.3-1.569-3.488-2.004-3.772-3.784-.283-1.779 1.701-7.006 1.701-7.006l10.269 5.64Z"/>
  <path fill="#FFBF9D" d="M92.664 144.459c-.59 2.271-1.213 4.254.433 7.056a23.123 23.123 0 0 0 1.772 2.614 406.709 406.709 0 0 0 5.851 7.364c.433.526-2.284 2.102-5.268.869-2.985-1.233-5.434-5.269-7.316-7.708a63.375 63.375 0 0 0-2.315-2.865c-.882-1.03-1.31-2.311-1.205-3.602l.3-3.643 7.748-.085Z"/>
  <path fill="#000" d="M66.81 48.907c-4.156 0-8.142-1.47-11.08-4.084-2.94-2.615-4.59-6.162-4.59-9.86v-.119c0-3.28 1.464-6.425 4.07-8.745 2.607-2.319 6.142-3.622 9.829-3.622h3.536a15.405 15.405 0 0 1 5.321.94 14.126 14.126 0 0 1 4.512 2.68 12.38 12.38 0 0 1 3.015 4.013c.699 1.5 1.059 3.11 1.059 4.734v.12c0 1.83-.406 3.644-1.193 5.335a13.958 13.958 0 0 1-3.397 4.524 15.924 15.924 0 0 1-5.084 3.023 17.37 17.37 0 0 1-5.997 1.06Z"/>
  <path fill="#FFBF9D" d="M82.427 82.239c-1.032-.743-2.135-2.053-3.198-4.786-.732-1.885-7.504-18.835-8.583-22.927 0 0-.961-1.177 1.575-2.676 3.378-.343 6.3-.33 8.662 5.269 2.363 5.599 7.135 18.849 7.135 18.849"/>
  <path fill="#3654B6" d="M48.903 93.176c-1.717 2.768-3.15 8.037-1.512 12.255.922 2.334 13.23 14.385 21.9 13.376 14.963-1.73 28.823-19.409 28.823-19.409L78.284 89.33l-29.38 3.846Z"/>
  <path fill="#000" d="M48.903 93.176c-1.717 2.768-3.15 8.037-1.512 12.255.922 2.334 13.23 14.385 21.9 13.376 14.963-1.73 28.823-19.409 28.823-19.409L78.284 89.33l-29.38 3.846Z" opacity=".1"/>
  <path fill="#3654B6" d="M71.276 51.899c2.284-.161 4.993-.175 7.56 3.994 2.008 3.244 3.094 4.59 3.016 9.018-.055 3.195-2.26 7.042-2.756 9.592-.497 2.55-.749 13.825-.788 14.827-1.907 1.913-4.24 3.453-6.85 4.521a22.908 22.908 0 0 1-8.317 1.687c-9.946.238-14.214-2.362-14.214-2.362l7.591-12.129-1.984-24.657 7.426-3.952 9.316-.539Z"/>
  <path fill="#fff" d="M71.276 51.899c2.284-.161 4.993-.175 7.56 3.994 2.008 3.244 3.094 4.59 3.016 9.018-.055 3.195-2.26 7.042-2.756 9.592-.497 2.55-.749 13.825-.788 14.827-1.907 1.913-4.24 3.453-6.85 4.521a22.908 22.908 0 0 1-8.317 1.687c-9.946.238-14.214-2.362-14.214-2.362l7.591-12.129-1.984-24.657 7.426-3.952 9.316-.539Z" opacity=".5"/>
  <path fill="#FFBF9D" d="M75.379 28.11c1.653.877 5.654 4.576 5.457 12.347-.173 6.58-2.567 8.212-3.772 8.674-1.205.463-3.528.19-5.788-.147v3.952s3.15 3.223 2.921 5.03c-.228 1.809-4.504 2.243-7.418.47a17.813 17.813 0 0 1-4.796-4.463V44.43s-1.527 1.807-4.016.336c-2.488-1.471-2.59-5.122-1.142-6.432 1.45-1.31 4.576-.89 5.158.917 0 0 3.072.701 7.875-1.653 4.804-2.354 5.206-6.93 5.52-9.487Z"/>
  <path fill="#000" d="M72.575 38.803a.762.762 0 0 1-.15.457.91.91 0 0 1-.408.307 1.035 1.035 0 0 1-.53.057.976.976 0 0 1-.479-.214.811.811 0 0 1-.267-.412.741.741 0 0 1 .033-.474.844.844 0 0 1 .321-.38 1.004 1.004 0 0 1 1.184.068.85.85 0 0 1 .215.27c.05.1.078.21.081.321Zm-1.677-2.536-1.938 1.065a.956.956 0 0 1-.117-.769 1.07 1.07 0 0 1 .503-.633 1.253 1.253 0 0 1 .855-.122c.145.032.28.089.4.167.12.079.22.178.297.292Zm1.922 8.113 2.189.624a.956.956 0 0 1-.198.358 1.094 1.094 0 0 1-.34.26 1.25 1.25 0 0 1-.873.083 1.172 1.172 0 0 1-.694-.52.96.96 0 0 1-.085-.804Zm6.913-6.172c.01.11-.005.22-.044.325a.817.817 0 0 1-.182.286.93.93 0 0 1-.292.2c-.11.05-.232.078-.356.086a1.03 1.03 0 0 1-.68-.231.818.818 0 0 1-.304-.59.746.746 0 0 1 .054-.319.814.814 0 0 1 .188-.276.931.931 0 0 1 .292-.192 1.023 1.023 0 0 1 1.022.137.86.86 0 0 1 .215.26.755.755 0 0 1 .087.314Zm-4.354-.477.15 4.982 2.944-.813-3.094-4.169Z"/>
  <path fill="#FFBF9D" d="M71.276 48.984c-1.882-.189-5.654-1.205-6.481-2.333.16.72.608 1.364 1.26 1.815 1.236 1.044 5.22 1.8 5.22 1.8v-1.282Z"/>
  <path fill="#000" d="M74.221 27.543s1.638 5.066-.323 9.81c0 0 7.135.4 7.529-4.4 0 0-.347-3.953-3.505-6.307l-3.701.897Zm-16.537-5.71c2.496 1.976.449 3.888-1.938 6.27-2.386 2.383-4.205 4.324-6.701 2.341-1.174-1.046-1.853-2.453-1.898-3.931-.045-1.478.547-2.915 1.655-4.017 1.108-1.102 2.649-1.784 4.304-1.908 1.656-.123 3.303.322 4.601 1.245h-.023Z"/>
  <path fill="#7287CC" d="M110.367 162.993v47.899c.013.211.082.415.202.598.119.183.284.338.483.453l1.835.939a1.647 1.647 0 0 0 1.362 0l1.835-.939c.199-.115.365-.27.484-.453s.188-.387.201-.598v-47.899a.667.667 0 0 0-.23-.496.842.842 0 0 0-.557-.205h-4.828a.84.84 0 0 0-.556.205.665.665 0 0 0-.231.496Z"/>
  <path fill="#7287CC" d="M115.958 162.292h-1.575a.842.842 0 0 0-.557.205.667.667 0 0 0-.23.496v49.538c0 .386.307.547.677.351l1.835-.939a1.43 1.43 0 0 0 .483-.453c.119-.183.188-.388.202-.598v-47.899a.647.647 0 0 0-.064-.279.716.716 0 0 0-.183-.232.865.865 0 0 0-.588-.19Zm77.584-42.027v47.899c.014.21.082.414.2.596.117.183.281.338.477.455l1.835.946c.214.092.448.139.685.139.237 0 .472-.047.685-.139l1.835-.946c.197-.117.36-.272.478-.455.117-.182.185-.386.199-.596v-47.899a.667.667 0 0 0-.23-.496.842.842 0 0 0-.557-.205h-4.82a.842.842 0 0 0-.557.205.667.667 0 0 0-.23.496Z"/>
  <path fill="#7287CC" d="M199.149 119.564h-1.622a.84.84 0 0 0-.557.205.665.665 0 0 0-.231.496v49.545c0 .386.307.54.685.351l1.835-.946c.197-.117.36-.272.478-.455.117-.182.185-.386.199-.596v-47.899a.667.667 0 0 0-.23-.496.842.842 0 0 0-.557-.205Z"/>
  <path fill="#000" d="M36.8 125.198v47.899c.012.21.08.414.198.597.117.182.281.338.479.454l1.834.946a1.753 1.753 0 0 0 1.37 0l1.836-.946c.198-.115.363-.271.48-.453.118-.183.185-.388.197-.598v-47.899a.666.666 0 0 0-.23-.496.842.842 0 0 0-.558-.205h-4.82a.842.842 0 0 0-.556.205.666.666 0 0 0-.23.496Z"/>
  <path fill="#7287CC" d="M42.406 124.497h-1.622a.842.842 0 0 0-.557.205.666.666 0 0 0-.23.496v49.545c0 .386.307.54.685.351l1.834-.946c.199-.115.364-.271.481-.453.118-.183.185-.388.197-.598v-47.899a.666.666 0 0 0-.23-.496.841.841 0 0 0-.558-.205Z"/>
  <path fill="#000" d="m112.21 166.517-77.245-39.679a2.83 2.83 0 0 1-.966-.906 2.455 2.455 0 0 1-.397-1.197v-.483a2.47 2.47 0 0 1 .4-1.195 2.84 2.84 0 0 1 .962-.907l86.837-44.606c.424-.19.892-.288 1.367-.288.474 0 .942.099 1.366.288l77.261 39.68c.397.23.728.54.965.905.237.366.373.776.397 1.197v.484a2.461 2.461 0 0 1-.398 1.196 2.844 2.844 0 0 1-.964.906l-86.861 44.605a3.261 3.261 0 0 1-1.362.295c-.474 0-.941-.101-1.362-.295Z"/>
  <path fill="#7287CC" d="m113.596 81.77-78.632 40.38a2.852 2.852 0 0 0-.962.906 2.482 2.482 0 0 0-.4 1.196v.483c.024.422.16.832.397 1.197.237.365.568.676.965.905l77.246 39.68c.417.202.887.304 1.362.295l.024-85.043Z"/>
  <path fill="#7287CC" d="m112.21 163.231-77.245-39.68c-.788-.385-.788-1.009 0-1.401L121.8 77.544c.424-.19.892-.288 1.367-.288.474 0 .942.099 1.366.288l77.261 39.68a.836.836 0 0 1 .416.267.685.685 0 0 1 .159.434.685.685 0 0 1-.159.434.834.834 0 0 1-.416.266l-86.861 44.606a3.261 3.261 0 0 1-1.362.295c-.474 0-.941-.101-1.362-.295Z"/>
  <path fill="#E6E6E6" d="M76.276 110.953v.701c.002.352.107.698.305 1.004.197.306.48.561.821.74l21.53 11.022c.343.175.732.266 1.127.266s.783-.091 1.126-.266l39.492-20.32c.345-.175.631-.428.83-.733.199-.305.304-.652.304-1.004v-.491l-41.737 21.448-23.798-12.367Z"/>
  <path fill="#FAFAFA" d="m141.811 101.907-23.42-12.024a1.437 1.437 0 0 0-.669-.163 1.44 1.44 0 0 0-.669.163L76.426 110.75a.279.279 0 0 0-.11.097.24.24 0 0 0 0 .267.281.281 0 0 0 .11.098l23.625 12.143 41.76-21.448Z"/>
  <path fill="#E6E6E6" d="m99.846 121.589-12.631-6.481 36.933-18.975 12.694 6.454-36.996 19.002Z"/>
  <path fill="#E0E0E0" d="m93.64 103.561.229.119 6.19 3.181 11.009-5.662.228-.112-6.418-3.3-11.237 5.774Z"/>
  <path fill="#FFBF9D" d="M87.986 75.968s6.088 4.477 13.104 9.43c3.15 2.236 6.678 4.485 9.576 4.765 2.3.218 6.387.365 7.261 1.08.874.714 3.402 4.442 4.221 5.647s.275 4.029-2.363 4.204c-2.638.175-3.756-1.5-4.859-2.543a13.34 13.34 0 0 0-1.992-1.577s-2.748.133-4.307-.7l-2.45-1.31c-5.465-2.727-19.285-9.544-23.735-12.753"/>
  <path fill="#E6E6E6" d="m93.869 103.68 6.19 3.181 11.009-5.662-6.19-3.174-11.01 5.655Z"/>
  <path fill="#E0E0E0" d="M100.059 123.355v1.338c.395 0 .783-.092 1.126-.266l39.492-20.32c.345-.175.631-.428.83-.733.199-.305.304-.652.304-1.005v-.49l-41.752 21.476Z"/>
  <path fill="#EBEBEB" d="M100.696 123.649a2.972 2.972 0 0 0 2.308-.154l39.319-20.201c.341-.174.635-.413.859-.7.225-.288.375-.615.441-.96l4.307-22.843c.065-.38.027-.77-.11-1.135a2.422 2.422 0 0 0-.677-.967L106.28 97.71c-.252.132-.468.31-.634.523a1.682 1.682 0 0 0-.327.711l-4.623 24.706Z"/>
  <path fill="#F5F5F5" d="m100.059 123.355.267.14c.121.057.244.109.37.154l4.655-24.692a1.67 1.67 0 0 1 .327-.71c.166-.214.382-.392.633-.523l40.863-21.02a2.669 2.669 0 0 0-.551-.372l-40.95 21.02a1.95 1.95 0 0 0-.633.523 1.67 1.67 0 0 0-.327.71l-4.654 24.77Z"/>
  <path fill="#E0E0E0" d="M122.841 102.566c.291-1.528 2.063-3.56 3.937-4.534 1.874-.974 3.213-.525 2.922 1.002-.292 1.528-2.063 3.56-3.938 4.534-1.874.974-3.205.532-2.921-1.002Z"/>
  <path fill="#3654B6" d="m75.182 124.497-3.198 1.64 3.198 1.646 3.197-1.646-3.197-1.64Z"/>
  <path fill="#3654B6" d="m60.046 129.087 11.435-5.872a1.734 1.734 0 0 1 1.362 0l8.23 4.204c.198.115.364.27.483.453.119.182.188.387.201.598v.238c-.011.211-.08.417-.199.6a1.397 1.397 0 0 1-.486.451l-11.426 5.879a1.736 1.736 0 0 1-1.37 0l-8.23-4.204a1.424 1.424 0 0 1-.483-.453 1.236 1.236 0 0 1-.202-.598v-.245c.014-.211.083-.416.202-.598a1.42 1.42 0 0 1 .483-.453Z"/>
  <path fill="#3654B6" d="m68.252 133.992-8.206-4.205c-.378-.189-.378-.504 0-.7l11.435-5.872a1.734 1.734 0 0 1 1.362 0l8.23 4.204a.419.419 0 0 1 .201.136c.05.063.077.138.077.214a.345.345 0 0 1-.077.215.419.419 0 0 1-.202.136l-11.45 5.872a1.665 1.665 0 0 1-.685.146c-.238 0-.473-.05-.685-.146Z"/>
  <path fill="#fff" d="m68.252 133.992-8.206-4.205c-.378-.189-.378-.504 0-.7l11.435-5.872a1.734 1.734 0 0 1 1.362 0l8.23 4.204a.419.419 0 0 1 .201.136c.05.063.077.138.077.214a.345.345 0 0 1-.077.215.419.419 0 0 1-.202.136l-11.45 5.872a1.665 1.665 0 0 1-.685.146c-.238 0-.473-.05-.685-.146Z" opacity=".3"/>
  <path fill="#3654B6" d="M71.307 124.385c-.457.238-.457.617 0 .848.256.117.54.178.827.178.288 0 .571-.061.827-.178.457-.231.457-.61 0-.848a2.043 2.043 0 0 0-1.654 0Zm-3.197 1.647c-.457.231-.457.609 0 .847.257.115.54.174.827.174.287 0 .57-.059.827-.174.457-.238.457-.616 0-.847a1.977 1.977 0 0 0-.827-.179c-.288 0-.571.061-.827.179Z"/>
  <path fill="#000" d="M71.307 124.385c-.457.238-.457.617 0 .848.256.117.54.178.827.178.288 0 .571-.061.827-.178.457-.231.457-.61 0-.848a2.043 2.043 0 0 0-1.654 0Zm-3.197 1.647c-.457.231-.457.609 0 .847.257.115.54.174.827.174.287 0 .57-.059.827-.174.457-.238.457-.616 0-.847a1.977 1.977 0 0 0-.827-.179c-.288 0-.571.061-.827.179Z" opacity=".2"/>
  <path fill="#3654B6" d="M60.424 132.506a.44.44 0 0 1-.2-.047.382.382 0 0 1-.146-.128.322.322 0 0 1-.033-.265.367.367 0 0 1 .182-.212l1.237-.637a.445.445 0 0 1 .3-.036.403.403 0 0 1 .243.162.303.303 0 0 1 .04.266.327.327 0 0 1-.071.122.368.368 0 0 1-.119.088l-1.236.638a.415.415 0 0 1-.197.049Z"/>
  <path fill="#3654B6" d="M60.424 132.856a.836.836 0 0 1-.557-.205.664.664 0 0 1-.23-.495v-10.945c0-.186.083-.364.23-.496a.842.842 0 0 1 .557-.205.84.84 0 0 1 .557.205c.148.132.23.31.23.496v10.945a.664.664 0 0 1-.23.495.837.837 0 0 1-.557.205Z"/>
  <g opacity=".2">
    <path fill="#000" d="M60.424 132.506a.44.44 0 0 1-.2-.047.382.382 0 0 1-.146-.128.322.322 0 0 1-.033-.265.367.367 0 0 1 .182-.212l1.237-.637a.445.445 0 0 1 .3-.036.403.403 0 0 1 .243.162.303.303 0 0 1 .04.266.327.327 0 0 1-.071.122.368.368 0 0 1-.119.088l-1.236.638a.415.415 0 0 1-.197.049Z"/>
    <path fill="#000" d="M60.424 132.856a.836.836 0 0 1-.557-.205.664.664 0 0 1-.23-.495v-10.945c0-.186.083-.364.23-.496a.842.842 0 0 1 .557-.205.84.84 0 0 1 .557.205c.148.132.23.31.23.496v10.945a.664.664 0 0 1-.23.495.837.837 0 0 1-.557.205Z"/>
  </g>
  <path fill="#F0F0F0" d="M81.734 131.266a1.727 1.727 0 0 1-.788-.183l-1.843-.945a.376.376 0 0 1-.116-.09.328.328 0 0 1-.068-.122.306.306 0 0 1 .043-.265.4.4 0 0 1 .237-.162.442.442 0 0 1 .298.029l1.843.946a.792.792 0 0 0 .732 0l15.262-7.771a.43.43 0 0 1 .438.027.364.364 0 0 1 .101.103.325.325 0 0 1 .04.267.347.347 0 0 1-.07.123.395.395 0 0 1-.115.09l-15.238 7.77a1.66 1.66 0 0 1-.756.183Z"/>
  <path fill="#3654B6" d="M69.827 119.361a1.79 1.79 0 0 1-.363 1.077 2.147 2.147 0 0 1-.974.715 2.427 2.427 0 0 1-1.256.113 2.273 2.273 0 0 1-1.115-.528 1.88 1.88 0 0 1-.597-.99 1.736 1.736 0 0 1 .122-1.118c.165-.354.443-.656.801-.869a2.368 2.368 0 0 1 1.208-.327c.575 0 1.127.203 1.534.564.408.361.638.852.64 1.363Z"/>
  <path fill="#3654B6" d="M67.653 114.274a6.266 6.266 0 0 0-2.938.725 5.397 5.397 0 0 0-2.102 1.966.682.682 0 0 0-.08.513c.041.175.15.33.309.44a.896.896 0 0 0 .327.14.944.944 0 0 0 .694-.128.79.79 0 0 0 .239-.243 3.765 3.765 0 0 1 1.472-1.394 4.371 4.371 0 0 1 2.071-.514c.73 0 1.447.177 2.071.514a3.766 3.766 0 0 1 1.473 1.394c.059.096.14.18.24.246a.889.889 0 0 0 .333.133c.121.022.246.02.366-.005a.904.904 0 0 0 .329-.143.75.75 0 0 0 .312-.439.678.678 0 0 0-.084-.514A5.392 5.392 0 0 0 70.588 115a6.25 6.25 0 0 0-2.935-.726Z"/>
  <path fill="#3654B6" d="M67.653 111.191c-1.543 0-3.06.347-4.412 1.009-1.352.661-2.494 1.616-3.32 2.775a.698.698 0 0 0-.135.538.749.749 0 0 0 .307.478.933.933 0 0 0 .999.03.8.8 0 0 0 .246-.226 7.198 7.198 0 0 1 2.707-2.254 8.214 8.214 0 0 1 3.593-.819c1.255 0 2.49.282 3.592.819a7.198 7.198 0 0 1 2.707 2.254.815.815 0 0 0 .244.226.918.918 0 0 0 .677.107.881.881 0 0 0 .316-.137.752.752 0 0 0 .311-.477.697.697 0 0 0-.13-.539c-.824-1.155-1.96-2.107-3.307-2.769a10.068 10.068 0 0 0-4.395-1.015Z"/>
  <path fill="#FFBF9D" d="M81.584 107.288c-5.465-2.725-17.002-10.048-21.46-13.236-1.023-.735-2.362-1.177-3.063-4.036-.472-1.948-6-18.477-7-24.412-.977-5.801 1.984-7.707 4.496-9.185 3.6 2.529 3.733 5.661 5.355 10.965 1.788 5.823 5.78 20.404 5.78 20.404s5.253 4.639 11.23 9.81c2.898 2.515 6.3 4.589 9.166 4.863 2.3.224 6.387.364 7.261 1.086.874.721 3.402 4.435 4.221 5.605.82 1.17.276 4.036-2.362 4.204-2.638.168-3.757-1.506-4.86-2.543a13.141 13.141 0 0 0-1.992-1.584s-2.748.14-4.307-.701c-1.56-.84-2.465-1.24-2.465-1.24Z"/>
  <path fill="#E0E0E0" d="M122.51 75.911a15.358 15.358 0 0 0-8.347 0c-2.26.771-2.26 2.011 0 2.803 2.715.77 5.632.77 8.347 0 2.347-.778 2.347-2.032 0-2.803Z"/>
  <path fill="#3654B6" d="M124.455 72.534H112.28l.922 12.767c.055.462.543.918 1.472 1.275a12.04 12.04 0 0 0 7.308 0c.961-.357 1.465-.813 1.52-1.275l.953-12.767Z"/>
  <path fill="#3654B6" d="m112.28 72.548.189 2.593c.319.192.66.354 1.016.483 3.142.974 6.561.974 9.702 0l.323-.133a6.98 6.98 0 0 0 .788-.378l.181-2.579-12.199.014Z"/>
  <path fill="#000" d="m112.28 72.548.189 2.593c.319.192.66.354 1.016.483 3.142.974 6.561.974 9.702 0l.323-.133a6.98 6.98 0 0 0 .788-.378l.181-2.579-12.199.014Z" opacity=".1"/>
  <path fill="#3654B6" d="M125.227 72.912V70.93h-1.394a12.877 12.877 0 0 0-.622-.253 16.588 16.588 0 0 0-9.702 0 9.289 9.289 0 0 0-.599.253h-1.378v1.954c0 .638.662 1.276 1.977 1.76 3.143.966 6.559.966 9.702 0 1.331-.463 2.016-1.094 2.016-1.732Z"/>
  <path fill="#fff" d="M125.227 72.912V70.93h-1.394a12.877 12.877 0 0 0-.622-.253 16.588 16.588 0 0 0-9.702 0 9.289 9.289 0 0 0-.599.253h-1.378v1.954c0 .638.662 1.276 1.977 1.76 3.143.966 6.559.966 9.702 0 1.331-.463 2.016-1.094 2.016-1.732Z" opacity=".3"/>
  <path fill="#3654B6" d="M123.187 69.206a16.472 16.472 0 0 0-9.702 0c-2.63.967-2.63 2.544 0 3.504 3.142.974 6.561.974 9.702 0 2.717-.96 2.717-2.537 0-3.504Z"/>
  <path fill="#fff" d="M123.187 69.206a16.472 16.472 0 0 0-9.702 0c-2.63.967-2.63 2.544 0 3.504 3.142.974 6.561.974 9.702 0 2.717-.96 2.717-2.537 0-3.504Z" opacity=".1"/>
  <path fill="#3654B6" d="M121.99 69.437a13.705 13.705 0 0 0-7.292 0c-1.984.666-1.984 1.738 0 2.404 2.373.665 4.919.665 7.292 0 2.048-.666 2.048-1.738 0-2.404Z"/>
  <path fill="#fff" d="M121.99 69.437a13.705 13.705 0 0 0-7.292 0c-1.984.666-1.984 1.738 0 2.404 2.373.665 4.919.665 7.292 0 2.048-.666 2.048-1.738 0-2.404Z" opacity=".3"/>
  <path fill="#3654B6" d="m123.479 70.411-.552-1.78h-9.119l-.551 1.78h10.222Z"/>
  <path fill="#fff" d="m123.479 70.411-.552-1.78h-9.119l-.551 1.78h10.222Z" opacity=".3"/>
  <path fill="#3654B6" d="M121.589 67.72a12.146 12.146 0 0 0-6.489 0c-1.756.589-1.756 1.542 0 2.138 2.112.588 4.376.588 6.489 0 1.819-.596 1.819-1.549 0-2.138Z"/>
  <path fill="#3654B6" d="M122.321 68.785s-.047.099-.197.204a2.94 2.94 0 0 1-.787.336c-.986.286-2.019.426-3.056.413a9.988 9.988 0 0 1-3-.406c-.258-.08-.5-.195-.717-.343-.149-.105-.189-.183-.189-.204 0-.02.158-.287.906-.539a9.988 9.988 0 0 1 3-.406 10.537 10.537 0 0 1 3.056.406c.795.245.984.49.984.54Z" opacity=".1"/>
  <path fill="#000" d="M122.321 68.785s-.047.099-.197.204a2.94 2.94 0 0 1-.787.336c-.986.286-2.019.426-3.056.413a9.988 9.988 0 0 1-3-.406c-.258-.08-.5-.195-.717-.343-.149-.105-.189-.183-.189-.204 0-.02.158-.287.906-.539a9.988 9.988 0 0 1 3-.406 10.537 10.537 0 0 1 3.056.406c.795.245.984.49.984.54Z" opacity=".1"/>
  <path fill="#3654B6" d="M122.124 68.989a2.944 2.944 0 0 1-.787.336c-.986.286-2.019.426-3.056.413a9.992 9.992 0 0 1-3-.406c-.258-.08-.5-.195-.717-.343.217-.145.459-.259.717-.337a9.988 9.988 0 0 1 3-.406 10.537 10.537 0 0 1 3.056.407c.28.074.546.187.787.336Z"/>
  <path fill="#3654B6" d="M120.297 69.024a1.05 1.05 0 0 1 .717-.12c.134.07 0 .232-.236.365a1.04 1.04 0 0 1-.725.126c-.157-.07-.024-.231.244-.371Z"/>
  <path fill="#000" d="M120.297 69.024a1.05 1.05 0 0 1 .717-.12c.134.07 0 .232-.236.365a1.04 1.04 0 0 1-.725.126c-.157-.07-.024-.231.244-.371Z" opacity=".1"/>
  <path fill="#3654B6" d="M112.808 81.93c0 .47.536.946 1.575 1.31a14.56 14.56 0 0 0 7.875 0c1.103-.364 1.654-.833 1.654-1.31l.346-4.624c0 .497-.59 1.002-1.764 1.401a15.37 15.37 0 0 1-8.347 0c-1.134-.385-1.701-.89-1.701-1.401l.362 4.624Z"/>
  <path fill="#fff" d="M112.808 81.93c0 .47.536.946 1.575 1.31a14.56 14.56 0 0 0 7.875 0c1.103-.364 1.654-.833 1.654-1.31l.346-4.624c0 .497-.59 1.002-1.764 1.401a15.37 15.37 0 0 1-8.347 0c-1.134-.385-1.701-.89-1.701-1.401l.362 4.624Z" opacity=".4"/>
  <path fill="#3654B6" d="M117.628 82.204a6.68 6.68 0 0 1-.465-.785 2.594 2.594 0 0 0-1.362-1.072.213.213 0 0 0-.12.003.187.187 0 0 0-.093.067 1.623 1.623 0 0 0-.039.975c.087.322.272.617.534.852s.591.402.953.483c.361.08.74.072 1.096-.026 0 0 .039-.07 0-.084a1.738 1.738 0 0 1-.504-.413Zm-1.497-1.997c.314.108.603.267.851.47.264.207.476.463.622.749.168.364.439.683.787.925a.18.18 0 0 0 .237-.035 1.44 1.44 0 0 0 .174-1.04 1.56 1.56 0 0 0-.592-.908 1.897 1.897 0 0 0-.97-.514 2.054 2.054 0 0 0-1.124.086.162.162 0 0 0-.067.058.143.143 0 0 0-.021.08.135.135 0 0 0 .031.078c.018.022.043.04.072.05Z"/>
</svg>
