<svg xmlns="http://www.w3.org/2000/svg" width="320" height="240" fill="none" viewBox="0 0 320 240">
  <path fill="#3654B6" d="M179.366 46.605c-12.512 5.464-24.96 13.91-29.382 26.909-1.677 4.942-2.106 10.322-4.525 14.948-2.317 4.432-6.253 7.742-10.24 10.716a132.62 132.62 0 0 1-35.008 18.554c-7.846 2.748-15.955 4.755-23.584 8.064-7.629 3.31-14.905 8.11-19.405 15.142-3.302 5.161-4.825 12.193-1.536 17.367 3.29 5.174 10.106 6.684 16.212 7.361 19.52 2.155 39.244.755 58.835-.645 15.808-1.135 31.763-2.29 46.95-6.858 17.92-5.38 34.093-15.296 50.048-25.109 6.643-4.09 13.991-9.225 14.887-17.025.947-8.226-5.85-15.484-6.349-23.76-.378-6.252 2.918-12.155 6.861-17.007 3.942-4.851 8.646-9.09 11.968-14.393 3.321-5.303 5.075-12.167 2.464-17.858-4.864-10.586-24.007-7.483-33.101-7.012a129.836 129.836 0 0 0-45.095 10.606Z"/>
  <path fill="#fff" d="M179.366 46.605c-12.512 5.464-24.96 13.91-29.382 26.909-1.677 4.942-2.106 10.322-4.525 14.948-2.317 4.432-6.253 7.742-10.24 10.716a132.62 132.62 0 0 1-35.008 18.554c-7.846 2.748-15.955 4.755-23.584 8.064-7.629 3.31-14.905 8.11-19.405 15.142-3.302 5.161-4.825 12.193-1.536 17.367 3.29 5.174 10.106 6.684 16.212 7.361 19.52 2.155 39.244.755 58.835-.645 15.808-1.135 31.763-2.29 46.95-6.858 17.92-5.38 34.093-15.296 50.048-25.109 6.643-4.09 13.991-9.225 14.887-17.025.947-8.226-5.85-15.484-6.349-23.76-.378-6.252 2.918-12.155 6.861-17.007 3.942-4.851 8.646-9.09 11.968-14.393 3.321-5.303 5.075-12.167 2.464-17.858-4.864-10.586-24.007-7.483-33.101-7.012a129.836 129.836 0 0 0-45.095 10.606Z" opacity=".9"/>
  <path fill="#F5F5F5" d="M160 240c68.533 0 124.09-3.27 124.09-7.303 0-4.034-55.557-7.303-124.09-7.303s-124.09 3.269-124.09 7.303C35.91 236.73 91.467 240 160 240Z"/>
  <path fill="#3654B6" d="M219.238 71.334h-16.934l-16.928 17.064-31.84 16.051h-33.357l-32.851 33.115H63.654v5.723h26.023l32.851-33.116h32.346l33.862-17.07 15.923-16.045h15.917l23.706-11.948v-6.4l-25.044 12.626ZM63.456 113.03a5.703 5.703 0 0 0-2.214.432 5.753 5.753 0 0 0-1.88 1.257 5.806 5.806 0 0 0-1.257 1.887 5.852 5.852 0 0 0-.441 2.23c0 2.051 2.349 6.238 4.051 9.032a73.354 73.354 0 0 0 1.741 2.703s.768-1.122 1.728-2.703c1.709-2.768 4.051-6.955 4.051-9.032a5.822 5.822 0 0 0-1.694-4.113 5.769 5.769 0 0 0-1.875-1.257 5.705 5.705 0 0 0-2.21-.436Zm0 8.703a2.621 2.621 0 0 1-1.467-.446 2.649 2.649 0 0 1-.974-1.192 2.678 2.678 0 0 1 .57-2.9 2.62 2.62 0 0 1 2.877-.575c.482.202.893.544 1.183.982.289.438.443.953.441 1.479 0 .703-.277 1.378-.77 1.875a2.621 2.621 0 0 1-1.86.777Z"/>
  <path fill="#fff" d="M219.238 71.334h-16.934l-16.928 17.064-31.84 16.051h-33.357l-32.851 33.115H63.654v5.723h26.023l32.851-33.116h32.346l33.862-17.07 15.923-16.045h15.917l23.706-11.948v-6.4l-25.044 12.626ZM63.456 113.03a5.703 5.703 0 0 0-2.214.432 5.753 5.753 0 0 0-1.88 1.257 5.806 5.806 0 0 0-1.257 1.887 5.852 5.852 0 0 0-.441 2.23c0 2.051 2.349 6.238 4.051 9.032a73.354 73.354 0 0 0 1.741 2.703s.768-1.122 1.728-2.703c1.709-2.768 4.051-6.955 4.051-9.032a5.822 5.822 0 0 0-1.694-4.113 5.769 5.769 0 0 0-1.875-1.257 5.705 5.705 0 0 0-2.21-.436Zm0 8.703a2.621 2.621 0 0 1-1.467-.446 2.649 2.649 0 0 1-.974-1.192 2.678 2.678 0 0 1 .57-2.9 2.62 2.62 0 0 1 2.877-.575c.482.202.893.544 1.183.982.289.438.443.953.441 1.479 0 .703-.277 1.378-.77 1.875a2.621 2.621 0 0 1-1.86.777Z" opacity=".5"/>
  <path fill="#3654B6" d="M244.282 31.296c-.967 0-1.924.19-2.817.562a7.353 7.353 0 0 0-2.39 1.607 7.468 7.468 0 0 0-2.16 5.244c0 2.58 2.983 7.942 5.159 11.464a90.88 90.88 0 0 0 2.208 3.445s.979-1.426 2.208-3.445c2.169-3.522 5.152-8.858 5.152-11.464a7.451 7.451 0 0 0-2.158-5.242 7.33 7.33 0 0 0-5.202-2.17Zm0 11.077a3.337 3.337 0 0 1-1.864-.57 3.379 3.379 0 0 1-1.235-1.517 3.394 3.394 0 0 1 .727-3.684 3.33 3.33 0 0 1 3.655-.733c.613.256 1.137.69 1.505 1.246.369.555.565 1.21.565 1.878a3.399 3.399 0 0 1-.98 2.392 3.324 3.324 0 0 1-2.373.988Z"/>
  <path fill="#fff" d="M244.282 31.296c-.967 0-1.924.19-2.817.562a7.353 7.353 0 0 0-2.39 1.607 7.468 7.468 0 0 0-2.16 5.244c0 2.58 2.983 7.942 5.159 11.464a90.88 90.88 0 0 0 2.208 3.445s.979-1.426 2.208-3.445c2.169-3.522 5.152-8.858 5.152-11.464a7.451 7.451 0 0 0-2.158-5.242 7.33 7.33 0 0 0-5.202-2.17Zm0 11.077a3.337 3.337 0 0 1-1.864-.57 3.379 3.379 0 0 1-1.235-1.517 3.394 3.394 0 0 1 .727-3.684 3.33 3.33 0 0 1 3.655-.733c.613.256 1.137.69 1.505 1.246.369.555.565 1.21.565 1.878a3.399 3.399 0 0 1-.98 2.392 3.324 3.324 0 0 1-2.373.988Z" opacity=".5"/>
  <path fill="#3654B6" d="M106.547 32.07a1.182 1.182 0 0 0-1.574.226l-1.581 2.38-7.603-4.644a1.189 1.189 0 0 0-1.504.27l-2.618 3.388a.994.994 0 0 0-.134 1.167.992.992 0 0 0 .275.31 1.184 1.184 0 0 0 1.574-.226l1.959-2.58 1.651 1.006-3.52 4.58-6.138 7.936a.99.99 0 0 0 .212 1.464c.178.12.387.183.601.181a1.2 1.2 0 0 0 .96-.465l5.312-6.857.154-.2a1.087 1.087 0 0 1 1.472-.348l1.51.986-4.057 2.316a1.056 1.056 0 0 0-.53.634 1.073 1.073 0 0 0 .082.824 1.119 1.119 0 0 0 1.517.336l5.58-3.187a1.127 1.127 0 0 0 .583-.884.986.986 0 0 0-.442-.897l-1.37-.89 2.202-3.026 1.824 1.116c.173.102.369.157.57.162a1.27 1.27 0 0 0 .934-.433l2.24-3.167a.996.996 0 0 0 .134-1.167.997.997 0 0 0-.275-.31Z"/>
  <path fill="#3654B6" d="M101.568 32.567c.574.01 1.13-.196 1.561-.578a2.33 2.33 0 0 0 .769-1.487 2 2 0 0 0-1.248-1.945 1.967 1.967 0 0 0-.8-.138 2.29 2.29 0 0 0-1.561.577 2.327 2.327 0 0 0-.769 1.487 2 2 0 0 0 .568 1.497 1.972 1.972 0 0 0 1.48.587Zm-7.36 21.845v1.026H90.15v-.813l2.074-1.974c.474-.459.557-.736.557-1 0-.426-.288-.646-.858-.646a1.315 1.315 0 0 0-1.113.542l-.903-.587c.245-.332.568-.598.94-.774a2.466 2.466 0 0 1 1.191-.232c1.197 0 1.997.645 1.997 1.6a2.168 2.168 0 0 1-.902 1.71l-1.235 1.174 2.31-.026Zm.512-1.684c0-1.787.98-2.8 2.304-2.8 1.325 0 2.298 1.013 2.298 2.8s-.973 2.8-2.298 2.8c-1.325 0-2.304-1.013-2.304-2.8Zm3.354 0c0-1.232-.43-1.742-1.05-1.742-.62 0-1.05.51-1.05 1.742s.436 1.742 1.05 1.742c.614 0 1.043-.51 1.043-1.742h.007Zm97.632-26.618c0-1.788.985-2.8 2.304-2.8 1.318 0 2.304 1.012 2.304 2.8 0 1.786-.973 2.8-2.304 2.8-1.332 0-2.304-1.014-2.304-2.8Zm3.353 0c0-1.233-.429-1.743-1.049-1.743-.621 0-1.044.51-1.044 1.742s.429 1.742 1.044 1.742c.614 0 1.03-.51 1.03-1.742h.019Zm6.298.986a1.877 1.877 0 0 1-.627 1.349 1.84 1.84 0 0 1-1.408.451c-1.479 0-2.4-.935-2.4-2.684 0-1.87 1.12-2.916 2.739-2.916a2.832 2.832 0 0 1 1.497.375l-.46.916a1.776 1.776 0 0 0-1.005-.271 1.422 1.422 0 0 0-1.437.96 1.466 1.466 0 0 0-.074.614 1.821 1.821 0 0 1 1.338-.471 1.697 1.697 0 0 1 1.276.44 1.735 1.735 0 0 1 .561 1.236Zm-1.203.058a.816.816 0 0 0-.575-.78.8.8 0 0 0-.341-.026.83.83 0 0 0-.637.2.847.847 0 0 0-.291.606c0 .465.346.807.948.807a.799.799 0 0 0 .626-.195.818.818 0 0 0 .276-.599l-.006-.013Zm1.696.968a.755.755 0 0 1 .745-.685.746.746 0 0 1 .746.685.774.774 0 0 1-.192.578.76.76 0 0 1-.554.247.741.741 0 0 1-.553-.247.759.759 0 0 1-.192-.578Zm6.144-.322v1.019h-4.058v-.813l2.067-1.974c.48-.458.563-.736.563-1 0-.426-.294-.645-.857-.645a1.317 1.317 0 0 0-1.114.541l-.909-.587a2.486 2.486 0 0 1 2.138-1.006c1.197 0 1.99.645 1.99 1.6a2.142 2.142 0 0 1-.896 1.71l-1.235 1.18 2.311-.026Zm4.486-.64c0 .917-.698 1.749-2.227 1.749a3.645 3.645 0 0 1-2.048-.58l.48-.956c.449.32.986.49 1.536.484.64 0 1.005-.251 1.005-.696 0-.446-.295-.646-1.005-.646h-.563v-.845l1.1-1.29h-2.278v-.98h3.763v.812l-1.203 1.394c.392.023.76.197 1.029.487.268.29.415.672.411 1.068Zm.538.962a.755.755 0 0 1 .745-.685.746.746 0 0 1 .746.685.774.774 0 0 1-.192.578.76.76 0 0 1-.554.247.741.741 0 0 1-.553-.247.759.759 0 0 1-.192-.578Zm4-4.722v5.419h-1.242v-4.413h-1.075v-1.007h2.317Zm5.44 3.845c0 1.025-.909 1.664-2.272 1.664-1.364 0-2.26-.645-2.26-1.664a1.399 1.399 0 0 1 .813-1.29 1.25 1.25 0 0 1-.64-1.11c0-.955.845-1.549 2.067-1.549 1.223 0 2.08.594 2.08 1.549a1.244 1.244 0 0 1-.64 1.11 1.374 1.374 0 0 1 .852 1.29Zm-1.28-.039c0-.477-.391-.774-1.012-.774-.62 0-.998.297-.998.774 0 .477.384.787.998.787.615 0 1.031-.303 1.031-.787h-.019Zm-1.818-2.297c0 .413.326.645.832.645s.845-.251.845-.645c0-.393-.339-.645-.845-.645s-.832.252-.832.645Zm-38.054 5.8a.55.55 0 0 1-.404-.18l-3.84-4.317a.542.542 0 0 1 .434-.885c.138.005.27.063.366.163l3.84 4.316a.538.538 0 0 1 .136.388.54.54 0 0 1-.532.515Z"/>
  <path fill="#3654B6" d="M182.278 17.69v-.684h-2.188v.736a8.753 8.753 0 0 0-5.616 3.197 8.89 8.89 0 0 0 .878 12.058 8.727 8.727 0 0 0 6.018 2.338 8.734 8.734 0 0 0 6.068-2.409 8.874 8.874 0 0 0 2.744-5.965 8.89 8.89 0 0 0-2.098-6.225 8.754 8.754 0 0 0-5.78-3.046h-.026Zm-.934 16.56a7.637 7.637 0 0 1-4.267-1.304 7.726 7.726 0 0 1-2.828-3.474 7.788 7.788 0 0 1 1.664-8.437 7.662 7.662 0 0 1 3.933-2.119 7.622 7.622 0 0 1 4.437.44 7.696 7.696 0 0 1 3.447 2.852 7.785 7.785 0 0 1 1.294 4.301 7.802 7.802 0 0 1-2.259 5.465 7.68 7.68 0 0 1-5.421 2.277Zm1.299-19.031h-2.918v1.497h2.918v-1.497Z"/>
  <g opacity=".6">
    <path fill="#3654B6" d="M185.306 30.709a.55.55 0 0 1-.404-.18l-3.84-4.317a.542.542 0 0 1 .434-.885c.138.005.27.063.366.163l3.84 4.316a.538.538 0 0 1 .136.388.54.54 0 0 1-.532.515Z"/>
    <path fill="#3654B6" d="M182.278 17.69v-.684h-2.188v.736a8.753 8.753 0 0 0-5.616 3.197 8.89 8.89 0 0 0 .878 12.058 8.727 8.727 0 0 0 6.018 2.338 8.734 8.734 0 0 0 6.068-2.409 8.874 8.874 0 0 0 2.744-5.965 8.89 8.89 0 0 0-2.098-6.225 8.754 8.754 0 0 0-5.78-3.046h-.026Zm-.934 16.56a7.637 7.637 0 0 1-4.267-1.304 7.726 7.726 0 0 1-2.828-3.474 7.788 7.788 0 0 1 1.664-8.437 7.662 7.662 0 0 1 3.933-2.119 7.622 7.622 0 0 1 4.437.44 7.696 7.696 0 0 1 3.447 2.852 7.785 7.785 0 0 1 1.294 4.301 7.802 7.802 0 0 1-2.259 5.465 7.68 7.68 0 0 1-5.421 2.277Zm1.299-19.031h-2.918v1.497h2.918v-1.497Z"/>
  </g>
  <path fill="#3654B6" d="M224.038 124.184h3.239c-2.759 2.897-6.733 5.755-10.509 8.645l-2.56 1.896-.058.039-2.496-2.103c-3.2-2.781-6.547-5.684-8.921-8.568h4.806l2.106-7.283 3.142 13.961 2.893-7.148 1.824 3.987 2.176-6.968 2.4 6.8 1.958-3.258Z"/>
  <path fill="#3654B6" d="M227.962 122.661h-4.346l-1.363 2.265-2.618-7.452-2.24 7.277-1.728-3.78-2.681 6.548-3.264-14.471-2.746 9.529h-4.851c-2.976-3.871-3.975-7.69-.128-11.077 4.813-4.245 10.387-.29 13.209 2.277 2.976-2.38 9.511-7.251 14.522-.916 2.522 3.174 1.005 6.639-1.766 9.8Zm-17.402-21.696v5.419h-1.242v-4.412h-1.075v-1.007h2.317Zm4.947 4.394v1.025h-4.064v-.812l2.074-1.975c.473-.458.563-.735.563-1 0-.425-.294-.645-.864-.645a1.279 1.279 0 0 0-1.114.542l-.902-.587c.245-.332.568-.597.94-.773a2.461 2.461 0 0 1 1.191-.233c1.197 0 1.997.645 1.997 1.6a2.172 2.172 0 0 1-.896 1.709l-1.235 1.174 2.31-.025Zm4.576-.678c0 .955-.697 1.794-2.233 1.794a3.653 3.653 0 0 1-2.048-.581l.486-.961c.446.321.981.493 1.53.49.64 0 1.004-.264 1.004-.703 0-.439-.275-.703-1.28-.703h-1.376l.276-3.052h3.276v1.007h-2.24l-.083 1.025h.435c1.626 0 2.253.723 2.253 1.684ZM117.408 86.965h-4.634v.484h4.634v-.484Zm15.482 0h-11.949v.484h11.949v-.484Zm-13.792 90.637h-4.749v-.484c7.936 0 16.057 0 24.141-.129v.484c-6.464.083-12.973.129-19.392.129Zm-8.653-.032c-3.411 0-6.899-.052-10.362-.104v-.484c3.463.052 6.944.084 10.355.104l.007.484Zm-13.843-.588h-3.879v.484h3.879v-.484Zm44.793-105.887h-15.379v.484h15.379v-.484Zm-18.003 0h-1.984v.484h1.984v-.484Zm74.131 113.668h-11.065v.484h11.065v-.484Zm-13.888 0h-6.233v.484h6.233v-.484Z"/>
  <path fill="#FFBF9D" d="M163.93 82.96c-8.96.8-21.28 4.78-20.992 6.812l-12.89 16.174-4.038 1.509s8.454-21.09 10.649-24.554c1.536-2.42 16.359-7.393 24.109-10.193 3.347-1.213 6.4 1.09 7.373 3.038 0 0 3.213 6.555-4.211 7.213Z"/>
  <path fill="#FFBF9D" d="m130.048 105.945-.294 3.523a4.223 4.223 0 0 1-1.415 2.819l-3.129 2.768a1.009 1.009 0 0 1-1.319 0l-2.125-1.82a1.017 1.017 0 0 1-.192-1.335l2.388-3.645 2.88-3.871s3.315.206 3.206 1.561Zm-14.438 93.359-17.863 7.058c-.518-.451-3.558-6.509-3.558-6.509l15.84-7.374 5.581 6.825Z"/>
  <path fill="#3654B6" d="M98.33 208.033a.202.202 0 0 1 .077-.206.203.203 0 0 1 .223 0c.11.077 2.797 1.897 3.06 3.277a.97.97 0 0 1-.122.749.713.713 0 0 1-.742.387c-.551-.071-1.12-.91-1.575-1.852a13.003 13.003 0 0 1-.921-2.355Zm2.886 2.807a8.646 8.646 0 0 0-2.33-2.355c.474 1.439 1.396 3.277 2.029 3.387.083 0 .205 0 .359-.232a.573.573 0 0 0 .076-.452 1.815 1.815 0 0 0-.128-.355l-.006.007Z"/>
  <path fill="#3654B6" d="M98.362 207.911a.178.178 0 0 1 .147-.129c.09 0 2.118-.807 3.341-.258a1.412 1.412 0 0 1 .716.845.715.715 0 0 1-.166.884c-.749.548-3.162-.413-3.987-1.097l-.051-.065v-.18Zm3.308 0a4.437 4.437 0 0 0-2.7.148c.985.645 2.822 1.239 3.238.877.038-.032.147-.109.032-.425l-.077-.097a.988.988 0 0 0-.493-.523v.02Z"/>
  <path fill="#3654B6" d="m99.117 206.246-1.114-.974a5.762 5.762 0 0 1-1.445-1.941 5.806 5.806 0 0 1-.526-2.369v-1.935a.683.683 0 0 0-.78-.393l-6.542 1.161c-.64.167-.844 1.619-.812 1.69 1.465 4.6 5.344 14.193 6.745 17.283 1.402 3.091 4.64 2.11 4.34.71-1.338-6.264-.602-9.2.198-11.761a2.028 2.028 0 0 0-.064-1.471Z"/>
  <path fill="#000" d="m104.486 195.059 5.543-2.58 5.581 6.825-8.173 3.226-1.319-1.619a6.358 6.358 0 0 1-1.401-3.413l-.231-2.439Z" opacity=".2"/>
  <path fill="#000" d="M136.614 129.822a18.168 18.168 0 0 0-1.222 4.091c-1.434 7.399-3.43 32.502-4.73 42.044a5.658 5.658 0 0 1-1.151 2.592 5.594 5.594 0 0 1-2.26 1.698c-5.165 2.451-8.518 3.226-20.166 12.838 1.401 3.007 2.739 5.123 4.013 8.652 0 0 22.451-8.697 27.584-12.955 7.558-6.271 16.761-39.225 19.436-47.74 1.517-4.826 3.271-10.6.474-14.768-1.574-2.335-16.922-9.445-21.978 3.548Z"/>
  <path fill="#3654B6" d="M165.76 74.075c1.696 1.936 2.49 3.226 1.978 8.878-1.005 10.967-.34 28.425-.724 31.115-.614 4.103-23.334 4.638-27.494.858l-8.25-33.548a8.096 8.096 0 0 1 1.115-6.41 7.996 7.996 0 0 1 2.364-2.318 7.93 7.93 0 0 1 3.094-1.155c1.888-.29 22.759-3.245 27.917 2.58Z"/>
  <path fill="#000" d="M167.04 114.068c.638 3.71.788 7.489.448 11.238a25.885 25.885 0 0 0 5.325 18.064s-29.677-4.354-36.704-12.109l3.411-16.335c9.172.901 18.421.613 27.52-.858Zm-20.621-51.031-.486-.4c-1.421-1.813-1.971-3.87-2.56-7.096-.16-.833-.32-1.73-.499-2.723a8.777 8.777 0 0 1 .128-3.974 9.228 9.228 0 0 1 .78-1.936c.762 2.865.871 5.839 1.133 8.774a25.79 25.79 0 0 0 1.504 7.355Z"/>
  <path fill="#FFBF9D" d="M147.053 59.58c.358 3.303.608 7.928-1.159 10.547a2.706 2.706 0 0 0-.083 3.02c1.043 1.593 3.437 3.987 8.96 6.741 1.619-2.012 2.208-3.651 2.317-4.896a3.5 3.5 0 0 0-.478-2.027 3.456 3.456 0 0 0-1.544-1.386c-2.65-1.252-2.362-2.851-1.543-5.348l-6.47-6.652Z"/>
  <path fill="#000" d="m149.67 62.263 3.783 3.968c-.228.657-.4 1.332-.512 2.019-1.53-.355-3.84-1.936-4.045-3.665a5.188 5.188 0 0 1 .774-2.322Z" opacity=".2"/>
  <path fill="#FFBF9D" d="M160.934 59.515a7.708 7.708 0 0 1-2.417 4.978 7.595 7.595 0 0 1-5.109 2.047h-.051a8.36 8.36 0 0 1-4.199-1.11 9.101 9.101 0 0 1-1.318-.915c-.179-.142-.346-.29-.506-.426a11.035 11.035 0 0 1-1.369-1.452c-1.421-1.813-1.971-3.87-2.56-7.096-.16-.832-.32-1.73-.499-2.723a8.777 8.777 0 0 1 .128-3.974 9.225 9.225 0 0 1 .78-1.935 7.21 7.21 0 0 1 .493-.794 8.33 8.33 0 0 1 4.004-3.114 8.254 8.254 0 0 1 5.052-.202c2.855.768 4.819 3.103 6.061 5.968.122.284.237.574.346.864a23.082 23.082 0 0 1 1.164 9.884Z"/>
  <path fill="#000" d="M152.774 53.192c.064.51.378.897.698.858.32-.038.544-.497.486-1.006-.057-.51-.384-.89-.704-.852-.32.039-.512.516-.48 1Zm5.613-.71c.071.523.384.897.704.858.32-.038.544-.497.48-1.006-.064-.51-.377-.89-.697-.845-.32.045-.544.484-.487.993Z"/>
  <path fill="#EA573F" d="M156.8 53.63a13.822 13.822 0 0 0 2.182 3.04 2.18 2.18 0 0 1-1.74.567l-.442-3.606Z"/>
  <path fill="#000" d="M150.4 52.328a.294.294 0 0 0 .288-.2 3.483 3.483 0 0 1 2.157-1.813.315.315 0 0 0 .163-.478.289.289 0 0 0-.304-.11 4 4 0 0 0-2.56 2.195.3.3 0 0 0 .179.38c.024.014.05.023.077.026Zm9.35-2.723a.321.321 0 0 0 .269-.142.312.312 0 0 0-.096-.419 2.83 2.83 0 0 0-2.701-.303.292.292 0 0 0 .014.536.286.286 0 0 0 .223-.007 2.281 2.281 0 0 1 2.112.264.32.32 0 0 0 .179.071Z"/>
  <path fill="#000" d="M146.419 57.25c-.262.349-1.107-1.51-1.536-1.6a6.18 6.18 0 0 0-1.542-.122c-.16-.833-.32-1.73-.499-2.723a8.777 8.777 0 0 1 .128-3.974 9.227 9.227 0 0 1 .78-1.935 7.403 7.403 0 0 0-.134-.484 3.99 3.99 0 0 1 .64-.31 2.914 2.914 0 0 1 1.555-.161 2.491 2.491 0 0 1 1.741 1.503c-2.163 4.045-.32 8.735-1.133 9.806Z" opacity=".2"/>
  <path fill="#000" d="M145.92 62.624c-2.374-2.026-4.48-4.516-5.427-7.522a9.947 9.947 0 0 1-.043-5.186 9.892 9.892 0 0 1 2.571-4.491c.192-.188.512-.104.755 0 .243.103-.352.31-.282.516.071.206.084.29.122.425.038.136.096.323.134.484a9.227 9.227 0 0 0-.78 1.936 8.763 8.763 0 0 0-.128 3.974c.179.993.339 1.89.499 2.722.608 3.258 1.158 5.33 2.579 7.142Z"/>
  <path fill="#FFBF9D" d="M141.766 57.844a4.495 4.495 0 0 0 2.56 2.283c1.479.49 2.292-.845 1.92-2.322-.332-1.329-1.484-3.18-2.995-3.058a2.045 2.045 0 0 0-1.571 1.145 2.066 2.066 0 0 0 .093 1.952h-.007Zm69.6 150.486 1.479 19.283c-.583.368-6.963 3.368-7.219 1.529a16124.38 16124.38 0 0 1-2.362-17.419l8.102-3.393Z"/>
  <path fill="#3654B6" d="M214.598 227.543a.2.2 0 0 1-.172-.136.195.195 0 0 1-.002-.117.2.2 0 0 1 .066-.096c.102-.09 2.617-2.142 4-2a.938.938 0 0 1 .678.342.717.717 0 0 1 .147.826c-.224.516-1.184.819-2.214.981-.826.147-1.664.214-2.503.2Zm3.508-1.936a8.589 8.589 0 0 0-2.919 1.555c1.504-.039 3.52-.381 3.808-.961.032-.084.058-.2-.115-.42a.585.585 0 0 0-.403-.206 1.837 1.837 0 0 0-.378 0l.007.032Z"/>
  <path fill="#3654B6" d="M214.49 227.471a.17.17 0 0 1-.077-.174c0-.096-.147-2.284.729-3.296a1.41 1.41 0 0 1 1.012-.446.706.706 0 0 1 .793.42c.301.877-1.318 2.929-2.208 3.522l-.077.033-.172-.059Zm.947-3.187a4.541 4.541 0 0 0-.64 2.639c.883-.761 2.003-2.361 1.779-2.858 0-.045-.058-.174-.397-.161l-.109.051a.96.96 0 0 0-.633.329Z"/>
  <path fill="#3654B6" d="m213.12 226.265-7.757.871a.682.682 0 0 0-.421.211.696.696 0 0 0-.187.434l-.8 6.645c-.038.645 1.28 1.29 1.357 1.29 4.794-.071 15.014-1.006 18.374-1.458 3.36-.451 3.354-3.871 1.92-3.974-6.336-.542-8.908-2.103-11.104-3.625a1.907 1.907 0 0 0-1.382-.394Z"/>
  <path fill="#000" d="m204.058 217.555-.794-5.838 8.102-3.387.512 7.896-7.82 1.329Z" opacity=".2"/>
  <path fill="#000" d="M154.278 136.351c4.071 7.245 23.86 24.148 33.408 38.593 2.605 3.948 8.896 31.141 14.944 38.844l9.6-.891c3.476-6.812-4.729-42.037-4.729-42.037-2.887-15.484-20.007-32.709-38.88-50.16-3.168-2.923-7.879-3.806-12.621-.961-.883.516-5.664 9.58-1.722 16.612Z"/>
  <path fill="#3654B6" d="M158.56 125.022c-.755.175-1.542-.303-2.118-1.29a7.414 7.414 0 0 1-.999-3.387l-2.093 2.735a1.823 1.823 0 0 1-1.542.949 1.115 1.115 0 0 1-.787-.471 2.154 2.154 0 0 1-.282-1.626 4.163 4.163 0 0 1 1.759-2.504 4.109 4.109 0 0 1 2.984-.612l-.077-.277.64-.175.038.155.141-.18v.271c.481-.09.978-.05 1.439.117.461.167.87.453 1.185.831a5.015 5.015 0 0 1 1.03 2.981c.064.987-.23 2.232-1.248 2.477l-.07.006Zm-2.458-5.729v.129a6.803 6.803 0 0 0 .89 3.994c.333.568.858 1.122 1.446.987.685-.168.807-1.226.768-1.826a4.362 4.362 0 0 0-.876-2.58 2.22 2.22 0 0 0-1.792-.781l-.41.103-.026-.026Zm-2.099.162a3.43 3.43 0 0 0-1.152.496 3.369 3.369 0 0 0-1.497 2.11 1.55 1.55 0 0 0 .172 1.123.513.513 0 0 0 .352.219c.359.039.692-.335.98-.71l2.451-3.225h-.115l-.032-.116a3.024 3.024 0 0 0-1.159.103Z"/>
  <path fill="#3654B6" d="m151.13 133.751-.532-.335a29.435 29.435 0 0 0 4.365-14.064h.64a30.083 30.083 0 0 1-4.473 14.399Z"/>
  <path fill="#3654B6" d="m163.558 133.629-.64.077a22.032 22.032 0 0 0-7.366-13.877l.41-.477a22.679 22.679 0 0 1 7.596 14.277Z"/>
  <path fill="#fff" d="m108.16 195.311-.288-.562c7.04-3.709 25.37-14.193 25.37-18.122 0-8.057 7.82-61.024 7.897-61.553l.64.091c-.077.535-7.885 53.456-7.885 61.462 0 5.097-24.665 18.135-25.734 18.684Z"/>
  <path fill="#FFBF9D" d="M132.845 75.908c.845-2.58 6.137-3.071 7.808-1.033 7.2 8.807 15.193 17 15.193 17l20.064-4.187 3.258 2.845s-20.717 10.458-24.8 10.464c-4.378 0-14.925-10.251-20.48-16.4-3.603-4.031-1.043-8.69-1.043-8.69Z"/>
  <path fill="#FFBF9D" d="m175.91 87.688 3.2-1.432a4.143 4.143 0 0 1 3.13-.11l3.91 1.439a1.013 1.013 0 0 1 .64 1.155l-.563 2.755a1.007 1.007 0 0 1-.379.613.992.992 0 0 1-.69.2l-4.32-.356-4.742-.69s-1.414-3.025-.186-3.574Z"/>
  <path fill="#000" d="m177.856 92.23-1.414 1.025-2.484-5.31 1.556-.735 2.342 5.02Z"/>
  <path fill="#000" d="m173.289 87.697 2.315-1.1a.637.637 0 0 1 .852.309l.205.438-3.474 1.65-.205-.438a.644.644 0 0 1 .307-.859Zm-31.996-35.44c.729-2.452 3.033-4.123 5.414-5 2.381-.877 4.947-1.168 7.367-1.935 1.606-.517 3.372-1.536 3.532-3.226a3.357 3.357 0 0 0-1.28-2.73 9.901 9.901 0 0 0-2.726-1.483 4.411 4.411 0 0 0-2.291-.49c-.394.04-.756.233-1.011.538a1.548 1.548 0 0 0-.359 1.094c-2.048-1.29-5.12-.948-7.04.535-1.28 1-2.131 2.955-1.165 4.278-1.113-.568-2.931.077-3.558 1.16a2.603 2.603 0 0 0-.244 1.81 2.58 2.58 0 0 0 1.006 1.52c-1.696-.071-3.264 1.8-2.624 3.38.64 1.581 4.486 2.181 4.979.549Zm16.032 6.793a22.18 22.18 0 0 0-.819 3.116h-.57c-2.56-.097-3.699-.987-4.205-1.935a3.335 3.335 0 0 1-.352-1.536c-.006-.3.031-.6.109-.89 1.318.864 3.693 1.135 4.966 1.226.532.02.871.02.871.02Z"/>
  <path fill="#fff" d="m156.454 59.005-.268.916c-2.4-.097-4.077-.49-4.807-1.252-.006-.3.031-.6.109-.89 1.318.864 3.693 1.135 4.966 1.226Z"/>
  <path fill="#DE5753" d="M155.936 62.153c-2.56-.096-3.699-.987-4.205-1.935a8.168 8.168 0 0 1 2.81.645 3.087 3.087 0 0 1 1.395 1.29Z"/>
</svg>
