<svg xmlns="http://www.w3.org/2000/svg" width="320" height="240" fill="none" viewBox="0 0 320 240">
  <path fill="#E0E0E0" d="M300.836 52.1c-.824-.98-1.913-1.638-3.103-1.874a5.111 5.111 0 0 0-3.498.563h.024c-1.225.21-2.355.854-3.222 1.835-.867.982-1.424 2.249-1.587 3.61a6.943 6.943 0 0 0 .682 3.944c.606 1.198 1.546 2.147 2.679 2.703a6.11 6.11 0 0 0 4.548.246c1.469-.453 2.765-1.422 3.694-2.76a7.271 7.271 0 0 0 1.168-4.175c-.04-1.496-.527-2.936-1.385-4.092ZM143.619 225.398c-.717-1.108-1.78-1.88-2.983-2.165a4.529 4.529 0 0 0-3.522.624h.024c-2.414.482-4.423 3.178-4.742 6.309-.318 3.13 1.097 6.42 3.313 7.705a5.27 5.27 0 0 0 2.216.656 5.205 5.205 0 0 0 2.27-.367c1.508-.581 2.792-1.713 3.641-3.211 1.584-2.75 1.54-6.967-.217-9.551ZM112.11 15.603c-.454-.701-1.129-1.188-1.891-1.365a2.863 2.863 0 0 0-2.228.407c-1.516.305-2.8 2.017-3.003 3.997-.203 1.98.695 4.066 2.096 4.88a3.306 3.306 0 0 0 2.839.182c.955-.367 1.768-1.082 2.308-2.028.502-.921.758-1.98.736-3.056a6.09 6.09 0 0 0-.857-3.017Zm161.178 23.96c-2.202-7.32-9.74-12.842-16.587-14.222-5.597-.953-11.899-.305-17.143 2.798-5.244 3.104-9.759 8.09-11.661 14.33-1.903 6.238-.846 13.735 3.38 18.379 4.225 4.644 11.637 5.586 16.22 1.38 2.834-2.6 4.491-6.806 7.852-8.47 4.78-2.36 10.951 1.466 15.37-1.642 3.52-2.478 3.892-8.16 2.569-12.553Zm-72.863 171.153c1.323-6.25-1.84-13.805-6.147-18.102-3.588-3.387-8.306-5.976-13.245-6.319-4.94-.342-10.102 1.012-13.912 4.516-3.81 3.505-6.017 9.321-4.858 14.656 1.159 5.334 6.046 9.588 10.947 8.828 3.032-.47 5.862-2.675 8.904-2.204 4.312.642 7.181 6.341 11.531 6.276 3.482-.048 5.988-3.895 6.78-7.651ZM38.398 47.91c3.337-1.771 6.519-4.157 8.663-7.898 1.25-2.195 1.914-4.737 1.914-7.333 0-2.595-.664-5.138-1.914-7.333a13.46 13.46 0 0 0-.657-1.033c-1.656-2.327-4.346-3.97-6.973-3.456-3.018.583-5.128 3.687-7.996 4.885-3.235 1.354-7.026.128-10.208 1.605-3.183 1.477-5.018 5.704-4.66 9.54.357 3.837 2.583 7.261 5.413 9.493 2.38 1.817 5.146 2.914 8.026 3.182 2.88.269 5.772-.3 8.392-1.652Z"/>
  <path fill="#3654B6" d="M.51 114.253c-2.032-13.002 2.048-27.363 11.412-35.507 9.363-8.144 23.917-8.748 32.99-.209 6.38 6.01 9.363 15.18 13.164 23.447 3.8 8.267 9.556 16.636 17.828 18.064 7.137 1.231 14.312-3.092 21.474-2.054 6.992 1.011 12.844 7.346 14.858 14.832 2.014 7.485.483 15.806-3.1 22.515-3.583 6.71-9.175 11.938-15.235 15.897-19.552 12.74-45.498 12.307-64.707-1.032-19.209-13.34-30.827-39.06-28.973-64.118"/>
  <path fill="#fff" d="M.51 114.253c-2.032-13.002 2.048-27.363 11.412-35.507 9.363-8.144 23.917-8.748 32.99-.209 6.38 6.01 9.363 15.18 13.164 23.447 3.8 8.267 9.556 16.636 17.828 18.064 7.137 1.231 14.312-3.092 21.474-2.054 6.992 1.011 12.844 7.346 14.858 14.832 2.014 7.485.483 15.806-3.1 22.515-3.583 6.71-9.175 11.938-15.235 15.897-19.552 12.74-45.498 12.307-64.707-1.032-19.209-13.34-30.827-39.06-28.973-64.118" opacity=".7"/>
  <path fill="#3654B6" d="M113.781 230.631c6.35-4.816 9.334-15.389 5.365-22.682-4.018-6.634-10.256-11.926-17.384-13.044-7.127-1.119-15.042 2.621-18.22 9.797-2.003 4.516-2.008 9.973-.347 14.655 1.75 4.69 4.834 8.619 8.784 11.188 6.562 4.399 15.472 4.891 21.802.086Z"/>
  <path fill="#fff" d="M113.781 230.631c6.35-4.816 9.334-15.389 5.365-22.682-4.018-6.634-10.256-11.926-17.384-13.044-7.127-1.119-15.042 2.621-18.22 9.797-2.003 4.516-2.008 9.973-.347 14.655 1.75 4.69 4.834 8.619 8.784 11.188 6.562 4.399 15.472 4.891 21.802.086Z" opacity=".7"/>
  <path fill="#3654B6" d="M319.973 186.311c-.391-11.263-5.428-22.43-13.859-28.733-8.431-6.303-20.17-7.165-28.857-1.306-5.413 3.65-9.339 9.46-12.608 15.475-1.792 3.296-3.66 6.929-6.881 8.368-4.187 1.878-8.789-.679-13.217-1.659-5.168-1.145-10.537-.073-15.019 3.001-4.482 3.073-7.744 7.918-9.125 13.555-3.863 17.758 7.374 30.434 19.388 38.129 13.429 8.604 30.422 8.593 45.024 2.857 9.585-3.746 18.519-9.952 25.047-18.594 6.529-8.641 10.503-19.83 10.107-31.093Z"/>
  <path fill="#fff" d="M319.973 186.311c-.391-11.263-5.428-22.43-13.859-28.733-8.431-6.303-20.17-7.165-28.857-1.306-5.413 3.65-9.339 9.46-12.608 15.475-1.792 3.296-3.66 6.929-6.881 8.368-4.187 1.878-8.789-.679-13.217-1.659-5.168-1.145-10.537-.073-15.019 3.001-4.482 3.073-7.744 7.918-9.125 13.555-3.863 17.758 7.374 30.434 19.388 38.129 13.429 8.604 30.422 8.593 45.024 2.857 9.585-3.746 18.519-9.952 25.047-18.594 6.529-8.641 10.503-19.83 10.107-31.093Z" opacity=".7"/>
  <path fill="#3654B6" d="M296.891 90.09c-1.241-8.99-9.064-17.07-17.229-16.202-7.625 1.225-15.105 5.436-19.374 12.542-4.268 7.105-4.669 17.256.097 23.96 2.999 4.222 7.726 6.753 12.555 7.143 4.883.299 9.721-1.178 13.777-4.205 6.881-4.977 11.415-14.239 10.174-23.238Z"/>
  <path fill="#fff" d="M296.891 90.09c-1.241-8.99-9.064-17.07-17.229-16.202-7.625 1.225-15.105 5.436-19.374 12.542-4.268 7.105-4.669 17.256.097 23.96 2.999 4.222 7.726 6.753 12.555 7.143 4.883.299 9.721-1.178 13.777-4.205 6.881-4.977 11.415-14.239 10.174-23.238Z" opacity=".7"/>
  <path fill="#7287CC" d="M202.347 92.353c1.053-.145 1.888-1 2.844-1.498a4.523 4.523 0 0 1 2.302-.49 4.59 4.59 0 0 1 2.247.741c1.357.9 2.323 1.98 2.414 3.746l-1.772 2.14"/>
  <path fill="#FFBF9D" d="m213.569 103.29-2.849 18.947c-.483 3.21-1.786 7.849-6.35 6.768-3.897-1.268-4.278-5.645-3.824-8.652.217-1.428.396-2.616.406-2.766 0 0-4.284-1.258-3.864-6.089.198-2.333.966-7.111 1.681-11.419.38-2.226 1.501-4.213 3.14-5.567 1.639-1.355 3.677-1.978 5.711-1.747l.42.048c4.506.813 6.394 5.506 5.529 10.477Z"/>
  <path fill="#FFBF9D" d="M200.952 117.517c2.007.276 4.042-.117 5.847-1.129 0 0-1.671 3.318-5.973 2.381l.126-1.252Z"/>
  <path fill="#000" d="M199.146 102.969c.087.085.676-.161 1.482-.054.806.107 1.371.498 1.449.428.077-.069-.039-.176-.285-.353a2.623 2.623 0 0 0-1.164-.439 2.26 2.26 0 0 0-1.188.14c-.241.112-.338.24-.294.278Zm6.615.818c.087.086.676-.155 1.478-.048.801.107 1.366.492 1.448.428.082-.064-.038-.176-.285-.353a2.734 2.734 0 0 0-1.158-.433 2.382 2.382 0 0 0-1.184.133c-.251.113-.342.236-.299.273Zm-.15 1.188a.588.588 0 0 0 .098.387.48.48 0 0 0 .313.202.446.446 0 0 0 .346-.093c.1-.078.17-.196.195-.33a.585.585 0 0 0-.098-.386.45.45 0 0 0-.659-.11.55.55 0 0 0-.195.33Zm-6.253-.759a.577.577 0 0 0 .096.389c.077.111.19.185.314.205a.449.449 0 0 0 .347-.093c.1-.079.17-.197.194-.33a.578.578 0 0 0-.096-.39.448.448 0 0 0-.66-.112.544.544 0 0 0-.195.331Zm3.704 4.462a3.932 3.932 0 0 0-1.067-.342c-.169-.043-.329-.097-.343-.231.005-.193.064-.38.169-.535.203-.438.415-.899.642-1.38a27.699 27.699 0 0 0 1.492-3.639c-.072-.042-.859 1.525-1.753 3.494l-.589 1.381a1.158 1.158 0 0 0-.159.733c.019.07.052.134.096.187a.433.433 0 0 0 .16.123c.091.039.187.066.285.081.349.091.708.134 1.067.128Zm3.506-8.128c.043.193.637.172 1.323.348.685.177 1.221.46 1.332.305.111-.155-.033-.262-.241-.465a2.162 2.162 0 0 0-.966-.536 1.955 1.955 0 0 0-1.062 0c-.261.129-.401.257-.386.348Zm-7.075.118c.053.161.642.112 1.323.225.681.112 1.237.321 1.333.182.097-.139-.048-.214-.27-.375a2.434 2.434 0 0 0-.981-.386 2.34 2.34 0 0 0-1.038.076c-.256.085-.386.203-.367.278Z"/>
  <path fill="#FFBF9D" d="M212.874 106.821c.077-.027 3.086-.636 2.68 2.676-.406 3.312-3.303 2.14-3.298 2.06.005-.081.618-4.736.618-4.736Z"/>
  <path fill="#FFBF9D" d="M213.318 110.422s.044.048.126.107a.479.479 0 0 0 .386.07c.208-.106.387-.272.519-.479.131-.208.21-.451.23-.704.044-.281.03-.571-.044-.845a.694.694 0 0 0-.11-.295.618.618 0 0 0-.223-.203.239.239 0 0 0-.18-.008.27.27 0 0 0-.144.121c-.053.085-.038.155-.058.155-.019 0-.057-.064 0-.198a.374.374 0 0 1 .14-.187.36.36 0 0 1 .3-.038.73.73 0 0 1 .311.224.84.84 0 0 1 .172.365c.091.305.115.63.067.947a1.594 1.594 0 0 1-.288.808 1.349 1.349 0 0 1-.644.497.503.503 0 0 1-.258-.016.543.543 0 0 1-.224-.144c-.083-.091-.092-.177-.078-.177Z"/>
  <path fill="#7287CC" d="M197.919 98.966a5.746 5.746 0 0 0 2.942.394 5.946 5.946 0 0 0 2.78-1.137c1.154-.872 2.106-2.21 3.477-2.504.465-.082.941-.06 1.398.064a3.4 3.4 0 0 1 1.268.658 7.411 7.411 0 0 1 1.854 2.328c-1.072 2.354-.768 5.158-.435 7.769.008.294.105.577.275.802.187.134.41.192.63.164a.93.93 0 0 0 .582-.313 4.261 4.261 0 0 0 1.015-2.061 15.06 15.06 0 0 0 .482-5.35c-.167-1.808-.811-3.522-1.849-4.928-1.356-1.715-3.261-2.778-5.312-2.965-2.047-.17-4.09.38-5.838 1.574a6.029 6.029 0 0 0-2.047 2.14"/>
  <path fill="#000" d="M198.18 103.531c.28-1.327.41-3.002.69-4.329 1.9.31 3.833-.223 5.38-1.482.792-.68 1.477-1.605 2.438-1.905 1.241-.396 2.526.326 3.651 1.027l-.044-.058a5.834 5.834 0 0 1 1.449 1.658 20.829 20.829 0 0 0-.546 8.026c.023.201.085.394.183.565.098.171.228.316.382.425.614.412 1.072-.053 1.536-.369.338-.236.821-.385 1.111-.08a19.942 19.942 0 0 0 1.96-5.351c-.082.304-.064.63.049.921.114.291.317.528.573.67.256.142.549.179.827.106.279-.074.525-.254.695-.509a2.975 2.975 0 0 1-.589-1.349c.158.153.342.27.541.343.2.073.41.101.619.082a1.46 1.46 0 0 0 .6-.19c.186-.107.351-.254.485-.433l-.941-1.07 1.342.081a7.444 7.444 0 0 1-2.549-2.446 11.792 11.792 0 0 0-2.371-2.675c-.966-.685-2.241-.963-3.226-.332.067-1.739-1.058-3.35-2.482-4.082a9.255 9.255 0 0 0-5.399-.594c-1.188.278-2.414 1.07-3.964 2.306a14.981 14.981 0 0 0-2.057 1.969c-.937 1.097-2.806 2.895-4.597 2.36l.159 2.043c.966 1.023 2.96.124 2.96.124s-1.149 1.268-2.226 1.236l.29 1.755s1.627.315 2.342-1.071l.729 2.628Z"/>
  <path fill="#7287CC" d="M211.638 98.768s-.14-.256-.435-.69a5.77 5.77 0 0 0-1.497-1.53 5.332 5.332 0 0 0-1.313-.535 2.572 2.572 0 0 0-1.57-.043c-1.091.364-1.888 1.605-3.056 2.37a6.265 6.265 0 0 1-3.632 1.194 7.499 7.499 0 0 1-.859-.043.71.71 0 0 0-.357 0 3.566 3.566 0 0 0-.343.187 3.531 3.531 0 0 0-.918 1.14 2.7 2.7 0 0 1-.783.792 2.43 2.43 0 0 1-1.003.38c-.19.02-.381.02-.57 0a.636.636 0 0 1-.193-.038c0-.027.275 0 .748-.08.335-.065.654-.203.94-.406a2.7 2.7 0 0 0 .726-.777 3.59 3.59 0 0 1 .966-1.22 3.12 3.12 0 0 1 .367-.203.916.916 0 0 1 .444-.043c.278.027.557.038.835.032a6.187 6.187 0 0 0 3.511-1.177c.54-.392 1.052-.83 1.531-1.31a4.524 4.524 0 0 1 1.588-1.07 2.752 2.752 0 0 1 1.681.058c.47.14.923.345 1.347.61a5.504 5.504 0 0 1 1.487 1.637c.11.17.207.349.29.535.053.156.077.225.068.23Zm4.689 2.895s0 .102-.082.273a2.578 2.578 0 0 1-.377.685 1.169 1.169 0 0 1-.463.38 1.04 1.04 0 0 1-.571.085.767.767 0 0 1-.34-.154.885.885 0 0 1-.244-.306 1.462 1.462 0 0 1-.13-.829l.222.064c-.074.18-.192.334-.34.445a.91.91 0 0 1-.5.181 1.074 1.074 0 0 1-.474-.081 1.161 1.161 0 0 1-.405-.283 2.052 2.052 0 0 1-.483-.797 5.873 5.873 0 0 1-.198-1.536 8.338 8.338 0 0 0-.159-1.375c.222.412.334.885.323 1.365.022.496.103.988.242 1.46.087.264.229.5.415.691a.954.954 0 0 0 .328.227.882.882 0 0 0 .382.067.685.685 0 0 0 .376-.132.799.799 0 0 0 .261-.328l.401-1.108-.179 1.172a.946.946 0 0 0 .074.635.799.799 0 0 0 .448.403.923.923 0 0 0 .484-.057c.155-.063.294-.166.404-.301.162-.186.303-.393.42-.616.102-.155.155-.235.165-.23Zm-1.092 3.617c-.245.185-.54.27-.835.241a2.744 2.744 0 0 1-1.898-.92 6.094 6.094 0 0 1-1.135-1.916 3.15 3.15 0 0 1-.28-.888c.172.249.316.521.43.808a7.426 7.426 0 0 0 1.149 1.808 2.886 2.886 0 0 0 1.744.921c.276.002.551-.016.825-.054Z"/>
  <path fill="#7287CC" d="M215.095 105.895a1.422 1.422 0 0 1-.734.059 3.738 3.738 0 0 1-1.685-.631 4.149 4.149 0 0 1-1.275-1.381 1.704 1.704 0 0 1-.285-.754c.156.204.298.42.425.647.347.501.772.929 1.256 1.263a4.43 4.43 0 0 0 1.588.669c.24.021.477.064.71.128Zm1.922-12.317a4.33 4.33 0 0 1-.744-.112 4.5 4.5 0 0 0-1.762.118 4.818 4.818 0 0 0-1.613.807c-.372.29-.579.536-.608.487a1.85 1.85 0 0 1 .507-.636 4.124 4.124 0 0 1 1.656-.915 3.748 3.748 0 0 1 1.845-.043c.257.035.503.136.719.294Z"/>
  <path fill="#7287CC" d="M212.98 90.716c.28.72.37 1.514.261 2.29a4.375 4.375 0 0 1-.879 2.092c.285-.685.5-1.403.642-2.14a10.91 10.91 0 0 0-.024-2.242Z"/>
  <path fill="#7287CC" d="M195.635 96.698a2 2 0 0 0 .623.396 3.13 3.13 0 0 0 1.931-.252c.396-.144.826-.337 1.295-.535a7.933 7.933 0 0 0 1.414-.738c.966-.61 1.932-1.482 3.125-2.076a5.032 5.032 0 0 1 1.854-.535 3.14 3.14 0 0 1 1.753.401c1.019.589 1.738 1.402 2.511 1.739a2.274 2.274 0 0 0 1.898.096c.214-.116.409-.274.574-.465 0 0-.024.064-.101.182a1.443 1.443 0 0 1-.435.38 2.34 2.34 0 0 1-.999.226 2.34 2.34 0 0 1-1-.226c-.826-.343-1.569-1.156-2.545-1.697a2.96 2.96 0 0 0-1.642-.363 5.014 5.014 0 0 0-1.772.535c-1.163.572-2.129 1.434-3.114 2.044-.46.298-.945.545-1.449.738-.483.182-.898.37-1.304.503a3.08 3.08 0 0 1-2.004.171 1.301 1.301 0 0 1-.483-.326.813.813 0 0 1-.13-.198Z"/>
  <path fill="#7287CC" d="M212.459 94.82c-.36-.451-.742-.88-1.145-1.284-1.005-.934-2.233-1.527-3.534-1.707a10.707 10.707 0 0 0-2.159.026 10.95 10.95 0 0 1-1.796.043 3.615 3.615 0 0 1-1.188-.289 1.166 1.166 0 0 1-.391-.235 5.452 5.452 0 0 0 1.588.337c.592.009 1.184-.023 1.773-.096a9.597 9.597 0 0 1 2.202-.049c1.346.183 2.61.822 3.616 1.83.299.302.57.638.807 1 .095.128.171.27.227.424Z"/>
  <path fill="#000" d="M203.405 111.075c0-.091.589-.166 1.091-.685.212-.229.395-.488.546-.77.125-.22.217-.359.246-.337.029.021 0 .171-.097.422a2.366 2.366 0 0 1-.531.878 1.747 1.747 0 0 1-.855.492c-.26.054-.396.032-.4 0Z"/>
  <path fill="#3654B6" d="m281.106 203.021 7.909-4.965s7.21 7.24 8.755 6.48l-8.141-17.331-12.609 7.175 4.086 8.641Z"/>
  <path fill="#fff" d="M285.819 193.091a.874.874 0 0 1 .087-.556.744.744 0 0 1 .395-.354.642.642 0 0 1 .507.087c.152.1.265.26.314.448a.912.912 0 0 1-.092.593.775.775 0 0 1-.429.37.666.666 0 0 1-.517-.154.813.813 0 0 1-.275-.509m3.82-5.811-1.246.802 8.267 16.331s.666.594 1.115.224l-8.136-17.357Z" opacity=".6"/>
  <path fill="#7287CC" d="M289.063 198.382c.078-.042-.086-.487-.038-1.043.048-.557.265-.969.203-1.027-.063-.059-.449.321-.483.995-.034.674.27 1.134.318 1.075Zm1.536 1.429c.082 0 .039-.465.227-.936.188-.471.483-.755.449-.835-.034-.08-.483.112-.724.706-.242.594-.029 1.108.048 1.065Zm2.444-.096c0-.091-.454 0-.773.47-.319.471-.295.953-.213.953.082 0 .189-.375.454-.749.266-.375.565-.61.532-.674Zm-5.892-.418c.053-.08-.236-.406-.429-.898-.194-.493-.237-.948-.324-.953-.087-.005-.188.508.048 1.07.237.562.662.856.705.781Z"/>
  <path fill="#000" d="m282.67 202.037 1.41-.883-4.066-8.476-1.299.734 3.955 8.625Z" opacity=".3"/>
  <path fill="#7287CC" d="M285.538 200.266c.034 0-.077-.38-.41-.867a4.373 4.373 0 0 0-.681-.765 4.083 4.083 0 0 0-.483-.359.952.952 0 0 0-.304-.155.343.343 0 0 0-.242.017.385.385 0 0 0-.183.176.589.589 0 0 0 0 .471c.049.112.114.216.193.305.128.161.269.31.42.444.256.228.543.409.85.535.271.148.576.198.874.144 0-.053-.323-.112-.792-.358a3.758 3.758 0 0 1-.758-.535 3.627 3.627 0 0 1-.372-.418c-.13-.155-.202-.31-.154-.401.048-.091.034-.043.096-.032.08.027.156.065.227.112.157.099.309.208.454.327.245.2.472.424.681.669.367.401.541.738.584.69Z"/>
  <path fill="#7287CC" d="M285.596 200.089a1.278 1.278 0 0 0-.864.209 2.966 2.966 0 0 0-.802.61 3.16 3.16 0 0 0-.371.498.844.844 0 0 0-.161.371.903.903 0 0 0 .025.41.445.445 0 0 0 .162.181.368.368 0 0 0 .225.054.938.938 0 0 0 .328-.075c.252-.095.485-.245.685-.441.199-.195.362-.433.479-.698a1.405 1.405 0 0 0 .145-.969c-.053 0-.063.369-.329.856a2.188 2.188 0 0 1-.608.696 1.697 1.697 0 0 1-.459.246c-.178.07-.347.08-.362 0a.562.562 0 0 1 .116-.455 3.268 3.268 0 0 1 1.024-1.075c.449-.289.777-.364.767-.418Z"/>
  <path fill="#3654B6" d="m258.594 216.671 8.967-1.632s4.51 9.556 6.19 9.433l-2.226-19.38-14.066 1.905 1.135 9.674Z"/>
  <path fill="#fff" d="M266.098 209.159a.81.81 0 0 1 .257-.493.666.666 0 0 1 .491-.171.683.683 0 0 1 .447.277.827.827 0 0 1 .152.542.86.86 0 0 1-.277.519.71.71 0 0 1-.52.177.73.73 0 0 1-.44-.345c-.101-.174-.137-.384-.101-.586m5.399-3.987-1.41.252 2.661 18.513s.439.813.965.642l-2.216-19.407Z" opacity=".6"/>
  <path fill="#7287CC" d="M267.488 215.371c.087 0 .073-.498.29-1.001.217-.503.555-.802.512-.888-.044-.086-.522.128-.782.749-.261.621-.092 1.166-.02 1.14Zm.995 1.921c.087 0 .183-.418.483-.792.299-.375.695-.535.681-.61-.015-.075-.483-.086-.898.385-.416.471-.348 1.027-.266 1.017Zm2.327.845c0-.085-.434-.16-.874.15-.439.31-.574.776-.482.808.091.032.294-.278.656-.535.362-.257.705-.326.7-.423Zm-5.403-2.649c.077-.048-.092-.465-.121-1.006-.029-.54.077-.979 0-1.016-.077-.038-.338.401-.294 1.038.043.637.362 1.038.415.984Z"/>
  <path fill="#000" d="m260.351 216.344 1.599-.283-1.174-9.514-1.448.188 1.023 9.609Z" opacity=".3"/>
  <path fill="#7287CC" d="M263.596 215.783a2.091 2.091 0 0 0-.116-.974 4.81 4.81 0 0 0-.401-.974 5.104 5.104 0 0 0-.328-.535 1.182 1.182 0 0 0-.241-.262.352.352 0 0 0-.242-.099.35.35 0 0 0-.241.099.543.543 0 0 0-.122.203.594.594 0 0 0-.028.241c.015.123.044.244.087.358.07.201.155.395.256.578.173.306.386.582.633.819.211.239.482.403.777.471 0-.048-.266-.23-.633-.642a4.044 4.044 0 0 1-.758-1.338c-.072-.198-.091-.374 0-.439.092-.064.039-.026.102 0 .065.058.123.125.174.198.116.152.224.311.323.477.168.28.312.578.43.888.09.318.199.629.328.931Z"/>
  <path fill="#7287CC" d="M263.702 215.638a1.318 1.318 0 0 0-.874-.133c-.333.026-.66.117-.965.267-.17.091-.331.198-.483.321a.78.78 0 0 0-.266.286.878.878 0 0 0-.106.394.481.481 0 0 0 .095.234.404.404 0 0 0 .195.14c.108.035.22.053.333.054.2.004.4-.023.594-.08.32-.1.613-.283.854-.535.411-.445.483-.851.435-.857-.048-.005-.169.327-.575.68a1.919 1.919 0 0 1-.787.423c-.158.042-.32.06-.483.053-.188 0-.347-.059-.338-.139a.71.71 0 0 1 .247-.38c.14-.118.29-.22.449-.305.269-.147.555-.253.85-.316.487-.107.821-.053.825-.107Zm-41.938-52.576c-.28.124 4.244 4.95 4.974 8.219.874 3.944 3.259 8.454 3.259 8.454l16.718 17.743 31.484-5.104 5.311 10.749-37.954 11.403a6.257 6.257 0 0 1-3.092.133 6.584 6.584 0 0 1-2.833-1.375l-24.497-20.172-14.042-19.262 20.672-10.788Z"/>
  <path fill="#7287CC" d="m198.764 175.316 2.028 8.261c5.689 13.024 16.525 37.685 19.393 39.274 3.988 2.21 40.673-5.886 40.673-5.886l-.816-11.204-30.784 2.948-20.59-40.082-9.904 6.689Z"/>
  <path fill="#7287CC" d="M281.081 203.856s-.067.032-.207.08l-.618.209-2.381.77-8.779 2.783-13.038 4.098-7.673 2.43c-.671.203-1.332.428-2.023.62-2.151.569-4.414.295-6.403-.776a10.389 10.389 0 0 1-1.869-1.305l-1.709-1.488a202.612 202.612 0 0 1-3.298-2.943 228.74 228.74 0 0 1-6.08-5.752c-3.824-3.745-7.147-7.255-9.851-10.3-2.704-3.044-4.771-5.639-6.123-7.491l-.893-1.241c-.237-.375-.444-.69-.608-.947l-.377-.583c-.082-.134-.116-.204-.116-.204s.048.059.14.188c.092.128.222.326.391.567.169.241.382.567.628.931l.908 1.225c1.371 1.841 3.452 4.415 6.171 7.438 2.719 3.023 6.07 6.511 9.875 10.236a293.357 293.357 0 0 0 6.084 5.735c1.068.98 2.169 1.953 3.294 2.938l1.709 1.461a9.707 9.707 0 0 0 1.83 1.284c1.939 1.041 4.142 1.309 6.239.76.676-.188 1.352-.418 2.019-.621l7.697-2.408 13.038-4.04 8.793-2.707 2.414-.722.628-.182.188-.043Zm-72.036-28.021c.024.032-.203.149-.247.508a.776.776 0 0 0 .02.284.729.729 0 0 0 .12.251c.08.072.175.119.277.135.101.016.205 0 .299-.046a.558.558 0 0 0 .233-.212.654.654 0 0 0 .099-.316.73.73 0 0 0-.085-.275.673.673 0 0 0-.18-.212c-.271-.208-.483-.107-.507-.15-.024-.042.038-.058.145-.091a.606.606 0 0 1 .449.086.777.777 0 0 1 .266.257.889.889 0 0 1 .13.364.92.92 0 0 1-.119.473.79.79 0 0 1-.337.319.687.687 0 0 1-.441.055.732.732 0 0 1-.393-.227.919.919 0 0 1-.14-.749.745.745 0 0 1 .251-.417c.092-.048.155-.053.16-.037Zm16.036-4.827c-.077.123-.17.233-.275.327a7.127 7.127 0 0 1-4.336 1.995 6.85 6.85 0 0 1-3.578-.663 5.661 5.661 0 0 1-.966-.573 1.336 1.336 0 0 1-.324-.278c.024-.043.483.316 1.362.68a7.282 7.282 0 0 0 3.501.572 7.43 7.43 0 0 0 3.38-1.161c.787-.487 1.207-.936 1.236-.899Z"/>
  <path fill="#7287CC" d="M253.494 141.387s-21.889-9.096-23.217-10.413c-1.328-1.316-7.108-8.561-9.513-9.497 0 0-3.901-1.135-6.557-.969l-2.806.369v-2.359l-11.526.208-.319 3.147-1.965.824s-4.617 10.701-4.617 15.581c0 4.88-2.279 33.447 2.212 38.937.69.84 3.38.3 3.38.3s12.961-1.531 25.844-11.515l-4.718-6.041s-1.661-12.617.271-21.681c.043-.198.082-.396.125-.589 5.578 3.05 14.163 7.491 16.684 7.491 0 0 14.119 5.281 16.727 1.9.295-.38-.005-5.693-.005-5.693Z"/>
  <path fill="#7287CC" d="M199.831 122.226s-4.515.198-7.455 4.248c-2.941 4.051-7.727 21.328-7.727 21.328l-6.586-7.491-6.278 3.858s8.876 13.709 10.624 15.298a8.92 8.92 0 0 0 3.206 1.514c4.216.407 7.065-4.35 7.929-8.272l2.897-16.122"/>
  <path fill="#FFBF9D" d="m173.693 142.981-6.761-4.446s-2.042-5.351-1.26-5.602c.782-.252 1.449 2.98 1.449 2.98l.965.535s-1.318-2.718-.859-2.975c.459-.257 1.101.535 1.449 1.161.27.471 1.144 2.445 1.144 2.445l.454-.695-.357-1.825s-.483-1.22.053-1.23c.536-.011.536-.054.936.957.401 1.012.676 1.766.676 1.766s1.971 1.295 2.391 1.15c.315-.118.649-.164.981-.135.332.028.655.131.95.301 0 0 1.869 1.071 1.42 3.291"/>
  <path fill="#7287CC" d="M219.422 122.927c.034 0-.145.535-.362 1.348a16.546 16.546 0 0 0-.333 6.673c.125.85.255 1.369.217 1.386a5.669 5.669 0 0 1-.386-1.349 14.048 14.048 0 0 1 .342-6.763c.119-.456.295-.892.522-1.295Zm-18.094-.664a5.558 5.558 0 0 1-.121-1.819 5.46 5.46 0 0 1 .252-1.803 9.814 9.814 0 0 1 0 1.814 9.94 9.94 0 0 1-.131 1.808Zm2.699.466a8.735 8.735 0 0 1 .039-2.044c.019-.683.113-1.36.28-2.017.067.68.053 1.367-.043 2.044a9 9 0 0 1-.276 2.017Zm3.593-.123c-.067 0 .102-.894.164-1.98.063-1.086 0-1.974.087-1.985a7.285 7.285 0 0 1-.251 3.965Zm2.637-.733c-.068 0 .038-.755.024-1.664-.015-.91-.14-1.643-.073-1.659.237.51.344 1.081.31 1.653a3.66 3.66 0 0 1-.261 1.67Zm-17.046 6.892c.063 0 0 6.988-.145 15.602-.145 8.615-.319 15.603-.386 15.603-.068 0 0-6.988.149-15.608.15-8.62.314-15.597.382-15.597Z"/>
  <path fill="#FAFAFA" d="M192.776 145.202a5.905 5.905 0 0 1-.965-.594 12.93 12.93 0 0 0-2.309-1.306 5.344 5.344 0 0 0-2.52-.406c-.657.064-1.043.251-1.058.208a2.18 2.18 0 0 1 1.038-.396 4.91 4.91 0 0 1 2.622.348c.824.354 1.603.824 2.318 1.397.32.207.613.458.874.749Zm26.395-4.907c-.072.06-.148.114-.227.161l-.667.433a15.09 15.09 0 0 1-1.081.637c-.43.23-.908.535-1.449.77-.541.236-1.149.562-1.816.83-.666.267-1.376.535-2.129.813-1.649.554-3.33.984-5.032 1.29a35.425 35.425 0 0 1-5.147.47c-.797 0-1.55 0-2.255-.058-.705-.059-1.362-.107-1.961-.177-.599-.07-1.13-.166-1.603-.246-.473-.08-.874-.161-1.202-.241l-.754-.187a.934.934 0 0 1-.26-.081.95.95 0 0 1 .27.027l.763.139c.328.065.729.139 1.202.198.474.059 1.005.161 1.603.204.599.042 1.246.123 1.932.144.686.022 1.449.032 2.241.032a34.109 34.109 0 0 0 10.14-1.744c.753-.268 1.473-.503 2.125-.787.652-.283 1.27-.535 1.82-.797.551-.262 1.039-.535 1.449-.733.41-.198.797-.423 1.096-.594l.686-.385a.928.928 0 0 1 .256-.118Zm12.704-7.747c.025.037-.386.337-.965.909a13.387 13.387 0 0 0-2.057 2.504 14.811 14.811 0 0 0-1.449 2.997c-.28.813-.401 1.343-.439 1.332a1.313 1.313 0 0 1 .038-.38c.061-.344.142-.684.242-1.017.658-2.207 1.891-4.149 3.544-5.58.245-.22.505-.418.777-.594.194-.129.3-.188.309-.171Zm2.449.834c0 .043-.483.289-1.193.808-1.885 1.365-3.328 3.362-4.119 5.699-.304.893-.41 1.476-.449 1.466-.039-.011 0-.15.034-.418.06-.375.146-.746.256-1.107.722-2.428 2.208-4.486 4.186-5.8.295-.204.604-.383.923-.536.114-.058.236-.096.362-.112Zm-14.979 4.714c-.077.054-.16.097-.247.128l-.709.321c-.31.14-.691.305-1.14.471-.449.166-.966.386-1.531.573a46.128 46.128 0 0 1-4.056 1.209 44.731 44.731 0 0 1-10.203 1.316 38.47 38.47 0 0 1-4.202-.149c-.593-.038-1.129-.113-1.603-.166a19.357 19.357 0 0 1-1.207-.172l-.763-.128a.862.862 0 0 1-.28-.043.94.94 0 0 1 .27 0l.763.08c.334.043.739.091 1.212.129.474.037 1.005.102 1.604.123 1.188.086 2.607.118 4.181.091a48.49 48.49 0 0 0 5.109-.38 48.871 48.871 0 0 0 5.051-.926 47.116 47.116 0 0 0 4.057-1.15c.574-.177 1.081-.375 1.535-.535.454-.161.836-.305 1.149-.428l.73-.273a.998.998 0 0 1 .28-.091Zm-26.327 3.034a16.85 16.85 0 0 0-2.574-1.546 16.238 16.238 0 0 0-2.835-.803c.289-.058.586-.058.874 0a7.414 7.414 0 0 1 2.053.535 7.692 7.692 0 0 1 1.844 1.134c.251.179.467.41.638.68Z"/>
  <path fill="#FFBF9D" d="m260.699 139.375-4.781 1.776-2.414.236v5.703l2.482.937 6.659-.401s3.815 2.14 4.785 2.011c.971-.128.966-.46.966-.46l-4.718-3.162a2.467 2.467 0 0 1 1.816.268c1.086.535 2.965 1.744 3.631 1.412.667-.332.546-.605.546-.605l-3.694-2.579s3.163 1.574 3.704 1.306a.973.973 0 0 0 .388-.312c.104-.138.175-.303.205-.48l-2.057-2.028-3.09-2.675-4.428-.947Z"/>
  <path fill="#FFBF9D" d="M258.043 141.724c.182.058.357.139.522.241.323.166.792.417 1.366.738.575.321 1.256.701 2.004 1.172.206.115.388.275.536.471.16.214.26.477.285.754a1.43 1.43 0 0 1-.164.835 1.106 1.106 0 0 1-.667.476c-.347.094-.71.094-1.057 0a7.147 7.147 0 0 1-.922-.369 18.272 18.272 0 0 1-1.594-.819l.126-.032c-.29.425-.672.762-1.111.979a2.287 2.287 0 0 1-1.758.097c-.149-.054-.227-.102-.222-.113.301.069.606.106.913.113.346-.012.686-.101.999-.263a2.854 2.854 0 0 0 1.019-.947l.049-.075.072.043c.483.252 1.019.535 1.594.787.29.136.589.253.893.348.308.077.628.077.937 0a.907.907 0 0 0 .531-.37c.107-.199.153-.432.13-.663a1.425 1.425 0 0 0-.231-.622 1.233 1.233 0 0 0-.474-.421c-.724-.477-1.405-.873-1.965-1.215l-1.333-.813a2.421 2.421 0 0 1-.478-.332Zm8.151 2.803a9.17 9.17 0 0 1-2.115-1.455 4.768 4.768 0 0 1-.43-.412h.145a2.767 2.767 0 0 1-1.337.401.965.965 0 0 1-.551-.058c0-.038.203-.043.536-.108a3.348 3.348 0 0 0 1.246-.454l.082-.059.068.075c.12.128.265.257.41.39.677.519 1.327 1.08 1.946 1.68Z"/>
  <path fill="#3654B6" d="M274.35 185.53a8.995 8.995 0 0 1-2.849-.455c-9.175-3.044-8.692-10.38-8.32-16.277.357-5.495.372-8.951-3.718-10.653-5.413-2.247-7.64-.064-11.015 3.243-4.018 3.938-9.011 8.839-21.131 6.849-6.277-1.033-16.418-4.709-28.833-16.363a105.193 105.193 0 0 1-12.231-13.591l1.873-1.669c.188.257 18.726 25.571 39.544 28.985 11.009 1.808 15.35-2.451 19.185-6.207 3.438-3.371 6.683-6.555 13.453-3.746 5.978 2.489 5.606 8.251 5.273 13.34-.386 5.955-.72 11.097 6.611 13.532 8.257 2.739 19.117-11.772 25.592-20.419 2.318-3.087 3.926-5.324 5.211-6.485l1.815 1.606c-.801 1.07-3.032 3.745-5.176 6.586-6.596 8.824-16.264 21.724-25.284 21.724Z"/>
  <path fill="#fff" d="M240.311 164.464s-.096.102-.289.236a7.413 7.413 0 0 1-.845.535 12.14 12.14 0 0 1-3.038 1.155c-1.051.24-2.125.332-3.196.273a8.258 8.258 0 0 1-.966-.112 1.12 1.12 0 0 1-.348-.091c0-.043.512 0 1.323 0a13.87 13.87 0 0 0 6.157-1.413c.739-.374 1.183-.647 1.202-.583Zm14.12-8.074c-.263.011-.526 0-.787-.032-1.262-.02-2.49.45-3.472 1.327-.188.204-.39.391-.604.562.111-.271.276-.511.483-.701a4.556 4.556 0 0 1 1.663-1.114 4.205 4.205 0 0 1 1.93-.256c.274.002.543.076.787.214Zm15.38 25.271a2.941 2.941 0 0 1-1.087-.369 7.099 7.099 0 0 1-2.219-1.785 7.953 7.953 0 0 1-1.431-2.592 3.887 3.887 0 0 1-.246-1.225c.038 0 .135.455.405 1.156a8.971 8.971 0 0 0 1.449 2.482 7.97 7.97 0 0 0 2.12 1.793c.608.353 1.023.498 1.009.54Zm33.623-25.078a31.252 31.252 0 0 1-3.805 4.205 33.145 33.145 0 0 1 3.805-4.205Z"/>
  <path fill="#3654B6" d="M188.382 138.872c-.495.604-1.186.965-1.921 1.004-.736.039-1.455-.247-2-.795l-4.24-4.281 3.738-4.553 4.235 4.28c.544.549.87 1.315.906 2.129a3.284 3.284 0 0 1-.718 2.216Z"/>
  <path fill="#7287CC" d="M188.382 138.872c.142-.231.273-.47.391-.717a3.34 3.34 0 0 0 .131-2.231 3.059 3.059 0 0 0-.768-1.322l-1.28-1.268c-.903-.91-1.907-1.91-2.974-2.975h.164l-1.869 2.279-1.869 2.274v-.181l2.956 2.98 1.265 1.289c.353.36.786.609 1.255.723a2.52 2.52 0 0 0 1.994-.359c.212-.154.415-.322.609-.503a2.19 2.19 0 0 1-.565.578 2.542 2.542 0 0 1-2.067.444 2.753 2.753 0 0 1-1.347-.738c-.401-.396-.826-.824-1.28-1.268l-2.979-2.981-.087-.085.082-.097 1.864-2.279 1.869-2.269.077-.096.087.086 2.955 3.001 1.265 1.29c.375.384.649.874.792 1.418.21.772.137 1.604-.203 2.317a2.234 2.234 0 0 1-.468.69Z"/>
  <path fill="#3654B6" d="m166.961 113.167-7.311-6.699a1.475 1.475 0 0 1-.332-.452 1.64 1.64 0 0 1-.096-1.138 1.55 1.55 0 0 1 .25-.513c.113-.151.251-.276.408-.368a1.25 1.25 0 0 1 1.027-.107c.169.058.326.152.462.277l7.307 6.699-1.715 2.301Zm-6.876 9.787-7.301-6.699a1.462 1.462 0 0 1-.333-.452 1.643 1.643 0 0 1-.1-1.138c.052-.187.137-.362.249-.513a1.38 1.38 0 0 1 .408-.37 1.242 1.242 0 0 1 1.028-.107c.169.058.326.153.462.279l7.311 6.693-1.724 2.307Z"/>
  <path fill="#fff" d="m166.961 113.167-7.311-6.699a1.475 1.475 0 0 1-.332-.452 1.64 1.64 0 0 1-.096-1.138 1.55 1.55 0 0 1 .25-.513c.113-.151.251-.276.408-.368a1.25 1.25 0 0 1 1.027-.107c.169.058.326.152.462.277l7.307 6.699-1.715 2.301Zm-6.876 9.787-7.301-6.699a1.462 1.462 0 0 1-.333-.452 1.643 1.643 0 0 1-.1-1.138c.052-.187.137-.362.249-.513a1.38 1.38 0 0 1 .408-.37 1.242 1.242 0 0 1 1.028-.107c.169.058.326.153.462.279l7.311 6.693-1.724 2.307Z" opacity=".6"/>
  <path fill="#7287CC" d="M166.961 113.167c.034-.061.071-.12.111-.176l.329-.471 1.221-1.707v.112l-3.433-3.092-2.149-1.959-1.154-1.07-.594-.535a1.129 1.129 0 0 0-.642-.31 1.1 1.1 0 0 0-.593.079c-.189.08-.357.211-.489.381a1.44 1.44 0 0 0-.263.575c-.045.212-.044.433.003.645.046.199.135.383.26.535.137.158.283.305.44.439l.908.834 3.129 2.917 2.12 2.001.579.535c.074.065.143.137.208.214-.073-.046-.14-.1-.203-.161l-.58-.535c-.536-.476-1.27-1.123-2.158-1.921l-3.216-2.894-.927-.84c-.17-.145-.331-.3-.483-.466a1.748 1.748 0 0 1-.214-1.846c.141-.294.362-.532.632-.681.269-.148.574-.2.871-.148.282.04.549.168.768.369l.589.535 1.149 1.07 2.139 1.974 3.381 3.152.058.054-.049.058-1.308 1.691-.348.428a.947.947 0 0 1-.092.214Zm-6.876 9.787a1.02 1.02 0 0 1 .116-.177c.087-.128.193-.284.328-.471l1.222-1.707v.113l-3.433-3.098-2.149-1.953-1.154-1.07-.594-.536a1.213 1.213 0 0 0-.647-.31 1.13 1.13 0 0 0-.593.083 1.25 1.25 0 0 0-.489.383 1.414 1.414 0 0 0-.263.575c-.044.212-.042.433.007.645.046.198.133.381.256.535.138.156.287.301.444.433l.903.84 3.134 2.916 2.12 2.001.58.535c.074.063.142.135.202.214 0 0-.067-.048-.198-.16l-.584-.508-2.158-1.921-3.212-2.895-.927-.845a4.33 4.33 0 0 1-.483-.466 1.625 1.625 0 0 1-.309-.663 1.787 1.787 0 0 1-.008-.767c.053-.252.16-.487.313-.683a1.47 1.47 0 0 1 .585-.444c.224-.094.466-.125.704-.091.282.04.548.168.768.369.198.187.396.364.594.535l1.149 1.07 2.139 1.969 3.38 3.157.053.053-.043.059c-.551.701-.99 1.268-1.314 1.686l-.342.433c-.049.118-.097.166-.097.161Z"/>
  <path fill="#3654B6" d="m183.573 121.659.193-.257c.408-.545.62-1.238.594-1.945a3.024 3.024 0 0 0-.734-1.885 2.482 2.482 0 0 0-1.685-.856 2.416 2.416 0 0 0-1.768.614l-10.701-9.877-12.241 16.228 10.952 9.632a3.113 3.113 0 0 0-.376 1.983c.096.689.418 1.316.902 1.762.52.476 1.186.707 1.858.645.671-.062 1.294-.412 1.735-.977 1.546 1.293 3.485 1.866 5.407 1.599 1.921-.266 3.673-1.352 4.883-3.027l1.758-2.43c1.173-1.631 1.745-3.694 1.601-5.774-.144-2.08-.994-4.022-2.378-5.435Z"/>
  <path fill="#7287CC" d="m183.573 121.659.091.091.256.273c.142.145.273.302.391.47l.237.322.241.39a8.21 8.21 0 0 1 .966 2.231 9.088 9.088 0 0 1 .205 3.704 8.756 8.756 0 0 1-1.282 3.429c-.391.615-.845 1.198-1.289 1.835a15.38 15.38 0 0 1-1.482 1.889c-1.225 1.269-2.801 2.042-4.472 2.194-1.85.178-3.694-.405-5.181-1.638h.149c-.451.571-1.081.932-1.762 1.012a2.432 2.432 0 0 1-1.053-.11 2.6 2.6 0 0 1-.932-.554 3.086 3.086 0 0 1-.943-1.843 3.264 3.264 0 0 1 .393-2.074l.024.166-8.494-7.507-2.477-2.183-.097-.08.077-.107c4.462-5.886 8.63-11.418 12.256-16.213l.068-.091.077.075 10.676 9.904h-.082a2.5 2.5 0 0 1 1.354-.608 2.4 2.4 0 0 1 1.438.285c.445.243.82.621 1.079 1.09.26.47.395 1.011.388 1.561a3.032 3.032 0 0 1-.734 1.942l-.091.113s.116-.161.314-.471a3.131 3.131 0 0 0 .147-2.898 2.755 2.755 0 0 0-.79-1.003 2.322 2.322 0 0 0-1.448-.535 2.372 2.372 0 0 0-1.599.605l-.043.037-.044-.037-10.72-9.846h.145l-12.207 16.267v-.188l2.472 2.183 8.475 7.491.082.07-.058.096a2.99 2.99 0 0 0-.371 1.896c.089.661.393 1.264.854 1.694a2.314 2.314 0 0 0 1.779.62c.644-.059 1.241-.395 1.664-.935l.068-.08.077.064c1.378 1.14 3.073 1.709 4.791 1.608 1.717-.101 3.349-.865 4.611-2.159a15.709 15.709 0 0 0 1.448-1.862c.449-.632.913-1.22 1.299-1.82a8.82 8.82 0 0 0 1.381-4.575 8.885 8.885 0 0 0-1.178-4.644c-.082-.139-.159-.273-.237-.396l-.231-.321a4.925 4.925 0 0 0-.377-.492l-.246-.284c-.039-.035-.057-.053-.053-.053Z"/>
  <path fill="#E0E0E0" d="m171.322 121.97-7.55-6.918-1.222 1.636 7.55 6.919 1.222-1.637Z"/>
  <path fill="#7287CC" d="M183.573 121.659a4.587 4.587 0 0 1-.406.631c-.27.401-.671.969-1.173 1.664-1 1.397-2.415 3.296-3.994 5.378a2197.724 2197.724 0 0 1-4.051 5.324l-1.227 1.605a4.118 4.118 0 0 1-.483.567c.119-.223.255-.434.406-.631.27-.402.671-.969 1.173-1.665 1-1.396 2.415-3.296 3.994-5.35l4.051-5.351 1.231-1.605c.143-.206.303-.395.479-.567Zm-3.4-4.35a4.483 4.483 0 0 1-.435.663c-.294.418-.729 1.017-1.265 1.75a362.688 362.688 0 0 1-4.288 5.661c-1.69 2.194-3.206 4.141-4.346 5.613-.541.685-.965 1.257-1.323 1.691a4.827 4.827 0 0 1-.512.599c.132-.233.279-.455.44-.663.294-.418.724-1.017 1.265-1.75a369.104 369.104 0 0 1 4.288-5.661l4.346-5.608 1.323-1.696c.155-.214.324-.414.507-.599Z"/>
  <path fill="#FFBF9D" d="M132.078 74.29c-.068.176-5.394 4.66-5.394 4.66l-.102 3.81 2.753.427 3.911-2.461 2.651-.15s1.618.947 1.932 1.07a.85.85 0 0 0 .622-.036.973.973 0 0 0 .464-.461l-2.414-1.948s2.675 1.654 2.931 1.434a.951.951 0 0 0 .176-.368c.033-.135.037-.278.013-.416a.976.976 0 0 0-.155-.38.852.852 0 0 0-.29-.265s.831.487 1.357.097.338-.856.338-.856l-3.535-3.516a2.282 2.282 0 0 0-1.646-.685l-3.612.043Z"/>
  <path fill="#FFBF9D" d="M132.503 75.942a2.882 2.882 0 0 1-.039.455c-.048.332-.106.75-.179 1.252l-.067-.09 2.033-.15c.437-.058.881.009 1.289.192a1.3 1.3 0 0 1 .531.578 1.063 1.063 0 0 1 .034.872v.032h-.029c-.642.423-1.449.327-2.149.38a2.355 2.355 0 0 0-1.497.605c-.399.366-.772.767-1.115 1.198a5.177 5.177 0 0 1-1.111 1.038 2.308 2.308 0 0 1-1.226.38 4.424 4.424 0 0 1-1.777-.412 2.776 2.776 0 0 1-.599-.305c.215.049.427.117.632.204a4.68 4.68 0 0 0 1.739.326 2.21 2.21 0 0 0 1.13-.38 5.166 5.166 0 0 0 1.052-1.017 10.63 10.63 0 0 1 1.13-1.236 2.574 2.574 0 0 1 1.628-.663c.748-.048 1.492.027 2.047-.337l-.048.053a1.02 1.02 0 0 0-.034-.657.887.887 0 0 0-.42-.466 2.168 2.168 0 0 0-1.183-.188l-2.038.086h-.087v-.09c.097-.499.179-.91.242-1.242.02-.144.058-.284.111-.418Z"/>
  <path fill="#FFBF9D" d="M139.345 79.281a2.385 2.385 0 0 1-.908-.594c-.521-.444-1.091-1.22-1.869-1.846a1.25 1.25 0 0 0-.598-.278c-.213-.026-.44 0-.652 0h-1.135a4.287 4.287 0 0 1-1.043-.075 3.895 3.895 0 0 1 1.043-.112l1.13-.048c.227-.016.454-.016.681 0 .258.034.503.145.71.32.65.596 1.265 1.238 1.839 1.922.469.46.821.674.802.711Z"/>
  <path fill="#3654B6" d="m139.591 192.54-.13 9.379s8.542 3.291 8.668 5.025l-16.384.369-.339-14.592 8.185-.181Z"/>
  <path fill="#fff" d="M134.376 201.229a.688.688 0 0 0-.37.334.81.81 0 0 0-.074.522c.045.176.15.325.292.418.142.093.31.121.471.08a.727.727 0 0 0 .401-.351.855.855 0 0 0 .082-.559.72.72 0 0 0-.346-.399.612.612 0 0 0-.499-.024m-2.588 6.02v-1.471l15.708.198s.734.331.661.904l-16.369.369Z" opacity=".6"/>
  <path fill="#7287CC" d="M139.722 201.801c0 .086-.396.139-.787.434-.391.294-.589.669-.667.637-.077-.033.039-.536.512-.894.473-.359.961-.257.942-.177Zm1.733.75c.024.085-.323.24-.589.626-.265.385-.333.775-.415.775-.082 0-.14-.502.198-.968.338-.466.806-.53.806-.433Zm1.019 2.258c-.072 0-.188-.423 0-.91.188-.487.57-.696.604-.621.034.075-.193.337-.348.744-.154.407-.174.776-.256.787Zm-2.936-5.143c-.029.081-.401-.037-.85 0-.449.038-.801.209-.845.134-.043-.075.29-.401.821-.444.531-.043.913.235.874.31Z"/>
  <path fill="#000" d="m139.562 194.391-.019 1.669-8.059.102-.039-1.504 8.117-.267Z" opacity=".3"/>
  <path fill="#7287CC" d="M139.533 197.778a1.448 1.448 0 0 1-.82 0 3.522 3.522 0 0 1-.865-.273 3.812 3.812 0 0 1-.483-.268.846.846 0 0 1-.251-.208.418.418 0 0 1-.048-.471.47.47 0 0 1 .152-.149.416.416 0 0 1 .196-.06.931.931 0 0 1 .309.043c.175.041.347.102.511.182.28.133.539.313.768.535.387.385.527.712.483.728-.043.016-.227-.241-.618-.535a3.08 3.08 0 0 0-.744-.439 2.444 2.444 0 0 0-.482-.15c-.174-.048-.319-.043-.363.043-.043.085 0 .043 0 .102.057.057.118.107.184.149.15.102.294.188.439.268.258.134.526.239.802.316.281.037.559.1.83.187Z"/>
  <path fill="#7287CC" d="M139.432 197.906a1.563 1.563 0 0 1-.232-.877 3.23 3.23 0 0 1 .092-.995c.052-.186.12-.365.203-.536a.738.738 0 0 1 .199-.311.646.646 0 0 1 .313-.159.355.355 0 0 1 .207.065c.061.044.11.107.14.181.047.104.078.216.092.331a2.15 2.15 0 0 1 0 .61 2.168 2.168 0 0 1-.333.948c-.309.481-.642.593-.647.561-.005-.032.246-.219.483-.679.136-.265.22-.558.246-.862a2.178 2.178 0 0 0-.029-.535c-.029-.192-.097-.342-.159-.326-.063.016-.218.15-.285.305-.076.16-.14.326-.193.498a3.477 3.477 0 0 0-.14.914c-.005.519.087.851.043.867Z"/>
  <path fill="#7287CC" d="M109.768 139.621c.401.669 18.191 21.119 18.191 21.119s-2.212 9.423-1.415 17.615c.797 8.192 3.196 21.247 3.196 21.247l12.898-1.139-3.51-44.411-14.081-20.622-15.279 6.191Z"/>
  <path fill="#3654B6" d="m144.048 182.191 1.584 9.198s8.967 1.306 9.412 2.975l-15.984 4.04-2.994-14.217 7.982-1.996Z"/>
  <path fill="#fff" d="M140.533 191.871a.726.726 0 0 0-.304.411.81.81 0 0 0 .024.53.662.662 0 0 0 .361.342c.155.059.325.05.474-.026a.766.766 0 0 0 .32-.435.854.854 0 0 0-.025-.56.665.665 0 0 0-.41-.317.607.607 0 0 0-.493.092m-1.42 6.496-.251-1.445 15.419-3.334s.782.161.816.739l-15.984 4.04Z" opacity=".6"/>
  <path fill="#7287CC" d="M145.874 191.218c0 .085-.367.224-.696.599-.328.375-.454.792-.531.776-.077-.016-.067-.535.333-.995.401-.461.894-.45.894-.38Zm1.835.358c.033.08-.276.316-.483.744-.208.428-.189.84-.266.856-.077.016-.227-.46 0-.995.227-.535.729-.685.749-.605Zm1.41 1.986c-.068.037-.266-.37-.164-.894.101-.524.429-.803.482-.744.054.059-.125.375-.202.808-.078.434-.044.797-.116.83Zm-3.815-4.378c0 .086-.401.054-.835.204-.435.15-.744.385-.802.321-.058-.064.212-.46.724-.621.512-.16.937.016.913.096Z"/>
  <path fill="#000" d="m144.362 184.016.285 1.637-7.871 1.91-.314-1.466 7.9-2.081Z" opacity=".3"/>
  <path fill="#7287CC" d="M144.951 187.333a1.397 1.397 0 0 1-.801.198 3.602 3.602 0 0 1-1.41-.225 1.036 1.036 0 0 1-.285-.149.383.383 0 0 1-.136-.2.41.41 0 0 1 .006-.25.476.476 0 0 1 .119-.181.402.402 0 0 1 .18-.102.952.952 0 0 1 .314-.032 2.68 2.68 0 0 1 1.381.412c.449.288.642.577.623.604-.02.027-.266-.187-.71-.407a3.03 3.03 0 0 0-.806-.267 2.453 2.453 0 0 0-.483-.038c-.179 0-.324.027-.348.124-.024.096 0 .048.039.091a.728.728 0 0 0 .207.107c.157.066.319.12.483.16.275.076.557.121.84.134.263-.014.526-.007.787.021Z"/>
  <path fill="#7287CC" d="M144.879 187.472c-.029 0-.246-.251-.391-.802a3.47 3.47 0 0 1-.092-1.001c.015-.199.047-.396.097-.589a.79.79 0 0 1 .139-.349.688.688 0 0 1 .276-.228.353.353 0 0 1 .215.02c.068.03.128.08.171.145.064.093.114.196.15.305.069.19.111.391.126.594a2.35 2.35 0 0 1-.155 1.006c-.217.535-.522.723-.536.696.131-.251.249-.51.352-.776a2.37 2.37 0 0 0 .083-.899 2.2 2.2 0 0 0-.121-.508c-.063-.182-.16-.316-.217-.284-.058.032-.189.198-.223.364-.13.471-.155.971-.072 1.455.087.536.237.851.198.851Z"/>
  <path fill="#7287CC" d="M77.946 125.629s-1.192 8.459 3.434 13.992c4.626 5.533 9.614 7.967 18.402 7.528 8.789-.438 27.761.049 27.761.049s.802 11.236 2.999 20.423c2.197 9.187 6.582 23.008 6.582 23.008l8.595-.909s-2.323-50.072-2.921-54.497c-.599-4.425-7.244-6.667-10.86-7.994-3.617-1.327-24.222-5.913-24.222-5.913l-18.721-2.91-11.049 7.223Z"/>
  <path fill="#7287CC" d="M145.719 189.698h-.149l-.45.038-1.748.139-6.581.481h-.058v-.064c-1.154-4.098-2.651-9.422-4.385-15.565-.864-3.077-1.782-6.362-2.747-9.797-.483-1.712-1-3.473-1.353-5.313a39.514 39.514 0 0 1-.719-5.672 30.05 30.05 0 0 1 .323-6.688l.112.16a777.028 777.028 0 0 0-14.627-.192c-2.226 0-4.346 0-6.278.037-1.931.037-3.785.112-5.451.112a81.17 81.17 0 0 1-7.813-.364 65.433 65.433 0 0 1-2.096-.23l-.546-.08-.183-.032a.988.988 0 0 1 .188 0l.54.054 2.101.187c1.83.144 4.491.31 7.809.278 1.656 0 3.481-.107 5.447-.144 1.965-.038 4.075-.059 6.277-.059 4.457 0 9.392.048 14.632.166h.14l-.029.16c-.348 2.18-.453 4.4-.314 6.608a39.58 39.58 0 0 0 .71 5.635c.357 1.824.869 3.568 1.347 5.286.966 3.441 1.869 6.726 2.728 9.802 1.705 6.159 3.182 11.488 4.322 15.598l-.073-.059 6.587-.407 1.748-.096h.449a.667.667 0 0 1 .14.021Z"/>
  <path fill="#7287CC" d="M132.078 141.456c.048.054-1.019 1.199-2.111 2.809-1.091 1.611-1.786 3.066-1.854 3.029.09-.349.223-.682.396-.99.371-.767.796-1.501 1.27-2.194.471-.697.989-1.354 1.55-1.963.215-.273.468-.506.749-.691Z"/>
  <path fill="#7287CC" d="M134.41 142.355a18.222 18.222 0 0 0-3.38 1.916 20.077 20.077 0 0 0-2.82 2.846c.173-.374.392-.72.652-1.027 1.197-1.552 2.738-2.732 4.471-3.424a3.454 3.454 0 0 1 1.077-.311Zm-38.36-67.52c.632.348 13.82 9.283 14.448 9.283.627 0 16.229-6.308 16.229-6.308l3.197 5.468s-13.68 11.675-18.161 11.847c-4.481.17-11.59-3.816-11.59-3.816L96.05 74.835Zm-27.438 4.906s-16.413 18.492-16.21 23.19c.203 4.698 2.24 7.293 3.544 7.903 1.82.856 22.372-1.947 22.372-1.947l1.217-8.861c-3.38-.744-7.663-1.306-12.304-1.798 2.081-2.413 4.394-4.243 7.243-4.778l4.916-5.923s-6.142-8.942-10.778-7.786Z"/>
  <path fill="#7287CC" d="M67.762 85.274s-.787-3.992.966-5.591c2.897-2.676 5.37-3.89 7.475-5.051 2.415-1.333 4.969-2.874 4.969-2.874l14.897 3.072s7.953 14.072 7.784 17.534c-.113 2.097-.872 4.087-2.149 5.64a23.42 23.42 0 0 0 1.087 11.289c1.782 4.907 4.944 11.997 4.944 11.997s-17.074-3.072-25.172 1.321c-4.346 2.355-4.737 6.105-4.737 6.105l-.633-20.61-3.346-12.623-6.085-10.209Z"/>
  <path fill="#7287CC" d="M79.047 99.913s-.077-.032-.227-.064c-.15-.032-.367-.08-.656-.128a76.002 76.002 0 0 0-2.453-.343c-2.077-.262-4.95-.583-8.123-.92l-.545-.059-.295-.032.232-.203a291.27 291.27 0 0 1 3.38-2.96 8.084 8.084 0 0 1 3.211-1.567 7.43 7.43 0 0 1 2.352-.171c.212.02.424.052.633.096a.68.68 0 0 1 .212.06 9.21 9.21 0 0 0-3.163.192 8.128 8.128 0 0 0-3.114 1.605l-3.38 2.975-.063-.236.55.06c3.173.337 6.046.69 8.117 1 2.072.31 3.366.578 3.332.695Z"/>
  <path fill="#7287CC" d="M61.412 98.65a2.01 2.01 0 0 1 .667-.652 4.002 4.002 0 0 1 2.052-.722 3.823 3.823 0 0 1 2.105.487c.279.125.527.321.725.572-.025.038-.3-.176-.797-.406a4.315 4.315 0 0 0-2.023-.391 4.334 4.334 0 0 0-1.975.62c-.469.263-.73.493-.754.493Zm15.617-11.31c-.044 0-.188-.675-.546-1.734a12.35 12.35 0 0 0-1.999-3.746 6.982 6.982 0 0 0-1.69-1.482l-.435-.24c-.14-.07-.29-.118-.43-.172a4.265 4.265 0 0 0-.796-.23 5.368 5.368 0 0 0-1.193-.107c-.149.022-.3.022-.449 0 .143-.053.293-.08.444-.08a4.563 4.563 0 0 1 2.057.23c.145.053.3.096.45.166l.482.24a6.92 6.92 0 0 1 1.763 1.52 11.508 11.508 0 0 1 1.98 3.88c.132.426.238.863.318 1.305.03.147.045.298.044.45Zm24.207 11.198s.198-.246.521-.717a8.591 8.591 0 0 0 1.106-2.14c.41-1.144.604-2.37.57-3.6a9.08 9.08 0 0 0-1.183-4.25 32.52 32.52 0 0 0-2.497-3.6 16.698 16.698 0 0 1-1.907-3.093 8.071 8.071 0 0 1-.7-2.403 4.99 4.99 0 0 1-.039-.684.797.797 0 0 1 0-.241s0 .332.116.91a8.51 8.51 0 0 0 .758 2.332 16.91 16.91 0 0 0 1.932 3.023 30.59 30.59 0 0 1 2.53 3.618 9.214 9.214 0 0 1 1.198 4.382 9.73 9.73 0 0 1-.633 3.676 8.048 8.048 0 0 1-1.188 2.14 4.224 4.224 0 0 1-.43.498.83.83 0 0 1-.154.15Z"/>
  <path fill="#000" d="M75.28 99.186a2.716 2.716 0 0 1 .149-1.805c.253-.559.689-.99 1.218-1.208a10.568 10.568 0 0 1 1.797-.256c.376-.07.796-.279.874-.696.096-.535-.391-.92-.826-1.129a6.92 6.92 0 0 0-5.635-.15 10.576 10.576 0 0 1 1.762 5.169M97.86 80.865c-.767-1.707 2.019 3.087 3.318 4.34a30.183 30.183 0 0 1 3.747 3.932c1.077 1.488 1.874 3.136 1.724 5.04l-3.1-1.209s.391-2.777-.966-4.815c-1.357-2.039-4.413-6.625-4.723-7.288ZM66.99 98.116c-.855-1.028-2.164-1.445-3.42-1.606a4.76 4.76 0 0 0-2.278.166 2.41 2.41 0 0 0-.985.636c-.278.295-.49.658-.619 1.06a.894.894 0 0 0 .058.739.634.634 0 0 0 .328.211.583.583 0 0 0 .377-.03c.241-.11.464-.261.662-.449a5.55 5.55 0 0 1 2.807-1.185 5.365 5.365 0 0 1 2.968.506" opacity=".3"/>
  <path fill="#7287CC" d="M72.065 84.985c0 .224-.06.442-.172.628a1.05 1.05 0 0 1-.458.415.927.927 0 0 1-.59.064.993.993 0 0 1-.521-.31 1.172 1.172 0 0 1-.278-.58 1.243 1.243 0 0 1 .06-.653c.078-.206.21-.382.377-.505a.949.949 0 0 1 .957-.102c.123.057.235.14.33.245.094.105.168.23.219.366.05.137.076.284.076.432Zm5.471-7.459c0 .224-.06.442-.172.627a1.05 1.05 0 0 1-.457.416.927.927 0 0 1-.589.064.992.992 0 0 1-.522-.308 1.171 1.171 0 0 1-.278-.579c-.04-.218-.02-.445.058-.652.077-.206.207-.382.375-.506a.95.95 0 0 1 .566-.19c.27 0 .53.118.72.33.192.212.299.499.299.798Zm10.652.466c.001.224-.058.443-.17.63a1.05 1.05 0 0 1-.456.417.927.927 0 0 1-.59.066.992.992 0 0 1-.523-.31 1.172 1.172 0 0 1-.28-.579 1.25 1.25 0 0 1 .06-.653c.078-.207.21-.383.377-.507a.95.95 0 0 1 .568-.188c.27 0 .527.119.717.33.19.21.297.496.297.794Zm8.238-.707c0 .224-.06.442-.171.627a1.05 1.05 0 0 1-.458.416.927.927 0 0 1-.588.064.992.992 0 0 1-.522-.308 1.171 1.171 0 0 1-.279-.579 1.237 1.237 0 0 1 .058-.652c.077-.206.208-.382.375-.506a.95.95 0 0 1 .566-.19c.27 0 .53.118.72.33.192.212.3.499.3.798Zm13.627 13.366c0 .224-.06.443-.172.628-.112.186-.271.33-.458.416a.925.925 0 0 1-.589.063.996.996 0 0 1-.522-.31 1.177 1.177 0 0 1-.278-.58 1.26 1.26 0 0 1 .06-.652 1.12 1.12 0 0 1 .378-.506.949.949 0 0 1 .956-.101c.124.056.236.14.33.245.094.104.169.229.219.366.051.137.077.284.076.431Zm-8.315-1.129a1.22 1.22 0 0 1-.169.629 1.056 1.056 0 0 1-.457.418.926.926 0 0 1-.589.067.991.991 0 0 1-.523-.308 1.173 1.173 0 0 1-.28-.578c-.04-.22-.02-.447.057-.653a1.11 1.11 0 0 1 .376-.508.946.946 0 0 1 1.286.137c.095.104.17.228.221.365.052.137.078.283.078.431Zm1.753-7.496c0 .224-.06.442-.172.628a1.05 1.05 0 0 1-.458.416.929.929 0 0 1-.59.063.993.993 0 0 1-.521-.31 1.177 1.177 0 0 1-.278-.58 1.239 1.239 0 0 1 .06-.652c.078-.207.209-.383.377-.506a.952.952 0 0 1 .568-.188.93.93 0 0 1 .389.086c.123.057.235.14.33.245a1.215 1.215 0 0 1 .295.798Zm11.435 4.195c.562 0 1.019-.505 1.019-1.129 0-.623-.457-1.129-1.019-1.129-.563 0-1.019.506-1.019 1.13 0 .623.456 1.128 1.019 1.128Zm8.069-.112c.001.224-.058.443-.17.629a1.054 1.054 0 0 1-.457.418.928.928 0 0 1-.59.066.994.994 0 0 1-.523-.31 1.176 1.176 0 0 1-.279-.579 1.251 1.251 0 0 1 .059-.653 1.11 1.11 0 0 1 .378-.507.949.949 0 0 1 .568-.188c.268.002.525.12.715.33a1.2 1.2 0 0 1 .299.794ZM97.484 98.17c0 .223-.058.442-.17.628a1.05 1.05 0 0 1-.456.418.927.927 0 0 1-.589.067.991.991 0 0 1-.523-.308 1.17 1.17 0 0 1-.28-.578c-.04-.22-.02-.447.057-.653a1.12 1.12 0 0 1 .375-.508.95.95 0 0 1 .957-.106c.123.056.235.139.33.243.095.104.17.228.221.365.051.137.078.283.078.431Zm3.689 6.399a1.22 1.22 0 0 1-.169.628c-.112.187-.27.332-.457.419a.927.927 0 0 1-.589.066.99.99 0 0 1-.522-.308 1.17 1.17 0 0 1-.28-.578 1.25 1.25 0 0 1 .056-.653c.077-.206.208-.383.376-.507a.946.946 0 0 1 1.286.136c.095.105.17.229.221.365.052.137.078.284.078.432Zm-7.586 4.307c0 .223-.06.442-.172.628a1.05 1.05 0 0 1-.458.415.923.923 0 0 1-.59.064.99.99 0 0 1-.521-.311 1.17 1.17 0 0 1-.278-.579 1.243 1.243 0 0 1 .06-.653c.078-.206.21-.382.377-.505a.946.946 0 0 1 1.287.143 1.168 1.168 0 0 1 .295.798Zm-4.921 7.079c.001.224-.058.443-.17.629-.11.187-.27.332-.456.418a.93.93 0 0 1-.59.066.997.997 0 0 1-.523-.309 1.175 1.175 0 0 1-.28-.58 1.242 1.242 0 0 1 .06-.653c.078-.207.21-.383.377-.507a.954.954 0 0 1 .568-.188.97.97 0 0 1 .717.329c.19.211.297.497.297.795Zm12.053-1.198c.001.224-.059.444-.171.631a1.052 1.052 0 0 1-.46.418.932.932 0 0 1-.593.062.997.997 0 0 1-.522-.316 1.173 1.173 0 0 1-.275-.585 1.24 1.24 0 0 1 .068-.655c.08-.206.215-.381.385-.502a.948.948 0 0 1 1.278.159c.186.211.29.493.29.788Zm-19.721 6.367c0 .223-.06.442-.172.627a1.047 1.047 0 0 1-.458.416.93.93 0 0 1-.59.064.997.997 0 0 1-.52-.311 1.17 1.17 0 0 1-.279-.579 1.243 1.243 0 0 1 .06-.653 1.12 1.12 0 0 1 .378-.506.952.952 0 0 1 .956-.101c.124.056.236.14.33.245.094.105.169.229.22.366.05.137.076.284.075.432Zm4.24-17.658c0 .224-.06.442-.172.628a1.047 1.047 0 0 1-.458.416.929.929 0 0 1-.59.063.995.995 0 0 1-.521-.31 1.173 1.173 0 0 1-.278-.58 1.24 1.24 0 0 1 .06-.652c.078-.207.21-.383.377-.506a.942.942 0 0 1 .957-.102c.123.057.235.141.33.245.094.105.168.23.219.367.05.137.076.283.076.431Zm-3.419 8.203c0 .223-.06.442-.172.627a1.045 1.045 0 0 1-.457.416.92.92 0 0 1-.589.064.988.988 0 0 1-.521-.309 1.172 1.172 0 0 1-.28-.578 1.256 1.256 0 0 1 .059-.652c.077-.206.208-.383.375-.507a.95.95 0 0 1 .566-.19c.27 0 .53.119.72.331.192.211.299.499.299.798ZM94.23 86.542c0 .224-.06.442-.173.628-.112.186-.272.33-.458.416a.927.927 0 0 1-.59.063.993.993 0 0 1-.52-.31 1.172 1.172 0 0 1-.279-.58 1.242 1.242 0 0 1 .06-.653 1.11 1.11 0 0 1 .378-.505.949.949 0 0 1 .956-.102c.124.057.236.14.33.245.094.105.169.23.22.367.05.136.076.283.075.431Zm-6.341 9c0 .223-.06.442-.172.627a1.05 1.05 0 0 1-.457.416.927.927 0 0 1-.589.064.993.993 0 0 1-.521-.309 1.171 1.171 0 0 1-.28-.578 1.246 1.246 0 0 1 .059-.652 1.11 1.11 0 0 1 .375-.507.95.95 0 0 1 .957-.105c.124.056.236.14.33.244.096.105.17.23.222.367.05.138.076.285.076.433Zm-6.07-7.143c0 .223-.06.441-.172.627-.112.186-.27.33-.457.416a.927.927 0 0 1-.589.064.993.993 0 0 1-.521-.309 1.171 1.171 0 0 1-.28-.578 1.256 1.256 0 0 1 .059-.652c.077-.207.208-.383.375-.507a.95.95 0 0 1 .566-.19c.27 0 .53.119.72.33.192.212.299.5.299.799Zm-25.071 17.438c0 .223-.058.442-.17.628a1.05 1.05 0 0 1-.456.419.928.928 0 0 1-.589.066.99.99 0 0 1-.523-.308 1.165 1.165 0 0 1-.28-.578 1.24 1.24 0 0 1 .057-.653c.077-.206.208-.383.375-.507a.946.946 0 0 1 .567-.191c.269.002.526.12.717.33.19.211.3.496.302.794Zm4.712-14.255c0 .224-.06.442-.171.628-.113.186-.272.33-.459.416a.927.927 0 0 1-.589.063.993.993 0 0 1-.521-.31 1.172 1.172 0 0 1-.278-.58 1.243 1.243 0 0 1 .06-.652 1.11 1.11 0 0 1 .377-.506.948.948 0 0 1 1.286.143c.095.105.17.23.22.367.05.137.076.283.076.431Zm9.04 15.849c.001.224-.058.443-.17.629a1.05 1.05 0 0 1-.455.418.929.929 0 0 1-.59.067.99.99 0 0 1-.522-.308 1.173 1.173 0 0 1-.28-.578c-.04-.219-.02-.447.057-.653.076-.207.207-.383.375-.508a.95.95 0 0 1 .566-.19c.27 0 .528.118.72.328.19.211.298.497.3.795Zm6.196-5.265c0 .224-.058.443-.17.629-.112.187-.27.332-.457.419a.93.93 0 0 1-.59.065.99.99 0 0 1-.523-.309 1.17 1.17 0 0 1-.279-.58 1.242 1.242 0 0 1 .06-.653c.077-.207.208-.383.377-.506a.948.948 0 0 1 .568-.189.976.976 0 0 1 .715.331 1.2 1.2 0 0 1 .299.793Zm-12.367-1.22c0 .224-.06.442-.172.628-.112.186-.272.33-.458.416a.929.929 0 0 1-.59.063.995.995 0 0 1-.521-.31 1.178 1.178 0 0 1-.278-.58 1.245 1.245 0 0 1 .06-.653 1.11 1.11 0 0 1 .378-.505.948.948 0 0 1 1.286.143 1.173 1.173 0 0 1 .295.798Zm5.288-7.448c0 .224-.06.442-.172.628a1.05 1.05 0 0 1-.459.416.927.927 0 0 1-.589.063.993.993 0 0 1-.522-.31 1.173 1.173 0 0 1-.277-.58 1.243 1.243 0 0 1 .06-.653 1.11 1.11 0 0 1 .377-.505.949.949 0 0 1 .957-.102c.123.057.235.14.33.245.093.105.168.23.219.367.05.137.076.283.076.431Z"/>
  <path fill="#3654B6" d="M65.333 158.541c-2.1 0-4.192-.252-6.243-.749-4.26-1.038-7.596-2.563-10.14-4.65a29.435 29.435 0 0 1-9.876 1.985c-10.952.327-20.865-3.467-33.02-14.366a79.247 79.247 0 0 1-1.767-4.597c11.7 10.493 24.366 16.588 34.724 16.299a27.52 27.52 0 0 0 7.809-1.375c-2.825-3.264-4.25-7.529-4.23-12.708 0-5.677 2.201-8.251 4.027-9.407 2.583-1.643 6.118-1.418 9.218.583 3.419 2.21 5.452 5.945 5.437 9.995a11.946 11.946 0 0 1-1.062 4.778 10.802 10.802 0 0 1-2.84 3.784 29.267 29.267 0 0 1-5.74 3.825c5.828 3.544 12.59 4.725 19.121 3.339 10.29-2.263 18.886-6.308 25.545-12.023 5.212-4.438 9.398-10.186 12.212-16.769 2.814-6.582 4.176-13.812 3.974-21.092v-.049c-.594-13.189-7.542-26.073-17.712-32.826-8.817-5.86-20.117-7.464-31.812-4.521-7.268 1.83-17.157 6.169-22.986 16.458-6.277 11.087-4.578 24.844.604 31.238 3.694 4.564 10.773 2.916 16.466 1.605l1.874-.428c6.118-1.349 30.943-14.249 31.04-14.287l.526 2.194c-.4.155-24.81 13.324-31.098 14.709a93.09 93.09 0 0 0-1.85.423c-6.277 1.461-14.128 3.28-18.75-2.424-3.341-4.131-5.2-10.091-5.234-16.785-.037-6.221 1.48-12.333 4.385-17.657 6.277-11.06 16.78-15.7 24.491-17.658 12.3-3.092 24.227-1.38 33.58 4.816 10.817 7.224 18.205 20.959 18.862 34.988.053.717.7 10.948-4.24 22.527-2.965 6.935-7.378 12.988-12.874 17.657-6.958 5.971-15.887 10.166-26.558 12.531-1.93.425-3.894.639-5.863.637Zm-14.829-27.989a4.991 4.991 0 0 0-2.694.743c-1.83 1.161-2.801 3.617-2.816 7.106 0 4.992 1.396 8.85 4.346 11.718a26.821 26.821 0 0 0 6.548-4.12 8.165 8.165 0 0 0 2.151-2.847 9.038 9.038 0 0 0 .819-3.601c0-3.087-1.574-5.955-4.245-7.678a7.685 7.685 0 0 0-4.109-1.321Z"/>
  <path fill="#7287CC" d="M50.871 154.523a2.707 2.707 0 0 1-.903-.487 16.76 16.76 0 0 1-1.956-1.605 16.137 16.137 0 0 1-1.743-1.873 2.935 2.935 0 0 1-.565-.926c.03 0 .256.321.69.803a31.034 31.034 0 0 0 1.768 1.792 28.604 28.604 0 0 0 1.898 1.637c.284.198.555.418.811.659Zm2.53-1.563a2.686 2.686 0 0 1-1.086-.305 8.986 8.986 0 0 1-2.318-1.535 12.322 12.322 0 0 1-1.888-2.14 4.029 4.029 0 0 1-.59-1.071c.03 0 .271.364.72.937a15.559 15.559 0 0 0 1.932 2.044 10.95 10.95 0 0 0 2.236 1.573c.589.342 1.004.455.994.497Z"/>
  <path fill="#fff" d="M43.763 143.741a1.457 1.457 0 0 1-.155-.433 13.305 13.305 0 0 1-.28-1.231 17.503 17.503 0 0 1 .527-8.261c.122-.4.265-.791.43-1.172.05-.146.118-.283.202-.407.039 0-.198.626-.483 1.637a20.686 20.686 0 0 0-.68 4.056 20.513 20.513 0 0 0 .164 4.115c.154 1.049.313 1.685.275 1.696Zm-6.012 9.578a3.848 3.848 0 0 1-1.164.225 11.571 11.571 0 0 1-5.606-.883 4.189 4.189 0 0 1-1.062-.573c.38.105.755.238 1.12.396.89.323 1.805.559 2.733.706.93.144 1.868.2 2.806.166.39-.038.781-.051 1.173-.037Zm66.575-17.748a6.506 6.506 0 0 1-.705 1.166 27.225 27.225 0 0 1-4.259 4.842 5.557 5.557 0 0 1-1.033.808c.283-.334.588-.645.913-.931a49.257 49.257 0 0 0 2.197-2.317c.83-.936 1.535-1.84 2.037-2.498.26-.38.544-.737.85-1.07ZM35.453 108.33a3.829 3.829 0 0 1-.247-.712 20.451 20.451 0 0 1-.483-1.995 28.762 28.762 0 0 1-.483-3.029 30.283 30.283 0 0 1 .18-7.518c.152-1.013.358-2.015.617-3.001.171-.666.373-1.321.604-1.964.071-.242.165-.475.28-.696-.047.25-.111.495-.193.733-.145.46-.329 1.135-.527 1.975a31.585 31.585 0 0 0-.565 2.99 36.679 36.679 0 0 0-.304 3.746 34.178 34.178 0 0 0 .13 3.746c.092 1.013.233 2.021.42 3.018.16.85.31 1.535.43 2.001.064.231.11.467.14.706Zm2.917-24.02c-.122.51-.32.993-.585 1.43a4.828 4.828 0 0 1-.797 1.3c.124-.51.323-.992.59-1.429.2-.477.467-.916.791-1.3Z"/>
  <path fill="#000" d="M96.827 60.714c-.575 1.017-.082 2.36.56 3.323.642.963 1.449 1.889 1.594 3.077.169 1.632-1.077 3.06-2.415 3.745a2.58 2.58 0 0 0-1.14.787c-.376.578-.221 1.37-.236 2.081a3.735 3.735 0 0 1-.439 1.73 3.289 3.289 0 0 1-1.164 1.25 2.377 2.377 0 0 1-1.593.28 2.52 2.52 0 0 1-1.435-.815 4.36 4.36 0 0 1-.782-1.926 9.68 9.68 0 0 1 .055-4.019 9.13 9.13 0 0 1 1.669-3.568c.816-.995 1.844-1.745 2.738-2.676.893-.93 1.67-2.086 1.748-3.43m.676-12.017c-.671-1.915-2.414-3.098-4.182-3.777a10.747 10.747 0 0 0-7.847-.188c-3.68 1.477-6.152 5.276-8.054 9.065-.826 1.647-1.753 3.488-3.38 4.04-.87.288-1.802.154-2.705.267-1.406.177-2.698.942-3.612 2.14-1.081 1.455-1.641 3.548-3.196 4.313-1.005.492-2.159.283-3.255.32-2.284.081-4.689 1.606-5.19 4.073-.334 1.605.168 3.413-.484 4.885-.241.535-.628.984-.86 1.525a3.05 3.05 0 0 0-.186 1.758c.113.593.397 1.129.81 1.526.413.397.932.633 1.478.673a2.32 2.32 0 0 0 1.544-.453 6.584 6.584 0 0 1 1-.76c.792-.368 1.695.118 2.386.686.69.567 1.37 1.262 2.226 1.37 1.748.213 3.104-2.14 4.862-1.991.966.075 1.763.893 2.608 1.455 1.477.985 2.221.102 3.472-1.209 1.25-1.31 1.931 4.211 4.829 2.772 2.694-1.349.029-6.459 1.014-6.34.985.117 3.573-.06 4.123-.975"/>
  <path fill="#000" d="M97 54.24c.355-1.086.47-2.25.338-3.396a7.752 7.752 0 0 0-1.1-3.19c-.949-1.394-2.225-2.472-3.69-3.115a8.405 8.405 0 0 0-6.156-.631c-2.018.653-3.79 2.445-4.24 4.72-.203 1.032-.145 2.14-.55 3.097a2.48 2.48 0 0 0-.377 1.29 1.1 1.1 0 0 0 .274.541.936.936 0 0 0 .499.283c.375.074.762.037 1.12-.107a11.513 11.513 0 0 0 3.38-2.082"/>
  <path fill="#FFBF9D" d="M90.284 74.412c.227-1.975.31-2.782.31-2.766 0 .016 3.828-.22 5.161-5.554.666-2.676.995-7.1 1.164-10.75.145-3.28-1.396-7.528-4.346-7.55l-9.416 1.413a1.641 1.641 0 0 0-1.18.495 2.002 2.002 0 0 0-.564 1.25l-1.487 23.756s4.25 5.576 7.939 4.816c3.689-.76 2.419-5.11 2.419-5.11Z"/>
  <path fill="#000" d="M95.345 59.002a.726.726 0 0 1-.224.465.593.593 0 0 1-.452.16.556.556 0 0 1-.235-.06.61.61 0 0 1-.194-.157.688.688 0 0 1-.123-.23.736.736 0 0 1-.033-.264.726.726 0 0 1 .224-.465.593.593 0 0 1 .452-.16.557.557 0 0 1 .235.06.61.61 0 0 1 .194.158.688.688 0 0 1 .123.229.734.734 0 0 1 .033.264Zm.468-1.461c-.087.08-.522-.369-1.202-.454-.681-.086-1.212.23-1.275.128-.063-.102.067-.198.3-.348.316-.185.677-.26 1.033-.214.352.042.682.209.941.476.193.204.251.375.203.412Zm-6.649.749a.732.732 0 0 1-.225.47.598.598 0 0 1-.456.162.56.56 0 0 1-.234-.063.616.616 0 0 1-.193-.157.691.691 0 0 1-.123-.228.743.743 0 0 1-.035-.264.726.726 0 0 1 .226-.467.593.593 0 0 1 .455-.159c.081.003.16.023.234.06a.61.61 0 0 1 .193.157.686.686 0 0 1 .124.227.736.736 0 0 1 .034.262Zm-.02-1.45c-.087.086-.521-.369-1.197-.449-.676-.08-1.212.23-1.28.128-.067-.101.068-.197.3-.347.317-.186.677-.26 1.033-.214.359.039.697.204.966.47.169.204.222.38.178.413Zm1.888 5.875c.369-.082.746-.11 1.12-.085.18 0 .344 0 .387-.14.035-.196.014-.4-.058-.582-.116-.482-.236-.99-.362-1.525a27.815 27.815 0 0 1-.758-3.955c.082 0 .545 1.713 1.043 3.88.12.535.232 1.043.343 1.53.084.245.084.515 0 .76a.471.471 0 0 1-.13.162.414.414 0 0 1-.18.084c-.099.01-.2.01-.299 0a4.165 4.165 0 0 1-1.106-.129Z"/>
  <path fill="#FFBF9D" d="M90.593 71.646c-2.314-.25-4.519-1.207-6.37-2.767 0 0 1.266 3.97 6.225 4.078l.145-1.311Zm-.043-7.16a1.288 1.288 0 0 0-.444-.47 1.13 1.13 0 0 0-1.036-.083c-.14.063-.268.156-.375.275a.8.8 0 0 0-.2.416.847.847 0 0 0 .055.467.84.84 0 0 0 .38.328c.153.065.32.077.48.036.332-.086.646-.244.922-.466a.675.675 0 0 0 .218-.198.28.28 0 0 0 .029-.278"/>
  <path fill="#000" d="M89.468 54.122c-.087.193-.753 0-1.555 0-.801 0-1.449.166-1.56-.026-.038-.097.092-.273.372-.44.37-.2.776-.304 1.188-.304.412 0 .818.104 1.188.305.275.192.406.369.367.465Zm6.485.118c-.135.155-.584-.08-1.144-.16-.56-.08-1.048 0-1.14-.204-.039-.096.053-.257.28-.39.298-.158.631-.214.958-.161.326.052.632.21.877.455.184.192.232.38.17.46Z"/>
  <path fill="#FFBF9D" d="M81.858 60.227c.038-.406-.285-1.412-.638-1.52-.966-.288-2.694-.422-2.984 2.29-.406 3.698 3.032 3.382 3.052 3.28.02-.1.43-2.653.57-4.05Z"/>
  <path fill="#FFBF9D" d="M80.41 62.737s-.064.037-.17.075a.524.524 0 0 1-.434-.048 1.61 1.61 0 0 1-.442-.683 1.769 1.769 0 0 1-.07-.837c.026-.32.117-.629.265-.904a.735.735 0 0 1 .193-.283.64.64 0 0 1 .29-.15.271.271 0 0 1 .198.044c.06.04.104.102.126.175.033.112 0 .182 0 .187 0 .005.077-.048.067-.209a.41.41 0 0 0-.106-.246.42.42 0 0 0-.142-.105.385.385 0 0 0-.167-.034.774.774 0 0 0-.394.15.89.89 0 0 0-.277.342 2.35 2.35 0 0 0-.314 1.006c-.058.75.207 1.493.676 1.712a.562.562 0 0 0 .54-.026c.16-.075.16-.155.16-.166Z"/>
  <path fill="#000" d="M93.085 47.21a5.208 5.208 0 0 1-1.276 2.298 4.467 4.467 0 0 1-2.158 1.254c-.864.198-1.883.166-2.448.915-.565.75-.381 1.98-.927 2.772-.758 1.102-2.545.856-3.148 2.065-.261.535-.203 1.199-.483 1.723a1.578 1.578 0 0 1-.867.692c-.353.111-.73.08-1.065-.087a2.558 2.558 0 0 1-.84-.748 2.888 2.888 0 0 1-.478-1.072 8.28 8.28 0 0 1-.16-2.391c-.003-1.586.25-3.159.75-4.645 1.168-3.05 5.654-6.956 8.604-6.42m7.861 18.256c.763-1 1.488-2.14 2.255-3.12.768-.979 1.473-1.969 1.565-3.21a5.573 5.573 0 0 0-.816-2.954 37.208 37.208 0 0 0-3.182-4.815 4.6 4.6 0 0 0-.894-.974 2.025 2.025 0 0 0-1.009-.375 1.126 1.126 0 0 0-.84.225.743.743 0 0 0-.255.385.82.82 0 0 0 .009.476c.155.25.379.437.637.535 1.39.787 2.284 2.398 2.68 4.072.396 1.675.285 3.291.251 5.025-.029 1.353-.193 2.793-.319 4.04"/>
  <path fill="#000" d="M88.618 43.672a9.244 9.244 0 0 0-5.15.8c-1.626.758-3.044 1.973-4.117 3.524-1.163 1.733-2.023 3.991-3.863 4.719-1.501.594-3.187-.07-4.76.24-.707.146-1.37.48-1.934.974a4.85 4.85 0 0 0-1.297 1.863c-.45 1.166-.483 2.568-1.29 3.488-1.033 1.215-2.897 1.07-3.974 2.274-.869.985-.898 2.569-.55 3.896.096.567.391 1.07.82 1.396.416.2.88.24 1.319.113a14.153 14.153 0 0 0 4.307-1.89c3.076-1.83 6.036-3.89 8.996-5.944a18.754 18.754 0 0 0 3.864-3.248c1.448-1.744 2.293-3.975 3.307-6.067 1.014-2.093 2.313-4.158 4.254-5.148"/>
  <path fill="#3654B6" d="M55.444 78.955a.419.419 0 0 1-.135-.048 1.458 1.458 0 0 1-.372-.204 2.684 2.684 0 0 1-.913-1.418 3.637 3.637 0 0 1-.111-1.393c.053-.468.197-.918.42-1.32.627-1.04 1.55-1.818 2.622-2.21a23.225 23.225 0 0 1 3.921-.952 8.615 8.615 0 0 0 2.106-.717 4.311 4.311 0 0 0 1.856-1.593 5 5 0 0 0 .8-2.446c.084-.96.229-1.91.434-2.847a7.57 7.57 0 0 1 1.344-2.667 6.707 6.707 0 0 1 2.21-1.828 5.766 5.766 0 0 1 2.733-.652c.923 0 1.816.182 2.685.246a5.42 5.42 0 0 0 2.511-.294c.383-.15.736-.384 1.038-.685.288-.312.528-.673.71-1.07.382-.771.633-1.606 1.048-2.355a5.692 5.692 0 0 1 1.598-1.77 12.21 12.21 0 0 1 3.743-1.606 21.21 21.21 0 0 0 3.158-1.07 7.782 7.782 0 0 0 2.134-1.375 5.134 5.134 0 0 0 1-1.322c.178-.342.246-.535.26-.535a3.72 3.72 0 0 1-.217.535 4.779 4.779 0 0 1-.966 1.37 7.567 7.567 0 0 1-2.144 1.434 20.232 20.232 0 0 1-3.162 1.07 12.198 12.198 0 0 0-3.675 1.605 5.377 5.377 0 0 0-1.53 1.707c-.402.706-.643 1.546-1.034 2.349a4.18 4.18 0 0 1-.754 1.118 3.23 3.23 0 0 1-1.105.739 5.598 5.598 0 0 1-2.608.315c-.889-.064-1.772-.23-2.67-.24a5.523 5.523 0 0 0-2.632.631 6.459 6.459 0 0 0-2.133 1.756 7.29 7.29 0 0 0-1.3 2.567 23.295 23.295 0 0 0-.435 2.815 5.895 5.895 0 0 1-.884 2.606 5.02 5.02 0 0 1-1.907 1.605 8.523 8.523 0 0 1-2.154.722c-1.32.194-2.624.5-3.901.915-1.047.377-1.949 1.13-2.565 2.14a3.437 3.437 0 0 0-.413 1.265c-.056.449-.025.906.09 1.341.14.558.44 1.05.855 1.402.142.13.29.252.444.364Z"/>
  <path fill="#000" d="M55.743 67.585a1.4 1.4 0 0 1 .338-.364c.38-.287.83-.442 1.29-.444.72 0 1.435.133 2.115.396.421.146.852.255 1.289.326.487.09.986.036 1.449-.155.493-.236.92-.615 1.236-1.097a6.364 6.364 0 0 0 .801-1.723c.208-.637.367-1.322.585-2.012a14.08 14.08 0 0 1 .835-2.07c.672-1.47 1.745-2.666 3.066-3.42a5.199 5.199 0 0 1 2.284-.535c.787-.026 1.575.032 2.362-.048a3.293 3.293 0 0 0 2.095-.92c.526-.6.95-1.3 1.251-2.066.306-.76.692-1.479 1.15-2.14a5.589 5.589 0 0 1 1.704-1.471 9.894 9.894 0 0 1 3.834-1.07c1.231-.134 2.38-.182 3.414-.348a8.4 8.4 0 0 0 2.69-.84 5.938 5.938 0 0 0 1.724-1.349c.313-.352.572-.759.767-1.203.136-.305.189-.482.198-.477a2.628 2.628 0 0 1-.154.498 4.45 4.45 0 0 1-.744 1.252 5.868 5.868 0 0 1-1.733 1.407 8.312 8.312 0 0 1-2.724.894c-1.043.182-2.197.24-3.419.38a9.807 9.807 0 0 0-3.752 1.07 5.319 5.319 0 0 0-1.632 1.418 10.49 10.49 0 0 0-1.115 2.087 7.224 7.224 0 0 1-1.3 2.14 3.516 3.516 0 0 1-2.23.99c-.816.08-1.608 0-2.38.048a4.939 4.939 0 0 0-2.193.503c-1.278.73-2.318 1.884-2.975 3.301-.323.65-.6 1.329-.825 2.028-.222.68-.382 1.364-.6 2.012-.4 1.29-1.124 2.472-2.158 2.916a2.727 2.727 0 0 1-1.516.15 7.911 7.911 0 0 1-1.304-.348 5.898 5.898 0 0 0-2.076-.439 2.24 2.24 0 0 0-1.27.386c-.266.203-.367.369-.377.337Z"/>
  <path fill="#7287CC" d="M70.438 78.853s.077 0 .202-.101a.96.96 0 0 0 .377-.535c.055-.18.07-.37.042-.557a1.23 1.23 0 0 0-.197-.514 2.592 2.592 0 0 0-1.047-.893 5.144 5.144 0 0 1-1.45-.936 3.375 3.375 0 0 1-.81-1.97 4.43 4.43 0 0 1 .434-2.338 5.075 5.075 0 0 1 1.608-1.84 10.53 10.53 0 0 1 4.182-1.557 16.521 16.521 0 0 0 3.458-.958 6.139 6.139 0 0 0 2.023-1.391c.41-.44.574-.739.594-.723.019.016-.03.08-.111.22a4.045 4.045 0 0 1-.416.572 5.975 5.975 0 0 1-2.023 1.493 15.697 15.697 0 0 1-3.481 1.022c-1.319.289-2.801.61-4.095 1.54a4.894 4.894 0 0 0-1.536 1.745 4.232 4.232 0 0 0-.42 2.194c.046.686.305 1.333.734 1.83.42.39.892.704 1.4.931.436.21.812.55 1.087.98a1.39 1.39 0 0 1 .13 1.156.954.954 0 0 1-.44.534.413.413 0 0 1-.246.096Z"/>
  <path fill="#FFBF9D" d="M76.502 106.773s-.555-.669-.371-1.289c.183-.621.511-1.071.651-1.028.14.043.092-3.349.652-3.606a7.49 7.49 0 0 1 1.208-.412s.651-1.851 1.023-1.803c.372.048 4.506.877 4.506.877s3.254 3.863 3.066 4.222c-.188.358-.372.77-.884.567a5.652 5.652 0 0 1-1-.567l1.734 2.103s-.333 1.605-1.753.471l.696.979s-.42 2.012-2.463.31l-2.09-1.391h-1.348l3.066 2.076s.324 1.022-.603 1.017c-.927-.006-3.265-1.37-3.265-1.37s-1.39.909-1.859.909c-.468 0-.594-.572-.594-.572l-.371-1.493Z"/>
  <path fill="#FFBF9D" d="M85.412 106.42a8.231 8.231 0 0 1-.72-.685 16.25 16.25 0 0 1-1.7-1.707 1.474 1.474 0 0 0-.471-.387 1.34 1.34 0 0 0-.572-.148 6.437 6.437 0 0 0-1.009.07c-.32.076-.653.06-.966-.048 0-.038.363 0 .932-.134a4.97 4.97 0 0 1 1.043-.134c.217.003.432.05.633.139.217.098.411.248.57.439.594.738 1.222 1.289 1.642 1.76.253.231.463.514.618.835Zm1.675-.583a6.247 6.247 0 0 1-.845-.915 105.852 105.852 0 0 0-1.999-2.248c-.4-.422-.772-.856-1.135-1.171a1.97 1.97 0 0 0-1.134-.455c-.715-.054-1.169 0-1.174 0a.894.894 0 0 1 .31-.091 4.48 4.48 0 0 1 .873-.07c.45.004.888.159 1.256.444.41.371.802.765 1.173 1.183a29.552 29.552 0 0 1 1.932 2.306c.28.308.53.649.743 1.017Z"/>
  <path fill="#000" d="M88.555 63.39c.126-.059.41.433.85.925.44.493.874.82.821.958-.053.14-.647 0-1.159-.588-.512-.589-.632-1.252-.512-1.295Z"/>
  <path fill="#3654B6" d="m124.197 106.292-4.293-24.453a1.846 1.846 0 0 0-.711-1.129 1.526 1.526 0 0 0-1.22-.263c-.422.09-.795.36-1.041.75a1.999 1.999 0 0 0-.278 1.343l.198 1.113-8.88 2.418a5.754 5.754 0 0 0-2.535 1.48 6.632 6.632 0 0 0-1.613 2.624l-5.355 1.461c-.891.243-1.659.868-2.134 1.738a4.195 4.195 0 0 0-.401 2.901l.483 2.14-5.24 1.434a2.612 2.612 0 0 0-.962.5 2.93 2.93 0 0 0-.716.869 3.23 3.23 0 0 0-.362 1.107c-.053.392-.037.791.048 1.176.086.385.24.747.451 1.066.212.319.479.589.785.794.306.205.645.341.999.401a2.47 2.47 0 0 0 1.061-.054l5.244-1.428.372 1.674c.22.988.784 1.838 1.569 2.365a3.175 3.175 0 0 0 2.618.445l5.451-1.488v-.048a5.735 5.735 0 0 0 2.479 1.397 5.36 5.36 0 0 0 2.78-.011l7.881-2.141.091.536c.096.464.352.869.712 1.128.36.26.798.354 1.219.263.422-.091.796-.36 1.042-.75a1.99 1.99 0 0 0 .277-1.342l-.019-.016Z"/>
  <path fill="#7287CC" d="M124.197 106.292c.034.134.048.273.043.412a1.958 1.958 0 0 1-.376 1.134c-.196.259-.45.455-.737.568a1.549 1.549 0 0 1-.895.074 1.641 1.641 0 0 1-.785-.445 1.903 1.903 0 0 1-.476-.823c-.062-.236-.091-.476-.14-.723l.063.043-5.795 1.605-1.733.482a6.107 6.107 0 0 1-1.888.289c-1.398-.03-2.743-.597-3.805-1.605l.145-.102v.043l.024.102h-.092c-1.84.497-3.767 1.07-5.838 1.578a3.25 3.25 0 0 1-1.64-.191c-.525-.205-1-.542-1.388-.986a4.004 4.004 0 0 1-.855-1.632c-.15-.61-.275-1.22-.415-1.835l.13.091-4.423 1.236c-.381.091-.743.219-1.154.289a2.586 2.586 0 0 1-1.531-.268 2.932 2.932 0 0 1-1.175-1.122 3.374 3.374 0 0 1-.465-1.639 3.403 3.403 0 0 1 .385-1.664c.224-.409.525-.758.882-1.025a2.816 2.816 0 0 1 1.19-.521l4.935-1.343-.087.155a163.25 163.25 0 0 0-.304-1.37 9.78 9.78 0 0 1-.266-1.46 4.25 4.25 0 0 1 .816-2.815c.288-.386.64-.708 1.038-.947a4.433 4.433 0 0 1 1.256-.482l4.954-1.348-.077.08c.472-1.4 1.35-2.587 2.496-3.376a5.853 5.853 0 0 1 1.806-.819l1.835-.503 6.973-1.889-.077.134c-.053-.289-.101-.583-.155-.872a2.72 2.72 0 0 1-.053-.904c.044-.3.15-.583.31-.83.16-.245.369-.446.612-.585.243-.14.511-.215.785-.22a1.62 1.62 0 0 1 .79.195c.241.122.453.304.62.531.168.227.286.494.346.78l1.057 6.052 1.705 9.861c.473 2.745.835 4.885 1.091 6.368.121.727.212 1.289.275 1.68.029.187.053.326.068.433.004.05.004.1 0 .15a.711.711 0 0 1-.034-.145c0-.107-.048-.246-.082-.428l-.314-1.68c-.266-1.477-.652-3.628-1.144-6.351-.493-2.724-1.077-6.057-1.753-9.85l-1.077-6.042a1.779 1.779 0 0 0-.305-.688 1.573 1.573 0 0 0-.545-.473 1.42 1.42 0 0 0-1.391.035 1.618 1.618 0 0 0-.536.525c-.139.219-.23.47-.265.735-.034.277-.018.56.048.83.053.288.106.577.155.872v.107l-.097.026-6.968 1.91c-1.202.37-2.497.536-3.573 1.29-1.108.759-1.957 1.903-2.415 3.253l-.024.065h-.058l-4.954 1.353c-.417.088-.82.241-1.198.455a3.481 3.481 0 0 0-.966.883 3.95 3.95 0 0 0-.763 2.627c.05.48.137.955.261 1.418.102.471.208.931.304 1.375l.03.123-.117.032-4.906 1.344a2.557 2.557 0 0 0-1.11.47 2.903 2.903 0 0 0-.821.953 3.123 3.123 0 0 0-.341 1.519 3.09 3.09 0 0 0 .429 1.493c.264.443.635.797 1.07 1.021.436.224.92.31 1.396.247.367-.053.754-.187 1.13-.283l4.419-1.199.106-.027.024.113c.14.615.266 1.236.41 1.83a3.77 3.77 0 0 0 .802 1.535c.364.419.811.738 1.305.932a3.079 3.079 0 0 0 1.544.187c2.033-.503 3.994-1.07 5.824-1.557l-.063.123v-.043l-.068-.305.213.203c1.031.979 2.337 1.529 3.694 1.557a5.905 5.905 0 0 0 1.844-.278l1.734-.465 5.795-1.558h.053v.059c.048.246.077.498.135.717.058.216.153.418.28.594.236.318.56.54.922.632.232.052.471.049.701-.01a1.58 1.58 0 0 0 .633-.334 1.79 1.79 0 0 0 .449-.597c.109-.233.171-.488.183-.75a4.868 4.868 0 0 0-.01-.401Z"/>
  <path fill="#7287CC" d="M121.049 106.42c-.063 0-1.097-5.062-2.309-11.333-1.212-6.27-2.148-11.375-2.081-11.391.068-.016 1.096 5.056 2.313 11.332 1.217 6.277 2.144 11.376 2.077 11.392Zm-13.333.792c-.063 0-.966-3.794-2.057-8.508-1.091-4.713-1.888-8.56-1.825-8.56.063 0 .965 3.793 2.057 8.518 1.091 4.724 1.888 8.55 1.825 8.55Zm-10-2.932a14.352 14.352 0 0 1-.768-2.89 27.024 27.024 0 0 1-.531-2.953c.351.93.607 1.901.763 2.894.231.971.41 1.955.536 2.949Z"/>
  <path fill="#fff" d="M102.477 91.583c0 .037-.517.123-1.347.315-.416.097-.908.22-1.45.386a6.907 6.907 0 0 0-1.67.727c-.536.27-.959.756-1.183 1.36a4.378 4.378 0 0 0-.029 1.605c.106.925.246 1.492.213 1.503a5.316 5.316 0 0 1-.382-1.477 4.377 4.377 0 0 1 0-1.69 1.98 1.98 0 0 1 .483-.883c.236-.251.5-.467.787-.642a6.444 6.444 0 0 1 1.729-.739c.55-.155 1.052-.257 1.448-.332.46-.113.931-.158 1.401-.133Zm12.7-6.491c-.145.078-.3.13-.459.155-.295.08-.729.193-1.265.321l-4.182.974a8.295 8.295 0 0 0-2.183.846 4.682 4.682 0 0 0-1.448 1.316 4.607 4.607 0 0 0-.72 1.744 1.34 1.34 0 0 1 .034-.535c.106-.478.298-.927.565-1.322a4.7 4.7 0 0 1 1.473-1.412 7.816 7.816 0 0 1 2.236-.894c1.641-.39 3.124-.68 4.205-.899a45.68 45.68 0 0 1 1.28-.24 1.91 1.91 0 0 1 .464-.054ZM95.5 99.77c-.28.21-.599.35-.933.411-.603.182-1.448.257-2.361.471-.422.095-.83.253-1.212.471a3.1 3.1 0 0 0-.826.696c-.205.28-.381.585-.526.909.021-.383.16-.746.396-1.027a3 3 0 0 1 .85-.792c.394-.25.82-.431 1.265-.535.932-.22 1.782-.262 2.376-.396.594-.134.956-.257.97-.209Zm23.294-18.84c0 .042-.179.037-.435.111a1.73 1.73 0 0 0-.845.578c-.217.29-.35.647-.382 1.022-.029.29 0 .482-.033.487-.034.006-.121-.166-.136-.492a1.854 1.854 0 0 1 .367-1.188 1.55 1.55 0 0 1 1-.588c.295-.038.468.037.464.07Z"/>
  <path fill="#7287CC" d="M189.145 77.323a.352.352 0 0 1-.087.064l-.275.166-1.067.615-3.96 2.242-13.289 7.416-.087.054-.063-.091c-.367-.584-.758-1.199-1.159-1.82l-1.646-2.59.154.038-12.386 7.925-3.689 2.332-1.004.616c-.107.064-.189.117-.261.155-.073.037-.092.054-.092.048 0-.005 0 0 .082-.07l.251-.176.966-.658 3.656-2.397 12.342-8 .092-.064.063.102c.531.824 1.086 1.701 1.656 2.584.396.626.787 1.242 1.159 1.82l-.15-.043 13.318-7.341 3.994-2.167 1.086-.578.28-.14.116-.042Zm-3.52 19.327a1.24 1.24 0 0 1-.261.08l-.763.187-2.83.664-9.469 2.033-.116.027v-.129l-.212-1.3a59.538 59.538 0 0 0-.136-.856l.136.107c-3.839.728-7.244 1.605-9.658 2.333-1.222.353-2.197.658-2.897.867l-.778.24a1.196 1.196 0 0 1-.275.065c.083-.049.171-.088.261-.118l.763-.284a67.98 67.98 0 0 1 2.858-.947 89.822 89.822 0 0 1 9.682-2.418h.116v.128l.14.856c.073.45.14.888.208 1.3l-.14-.106 9.484-1.954 2.839-.535.773-.139a.894.894 0 0 1 .275-.101Zm-32.373-18.573c.058.032-1.168 2.975-2.747 6.57-1.579 3.596-2.898 6.486-2.961 6.454-.062-.032 1.174-2.97 2.748-6.57 1.574-3.602 2.902-6.486 2.96-6.454Zm14.419 14.426c0 .07-3.037 1.118-6.823 2.344-3.786 1.225-6.876 2.14-6.891 2.092-.014-.048 3.033-1.119 6.823-2.344 3.791-1.225 6.872-2.162 6.891-2.092Zm-23.632-23.634c.082.17.148.35.198.535.125.396.289.92.483 1.562.42 1.38.99 3.285 1.666 5.527l.048.16h-.155l-3.771-.085.121-.155c.087.535.183 1.07.28 1.664.618 3.746 1.173 7.18 1.589 9.696.188 1.214.342 2.21.453 2.943.044.32.083.588.111.802.02.093.029.188.025.284a1.209 1.209 0 0 1-.073-.273c-.038-.214-.092-.476-.154-.797l-.527-2.927c-.429-2.51-1.014-5.918-1.661-9.685-.092-.567-.188-1.124-.275-1.659l-.029-.155h.145l3.771.107-.101.16-1.584-5.559a82.89 82.89 0 0 1-.43-1.605 4.718 4.718 0 0 1-.13-.54Zm-16.674 40.317c-.029-.064 2.414-1.402 5.471-2.985 3.057-1.584 5.543-2.815 5.572-2.751.029.065-2.414 1.408-5.471 2.991-3.056 1.584-5.543 2.81-5.572 2.745Zm11.386 3.879a26.706 26.706 0 0 1 2.086-2.985 27.616 27.616 0 0 1 2.275-2.815 25.976 25.976 0 0 1-2.091 2.986 26.615 26.615 0 0 1-2.27 2.814Zm6.138 18.375c-.063 0 .352-5.217.936-11.638.585-6.421 1.106-11.622 1.174-11.611.067.011-.358 5.217-.937 11.638-.579 6.421-1.106 11.616-1.173 11.611Zm-8.378-46.102c.44.684.813 1.418 1.115 2.189.373.73.674 1.504.898 2.306a12.594 12.594 0 0 1-1.11-2.189 12.87 12.87 0 0 1-.903-2.306Z"/>
</svg>
