<svg xmlns="http://www.w3.org/2000/svg" width="30" height="22" fill="none" viewBox="0 0 30 22">
  <path fill="#3654B6" fill-rule="evenodd" d="M1.825 17.02c5.336-1.516 9.002-.774 12.788-.008 3.893.788 7.912 1.601 14.001.013a.834.834 0 1 0-.421-1.614c-2.358.615-4.402.843-6.254.845l-2.418-3.896a3.741 3.741 0 0 0 6.657-2.453c-.102-3.347-4.204-4.848-6.463-2.447a3.737 3.737 0 0 0-.673 4.128l-3.31-5.332 4.912-1.416a2.467 2.467 0 0 0 1.47-3.573 2.458 2.458 0 0 0-2.84-1.169L11.84 2.243a3.024 3.024 0 0 0-1.733 4.502l2.248 3.62-1.903 1.18c-2.113 1.31-4.87 3.02-4.91 3.048-1.29.136-2.671.396-4.174.822a.834.834 0 1 0 .457 1.605ZM20.93 8.602a2.072 2.072 0 1 1 3.02 2.84 2.072 2.072 0 0 1-3.02-2.84Zm-9.405-2.737 2.687 4.33a.834.834 0 0 1-.269 1.148l-5.08 3.15c2.161.097 4.077.483 5.995.869 1.636.33 3.273.66 5.065.81L13.733 6.2a.834.834 0 0 1 .478-1.24l5.97-1.723a.8.8 0 1 0-.444-1.536l-7.435 2.145a1.357 1.357 0 0 0-.777 2.02Z" clip-rule="evenodd"/>
  <path fill="#3654B6" d="M28.193 19.302c-11.493 3-15.526-3.206-26.825.005a.834.834 0 1 0 .457 1.605c10.822-3.076 14.777 3.139 26.79.004a.834.834 0 1 0-.422-1.614Z"/>
</svg>
