<svg xmlns="http://www.w3.org/2000/svg" width="30" height="24" fill="none" viewBox="0 0 30 24">
  <path fill="#fff" d="M28.193 21.271c-11.493 3-15.526-3.206-26.825.005a.834.834 0 1 0 .457 1.604c10.822-3.075 14.777 3.14 26.79.005a.834.834 0 1 0-.422-1.614Zm0-3.897c-11.493 3-15.526-3.206-26.825.005a.834.834 0 1 0 .457 1.604c10.822-3.075 14.777 3.14 26.79.005a.834.834 0 1 0-.422-1.614Z"/>
  <path stroke="#fff" stroke-width="1.5" d="m9.524 17.524-2.518-2.938a.5.5 0 0 1 .41-.824l15.463.937a.5.5 0 0 1 .256.909l-4.302 3.011m.04-7.646.402-7.665c.061-1.176.092-1.763-.234-1.899-.327-.135-.72.303-1.508 1.178l-6.607 7.34c-.608.675-.912 1.013-.791 1.304.12.292.574.315 1.482.363l6.205.325c.47.025.706.037.86-.101.154-.139.166-.374.191-.845Z"/>
</svg>
